# Blender 4.5.2 LTS
# www.blender.org
mtllib cb_hbox.mtl
o cb_tnt
v -1.000000 2.000000 -1.000000
v 0.999999 0.000000 -1.000000
v 1.000000 2.000000 -1.000001
v 1.000000 2.000000 1.000000
v -1.000000 2.000000 0.999999
v -1.000000 0.000000 -1.000000
v -1.000000 -0.000000 1.000000
v 1.000000 -0.000000 1.000000
vn -0.5774 -0.5774 -0.5774
vn -0.5774 0.5773 0.5773
vn -0.5773 0.5774 -0.5773
vn 0.5773 -0.5774 0.5773
vn 0.5774 -0.5773 -0.5773
vn 0.5774 0.5774 0.5774
vn 0.5773 0.5773 -0.5774
vn -0.5773 -0.5773 0.5774
vt 0.231336 0.740811
vt 0.305147 0.992799
vt 0.231336 0.992799
vt 0.001127 0.747392
vt 0.074467 1.000782
vt 0.001127 1.000782
vt 0.231898 0.990800
vt 0.305801 0.742662
vt 0.305801 0.990800
vt -0.000017 0.988952
vt 0.071381 0.741216
vt 0.071381 0.988952
vt 0.302955 0.996839
vt 0.233422 0.740481
vt 0.302955 0.740481
vt 0.305305 0.743855
vt 0.232725 0.994285
vt 0.232725 0.743855
vt 0.305147 0.740811
vt 0.074467 0.747392
vt 0.231898 0.742662
vt -0.000017 0.741216
vt 0.233422 0.996839
vt 0.305305 0.994285
s 1
g cb_tnt_Boxes
usemtl Boxes
f 6/1/1 5/2/2 1/3/3
f 8/4/4 6/5/1 2/6/5
f 4/7/6 2/8/5 3/9/7
f 1/10/3 4/11/6 3/12/7
f 4/13/6 7/14/8 8/15/4
f 6/16/1 3/17/7 2/18/5
f 6/1/1 7/19/8 5/2/2
f 8/4/4 7/20/8 6/5/1
f 4/7/6 8/21/4 2/8/5
f 1/10/3 5/22/2 4/11/6
f 4/13/6 5/23/2 7/14/8
f 6/16/1 1/24/3 3/17/7
