# Blender 4.5.2 LTS
# www.blender.org
mtllib cb_nitrobox.mtl
o cb_tnt
v -1.000000 2.000000 -1.000000
v 0.999999 0.000000 -1.000000
v 1.000000 2.000000 -1.000001
v 1.000000 2.000000 1.000000
v -1.000000 2.000000 0.999999
v -1.000000 0.000000 -1.000000
v -1.000000 -0.000000 1.000000
v 1.000000 -0.000000 1.000000
vn -0.5774 -0.5774 -0.5774
vn -0.5774 0.5773 0.5773
vn -0.5773 0.5774 -0.5773
vn 0.5773 -0.5774 0.5773
vn 0.5774 -0.5773 -0.5773
vn 0.5774 0.5774 0.5774
vn 0.5773 0.5773 -0.5774
vn -0.5773 -0.5773 0.5774
vt 0.540742 0.468422
vt 0.614553 0.720410
vt 0.540742 0.720410
vt 0.463247 0.468161
vt 0.536587 0.721550
vt 0.463247 0.721550
vt 0.540590 0.718411
vt 0.612681 0.470273
vt 0.612681 0.718411
vt 0.463785 0.718885
vt 0.535183 0.471149
vt 0.535183 0.718885
vt 0.613719 0.723002
vt 0.540455 0.466644
vt 0.613719 0.466644
vt 0.613215 0.470347
vt 0.541512 0.720777
vt 0.541512 0.470347
vt 0.614553 0.468422
vt 0.536587 0.468161
vt 0.540590 0.470273
vt 0.463785 0.471149
vt 0.540455 0.723002
vt 0.613215 0.720777
s 1
g cb_tnt_Boxes
usemtl Boxes
f 6/1/1 5/2/2 1/3/3
f 8/4/4 6/5/1 2/6/5
f 4/7/6 2/8/5 3/9/7
f 1/10/3 4/11/6 3/12/7
f 4/13/6 7/14/8 8/15/4
f 6/16/1 3/17/7 2/18/5
f 6/1/1 7/19/8 5/2/2
f 8/4/4 7/20/8 6/5/1
f 4/7/6 8/21/4 2/8/5
f 1/10/3 5/22/2 4/11/6
f 4/13/6 5/23/2 7/14/8
f 6/16/1 1/24/3 3/17/7
