# Blender 4.4.3
# www.blender.org
mtllib cb_tnt.mtl
g TNT_Malla
v 1.000000 2.000000 1.000000
v -0.999999 -0.000000 1.000000
v -1.000000 2.000000 1.000001
v -1.000000 2.000000 -1.000000
v 1.000000 2.000000 -0.999999
v 1.000000 0.000000 1.000000
v 1.000000 0.000000 -1.000000
v -1.000000 -0.000000 -1.000000
vn 0.5774 -0.5774 0.5774
vn 0.5774 0.5773 -0.5773
vn 0.5773 0.5774 0.5773
vn -0.5773 -0.5774 -0.5773
vn -0.5774 -0.5773 0.5773
vn -0.5774 0.5774 -0.5774
vn -0.5773 0.5773 0.5774
vn 0.5773 -0.5773 -0.5774
vt 0.001726 0.603896
vt 0.198814 0.800906
vt 0.001726 0.800906
vt 0.001726 0.802941
vt 0.198814 0.999951
vt 0.001726 0.999951
vt 0.001726 0.800906
vt 0.198814 0.603896
vt 0.198814 0.800906
vt 0.198814 0.802941
vt 0.001726 0.603896
s 1
g off
g TNT_Boxes
usemtl Boxes
f 6/1/1 5/2/2 1/3/3
f 8/4/4 6/5/1 2/6/5
f 4/7/6 2/8/5 3/9/7
f 1/6/3 4/10/6 3/5/7
f 4/2/6 7/1/8 8/8/4
f 6/8/1 3/3/7 2/1/5
f 6/1/1 7/8/8 5/2/2
f 8/4/4 7/10/8 6/5/1
f 4/7/6 8/11/4 2/8/5
f 1/6/3 5/4/2 4/10/6
f 4/2/6 5/3/2 7/1/8
f 6/8/1 1/2/3 3/3/7
