# Blender 4.4.3
# www.blender.org
mtllib Wumpa.mtl
g Plane.005_Malla
v 1.691579 -0.482909 1.767235
v 2.753707 0.343362 0.239975
v -0.081850 2.174134 0.248972
v 0.517488 2.473919 0.163719
v 0.367619 2.376266 -0.485608
v 1.541854 0.235033 -2.109724
v 1.976405 -1.498971 -0.603698
v -0.049051 -1.530193 -1.870579
v -1.913313 -0.194983 -1.881498
v -1.649451 -1.408034 -1.455786
v -2.115952 -1.113052 0.407032
v -2.628354 0.216955 0.613815
v -0.978377 -0.228299 2.452815
v 0.063877 -2.002172 1.708642
v -1.713569 2.033047 1.275683
v -0.907149 2.463677 -0.075404
v -0.360840 2.184701 -0.110296
v -0.300269 0.776980 -2.603335
v -1.402395 1.852431 -1.650657
v -2.053830 2.213134 -0.226779
v 1.297790 1.977547 -1.434594
v 0.759414 1.751158 2.030620
v 1.702964 2.219231 0.325955
v -0.778770 2.397399 0.491826
v -0.679554 2.323609 -0.568314
v -0.410746 2.224667 -0.005550
v -0.032602 2.203172 -0.084950
v 0.172481 2.286993 0.781664
v 0.008264 2.233365 0.091256
v -0.373382 2.208733 0.160378
v -0.079207 -2.532581 -1.105287
v -0.615320 -2.548729 -0.707473
v -0.824163 -2.555020 -0.040402
v -0.173285 -2.535415 1.076625
v 0.808992 -2.505829 -0.417913
v -1.063755 2.739970 -0.981914
v -1.251356 2.390691 -1.305476
v -1.365000 2.525115 -1.090653
v -1.026904 2.777276 -0.208856
v -0.597186 2.784830 -0.699810
v -0.170823 2.386715 -0.405185
v -0.616864 2.518653 -1.033289
v -0.158270 2.059380 0.063219
v -1.481690 2.429734 -0.220009
v -2.871073 1.450949 -1.634292
v -2.852606 1.436784 -1.643559
v 1.268688 3.117377 0.400644
v 2.329291 2.835203 0.081845
v 1.495512 2.682238 0.655065
v 0.961680 2.848558 -0.584363
v 0.275592 2.450521 0.388686
v -0.355532 2.133183 -0.223995
v 1.576270 2.398489 -1.072024
v 3.203492 1.529728 -1.131952
v 0.401140 2.800777 1.646684
v 0.040970 3.051995 0.987954
v 0.573192 2.680772 1.961357
v 0.503096 2.778722 1.146453
v 0.338928 2.725487 1.823578
v 0.020655 2.905469 1.365012
v -0.263030 2.863797 0.950523
v -0.349852 2.601902 0.357283
v -0.183905 2.147376 -0.031500
v 0.372319 2.859188 0.668288
v -0.064105 2.166637 -0.137093
v -0.064105 2.166637 0.048623
v -0.013235 3.141601 -0.191821
v -0.249821 2.166637 -0.137093
v -0.249821 2.166637 0.048623
v -0.306681 2.935646 -0.246062
v -0.398719 2.975003 0.102435
v -0.105273 3.180957 0.156675
vn 0.6437 -0.6996 0.3100
vn 0.6451 -0.6983 0.3101
vn 0.6424 -0.7009 0.3099
vn 0.7951 -0.5501 0.2553
vn 0.7951 -0.5500 0.2554
vn 0.2157 -0.2673 0.9392
vn 0.8376 0.4810 -0.2588
vn -0.9227 -0.3226 -0.2111
vn -0.9205 -0.3271 -0.2136
vn -0.9207 -0.3286 -0.2107
vn -0.5788 -0.5804 0.5728
vn -0.2278 0.3903 0.8921
vn -0.8986 0.3626 0.2470
vn -0.9441 0.1475 -0.2949
vn -0.0241 0.9302 -0.3664
vn -0.5059 0.2203 -0.8340
vn -0.0450 0.9934 0.1055
vn 0.0036 0.9355 0.3534
vn 0.4405 -0.8851 0.1505
vn 0.4102 -0.9010 0.1411
vn 0.4272 -0.8867 0.1768
vn 0.2128 0.5213 -0.8264
vn 0.1530 0.5772 -0.8021
vn 0.0273 0.6784 -0.7342
vn 0.2477 -0.0109 0.9688
vn 0.7523 0.3973 0.5255
vn 0.7354 0.2318 0.6368
vn 0.8610 -0.2688 -0.4317
vn 0.8444 0.2922 -0.4490
vn 0.5087 -0.5484 -0.6637
vn 0.1703 -0.2814 -0.9444
vn -0.2216 -0.3170 -0.9222
vn -0.3763 -0.5008 -0.7795
vn -0.3451 -0.5229 -0.7794
vn -0.3597 -0.5135 -0.7790
vn -0.9190 -0.3324 -0.2122
vn -0.7340 -0.3712 0.5687
vn -0.7248 0.1177 0.6788
vn -0.8502 0.2635 -0.4557
vn 0.0196 0.9847 -0.1733
vn -0.1547 0.9346 -0.3203
vn -0.1538 0.9361 -0.3162
vn -0.1583 0.9282 -0.3369
vn -0.0119 0.9186 -0.3949
vn -0.0128 0.9191 -0.3938
vn -0.0155 0.9205 -0.3904
vn 0.1435 0.9280 0.3439
vn 0.1434 0.9281 0.3436
vn 0.1483 0.9206 0.3613
vn 0.2268 0.9556 -0.1883
vn 0.2264 0.9558 -0.1876
vn 0.2237 0.9573 -0.1829
vn -0.0179 0.9154 0.4022
vn -0.0177 0.9151 0.4028
vn -0.0182 0.9157 0.4014
vn -0.2322 0.9584 0.1662
vn -0.2324 0.9583 0.1666
vn -0.2329 0.9580 0.1676
vn 0.4488 0.8895 -0.0855
vn 0.4512 0.8906 -0.0570
vn 0.4447 0.8867 -0.1264
vn -0.0750 0.9394 0.3344
vn -0.0755 0.9392 0.3350
vn -0.0789 0.9374 0.3392
vn -0.4412 0.8961 0.0493
vn -0.4428 0.8958 0.0372
vn -0.4356 0.8959 0.0875
vn -0.4242 0.9044 -0.0464
vn -0.4260 0.9038 -0.0417
vn -0.4277 0.9031 -0.0371
vn 0.1981 0.9358 -0.2917
vn 0.1982 0.9358 -0.2915
vn 0.1977 0.9356 -0.2926
vn 0.4314 0.9022 -0.0010
vn 0.4294 0.9031 0.0045
vn 0.4278 0.9038 0.0088
vn -0.4960 -0.8269 0.2648
vn -0.5345 -0.7792 0.3274
vn -0.6085 -0.7153 0.3437
vn -0.5922 -0.8001 -0.0959
vn -0.5623 -0.8172 -0.1268
vn -0.6201 -0.7815 -0.0687
vn 0.4232 -0.7569 -0.4980
vn 0.4068 -0.7679 -0.4948
vn 0.4877 -0.7066 -0.5127
vn -0.2884 -0.8030 -0.5215
vn -0.3265 -0.7828 -0.5297
vn -0.1964 -0.8310 -0.5205
vn 0.0301 -0.9995 -0.0000
vn -0.0555 0.9249 -0.3761
vn 0.4420 0.6495 -0.6187
vn -0.1670 0.7425 -0.6488
vn -0.1267 0.9393 -0.3189
vn -0.5893 0.8079 0.0057
vn -0.1228 0.9741 0.1899
vn 0.3139 0.9369 0.1542
vn 0.5567 0.7909 0.2541
vn -0.1897 0.6412 -0.7435
vn -0.0705 0.5280 -0.8463
vn 0.0483 0.9803 -0.1915
vn 0.0113 0.8369 -0.5472
vn 0.4121 0.8388 -0.3558
vn -0.0471 0.9053 0.4222
vn 0.0292 0.5210 0.8530
vn -0.4514 0.8802 0.1464
vn 0.0123 0.6245 -0.7809
vn 0.7118 0.6324 -0.3056
vn 0.3629 0.9306 -0.0482
vn -0.0799 0.9826 -0.1677
vn 0.4967 0.8667 0.0460
vn 0.2101 0.8828 -0.4201
vn 0.5523 0.8337 -0.0000
vn 0.8416 0.4488 -0.3004
vn -0.5232 0.8516 -0.0322
vn -0.0399 0.7783 -0.6266
vn 0.0667 0.6907 -0.7201
vn -0.0000 -1.0000 -0.0000
vn 0.9742 0.0048 0.2257
vn 0.9978 -0.0386 0.0544
vn 0.9986 -0.0521 -0.0000
vn 0.2018 -0.0747 -0.9766
vn 0.0507 -0.1244 -0.9909
vn -0.0000 -0.1403 -0.9901
vn -0.9932 -0.0978 -0.0636
vn -0.9679 -0.1490 -0.2021
vn -0.9973 -0.0737 -0.0000
vn -0.5297 0.8158 -0.2320
vn -0.0244 -0.0765 0.9968
vn -0.0948 -0.1051 0.9899
vn -0.0000 -0.0664 0.9978
vn 0.4718 -0.8637 0.1774
vn 0.3422 0.3808 -0.8590
vn -0.1519 0.9394 -0.3075
vn -0.0108 0.9180 -0.3963
vn 0.1407 0.9321 0.3338
vn 0.2316 0.9527 -0.1967
vn -0.0171 0.9143 0.4046
vn -0.2312 0.9589 0.1644
vn 0.4521 0.8909 -0.0444
vn -0.0736 0.9402 0.3327
vn -0.4447 0.8954 0.0226
vn -0.4197 0.9058 -0.0579
vn 0.1991 0.9363 -0.2895
vn 0.4351 0.9003 -0.0115
vn -0.4649 -0.8761 0.1278
vn -0.5023 -0.8445 -0.1860
vn 0.3736 -0.7846 -0.4948
vn -0.4871 -0.6913 -0.5338
vn 0.4560 0.7684 0.4490
vn -0.4710 0.8817 0.0285
vn 0.9671 0.0122 0.2540
vn 0.2262 -0.0664 -0.9718
vn -0.9586 -0.1609 -0.2350
vn -0.1058 -0.1096 0.9883
vt 0.445323 0.089631
vt 0.538651 0.278137
vt 0.456414 0.390020
vt 0.584106 0.082278
vt 0.654006 0.476648
vt 0.794386 0.000000
vt 0.794386 0.114743
vt 0.222113 0.405815
vt 0.020154 0.374087
vt 0.151988 0.283984
vt 0.271660 0.046859
vt 0.392964 0.225860
vt 0.212230 0.529243
vt 0.000000 0.666877
vt 0.006548 0.515671
vt 0.392964 0.451788
vt 0.271856 0.515672
vt 0.463372 0.511597
vt 0.680198 0.476648
vt 0.586335 0.603006
vt 0.194767 0.755190
vt 0.163939 0.765822
vt 0.157311 0.757468
vt 0.749590 0.555931
vt 0.756408 0.705085
vt 0.156634 0.740553
vt 0.194890 0.737618
vt 0.181641 0.724354
vt 0.392964 0.186730
vt 0.418424 0.361677
vt 0.765601 0.663405
vt 0.965726 0.775641
vt 0.856894 0.913410
vt 0.777011 0.312049
vt 0.756408 0.476648
vt 0.965726 0.491903
vt 0.931369 0.585783
vt 0.551326 0.827327
vt 0.756408 0.890163
vt 0.561995 1.000000
vt 0.481209 0.678768
vt 0.000000 0.265870
vt 0.383121 0.232012
vt 0.146820 0.818866
vt 0.006505 0.820408
vt 0.115577 0.778938
vt 0.245030 0.784714
vt 0.096866 0.936292
vt 0.194758 0.668086
vt 0.349874 0.671846
vt 0.245203 0.719858
vt 0.349874 0.847869
vt 0.113140 0.720992
vt 0.187151 0.039266
vt 0.078322 0.104345
vt 0.433038 0.940982
vt 0.434150 0.866364
vt 0.392965 0.818125
vt 0.095533 0.000000
vt 0.030740 0.102472
vt 0.014356 0.073296
vt 0.495113 0.235639
vt 0.581567 0.178929
vt 0.554254 0.319151
vt 0.499920 0.305452
vt 0.939172 0.053917
vt 0.850648 0.150777
vt 0.868946 0.034193
vt 0.409525 0.131863
vt 0.512583 0.124152
vt 0.581567 0.034193
vt 0.922332 0.583942
vt 0.861776 0.734913
vt 0.850648 0.600569
vt 0.939172 0.130864
vt 0.939172 0.515556
vt 0.528964 0.653223
vt 0.244690 0.573875
vt 0.053136 0.325332
vt 0.336523 0.413465
vt 0.693523 0.948723
vt 0.649953 0.762983
vt 0.756883 0.802558
vt 0.756883 0.540590
vt 0.167548 0.684937
vt 0.034193 0.553279
vt 0.341139 0.034193
vt 0.453414 0.803116
vt 0.444667 0.900183
vt 0.409525 0.762808
vt 0.681760 0.207229
vt 0.782262 0.162272
vt 0.773685 0.243915
vt 0.739049 0.090130
vt 0.766416 0.034193
vt 0.471813 0.910650
vt 0.461454 0.965807
vt 0.471813 0.722871
vt 0.689170 0.385360
vt 0.649953 0.258970
vt 0.782262 0.472204
vt 0.125000 0.500000
vt 0.375000 0.750000
vt 0.125000 0.750000
vt 0.625000 0.000000
vt 0.375000 0.250000
vt 0.375000 0.000000
vt 0.625000 0.750000
vt 0.375000 1.000000
vt 0.375000 0.500000
vt 0.625000 0.500000
vt 0.875000 0.750000
vt 0.922331 0.816878
vt 0.523953 0.654486
vt 0.341139 0.768220
vt 0.625000 0.250000
vt 0.625000 1.000000
vt 0.875000 0.500000
s 1
g off
g Plane.005_Fruit
usemtl Fruit
f 7/1/1 1/2/2 14/3/3
s 2
f 2/4/4 1/2/4 7/1/5
s 3
f 13/5/6 14/3/6 1/2/6
s 4
f 2/4/7 21/6/7 23/7/7
s 5
f 12/8/8 9/9/9 11/10/10
s 6
f 11/10/11 14/11/11 13/12/11
s 7
f 22/13/12 15/14/12 13/15/12
s 8
f 12/8/13 15/16/13 20/17/13
s 9
f 12/18/14 20/19/14 9/20/14
s 10
f 27/21/15 17/22/15 26/23/15
s 11
f 9/20/16 19/24/16 18/25/16
s 12
f 30/26/17 29/27/17 26/23/17
s 13
f 30/26/18 3/28/18 29/27/18
s 14
f 35/29/19 14/3/20 34/30/21
s 15
f 21/31/22 18/32/23 19/33/24
s 16
f 13/5/25 1/2/25 22/34/25
s 17
f 2/4/26 23/7/26 22/34/26
s 18
f 2/4/27 22/34/27 1/2/27
s 19
f 2/35/28 7/36/28 6/37/28
s 20
f 2/35/29 6/37/29 21/31/29
s 21
f 8/38/30 6/39/30 7/40/30
s 22
f 18/25/31 6/39/31 8/38/31
s 23
f 18/25/32 8/38/32 9/20/32
s 24
f 9/20/33 8/38/34 10/41/35
s 5
f 11/10/10 9/9/9 10/42/36
s 25
f 12/8/37 11/10/37 13/12/37
s 26
f 12/8/38 13/43/38 15/16/38
s 27
f 9/20/39 20/19/39 19/24/39
s 28
f 26/23/40 29/27/40 27/21/40
s 29
f 25/44/41 20/45/42 16/46/43
s 30
f 5/47/44 19/48/45 25/44/46
s 31
f 28/49/47 23/50/48 4/51/49
s 32
f 5/47/50 23/50/51 21/52/52
s 33
f 28/49/53 15/14/54 22/13/55
s 34
f 24/53/56 20/45/57 15/14/58
s 35
f 17/22/59 16/46/60 26/23/61
s 36
f 27/21/62 25/44/63 17/22/64
s 37
f 3/28/65 4/51/66 29/27/67
s 38
f 27/21/68 4/51/69 5/47/70
s 39
f 3/28/71 24/53/72 28/49/73
s 40
f 30/26/74 16/46/75 24/53/76
s 41
f 11/10/77 34/54/78 14/11/79
s 42
f 10/42/80 33/55/81 11/10/82
s 43
f 8/38/83 35/56/84 31/57/85
s 44
f 8/38/86 32/58/87 10/41/88
s 45
f 35/59/89 34/54/89 33/55/89
f 32/60/89 35/59/89 33/55/89
f 32/60/89 31/61/89 35/59/89
s 14
f 35/29/19 7/1/131 14/3/20
s 15
f 21/31/22 6/37/132 18/32/23
s 29
f 25/44/41 19/48/133 20/45/42
s 30
f 5/47/44 21/52/134 19/48/45
s 31
f 28/49/47 22/13/135 23/50/48
s 32
f 5/47/50 4/51/136 23/50/51
s 33
f 28/49/53 24/53/137 15/14/54
s 34
f 24/53/56 16/46/138 20/45/57
s 35
f 17/22/59 25/44/139 16/46/60
s 36
f 27/21/62 5/47/140 25/44/63
s 37
f 3/28/65 28/49/141 4/51/66
s 38
f 27/21/68 29/27/142 4/51/69
s 39
f 3/28/71 30/26/143 24/53/72
s 40
f 30/26/74 26/23/144 16/46/75
s 41
f 11/10/77 33/55/145 34/54/78
s 42
f 10/42/80 32/60/146 33/55/81
s 43
f 8/38/83 7/40/147 35/56/84
s 44
f 8/38/86 31/57/148 32/58/87
s 46
g Plane.005_Leaf
usemtl Leaf
f 36/62/90 42/63/91 37/64/92
f 36/62/90 37/64/92 38/65/93
f 36/66/90 44/67/94 39/68/95
f 36/62/90 39/69/95 40/70/96
f 40/70/96 41/71/97 42/63/91
f 39/72/95 41/73/97 40/74/96
f 38/75/93 45/76/98 44/67/94
f 46/77/99 38/65/93 37/64/92
s 47
f 50/78/100 48/79/101 53/80/102
f 48/81/101 47/82/103 49/83/104
f 47/82/103 51/84/105 49/83/104
f 50/78/100 51/85/105 47/86/103
f 54/87/106 53/80/102 48/79/101
s 48
f 60/88/107 55/89/108 56/90/109
f 56/91/109 58/92/110 64/93/111
f 55/94/108 57/95/112 58/92/110
f 55/89/108 59/96/113 57/97/112
f 60/88/107 56/90/109 61/98/114
f 56/91/109 62/99/115 61/100/114
f 56/91/109 64/93/111 62/99/115
f 64/93/111 63/101/116 62/99/115
s 46
f 36/62/90 40/70/96 42/63/91
f 36/66/90 38/75/93 44/67/94
f 39/72/95 43/113/149 41/73/97
f 46/77/99 45/114/98 38/65/93
s 47
f 50/78/100 47/86/103 48/79/101
f 50/78/100 52/115/150 51/85/105
s 48
f 60/88/107 59/96/113 55/89/108
f 56/91/109 55/94/108 58/92/110
s 49
g Plane.005_Brown
usemtl Brown
f 66/102/117 68/103/117 65/104/117
s 50
f 67/105/118 66/106/119 65/107/120
s 51
f 70/108/121 65/109/122 68/103/123
s 52
f 69/110/124 70/108/125 68/103/126
s 53
f 71/111/127 67/112/127 70/108/127
s 54
f 66/106/128 71/111/129 69/110/130
s 49
f 66/102/117 69/110/117 68/103/117
s 50
f 67/105/118 72/116/151 66/106/119
s 51
f 70/108/121 67/117/152 65/109/122
s 52
f 69/110/124 71/111/153 70/108/125
s 53
f 71/111/127 72/118/127 67/112/127
s 54
f 66/106/128 72/116/154 71/111/129
