# Blender 4.4.3
# www.blender.org
mtllib es_aguila_ala_der.mtl
g Object_60.002_Malla
v -1.479714 -3.523197 -14.196834
v 3.066178 -1.783343 -14.244764
v 1.652644 -2.599147 -10.491943
v 4.556481 -0.405824 -9.371522
v 2.882482 0.765117 -3.801220
v 12.115193 -2.151563 -14.368735
v 29.254978 0.914287 -19.370644
v 16.437325 1.000126 6.367910
v 3.507586 3.993371 1.892001
v 19.330318 -4.370084 -18.671406
v 27.092937 -2.413710 -24.644913
v 33.647831 5.857018 8.261928
v -1.382728 1.957045 -16.431923
v 0.696801 -2.074158 -17.642708
v -2.780260 -0.336149 -16.855644
v 1.666578 4.387891 -13.759485
v 11.067464 -0.727695 -20.255646
v 17.985996 -2.463399 -22.250423
v 29.241692 1.032955 -19.348751
v 28.947300 2.824127 -27.919216
v 3.475837 4.101216 1.790833
v 58.362698 10.601118 -30.694061
v 62.799381 6.013999 -38.449680
v 57.488659 7.683300 -40.118191
v 71.918877 0.588801 -31.520538
v 60.920506 3.009174 -36.406437
v 60.980839 4.449037 -39.813511
v 61.072971 3.691185 -39.465137
v 60.712673 5.967162 -36.035530
v 0.072140 -0.185354 15.527712
v 53.619869 8.911562 -39.945095
v 49.003490 9.572760 -37.400173
v 63.068661 8.654209 2.172819
v 72.863106 8.631474 -29.166798
v 90.620903 4.638685 -5.990095
v 99.376472 0.956269 -7.231498
v 91.282249 -0.898009 -16.396721
v 51.327808 6.989849 -38.266880
v 58.321377 10.545246 -30.662834
v 46.482182 6.690492 -37.071209
v 55.759609 7.294885 -38.175884
v 72.746758 8.634092 -28.951660
v 63.068661 8.654209 2.172819
v 90.620903 4.638685 -5.990095
v 83.981056 -1.156928 -22.731182
v 91.282249 -0.898009 -16.396721
v 99.376472 0.956269 -7.231498
v 0.072140 -0.185354 15.527712
v 16.437325 1.000126 6.367910
v 33.647831 5.857018 8.261928
v -2.778452 -2.951052 -15.743234
v 0.798635 -3.541522 -15.792602
v 9.409348 -6.103427 -18.562962
v 9.965175 -5.101691 -15.931026
v 14.603726 -5.965987 -20.852329
v 15.498378 -5.941084 -18.998554
v 21.982288 -2.198864 -26.266716
v 23.827049 -3.185127 -25.266960
v 44.793972 8.943119 -39.148991
v 44.919567 7.631027 -38.372879
v 49.942829 8.030281 -40.958794
v 49.996700 7.107500 -39.819820
v 54.985500 6.639139 -40.403561
v 55.021984 6.540597 -41.065487
v 55.137569 5.914302 -41.234310
v 50.923237 7.675382 -41.418919
v 45.569508 9.166586 -40.665043
v 21.808064 -1.683644 -26.061756
v 14.954455 -4.826547 -22.686680
v 8.975718 -5.286592 -20.242702
vn 0.3208 -0.8349 -0.4473
vn 0.0335 -0.8973 0.4401
vn 0.6473 -0.7612 -0.0409
vn 0.1540 -0.9489 0.2754
vn 0.6320 -0.7590 0.1563
vn 0.2959 -0.7218 0.6257
vn 0.3764 -0.8804 0.2884
vn 0.0364 -0.0649 0.9972
vn 0.4371 -0.8992 0.0172
vn 0.3628 -0.7888 0.4961
vn 0.3439 -0.9384 0.0346
vn 0.2264 -0.0238 0.9737
vn -0.0163 0.4940 -0.8693
vn -0.2893 -0.2516 -0.9236
vn -0.2364 0.0372 -0.9710
vn 0.4649 0.7900 -0.3997
vn -0.1763 0.6394 -0.7484
vn -0.3107 0.7600 -0.5708
vn -0.2602 0.9650 -0.0340
vn -0.4436 0.8922 -0.0841
vn 0.4639 0.8795 0.1060
vn 0.0330 0.9939 -0.1054
vn 0.4765 0.4453 -0.7580
vn 0.3160 0.6154 -0.7221
vn 0.5632 -0.8026 0.1967
vn -0.4666 -0.8152 0.3432
vn -0.4768 -0.5510 0.6849
vn 0.1064 0.9943 -0.0006
vn -0.4534 -0.4948 0.7414
vn 0.8101 0.3681 -0.4563
vn 0.1245 0.8190 -0.5601
vn -0.0808 0.9958 -0.0422
vn 0.3850 -0.0146 0.9228
vn 0.4627 0.7494 -0.4735
vn 0.2408 0.0699 0.9681
vn 0.6318 -0.5112 0.5826
vn 0.3732 -0.9104 -0.1783
vn 0.0795 -0.9918 0.1000
vn -0.0038 -0.9745 0.2246
vn 0.1026 -0.9612 -0.2560
vn -0.1979 -0.9048 0.3770
vn -0.4214 -0.7479 0.5129
vn 0.3850 -0.0209 0.9227
vn 0.2386 0.0625 0.9691
vn 0.1566 -0.9694 -0.1891
vn 0.3733 -0.9104 -0.1783
vn 0.6398 -0.5032 0.5810
vn 0.8103 0.3669 -0.4570
vn 0.0379 -0.0504 0.9980
vn 0.2232 -0.0122 0.9747
vn -0.0359 -0.6412 -0.7665
vn -0.3056 -0.9363 0.1733
vn -0.1624 -0.9839 -0.0745
vn 0.0862 -0.8203 0.5655
vn 0.0409 -0.9286 -0.3688
vn 0.2384 -0.9300 0.2799
vn -0.3084 -0.4581 -0.8337
vn 0.0988 -0.9213 -0.3761
vn 0.0631 -0.8874 -0.4567
vn -0.1889 -0.6623 -0.7250
vn -0.2660 -0.9495 -0.1663
vn -0.1358 -0.9055 -0.4020
vn -0.2760 -0.9414 0.1938
vn -0.3212 -0.6949 0.6434
vn -0.8340 0.5518 0.0034
vn -0.4424 -0.2520 -0.8607
vn -0.6762 0.2494 -0.6933
vn -0.5912 0.3996 -0.7005
vn -0.2148 -0.3368 -0.9167
vn -0.3441 -0.5335 -0.7726
vt 0.656007 0.996035
vt 0.670872 0.937795
vt 0.692578 0.967889
vt 0.719554 0.932252
vt 0.767484 0.961011
vt 0.727271 0.860234
vt 0.845223 0.772142
vt 0.942874 0.911723
vt 0.844715 0.959159
vt 0.728528 0.796619
vt 0.726540 0.750372
vt 0.966893 0.736182
vt 0.609095 0.953309
vt 0.628807 0.931629
vt 0.628224 0.979521
vt 0.554455 0.954898
vt 0.563698 0.858215
vt 0.563284 0.801077
vt 0.439774 0.774915
vt 0.567942 0.747415
vt 0.447264 0.956808
vt 0.465755 0.539044
vt 0.614050 0.487769
vt 0.607186 0.537445
vt 0.645166 0.383071
vt 0.655701 0.486363
vt 0.647999 0.494527
vt 0.642864 0.496498
vt 0.677825 0.493318
vt 0.929390 0.986533
vt 0.603454 0.572197
vt 0.594175 0.611337
vt 0.318717 0.507842
vt 0.575613 0.381305
vt 0.391283 0.237752
vt 0.646708 0.075451
vt 0.646255 0.171957
vt 0.686663 0.581374
vt 0.823398 0.536283
vt 0.692446 0.622403
vt 0.681735 0.543490
vt 0.714152 0.380450
vt 0.970375 0.506683
vt 0.901504 0.236076
vt 0.645997 0.255680
vt 0.646255 0.171957
vt 0.643956 0.075161
vt 0.357201 0.982820
vt 0.339266 0.911880
vt 0.319303 0.739601
vt 0.639209 0.984429
vt 0.645278 0.932837
vt 0.649007 0.849861
vt 0.681806 0.856341
vt 0.651775 0.809141
vt 0.683834 0.809265
vt 0.648254 0.768107
vt 0.681607 0.759998
vt 0.652674 0.639378
vt 0.669206 0.635879
vt 0.649630 0.590973
vt 0.663634 0.588692
vt 0.656205 0.547900
vt 0.647723 0.549404
vt 0.640928 0.549717
vt 0.640225 0.585910
vt 0.633118 0.634984
vt 0.620144 0.768719
vt 0.620232 0.806559
vt 0.621966 0.851878
s 1
g EAGLE_ R UpperArm_010_17
g Object_60.002_M_Eagle
usemtl M_Eagle
f 1/1/1 2/2/2 3/3/3
f 4/4/4 3/3/3 2/2/2
f 4/4/4 5/5/5 3/3/3
f 6/6/6 5/5/5 4/4/4
g Eagle_WingRightFeathers4_00_23
f 7/7/7 8/8/8 9/9/9
g EAGLE_ R UpperArm_010_17
f 7/7/7 6/6/6 10/10/10
f 11/11/11 7/7/7 10/10/10
g Eagle_WingRightFeathers3_015_22
f 7/7/7 12/12/12 8/8/8
g EAGLE_ R UpperArm_010_17
f 13/13/13 14/14/14 15/15/15
f 13/13/13 16/16/16 17/17/17
f 18/18/18 19/19/19 20/20/20
f 17/17/17 19/19/19 18/18/18
f 19/19/19 17/17/17 21/21/21
g EAGLE_ R Hand_012_19
f 22/22/22 23/23/23 24/24/24
f 25/25/25 26/26/26 27/27/27
f 25/25/25 27/27/27 28/28/28
f 23/23/23 25/25/25 28/28/28
f 25/25/25 29/29/29 26/26/26
g Eagle_WingRightFeathers4_00_23
f 8/8/8 30/30/30 9/9/9
g EAGLE_ R Hand_012_19
f 31/31/31 22/22/22 24/24/24
g EAGLE_ R Forearm_011_18
f 32/32/32 22/22/22 31/31/31
g EAGLE_ R Hand_012_19
f 33/33/33 34/34/34 22/22/22
f 35/35/35 34/34/34 33/33/33
f 34/34/34 25/25/25 23/23/23
f 34/34/34 23/23/23 22/22/22
f 34/34/34 36/36/36 37/37/37
f 36/36/36 34/34/34 35/35/35
g EAGLE_ R Forearm_011_18
f 38/38/38 39/39/39 40/40/40
g EAGLE_ R Hand_012_19
f 29/29/29 39/39/39 41/41/41
g EAGLE_ R Forearm_011_18
f 41/41/41 39/39/39 38/38/38
g EAGLE_ R Hand_012_19
f 42/42/42 43/43/43 39/39/39
f 42/42/42 39/39/39 29/29/29
f 25/25/25 42/42/42 29/29/29
f 44/44/44 43/43/43 42/42/42
f 37/37/37 45/45/45 34/34/34
f 34/34/34 45/45/45 25/25/25
f 25/25/25 45/45/45 42/42/42
f 46/46/46 42/42/42 45/45/45
f 47/47/47 44/44/44 42/42/42
f 47/47/47 42/42/42 46/46/46
g EAGLE_ R UpperArm_010_17
f 16/16/16 21/21/21 17/17/17
g Eagle_WingRightFeathers4_00_23
f 21/21/21 48/48/48 49/49/49
g Eagle_WingRightFeathers3_015_22
f 49/49/49 50/50/50 19/19/19
g Eagle_WingRightFeathers4_00_23
f 21/21/21 49/49/49 19/19/19
g EAGLE_ R UpperArm_010_17
f 51/51/51 52/52/52 2/2/2
f 51/51/51 2/2/2 1/1/1
f 15/15/15 14/14/14 52/52/52
f 15/15/15 52/52/52 51/51/51
f 52/52/52 53/53/53 54/54/54
f 52/52/52 54/54/54 2/2/2
f 53/53/53 55/55/55 56/56/56
f 53/53/53 56/56/56 54/54/54
f 57/57/57 58/58/58 56/56/56
f 57/57/57 56/56/56 55/55/55
g EAGLE_ R Forearm_011_18
f 59/59/59 60/60/60 58/58/58
f 59/59/59 58/58/58 57/57/57
f 59/59/59 61/61/61 62/62/62
f 59/59/59 62/62/62 60/60/60
g EAGLE_ R UpperArm_010_17
f 54/54/54 6/6/6 4/4/4
f 54/54/54 4/4/4 2/2/2
f 56/56/56 10/10/10 6/6/6
f 56/56/56 6/6/6 54/54/54
g EAGLE_ R Forearm_011_18
f 58/58/58 60/60/60 40/40/40
f 58/58/58 40/40/40 11/11/11
f 62/62/62 38/38/38 40/40/40
f 62/62/62 40/40/40 60/60/60
f 62/62/62 63/63/63 41/41/41
f 62/62/62 41/41/41 38/38/38
f 61/61/61 64/64/64 63/63/63
f 61/61/61 63/63/63 62/62/62
g EAGLE_ R Hand_012_19
f 27/27/27 26/26/26 63/63/63
f 27/27/27 63/63/63 64/64/64
f 63/63/63 26/26/26 29/29/29
f 63/63/63 29/29/29 41/41/41
f 64/64/64 65/65/65 28/28/28
f 64/64/64 28/28/28 27/27/27
f 66/66/66 65/65/65 64/64/64
f 66/66/66 64/64/64 61/61/61
g EAGLE_ R Forearm_011_18
f 67/67/67 66/66/66 61/61/61
f 67/67/67 61/61/61 59/59/59
f 57/57/57 68/68/68 67/67/67
f 57/57/57 67/67/67 59/59/59
g EAGLE_ R UpperArm_010_17
f 69/69/69 68/68/68 57/57/57
f 69/69/69 57/57/57 55/55/55
f 53/53/53 70/70/70 69/69/69
f 53/53/53 69/69/69 55/55/55
f 14/14/14 70/70/70 53/53/53
f 14/14/14 53/53/53 52/52/52
f 58/58/58 11/11/11 10/10/10
f 58/58/58 10/10/10 56/56/56
g EAGLE_ R Hand_012_19
f 65/65/65 66/66/66 31/31/31
f 65/65/65 31/31/31 24/24/24
g EAGLE_ R Forearm_011_18
f 66/66/66 67/67/67 32/32/32
g EAGLE_ R Hand_012_19
f 66/66/66 32/32/32 31/31/31
g EAGLE_ R Forearm_011_18
f 67/67/67 68/68/68 20/20/20
f 67/67/67 20/20/20 32/32/32
g EAGLE_ R UpperArm_010_17
f 13/13/13 17/17/17 70/70/70
f 13/13/13 70/70/70 14/14/14
f 68/68/68 69/69/69 18/18/18
f 68/68/68 18/18/18 20/20/20
f 17/17/17 18/18/18 69/69/69
f 17/17/17 69/69/69 70/70/70
g EAGLE_ R Forearm_011_18
f 20/20/20 19/19/19 22/22/22
f 20/20/20 22/22/22 32/32/32
g EAGLE_ R Hand_012_19
f 24/24/24 23/23/23 28/28/28
f 24/24/24 28/28/28 65/65/65
g Eagle_WingRightFeathers2_013_20
f 50/50/50 33/33/33 22/22/22
g EAGLE_ R Forearm_011_18
f 50/50/50 22/22/22 19/19/19
f 11/11/11 40/40/40 39/39/39
f 11/11/11 39/39/39 7/7/7
g Eagle_WingRightFeathers2_013_20
f 39/39/39 43/43/43 12/12/12
g EAGLE_ R Forearm_011_18
f 39/39/39 12/12/12 7/7/7
g EAGLE_ R UpperArm_010_17
f 9/9/9 5/5/5 6/6/6
f 9/9/9 6/6/6 7/7/7
