# Blender 4.4.3
# www.blender.org
mtllib es_aguila_ala_izq.mtl
g Object_60.001_Malla
v 2.830577 -2.978065 -15.567950
v -0.044943 -3.459326 -9.836228
v -3.023298 -1.611113 -12.645504
v -1.687265 -2.663506 -6.995388
v 0.753622 -1.747719 -0.783487
v -10.148345 -2.962902 -7.614183
v -32.099915 2.254904 -4.421341
v -19.351191 -2.820435 -9.428018
v -28.271944 0.405854 -14.455235
v -11.834495 -5.115953 8.841957
v -33.121063 4.153223 8.837482
v 0.867331 3.631060 -14.350636
v 3.079997 1.937188 -17.077778
v -2.507267 0.306783 -16.295704
v -11.719447 1.931875 -11.168148
v -0.205621 3.662528 -8.781623
v 0.529684 1.526793 7.535360
v -32.233185 2.398881 -4.376602
v -20.321886 1.351763 -11.981059
v -32.328827 4.993689 -19.424702
v -52.969902 4.101858 -29.593197
v -57.382431 4.338922 -40.387104
v -64.359245 4.040285 -38.193272
v -76.140930 1.010674 -30.771000
v -56.934174 -0.478640 -42.267429
v -63.790764 0.127130 -37.323696
v -61.531967 0.685903 -41.118771
v -61.247635 2.053150 -36.204571
v 0.494083 1.388218 7.612877
v 3.490969 -2.114531 19.295086
v -52.172829 4.823385 -40.215717
v -46.470413 5.365537 -36.672855
v -72.285759 15.156555 -3.599761
v -73.893044 7.567612 -25.510715
v -80.479057 7.562029 -5.621065
v -93.732651 1.475933 -12.775065
v -99.611557 2.488021 -1.941315
v -45.221909 1.790040 -37.451801
v -40.943001 2.885628 -33.993179
v -52.862762 4.010676 -29.518585
v -49.788345 1.438148 -38.828617
v -73.754898 7.437264 -25.330669
v -72.285759 15.156555 -3.599761
v -80.479057 7.562029 -5.621065
v -87.692291 0.995232 -20.310513
v -93.732651 1.475933 -12.775065
v -99.611557 2.488021 -1.941315
v -33.121063 4.153223 8.837482
v -11.834495 -5.115953 8.841957
v 3.490969 -2.114531 19.295086
v 3.055987 -1.069837 -17.479794
v -1.866794 -2.167247 -15.816524
v -9.861745 -4.083661 -11.687561
v -10.968940 -3.224514 -14.552205
v -16.420023 -3.555326 -12.515595
v -16.722227 -2.396569 -15.005349
v -24.552553 1.763515 -18.815704
v -25.316111 0.263333 -16.846752
v -39.822594 5.747352 -35.964596
v -40.045029 4.309617 -35.118847
v -44.419159 2.433706 -39.119602
v -45.271225 3.450101 -40.752285
v -50.448013 1.256551 -41.477337
v -51.606567 1.544075 -42.471516
v -54.363213 1.999492 -42.681839
v -49.415268 3.509437 -42.043575
v -45.040665 5.358444 -39.689323
v -25.365435 2.784601 -18.287834
v -18.121363 -0.262971 -15.948569
v -11.256207 -1.441125 -15.370851
vn -0.4589 -0.6769 -0.5756
vn -0.5785 -0.7829 -0.2288
vn 0.1055 -0.9941 -0.0236
vn -0.0258 -0.9988 0.0404
vn -0.0897 -0.9436 0.3187
vn -0.5337 -0.8120 0.2361
vn -0.2765 -0.9565 0.0927
vn -0.2134 -0.9508 0.2248
vn -0.2030 -0.9786 -0.0324
vn -0.2371 -0.4621 0.8546
vn -0.2524 0.0864 0.9638
vn -0.3404 0.8531 -0.3954
vn -0.2637 0.4885 -0.8318
vn -0.1989 0.3584 -0.9121
vn -0.0544 0.9510 -0.3044
vn -0.4195 0.9072 0.0333
vn -0.5708 0.7501 0.3339
vn 0.1838 0.9830 0.0038
vn 0.1186 0.9800 -0.1598
vn 0.1368 0.9906 0.0064
vn 0.0433 0.9979 -0.0473
vn -0.1549 0.8558 -0.4936
vn -0.3144 0.7331 -0.6031
vn -0.8608 -0.5088 0.0159
vn 0.0045 -0.7355 -0.6775
vn 0.1296 -0.9207 0.3682
vn -0.4186 -0.2460 -0.8742
vn 0.1321 -0.8484 0.5126
vn -0.2844 -0.9523 -0.1105
vn -0.8513 0.1470 -0.5037
vn -0.0601 0.9345 -0.3510
vn -0.0873 0.9962 0.0049
vn -0.3858 0.0234 0.9223
vn -0.2831 0.8688 -0.4063
vn -0.1890 0.3676 0.9106
vn -0.7409 -0.5553 -0.3778
vn -0.6399 -0.3265 0.6957
vn 0.1664 -0.9860 0.0054
vn 0.2678 -0.9383 -0.2189
vn -0.1084 -0.9704 0.2156
vn 0.0540 -0.9907 0.1248
vn 0.2520 -0.8578 0.4479
vn -0.3832 0.0086 0.9236
vn -0.1946 0.3783 0.9050
vn -0.5748 -0.6810 -0.4537
vn -0.7409 -0.5552 -0.3779
vn -0.6441 -0.3191 0.6952
vn -0.2496 0.0935 0.9638
vn -0.2405 -0.4473 0.8615
vn -0.8509 0.1457 -0.5047
vn -0.3389 -0.2237 -0.9138
vn 0.1334 -0.8480 -0.5129
vn 0.0273 -0.9995 -0.0146
vn -0.0363 -0.7396 -0.6721
vn -0.1676 -0.9765 -0.1354
vn -0.1080 -0.6804 -0.7249
vn 0.5221 -0.1157 -0.8450
vn -0.0542 -0.9351 -0.3503
vn 0.5566 0.8241 -0.1048
vn 0.6276 -0.5606 -0.5403
vn 0.4981 -0.7348 -0.4604
vn 0.4879 -0.1339 -0.8626
vn 0.2556 -0.9274 -0.2732
vn 0.2228 -0.4162 -0.8816
vn -0.1038 0.0219 -0.9944
vn 0.1562 0.4683 -0.8696
vn 0.1148 0.8383 -0.5329
vn 0.5061 0.8227 -0.2587
vn 0.2998 0.4479 -0.8423
vn -0.0341 0.1459 -0.9887
vt 0.656007 0.996035
vt 0.692578 0.967889
vt 0.670872 0.937795
vt 0.719554 0.932252
vt 0.727271 0.860234
vt 0.767484 0.961011
vt 0.845223 0.772142
vt 0.728528 0.796619
vt 0.726540 0.750372
vt 0.942874 0.911723
vt 0.966893 0.736182
vt 0.609095 0.953309
vt 0.628224 0.979521
vt 0.628807 0.931629
vt 0.563698 0.858215
vt 0.559588 0.954749
vt 0.447313 0.956817
vt 0.439774 0.774915
vt 0.563284 0.801077
vt 0.567942 0.747415
vt 0.465755 0.539044
vt 0.607186 0.537445
vt 0.614050 0.487769
vt 0.645166 0.383071
vt 0.647999 0.494527
vt 0.655701 0.486363
vt 0.642864 0.496498
vt 0.677825 0.493318
vt 0.844715 0.959159
vt 0.929390 0.986533
vt 0.603454 0.572197
vt 0.594175 0.611337
vt 0.318717 0.507842
vt 0.576964 0.381229
vt 0.391424 0.238113
vt 0.646255 0.171957
vt 0.646663 0.075158
vt 0.686663 0.581374
vt 0.692446 0.622403
vt 0.823398 0.536283
vt 0.681735 0.543490
vt 0.715503 0.380805
vt 0.970375 0.506683
vt 0.901642 0.235651
vt 0.645997 0.255680
vt 0.646255 0.171957
vt 0.643934 0.075468
vt 0.319303 0.739601
vt 0.339266 0.911880
vt 0.357201 0.982820
vt 0.639209 0.984429
vt 0.645278 0.932837
vt 0.681806 0.856341
vt 0.649007 0.849861
vt 0.683834 0.809265
vt 0.651775 0.809141
vt 0.648254 0.768107
vt 0.681607 0.759998
vt 0.652674 0.639378
vt 0.669206 0.635879
vt 0.663634 0.588692
vt 0.649630 0.590973
vt 0.656205 0.547900
vt 0.647723 0.549404
vt 0.640928 0.549717
vt 0.640225 0.585910
vt 0.633118 0.634984
vt 0.620144 0.768719
vt 0.620232 0.806559
vt 0.621966 0.851878
s 1
g EAGLE_ L UpperArm_017_25
g Object_60.001_M_Eagle
usemtl M_Eagle
f 1/1/1 2/2/2 3/3/3
f 4/4/4 3/3/3 2/2/2
f 6/5/5 4/4/4 5/6/6
f 7/7/7 8/8/8 6/5/5
f 9/9/9 8/8/8 7/7/7
g Eagle_WingLeftFeathers3_022_30
f 7/7/7 10/10/10 11/11/11
g EAGLE_ L UpperArm_017_25
f 12/12/12 13/13/13 14/14/14
f 12/12/12 15/15/15 16/16/16
f 17/17/17 15/15/15 18/18/18
f 19/19/19 20/20/20 18/18/18
f 15/15/15 19/19/19 18/18/18
g EAGLE_ L Hand_019_27
f 21/21/21 22/22/22 23/23/23
f 24/24/24 25/25/25 26/26/26
f 24/24/24 27/27/27 25/25/25
f 23/23/23 27/27/27 24/24/24
f 24/24/24 26/26/26 28/28/28
g Eagle_WingLefttFeathers4_023_31
f 10/10/10 29/29/29 30/30/30
g EAGLE_ L Hand_019_27
f 31/31/31 22/22/22 21/21/21
g EAGLE_ L Forearm_018_26
f 32/32/32 31/31/31 21/21/21
g EAGLE_ L Hand_019_27
f 33/33/33 21/21/21 34/34/34
f 35/35/35 33/33/33 34/34/34
f 34/34/34 23/23/23 24/24/24
f 34/34/34 21/21/21 23/23/23
f 34/34/34 36/36/36 37/37/37
f 37/37/37 35/35/35 34/34/34
g EAGLE_ L Forearm_018_26
f 38/38/38 39/39/39 40/40/40
g EAGLE_ L Hand_019_27
f 28/28/28 41/41/41 40/40/40
g EAGLE_ L Forearm_018_26
f 41/41/41 38/38/38 40/40/40
g EAGLE_ L Hand_019_27
f 42/42/42 40/40/40 43/43/43
f 42/42/42 28/28/28 40/40/40
f 24/24/24 28/28/28 42/42/42
f 44/44/44 42/42/42 43/43/43
f 36/36/36 34/34/34 45/45/45
f 34/34/34 24/24/24 45/45/45
f 24/24/24 42/42/42 45/45/45
f 46/46/46 45/45/45 42/42/42
f 47/47/47 42/42/42 44/44/44
f 47/47/47 46/46/46 42/42/42
g EAGLE_ L UpperArm_017_25
f 15/15/15 17/17/17 16/16/16
g Eagle_WingLeftFeathers3_022_30
f 18/18/18 48/48/48 49/49/49
g Eagle_WingLefttFeathers4_023_31
f 49/49/49 50/50/50 17/17/17
f 18/18/18 49/49/49 17/17/17
f 29/29/29 10/10/10 7/7/7
g EAGLE_ L UpperArm_017_25
f 51/51/51 1/1/1 3/3/3
f 51/51/51 3/3/3 52/52/52
f 13/13/13 51/51/51 52/52/52
f 13/13/13 52/52/52 14/14/14
f 52/52/52 3/3/3 53/53/53
f 52/52/52 53/53/53 54/54/54
f 54/54/54 53/53/53 55/55/55
f 54/54/54 55/55/55 56/56/56
f 57/57/57 56/56/56 55/55/55
f 57/57/57 55/55/55 58/58/58
g EAGLE_ L Forearm_018_26
f 59/59/59 57/57/57 58/58/58
f 59/59/59 58/58/58 60/60/60
f 59/59/59 60/60/60 61/61/61
f 59/59/59 61/61/61 62/62/62
g EAGLE_ L UpperArm_017_25
f 29/29/29 7/7/7 6/5/5
f 29/29/29 6/5/5 5/6/6
f 53/53/53 3/3/3 4/4/4
f 53/53/53 4/4/4 6/5/5
f 55/55/55 53/53/53 6/5/5
f 55/55/55 6/5/5 8/8/8
g EAGLE_ L Forearm_018_26
f 58/58/58 9/9/9 39/39/39
f 58/58/58 39/39/39 60/60/60
f 61/61/61 60/60/60 39/39/39
f 61/61/61 39/39/39 38/38/38
f 61/61/61 38/38/38 41/41/41
f 61/61/61 41/41/41 63/63/63
f 62/62/62 61/61/61 63/63/63
f 62/62/62 63/63/63 64/64/64
g EAGLE_ L Hand_019_27
f 25/25/25 64/64/64 63/63/63
f 25/25/25 63/63/63 26/26/26
f 63/63/63 41/41/41 28/28/28
f 63/63/63 28/28/28 26/26/26
f 64/64/64 25/25/25 27/27/27
f 64/64/64 27/27/27 65/65/65
f 66/66/66 62/62/62 64/64/64
f 66/66/66 64/64/64 65/65/65
g EAGLE_ L Forearm_018_26
f 67/67/67 59/59/59 62/62/62
f 67/67/67 62/62/62 66/66/66
f 57/57/57 59/59/59 67/67/67
f 57/57/57 67/67/67 68/68/68
g EAGLE_ L UpperArm_017_25
f 69/69/69 56/56/56 57/57/57
f 69/69/69 57/57/57 68/68/68
f 54/54/54 56/56/56 69/69/69
f 54/54/54 69/69/69 70/70/70
f 14/14/14 52/52/52 54/54/54
f 14/14/14 54/54/54 70/70/70
f 58/58/58 55/55/55 8/8/8
f 58/58/58 8/8/8 9/9/9
g EAGLE_ L Hand_019_27
f 65/65/65 22/22/22 31/31/31
f 65/65/65 31/31/31 66/66/66
f 66/66/66 31/31/31 32/32/32
g EAGLE_ L Forearm_018_26
f 66/66/66 32/32/32 67/67/67
f 67/67/67 32/32/32 20/20/20
f 67/67/67 20/20/20 68/68/68
g EAGLE_ L UpperArm_017_25
f 12/12/12 14/14/14 70/70/70
f 12/12/12 70/70/70 15/15/15
f 68/68/68 20/20/20 19/19/19
f 68/68/68 19/19/19 69/69/69
f 15/15/15 70/70/70 69/69/69
f 15/15/15 69/69/69 19/19/19
g EAGLE_ L Forearm_018_26
f 20/20/20 32/32/32 21/21/21
f 20/20/20 21/21/21 18/18/18
g EAGLE_ L Hand_019_27
f 22/22/22 65/65/65 27/27/27
f 22/22/22 27/27/27 23/23/23
g EAGLE_ L Forearm_018_26
f 48/48/48 18/18/18 21/21/21
g Eagle_WingLeftFeathers2_021_29
f 48/48/48 21/21/21 33/33/33
g EAGLE_ L Forearm_018_26
f 9/9/9 7/7/7 40/40/40
f 9/9/9 40/40/40 39/39/39
f 40/40/40 7/7/7 11/11/11
g Eagle_WingLeftFeathers2_021_29
f 40/40/40 11/11/11 43/43/43
