# Blender 4.5.3 LTS
# www.blender.org
mtllib es_Pino.mtl
g Ramas.002_Malla
v 0.101758 0.109720 0.119657
v 0.166667 0.078535 0.127550
v 0.246606 0.109720 0.069620
v 0.265649 0.080268 -0.042932
v 0.214521 0.109720 -0.117805
v 0.130034 0.080268 -0.119807
v 0.069674 0.109720 -0.069557
v 0.053920 0.078981 0.038667
v 0.158099 0.631125 0.000116
v 0.158150 0.631125 0.000122
v 0.158195 0.631125 0.000075
v 0.158208 0.631125 0.000003
v 0.158181 0.631125 -0.000052
v 0.158129 0.631125 -0.000059
v 0.158084 0.631125 -0.000012
v 0.158071 0.631125 0.000060
v 0.078723 0.178184 -0.072648
v 0.067869 0.198359 0.037800
v 0.230312 0.167174 -0.129131
v 0.144555 0.198359 -0.119430
v 0.249558 0.168735 0.073442
v 0.248410 0.198359 -0.037736
v 0.102762 0.158312 0.126592
v 0.171724 0.198359 0.119493
v 0.099550 0.285915 -0.046056
v 0.205853 0.286810 -0.085169
v 0.216730 0.285915 0.046119
v 0.114877 0.285915 0.088733
v 0.083376 0.260586 0.050059
v 0.151009 0.263393 -0.102881
v 0.234486 0.258195 -0.038970
v 0.162180 0.259928 0.109279
v 0.105061 0.347086 -0.033244
v 0.194690 0.355913 -0.080517
v 0.214960 0.335079 0.034408
v 0.121285 0.359371 0.073551
v 0.104289 0.373089 0.022562
v 0.150036 0.373089 -0.071233
v 0.211991 0.373089 -0.022499
v 0.166243 0.373089 0.071297
v 0.157859 0.468747 0.000530
v 0.158385 0.468747 -0.000549
v 0.159097 0.468747 0.000012
v 0.158571 0.468747 0.001090
v 0.157974 0.468747 -0.000126
v 0.158900 0.468744 -0.000452
v 0.158981 0.468747 0.000667
v 0.158126 0.468744 0.001043
v 0.135511 0.380098 0.002057
v 0.154582 0.381426 -0.029114
v 0.179218 0.381426 -0.009735
v 0.161027 0.381426 0.027563
v 0.140384 0.381426 -0.014478
v 0.168195 0.380928 -0.029094
v 0.175225 0.381426 0.012928
v 0.144941 0.381426 0.025598
v 0.128944 0.304410 0.011798
v 0.153472 0.304410 -0.038491
v 0.186689 0.304410 -0.012362
v 0.162162 0.304410 0.037927
v 0.132739 0.304055 -0.015499
v 0.175160 0.304410 -0.035842
v 0.181782 0.301767 0.012690
v 0.138053 0.304525 0.034091
v 0.115028 0.228367 0.015779
v 0.151621 0.228680 -0.057552
v 0.201576 0.228680 -0.018257
v 0.164689 0.228680 0.057371
v 0.122832 0.228680 -0.027876
v 0.184238 0.228680 -0.053568
v 0.193478 0.228680 0.027695
v 0.132073 0.228680 0.053387
v 0.147589 0.147834 0.021663
v 0.160783 0.147834 0.023274
v 0.172428 0.147834 0.011271
v 0.175703 0.147834 -0.007317
v 0.168690 0.147834 -0.021600
v 0.155497 0.147834 -0.023211
v 0.143852 0.147834 -0.011208
v 0.140576 0.147834 0.007380
v -0.333758 0.137349 0.157543
v -0.222359 0.110523 0.117361
v -0.176215 0.137349 0.000000
v -0.222359 0.112013 -0.108419
v -0.333758 0.137349 -0.157543
v -0.445158 0.112013 -0.083083
v -0.491301 0.137349 0.000000
v -0.443642 0.110907 0.102540
v -0.333758 0.585879 0.000099
v -0.333688 0.585879 0.000070
v -0.333659 0.585879 0.000000
v -0.333688 0.585879 -0.000070
v -0.333758 0.585879 -0.000099
v -0.333828 0.585879 -0.000070
v -0.333857 0.585879 0.000000
v -0.333828 0.585879 0.000070
v -0.481595 0.196244 -0.008679
v -0.426232 0.213599 0.092474
v -0.321949 0.186773 -0.158069
v -0.426232 0.213599 -0.092474
v -0.170017 0.188116 0.001274
v -0.241285 0.213599 -0.092474
v -0.325586 0.179150 0.144626
v -0.241285 0.213599 0.092474
v -0.438097 0.288918 0.000000
v -0.325832 0.289688 -0.104339
v -0.229419 0.288918 0.000000
v -0.333758 0.288918 0.104339
v -0.398578 0.267129 0.092527
v -0.407537 0.269543 -0.082721
v -0.259979 0.265072 -0.084211
v -0.259980 0.266563 0.090173
v -0.422961 0.341539 0.007206
v -0.337279 0.349132 -0.092919
v -0.239048 0.331210 -0.008773
v -0.335042 0.352107 0.087147
v -0.388924 0.363908 0.055165
v -0.388924 0.363908 -0.055165
v -0.278593 0.363908 -0.055165
v -0.278593 0.363908 0.055165
v -0.399670 0.434367 0.004188
v -0.333758 0.435899 -0.052745
v -0.281013 0.435899 0.000000
v -0.333758 0.435899 0.052745
v -0.376434 0.409201 0.044405
v -0.382978 0.415034 -0.049219
v -0.286029 0.415034 -0.043258
v -0.291142 0.418015 0.048973
v -0.358602 0.446227 0.024844
v -0.358602 0.446227 -0.024843
v -0.308915 0.446227 -0.024843
v -0.308915 0.446227 0.024844
v -0.368892 0.446227 0.000000
v -0.330237 0.446099 -0.035134
v -0.298624 0.446227 0.000000
v -0.332475 0.446105 0.034945
v -0.382197 0.369180 0.031164
v -0.373238 0.371236 -0.039479
v -0.294279 0.371236 -0.039479
v -0.294279 0.371236 0.039480
v -0.389591 0.371236 0.000000
v -0.341685 0.370466 -0.055832
v -0.277926 0.371236 0.000000
v -0.333758 0.371236 0.055832
v -0.384963 0.305055 0.051204
v -0.384963 0.305055 -0.051204
v -0.282554 0.305055 -0.051204
v -0.282554 0.305055 0.051204
v -0.406172 0.304525 0.006637
v -0.333758 0.305055 -0.072414
v -0.266263 0.301119 -0.008654
v -0.340440 0.305226 0.073469
v -0.398660 0.239313 0.060323
v -0.397144 0.239697 -0.063386
v -0.270373 0.239697 -0.063386
v -0.270373 0.239697 0.063386
v -0.423399 0.239697 0.000000
v -0.333758 0.239697 -0.089641
v -0.244118 0.239697 0.000000
v -0.333758 0.239697 0.089641
v -0.333758 0.170136 0.025445
v -0.315766 0.170136 0.017992
v -0.308314 0.170136 -0.000000
v -0.315766 0.170136 -0.017992
v -0.333758 0.170136 -0.025445
v -0.351750 0.170136 -0.017992
v -0.359203 0.170136 0.000000
v -0.351750 0.170136 0.017992
v -0.333758 0.000000 0.027287
v -0.314463 0.000000 0.019295
v -0.306471 0.000000 0.000000
v -0.314463 0.000000 -0.019295
v -0.333758 0.000000 -0.027287
v -0.353053 0.000000 -0.019295
v -0.361046 0.000000 -0.000000
v -0.353053 0.000000 0.019295
v -0.333758 0.074646 0.021205
v -0.318764 0.074646 0.014994
v -0.312553 0.074646 -0.000000
v -0.318764 0.074646 -0.014994
v -0.333758 0.074646 -0.021205
v -0.348753 0.074646 -0.014994
v -0.354964 0.074646 -0.000000
v -0.348753 0.074646 0.014994
v -0.333758 0.179583 0.026836
v -0.314783 0.179583 0.018976
v -0.306923 0.179583 0.000000
v -0.314783 0.179583 -0.018976
v -0.333758 0.179583 -0.026836
v -0.352734 0.179583 -0.018976
v -0.360594 0.179583 0.000000
v -0.352734 0.179583 0.018976
v -0.097019 0.184221 -0.195931
v 0.021314 0.147989 -0.200598
v 0.100743 0.184221 -0.298547
v 0.089493 0.150002 -0.415838
v -0.001872 0.184221 -0.496308
v -0.130556 0.150002 -0.458964
v -0.199634 0.184221 -0.393693
v -0.185163 0.148507 -0.281548
v -0.045213 0.790032 -0.344675
v -0.045138 0.790032 -0.344682
v -0.045089 0.790032 -0.344740
v -0.045096 0.790032 -0.344815
v -0.045154 0.790032 -0.344864
v -0.045229 0.790032 -0.344857
v -0.045278 0.790032 -0.344799
v -0.045271 0.790032 -0.344724
v -0.187760 0.263769 -0.399036
v -0.165527 0.287209 -0.285887
v 0.009544 0.250976 -0.493243
v -0.109678 0.287209 -0.462201
v 0.106267 0.252790 -0.295460
v 0.066635 0.287209 -0.406352
v -0.085327 0.240680 -0.205778
v 0.010787 0.287209 -0.230039
v -0.148914 0.388939 -0.377627
v -0.010382 0.389979 -0.443194
v 0.050023 0.388939 -0.314613
v -0.080953 0.388939 -0.246651
v -0.139180 0.359509 -0.277486
v -0.094801 0.362771 -0.447258
v 0.046318 0.356732 -0.404121
v -0.006340 0.358745 -0.237878
v -0.136660 0.460013 -0.366186
v -0.024744 0.470268 -0.435764
v 0.043492 0.446061 -0.325884
v -0.076985 0.474286 -0.263429
v -0.118694 0.490225 -0.310188
v -0.085378 0.490225 -0.415368
v 0.019803 0.490225 -0.382052
v -0.013514 0.490225 -0.276871
v -0.113545 0.585391 -0.362031
v -0.033518 0.587460 -0.396403
v 0.000837 0.587460 -0.330192
v -0.065373 0.587460 -0.295837
v -0.103538 0.551400 -0.316674
v -0.081505 0.559279 -0.407904
v 0.009118 0.559279 -0.372946
v -0.023607 0.563304 -0.286564
v -0.080631 0.601409 -0.329938
v -0.065627 0.601409 -0.377305
v -0.018260 0.601409 -0.362301
v -0.033264 0.601409 -0.314934
v -0.082940 0.601409 -0.356729
v -0.035480 0.601237 -0.378550
v -0.015952 0.601409 -0.335510
v -0.058774 0.601245 -0.312418
v -0.105033 0.497346 -0.331037
v -0.075161 0.500123 -0.395678
v 0.000112 0.500123 -0.371835
v -0.023731 0.500123 -0.296562
v -0.102672 0.500123 -0.362979
v -0.040142 0.499083 -0.401739
v 0.003780 0.500123 -0.329260
v -0.066305 0.500123 -0.292894
v -0.113722 0.410734 -0.312768
v -0.082798 0.410734 -0.410396
v 0.014831 0.410734 -0.379472
v -0.016094 0.410734 -0.281843
v -0.120483 0.410019 -0.361659
v -0.027579 0.410734 -0.415153
v 0.017512 0.405418 -0.333988
v -0.078001 0.410966 -0.278098
v -0.129534 0.321940 -0.308211
v -0.090732 0.322458 -0.425687
v 0.030121 0.322458 -0.387406
v -0.008160 0.322458 -0.266553
v -0.134902 0.322458 -0.373188
v -0.022377 0.322458 -0.431576
v 0.036010 0.322458 -0.319051
v -0.076514 0.322458 -0.260664
v -0.057129 0.228506 -0.321863
v -0.037727 0.228506 -0.323535
v -0.025189 0.228506 -0.338436
v -0.026861 0.228506 -0.357839
v -0.041762 0.228506 -0.370376
v -0.061165 0.228506 -0.368705
v -0.073702 0.228506 -0.353803
v -0.072031 0.228506 -0.334401
v -0.089010 0.663837 -0.355943
v -0.039612 0.665112 -0.377164
v -0.018402 0.665112 -0.336286
v -0.059279 0.665112 -0.315076
v -0.082836 0.642876 -0.327944
v -0.069233 0.647734 -0.384254
v -0.013298 0.647734 -0.362680
v -0.033494 0.650217 -0.309360
v -0.070346 0.651724 -0.335184
v -0.062179 0.654643 -0.368995
v -0.028593 0.654643 -0.356040
v -0.040721 0.656134 -0.324025
v -0.074054 0.664317 -0.351995
v -0.044394 0.665083 -0.364735
v -0.031660 0.665083 -0.340194
v -0.056201 0.665083 -0.327460
v -0.178896 0.211754 -0.284895
v -0.123038 0.212974 -0.461497
v 0.081890 0.212974 -0.413047
v 0.017921 0.211727 -0.211098
v -0.190908 0.234171 -0.391257
v -0.004514 0.234171 -0.487973
v 0.092202 0.234171 -0.301580
v -0.094191 0.234171 -0.204863
v -0.141179 0.245945 -0.302072
v -0.102785 0.246869 -0.424798
v 0.043600 0.246869 -0.392684
v -0.001951 0.245789 -0.248878
v -0.150201 0.265223 -0.377469
v -0.017724 0.265223 -0.446209
v 0.051016 0.265223 -0.313733
v -0.081461 0.265223 -0.244993
v -0.156573 0.336684 -0.290534
v -0.105196 0.336684 -0.452733
v 0.057004 0.336684 -0.401356
v 0.005626 0.336684 -0.239157
v -0.173370 0.323201 -0.385558
v -0.002632 0.316571 -0.473100
v 0.080770 0.314075 -0.309830
v -0.088518 0.311008 -0.223222
v -0.125286 0.365648 -0.306634
v -0.088477 0.365648 -0.422839
v 0.027727 0.365648 -0.386030
v -0.009082 0.365648 -0.269826
v -0.138517 0.353341 -0.377683
v -0.012667 0.346908 -0.440113
v 0.048912 0.346484 -0.317022
v -0.074654 0.341642 -0.256318
v -0.141151 0.410370 -0.299320
v -0.093657 0.414360 -0.438428
v 0.040452 0.411384 -0.396719
v -0.005949 0.412376 -0.250229
v -0.143921 0.427254 -0.376067
v -0.022019 0.426875 -0.441625
v 0.045424 0.427254 -0.316091
v -0.079237 0.427254 -0.251406
v -0.096360 0.467706 -0.318237
v -0.072455 0.469636 -0.394859
v -0.002330 0.467598 -0.373174
v -0.027229 0.468277 -0.294568
v -0.098940 0.478470 -0.361585
v -0.033496 0.478511 -0.395297
v 0.000016 0.478470 -0.330240
v -0.065135 0.478470 -0.296434
v -0.108429 0.533893 -0.315519
v -0.080117 0.533893 -0.404902
v 0.009266 0.533893 -0.376590
v -0.019047 0.533893 -0.287207
v -0.119219 0.518754 -0.364325
v -0.026389 0.523759 -0.416086
v 0.022923 0.511764 -0.327699
v -0.070605 0.525779 -0.278523
v -0.087231 0.560630 -0.326576
v -0.068988 0.560630 -0.384171
v -0.011393 0.560630 -0.365928
v -0.029636 0.560630 -0.308333
v -0.095442 0.547915 -0.357683
v -0.034986 0.552182 -0.393105
v -0.000774 0.542043 -0.334750
v -0.063527 0.553876 -0.301968
v -0.057686 -0.001290 -0.320106
v -0.036878 -0.001290 -0.321899
v -0.023432 -0.001290 -0.337880
v -0.025225 -0.001290 -0.358688
v -0.041206 -0.001290 -0.372133
v -0.062013 -0.001290 -0.370341
v -0.075459 -0.001290 -0.354360
v -0.073667 -0.001290 -0.333552
v -0.055849 0.099531 -0.325904
v -0.039679 0.099531 -0.327297
v -0.029230 0.099531 -0.339716
v -0.030623 0.099531 -0.355886
v -0.043042 0.099531 -0.366335
v -0.059212 0.099531 -0.364942
v -0.069661 0.099531 -0.352523
v -0.068268 0.099531 -0.336353
v -0.057549 0.241265 -0.320537
v -0.037086 0.241265 -0.322300
v -0.023863 0.241265 -0.338016
v -0.025626 0.241265 -0.358479
v -0.041342 0.241265 -0.371703
v -0.061805 0.241265 -0.369940
v -0.075028 0.241265 -0.354223
v -0.073265 0.241265 -0.333760
v 0.145944 0.000958 0.019523
v 0.160517 0.000958 0.020637
v 0.173636 0.000958 0.009662
v 0.177618 0.000958 -0.006973
v 0.170130 0.000958 -0.019523
v 0.155557 0.000958 -0.020637
v 0.142438 0.000958 -0.009662
v 0.138456 0.000958 0.006973
v 0.150258 0.068429 0.012558
v 0.159632 0.068429 0.013275
v 0.168071 0.068429 0.006215
v 0.170632 0.068429 -0.004485
v 0.165816 0.068429 -0.012558
v 0.156442 0.068429 -0.013275
v 0.148003 0.068429 -0.006215
v 0.145442 0.068429 0.004485
v 0.143906 0.163280 0.022814
v 0.160934 0.163280 0.024115
v 0.176265 0.163280 0.011291
v 0.180918 0.163280 -0.008148
v 0.172168 0.163280 -0.022814
v 0.155140 0.163280 -0.024115
v 0.139809 0.163280 -0.011291
v 0.135156 0.163280 0.008148
vn -0.5583 -0.7751 -0.2959
vn -0.4807 -0.7852 -0.3903
vn -0.5532 -0.7789 -0.2956
vn -0.3175 -0.8605 0.3985
vn -0.4684 -0.8213 0.3257
vn -0.4612 -0.8579 0.2265
vn 0.5492 -0.7785 0.3039
vn 0.4688 -0.7931 0.3889
vn 0.5546 -0.7808 0.2877
vn 0.3532 -0.8254 -0.4403
vn 0.4690 -0.7804 -0.4137
vn 0.4577 -0.8663 -0.2002
vn 0.3052 -0.7829 -0.5422
vn 0.0541 -0.8949 -0.4429
vn -0.6170 -0.7703 -0.1611
vn -0.5698 -0.8156 -0.1004
vn -0.1971 -0.8400 0.5055
vn -0.0543 -0.8942 0.4444
vn 0.6180 -0.7694 0.1620
vn 0.5657 -0.8191 0.0953
vn -0.2403 -0.8853 -0.3981
vn -0.1768 -0.9103 -0.3744
vn -0.3000 -0.9445 -0.1343
vn -0.6058 -0.7860 0.1234
vn -0.6341 -0.7719 0.0459
vn -0.5702 -0.8103 0.1355
vn 0.2380 -0.8702 0.4314
vn 0.1723 -0.8948 0.4119
vn 0.2843 -0.9277 0.2420
vn 0.5934 -0.7915 -0.1461
vn 0.6281 -0.7751 -0.0689
vn 0.5850 -0.8032 -0.1126
vn -0.1787 -0.8593 -0.4792
vn 0.0440 -0.9512 -0.3053
vn -0.5743 -0.8179 0.0363
vn -0.2813 -0.9470 -0.1550
vn 0.1450 -0.8611 0.4874
vn -0.0384 -0.9485 0.3145
vn 0.5895 -0.8067 -0.0417
vn 0.4272 -0.9014 0.0711
vn -0.6042 -0.7313 -0.3165
vn -0.6050 -0.7454 -0.2799
vn -0.5080 -0.7567 -0.4114
vn -0.1769 -0.9530 0.2459
vn -0.2096 -0.9377 0.2772
vn -0.1943 -0.9715 0.1356
vn 0.5287 -0.8068 0.2638
vn 0.5343 -0.8024 0.2658
vn 0.5733 -0.7587 0.3092
vn 0.1770 -0.9625 -0.2055
vn 0.2118 -0.9518 -0.2219
vn 0.2027 -0.9789 -0.0260
vn 0.2187 -0.9369 -0.2728
vn 0.0232 -0.9815 -0.1899
vn -0.5091 -0.7896 -0.3425
vn -0.2632 -0.9636 -0.0464
vn -0.2476 -0.9277 0.2793
vn -0.0361 -0.9796 0.1978
vn 0.5441 -0.7935 0.2727
vn -0.8724 0.4384 -0.2161
vn -0.7875 0.4825 -0.3833
vn -0.8006 0.4545 -0.3905
vn 0.0599 0.5902 -0.8051
vn 0.1363 0.5811 -0.8024
vn 0.0596 0.5902 -0.8051
vn 0.8728 0.4259 0.2386
vn 0.7916 0.4738 0.3858
vn 0.8085 0.4378 0.3932
vn -0.1362 0.5789 0.8039
vn -0.0981 0.5837 0.8061
vn -0.1363 0.5789 0.8039
vn -0.7587 0.5164 0.3972
vn -0.7609 0.5166 0.3926
vn -0.7131 0.4554 -0.5331
vn 0.7835 0.5150 -0.3477
vn 0.7683 0.5143 -0.3812
vn 0.7682 0.5143 -0.3813
vn 0.7341 0.4385 0.5184
vn -0.8900 0.4546 0.0349
vn -0.9191 0.3874 -0.0713
vn -0.8761 0.4508 0.1710
vn 0.0284 0.5209 -0.8532
vn 0.0465 0.5277 -0.8482
vn 0.0482 0.5283 -0.8477
vn 0.8683 0.4831 -0.1122
vn 0.9130 0.4014 0.0733
vn 0.8974 0.4279 -0.1073
vn -0.0887 0.5672 0.8188
vn -0.0571 0.5579 0.8280
vn -0.0540 0.5569 0.8288
vn -0.8085 0.4846 0.3341
vn -0.5736 0.4517 -0.6834
vn -0.6124 0.4661 -0.6385
vn -0.5665 0.4490 -0.6910
vn 0.8467 0.4564 -0.2735
vn 0.5738 0.4656 0.6738
vn 0.6090 0.4781 0.6328
vn 0.5675 0.4632 0.6807
vn -0.8754 0.4550 -0.1632
vn -0.8742 0.4634 -0.1450
vn -0.8757 0.4524 -0.1687
vn 0.1227 0.5923 -0.7963
vn 0.1055 0.5966 -0.7956
vn 0.1250 0.5917 -0.7964
vn 0.8365 0.5322 -0.1304
vn 0.7932 0.4953 0.3542
vn 0.7308 0.5543 0.3984
vn -0.2332 0.5635 0.7925
vn -0.1561 0.5886 0.7932
vn -0.2436 0.5598 0.7920
vn -0.7668 0.5201 0.3763
vn -0.7221 0.4943 0.4839
vn -0.7137 0.4893 0.5012
vn -0.6016 0.5203 -0.6061
vn -0.6232 0.5257 -0.5790
vn -0.5952 0.5186 -0.6139
vn 0.7639 0.5341 -0.3622
vn 0.7719 0.5392 -0.3368
vn 0.5899 0.5516 0.5897
vn -0.8960 0.4273 0.1210
vn -0.9199 0.3887 -0.0514
vn -0.9025 0.3953 0.1706
vn -0.2897 0.4928 -0.8205
vn -0.0880 0.4127 -0.9066
vn -0.2938 0.4058 -0.8655
vn 0.8894 0.4372 -0.1332
vn 0.9135 0.4001 0.0735
vn 0.8915 0.4151 -0.1814
vn 0.2941 0.4973 0.8162
vn 0.0693 0.4337 0.8984
vn 0.2652 0.4111 0.8721
vn -0.8446 0.4031 0.3525
vn -0.4920 0.4161 -0.7647
vn 0.8175 0.4194 -0.3948
vn 0.4725 0.4059 0.7823
vn 0.5649 -0.8170 -0.1159
vn 0.5250 -0.8390 -0.1431
vn 0.5840 -0.8056 -0.0996
vn 0.2496 -0.8342 0.4918
vn 0.1439 -0.9064 0.3972
vn 0.1768 -0.8278 0.5324
vn -0.5489 -0.8305 0.0945
vn -0.5084 -0.8514 0.1295
vn -0.5617 -0.8216 0.0971
vn -0.2960 -0.8123 -0.5025
vn -0.1442 -0.9063 -0.3972
vn -0.2137 -0.8191 -0.5323
vn 0.5618 -0.8081 -0.1771
vn 0.5871 -0.8085 -0.0399
vn 0.0859 -0.8417 0.5331
vn -0.5354 -0.8252 0.1802
vn -0.5619 -0.8251 0.0592
vn -0.0954 -0.8483 -0.5209
vn -0.6394 0.3634 0.6776
vn -0.7149 0.3275 0.6178
vn -0.5667 0.3265 0.7565
vn -0.3385 0.3116 -0.8879
vn -0.2037 0.3243 -0.9237
vn -0.2037 0.3243 -0.9238
vn 0.8841 0.3102 -0.3494
vn 0.9111 0.3199 -0.2600
vn 0.9111 0.3199 -0.2599
vn 0.3428 0.3110 0.8864
vn 0.2173 0.3234 0.9210
vn 0.2172 0.3234 0.9210
vn -0.3646 0.3084 0.8786
vn -0.8470 0.3570 -0.3940
vn -0.8585 0.3626 -0.3627
vn 0.3154 0.3143 -0.8954
vn 0.3563 0.3097 -0.8816
vn 0.8997 0.3158 0.3014
vn 0.8824 0.3099 0.3541
vn -0.5620 -0.8271 0.0012
vn -0.5407 -0.8137 -0.2131
vn -0.5230 -0.8244 -0.2166
vn 0.0106 -0.8050 0.5932
vn -0.3855 -0.8332 0.3963
vn -0.3788 -0.8444 0.3788
vn 0.5824 -0.8129 -0.0093
vn 0.5444 -0.8115 0.2123
vn 0.5230 -0.8244 0.2166
vn 0.0086 -0.7282 -0.6853
vn 0.1960 -0.7616 -0.6178
vn 0.2238 -0.8457 -0.4844
vn -0.1926 -0.7510 -0.6315
vn -0.2166 -0.8244 -0.5230
vn 0.2061 -0.7927 0.5737
vn 0.2166 -0.8244 0.5230
vn 0.5624 -0.8001 -0.2086
vn 0.5178 -0.8273 -0.2176
vn -0.4324 -0.8856 -0.1696
vn -0.4262 -0.8110 -0.4007
vn -0.3097 -0.9506 -0.0218
vn -0.2974 -0.8249 0.4808
vn -0.5850 -0.7172 0.3787
vn -0.1635 -0.9042 0.3946
vn 0.4879 -0.8387 0.2419
vn 0.4256 -0.7666 0.4808
vn 0.4107 -0.9006 0.1424
vn 0.3322 -0.7755 -0.5368
vn 0.4394 -0.7413 -0.5073
vn 0.4762 -0.7408 -0.4738
vn -0.2469 -0.8351 -0.4915
vn -0.1687 -0.8861 -0.4316
vn -0.5151 -0.7315 0.4468
vn -0.4983 -0.7979 0.3392
vn 0.4330 -0.7532 0.4953
vn 0.3078 -0.7924 0.5266
vn 0.5434 -0.7764 -0.3193
vn 0.4644 -0.8602 -0.2108
vn -0.6448 -0.7643 -0.0074
vn -0.5286 -0.8406 -0.1181
vn -0.3111 -0.9416 -0.1288
vn 0.0257 -0.8858 0.4634
vn -0.0988 -0.9090 0.4049
vn -0.1009 -0.9363 0.3365
vn 0.6257 -0.7797 -0.0229
vn 0.4847 -0.8663 0.1209
vn 0.3111 -0.9416 0.1289
vn 0.0006 -0.8864 -0.4629
vn 0.1295 -0.9483 -0.2896
vn 0.1317 -0.9753 -0.1773
vn -0.1253 -0.9065 -0.4031
vn -0.1288 -0.9416 -0.3111
vn -0.5344 -0.8370 0.1177
vn -0.3111 -0.9416 0.1288
vn 0.1315 -0.9060 0.4024
vn 0.1352 -0.9426 0.3052
vn 0.5934 -0.8003 -0.0863
vn 0.6419 -0.7664 -0.0239
vn -0.5571 -0.7726 -0.3044
vn -0.4603 -0.7653 -0.4499
vn -0.4951 -0.8443 -0.2051
vn -0.3551 -0.7285 0.5858
vn -0.4816 -0.7324 0.4813
vn -0.2471 -0.8163 0.5222
vn 0.4728 -0.8145 0.3361
vn 0.3921 -0.7992 0.4556
vn 0.3735 -0.9146 0.1547
vn 0.3668 -0.7174 -0.5922
vn 0.4342 -0.7165 -0.5459
vn 0.1813 -0.8587 -0.4793
vn -0.3000 -0.7763 -0.5545
vn -0.2091 -0.8418 -0.4977
vn -0.5676 -0.7575 0.3225
vn -0.4951 -0.8443 0.2051
vn 0.2676 -0.8014 0.5349
vn 0.1663 -0.8673 0.4691
vn 0.4567 -0.7511 -0.4768
vn 0.3393 -0.9301 -0.1405
vn -0.8174 0.4445 0.3664
vn -0.8267 0.4379 0.3533
vn -0.8148 0.4463 0.3701
vn -0.4017 0.4773 -0.7816
vn -0.3487 0.4494 -0.8225
vn -0.4204 0.4868 -0.7657
vn 0.8141 0.4468 -0.3711
vn 0.8256 0.4387 -0.3549
vn 0.8111 0.4488 -0.3751
vn 0.3672 0.4420 0.8184
vn 0.3590 0.4381 0.8241
vn 0.3699 0.4433 0.8165
vn -0.3433 0.4399 0.8299
vn -0.3687 0.4529 0.8117
vn -0.3777 0.4574 0.8051
vn -0.8399 0.4280 -0.3337
vn -0.8490 0.4208 -0.3196
vn -0.8520 0.4183 -0.3149
vn 0.3929 0.4432 -0.8057
vn 0.3996 0.4463 -0.8007
vn 0.4016 0.4471 -0.7992
vn 0.8403 0.4277 0.3332
vn 0.8498 0.4201 0.3183
vn 0.8527 0.4177 0.3137
vn -0.8305 0.4522 0.3251
vn -0.8181 0.4153 0.3978
vn -0.8085 0.3931 0.4379
vn -0.3464 0.4459 -0.8253
vn -0.3710 0.4574 -0.8082
vn -0.3293 0.4378 -0.8366
vn 0.8076 0.4582 -0.3714
vn 0.8041 0.4439 -0.3954
vn 0.8011 0.4330 -0.4133
vn 0.3239 0.4848 0.8124
vn 0.3127 0.4908 0.8132
vn 0.3060 0.4943 0.8136
vn -0.3466 0.5091 0.7878
vn -0.3802 0.4872 0.7861
vn -0.3203 0.5254 0.7883
vn -0.8057 0.4503 -0.3848
vn -0.8083 0.4617 -0.3652
vn -0.8033 0.4411 -0.4001
vn 0.3769 0.4829 -0.7904
vn 0.3233 0.5093 -0.7976
vn 0.4129 0.4637 -0.7839
vn 0.8073 0.4571 0.3732
vn 0.8091 0.4654 0.3588
vn 0.8057 0.4503 0.3847
vn -0.7880 0.5055 0.3514
vn -0.7840 0.5087 0.3557
vn -0.7918 0.5024 0.3472
vn -0.3462 0.5211 -0.7801
vn -0.3408 0.5169 -0.7853
vn -0.3519 0.5257 -0.7745
vn 0.7440 0.5605 -0.3636
vn 0.7793 0.5350 -0.3264
vn 0.7180 0.5773 -0.3889
vn 0.3042 0.4977 0.8123
vn 0.3069 0.5000 0.8098
vn 0.3016 0.4953 0.8147
vn -0.3395 0.4850 0.8059
vn -0.3110 0.4633 0.8299
vn -0.2873 0.4449 0.8483
vn -0.7800 0.5318 -0.3300
vn -0.7603 0.5480 -0.3488
vn -0.7370 0.5657 -0.3698
vn 0.3625 0.5340 -0.7638
vn 0.3835 0.5504 -0.7416
vn 0.4004 0.5633 -0.7227
vn 0.7830 0.5529 0.2851
vn 0.7419 0.5867 0.3245
vn 0.6920 0.6216 0.3671
vn -0.6239 0.4924 0.6069
vn -0.7801 0.4544 0.4300
vn -0.6432 0.4330 0.6315
vn -0.6709 0.4230 -0.6091
vn -0.5022 0.3961 -0.7687
vn -0.6850 0.3960 -0.6115
vn 0.7859 0.4876 -0.3802
vn 0.7840 0.4705 -0.4048
vn 0.7804 0.4475 -0.4367
vn 0.3607 0.5006 0.7870
vn 0.3773 0.4896 0.7861
vn 0.3976 0.4756 0.7847
vn -0.4462 0.4523 0.7722
vn -0.8038 0.4146 -0.4266
vn -0.7046 0.4675 -0.5339
vn 0.4100 0.4669 -0.7835
vn 0.3849 0.4844 -0.7856
vn 0.4442 0.4419 -0.7794
vn 0.7854 0.4818 0.3887
vn 0.7865 0.4943 0.3702
vn 0.7831 0.4641 0.4140
vn 0.3377 -0.9084 -0.2467
vn 0.2962 -0.9096 -0.2913
vn 0.2265 -0.9125 -0.3406
vn 0.3439 -0.9033 0.2566
vn 0.3268 -0.9195 0.2185
vn 0.3051 -0.8964 0.3216
vn -0.2547 -0.9193 0.3002
vn -0.2250 -0.9481 0.2248
vn -0.2880 -0.9129 0.2893
vn -0.2925 -0.9218 -0.2543
vn -0.2223 -0.9492 -0.2225
vn -0.2843 -0.9162 -0.2824
vn 0.3157 -0.9246 -0.2132
vn 0.3207 -0.9120 -0.2556
vn 0.3537 -0.8979 0.2622
vn 0.2213 -0.8917 0.3948
vn -0.2984 -0.9199 0.2546
vn -0.2541 -0.9228 -0.2895
vn -0.3827 0.0130 -0.9238
vn -0.3816 0.0751 -0.9213
vn 0.9238 0.0130 -0.3827
vn 0.9213 0.0751 -0.3816
vn 0.3826 0.0130 0.9238
vn 0.3816 0.0751 0.9213
vn -0.3827 0.0130 0.9238
vn -0.3816 0.0751 0.9213
vn -0.9213 0.0751 -0.3816
vn -0.9238 0.0130 -0.3827
vn 0.3816 0.0751 -0.9213
vn 0.3827 0.0130 -0.9238
vn 0.9238 0.0130 0.3826
vn 0.9213 0.0751 0.3816
vn -0.9238 0.0130 0.3826
vn -0.9213 0.0751 0.3816
vn -0.3822 -0.0495 -0.9227
vn 0.9227 -0.0495 -0.3822
vn 0.3822 -0.0495 0.9227
vn -0.3822 -0.0495 0.9227
vn -0.9227 -0.0495 -0.3822
vn 0.3822 -0.0495 -0.9227
vn 0.9227 -0.0495 0.3822
vn -0.9227 -0.0495 0.3822
vn -0.8340 0.2991 0.4636
vn -0.8783 0.2693 0.3951
vn -0.7857 0.2643 0.5592
vn -0.0630 0.2470 -0.9670
vn 0.0823 0.2530 -0.9640
vn 0.9765 0.2039 -0.0696
vn 0.9760 0.2119 0.0492
vn 0.0656 0.2234 0.9725
vn -0.0770 0.2382 0.9682
vn -0.6327 0.2453 0.7345
vn -0.6944 0.2984 -0.6548
vn -0.7231 0.3053 -0.6197
vn 0.5807 0.2279 -0.7816
vn 0.6218 0.2219 -0.7511
vn 0.7992 0.2089 0.5636
vn 0.7554 0.2036 0.6229
vn -0.6438 -0.7378 -0.2028
vn -0.5400 -0.7189 -0.4377
vn -0.5203 -0.7332 -0.4378
vn -0.2031 -0.7116 0.6726
vn -0.4375 -0.7095 0.5524
vn -0.4378 -0.7332 0.5203
vn 0.6631 -0.7210 0.2013
vn 0.5441 -0.7159 0.4377
vn 0.5203 -0.7332 0.4378
vn 0.2425 -0.6298 -0.7380
vn 0.4341 -0.6498 -0.6239
vn 0.4372 -0.7611 -0.4792
vn 0.0117 -0.6392 -0.7690
vn -0.0584 -0.7332 -0.6775
vn -0.6958 -0.7168 0.0454
vn -0.6775 -0.7332 0.0584
vn 0.0257 -0.6911 0.7223
vn 0.0584 -0.7332 0.6775
vn 0.7127 -0.7007 -0.0329
vn 0.6731 -0.7370 -0.0615
vn -0.4511 -0.8123 -0.3698
vn -0.3324 -0.7281 -0.5994
vn -0.3752 -0.9149 -0.1486
vn -0.5208 -0.7293 0.4436
vn -0.7539 -0.6179 0.2230
vn -0.3463 -0.8430 0.4116
vn 0.4762 -0.7470 0.4639
vn 0.3029 -0.6685 0.6792
vn 0.4379 -0.8377 0.3263
vn 0.5595 -0.6709 -0.4867
vn 0.6639 -0.6325 -0.3989
vn 0.6812 -0.6390 -0.3573
vn -0.1081 -0.7436 -0.6598
vn -0.0379 -0.8168 -0.5757
vn -0.7145 -0.6271 0.3102
vn -0.6936 -0.6931 0.1962
vn 0.3080 -0.6483 0.6963
vn 0.1542 -0.6897 0.7075
vn 0.7236 -0.6695 -0.1676
vn 0.6206 -0.7806 -0.0744
vn -0.7029 -0.6733 -0.2296
vn -0.5689 -0.7532 -0.3301
vn -0.3328 -0.9005 -0.2800
vn -0.1433 -0.8191 0.5554
vn -0.2737 -0.8494 0.4513
vn -0.2545 -0.8920 0.3736
vn 0.7028 -0.6840 0.1953
vn 0.5261 -0.7870 0.3224
vn 0.3328 -0.9005 0.2800
vn 0.1734 -0.8218 -0.5427
vn 0.2743 -0.9104 -0.3099
vn 0.2372 -0.9563 -0.1712
vn 0.0038 -0.8452 -0.5345
vn -0.0373 -0.9005 -0.4333
vn -0.6589 -0.7499 -0.0594
vn -0.4333 -0.9005 0.0373
vn 0.0040 -0.8445 0.5356
vn 0.0474 -0.9021 0.4289
vn 0.7048 -0.7008 0.1102
vn 0.7205 -0.6629 0.2036
vn -0.5143 -0.6651 -0.5414
vn -0.3484 -0.6688 -0.6568
vn -0.4981 -0.7592 -0.4190
vn -0.5946 -0.6151 0.5177
vn -0.6885 -0.6327 0.3544
vn -0.4704 -0.7229 0.5062
vn 0.4175 -0.7180 0.5569
vn 0.2778 -0.7117 0.6453
vn 0.3922 -0.8586 0.3300
vn 0.6089 -0.6007 -0.5181
vn 0.6463 -0.6307 -0.4296
vn 0.3889 -0.7786 -0.4925
vn -0.1417 -0.6707 -0.7281
vn -0.0594 -0.7559 -0.6520
vn -0.7447 -0.6475 0.1616
vn -0.6485 -0.7592 0.0559
vn 0.1150 -0.7001 0.7047
vn 0.0208 -0.7904 0.6123
vn 0.6727 -0.6407 -0.3701
vn 0.4688 -0.8824 -0.0404
vn -0.9155 0.3943 0.0798
vn -0.9156 0.3941 0.0793
vn -0.9154 0.3944 0.0800
vn -0.0918 0.4150 -0.9052
vn -0.0638 0.4000 -0.9143
vn -0.1074 0.4232 -0.8996
vn 0.9171 0.3908 -0.0793
vn 0.9171 0.3907 -0.0791
vn 0.0908 0.3956 0.9139
vn 0.0891 0.3948 0.9144
vn 0.0916 0.3960 0.9137
vn -0.5814 0.3959 0.7107
vn -0.5893 0.4022 0.7007
vn -0.5933 0.4054 0.6955
vn -0.7153 0.3858 -0.5826
vn -0.7279 0.3778 -0.5722
vn -0.7336 0.3741 -0.5673
vn 0.6278 0.3976 -0.6692
vn 0.6279 0.3977 -0.6690
vn 0.6280 0.3978 -0.6689
vn 0.7177 0.3831 0.5815
vn 0.7325 0.3736 0.5691
vn 0.7387 0.3695 0.5637
vn -0.8844 0.4650 0.0401
vn -0.8947 0.4371 0.0922
vn -0.8994 0.4189 0.1246
vn -0.1306 0.4571 -0.8798
vn -0.1245 0.4609 -0.8787
vn -0.1202 0.4635 -0.8779
vn 0.8788 0.4652 -0.1063
vn 0.8824 0.4540 -0.1237
vn 0.8856 0.4423 -0.1417
vn 0.0787 0.4811 0.8731
vn 0.0810 0.4797 0.8737
vn 0.0831 0.4784 0.8742
vn -0.6224 0.4765 0.6210
vn -0.6272 0.4725 0.6191
vn -0.6145 0.4827 0.6240
vn -0.6554 0.4565 -0.6017
vn -0.6610 0.4653 -0.5887
vn -0.6491 0.4469 -0.6156
vn 0.5654 0.4730 -0.6757
vn 0.5446 0.4864 -0.6832
vn 0.5913 0.4554 -0.6655
vn 0.6556 0.4622 0.5971
vn 0.6605 0.4699 0.5855
vn 0.6501 0.4536 0.6096
vn -0.8565 0.5084 0.0896
vn -0.8536 0.5122 0.0950
vn -0.8610 0.5022 0.0809
vn -0.0715 0.5100 -0.8572
vn -0.0720 0.5104 -0.8569
vn -0.0705 0.5092 -0.8578
vn 0.8413 0.5377 -0.0554
vn 0.8516 0.5231 -0.0345
vn 0.8292 0.5534 -0.0786
vn 0.0295 0.4900 0.8712
vn 0.0351 0.4947 0.8684
vn 0.0176 0.4797 0.8772
vn -0.5671 0.4889 0.6628
vn -0.5546 0.4719 0.6854
vn -0.5372 0.4486 0.7142
vn -0.6634 0.5245 -0.5337
vn -0.6577 0.5290 -0.5363
vn -0.6422 0.5408 -0.5432
vn 0.5621 0.5226 -0.6411
vn 0.5652 0.5274 -0.6344
vn 0.5700 0.5348 -0.6237
vn 0.7006 0.5332 0.4743
vn 0.6856 0.5459 0.4816
vn 0.6444 0.5785 0.5001
vn -0.7768 0.4944 0.3901
vn -0.8722 0.4644 0.1538
vn -0.7998 0.4438 0.4041
vn -0.4034 0.4727 -0.7835
vn -0.1994 0.4274 -0.8818
vn -0.4468 0.3945 -0.8029
vn 0.8637 0.4892 -0.1215
vn 0.8678 0.4780 -0.1359
vn 0.8756 0.4532 -0.1672
vn 0.1088 0.4959 0.8615
vn 0.1198 0.4875 0.8648
vn 0.1425 0.4699 0.8712
vn -0.6433 0.4609 0.6114
vn -0.6161 0.4459 -0.6492
vn 0.6138 0.4764 -0.6296
vn 0.5995 0.4877 -0.6346
vn 0.6456 0.4498 -0.6172
vn 0.6353 0.4831 0.6026
vn 0.6391 0.4920 0.5911
vn 0.6258 0.4621 0.6284
vn 0.4332 -0.8510 -0.2967
vn 0.3728 -0.9076 -0.1930
vn 0.4775 -0.8417 -0.2519
vn 0.3160 -0.8412 0.4388
vn 0.3067 -0.8685 0.3895
vn 0.2434 -0.8315 0.4993
vn -0.4243 -0.8653 0.2668
vn -0.3630 -0.9126 0.1883
vn -0.4584 -0.8560 0.2390
vn -0.2580 -0.8693 -0.4216
vn -0.1864 -0.9143 -0.3595
vn -0.2357 -0.8610 -0.4507
vn 0.4854 -0.8543 -0.1856
vn 0.3266 -0.8335 0.4456
vn 0.1146 -0.8248 0.5537
vn -0.4605 -0.8662 0.1939
vn -0.1972 -0.8708 -0.4504
vn 0.1273 -0.8963 -0.4247
vn 0.1274 -0.8964 -0.4246
vn 0.1272 -0.8963 -0.4248
vn -0.4698 -0.8636 -0.1829
vn -0.4697 -0.8636 -0.1830
vn -0.4700 -0.8635 -0.1828
vn -0.0889 -0.8912 0.4449
vn -0.0890 -0.8912 0.4448
vn -0.0889 -0.8911 0.4450
vn 0.6307 -0.7597 0.1587
vn 0.6305 -0.7598 0.1589
vn 0.6308 -0.7596 0.1586
vn -0.4774 -0.8709 -0.1163
vn -0.4775 -0.8709 -0.1165
vn -0.4775 -0.8708 -0.1166
vn -0.1520 -0.8387 0.5229
vn -0.1521 -0.8387 0.5230
vn -0.1523 -0.8386 0.5230
vn 0.4662 -0.8668 0.1770
vn 0.4663 -0.8667 0.1772
vn 0.4663 -0.8667 0.1774
vn 0.1866 -0.7662 -0.6149
vn 0.1868 -0.7661 -0.6150
vn 0.1870 -0.7660 -0.6151
vn -0.7539 0.3518 0.5549
vn -0.8216 0.3542 0.4467
vn -0.7627 0.3524 0.5423
vn 0.0001 0.3778 -0.9259
vn 0.9233 0.3775 -0.0700
vn 0.0118 0.3761 0.9265
vn -0.6792 0.3443 0.6482
vn -0.6291 0.3995 -0.6668
vn -0.6291 0.3996 -0.6668
vn 0.6232 0.3687 -0.6897
vn 0.7059 0.3731 0.6021
vn -0.3899 -0.7527 -0.5306
vn -0.2894 -0.7722 -0.5657
vn -0.3963 -0.7389 -0.5450
vn -0.5351 -0.7588 0.3713
vn -0.5594 -0.7772 0.2881
vn -0.5522 -0.7431 0.3779
vn 0.3295 -0.7409 0.5852
vn 0.3012 -0.7611 0.5745
vn 0.3366 -0.7139 0.6141
vn 0.5692 -0.7370 -0.3644
vn 0.5786 -0.7589 -0.2988
vn 0.5868 -0.7198 -0.3708
vn -0.2039 -0.7527 -0.6259
vn -0.2119 -0.7392 -0.6392
vn -0.6133 -0.7582 0.2215
vn -0.6283 -0.7427 0.2317
vn 0.2961 -0.7362 0.6085
vn 0.3120 -0.7125 0.6285
vn 0.6231 -0.7413 -0.2496
vn 0.6398 -0.7227 -0.2613
vn -0.7907 0.4611 0.4027
vn -0.8572 0.4558 0.2398
vn -0.7976 0.4457 0.4065
vn -0.4278 0.4329 -0.7935
vn -0.3317 0.4263 -0.8416
vn -0.4340 0.4078 -0.8034
vn 0.7792 0.4819 -0.4007
vn 0.8573 0.4716 -0.2066
vn 0.7854 0.4687 -0.4042
vn 0.3957 0.4903 0.7766
vn 0.1706 0.4777 0.8618
vn 0.3978 0.4805 0.7816
vn -0.6996 0.4516 0.5537
vn -0.5171 0.4329 -0.7384
vn 0.6668 0.4711 -0.5774
vn 0.5973 0.4750 0.6462
vn -0.6667 -0.7148 -0.2111
vn -0.5768 -0.7068 -0.4096
vn -0.5669 -0.7171 -0.4054
vn -0.2221 -0.7459 0.6279
vn -0.4146 -0.7210 0.5551
vn -0.4164 -0.7168 0.5593
vn 0.6150 -0.7594 0.2123
vn 0.5453 -0.7339 0.4050
vn 0.5460 -0.7333 0.4052
vn 0.1935 -0.7443 -0.6392
vn 0.3048 -0.7180 -0.6258
vn 0.3121 -0.6964 -0.6463
vn 0.1039 -0.7139 -0.6925
vn 0.1087 -0.6962 -0.7096
vn -0.7039 -0.7101 0.0150
vn -0.6990 -0.7150 0.0160
vn -0.0148 -0.7209 0.6929
vn -0.0167 -0.7134 0.7006
vn 0.6711 -0.7413 -0.0026
vn 0.6795 -0.7337 0.0005
vn -0.8799 0.4687 0.0788
vn -0.8798 0.4688 0.0789
vn -0.8813 0.4663 0.0766
vn -0.0865 0.4663 -0.8804
vn -0.0871 0.4671 -0.8799
vn 0.8644 0.4807 -0.1475
vn 0.8647 0.4802 -0.1471
vn 0.8581 0.4897 -0.1547
vn 0.0123 0.4503 0.8928
vn 0.0130 0.4512 0.8924
vn 0.0095 0.4468 0.8946
vn -0.5054 0.4407 0.7418
vn -0.5052 0.4400 0.7424
vn -0.5015 0.4291 0.7513
vn -0.6417 0.4823 -0.5963
vn -0.6399 0.4839 -0.5970
vn -0.6323 0.4906 -0.5996
vn 0.6231 0.4774 -0.6195
vn 0.6235 0.4786 -0.6182
vn 0.6250 0.4839 -0.6125
vn 0.6227 0.4921 0.6083
vn 0.6219 0.4929 0.6085
vn 0.6036 0.5105 0.6124
vn -0.5262 -0.6354 -0.5651
vn -0.3320 -0.6528 -0.6809
vn -0.5242 -0.6246 -0.5788
vn -0.5615 -0.6301 0.5364
vn -0.6738 -0.6406 0.3683
vn -0.5900 -0.6079 0.5314
vn 0.5255 -0.6349 0.5664
vn 0.3448 -0.6525 0.6748
vn 0.5226 -0.6234 0.5815
vn 0.5786 -0.6236 -0.5257
vn 0.6769 -0.6375 -0.3679
vn 0.5811 -0.6217 -0.5252
vn -0.1235 -0.6407 -0.7578
vn -0.1328 -0.6335 -0.7622
vn -0.7524 -0.6330 0.1820
vn -0.7600 -0.6190 0.1983
vn 0.1491 -0.6444 0.7500
vn 0.1544 -0.6406 0.7522
vn 0.7546 -0.6312 -0.1791
vn 0.7636 -0.6146 -0.1981
vn -0.8762 0.4447 0.1855
vn -0.8779 0.4353 0.1996
vn -0.8791 0.4274 0.2111
vn -0.1092 0.4521 -0.8853
vn -0.1060 0.4541 -0.8846
vn -0.1042 0.4553 -0.8842
vn 0.7783 0.4816 -0.4029
vn 0.8763 0.4440 -0.1870
vn 0.7953 0.4594 -0.3955
vn 0.0852 0.4722 0.8774
vn 0.0867 0.4714 0.8777
vn 0.0874 0.4710 0.8778
vn -0.5919 0.4756 0.6507
vn -0.6020 0.4693 0.6460
vn -0.5874 0.4783 0.6528
vn -0.6203 0.4506 -0.6420
vn -0.6246 0.4565 -0.6337
vn -0.6173 0.4466 -0.6476
vn 0.6589 0.4650 -0.5913
vn 0.6289 0.4526 0.6322
vn 0.6319 0.4571 0.6259
vn 0.6266 0.4491 0.6369
vn -0.7537 -0.6188 -0.2211
vn -0.7069 -0.6000 -0.3746
vn -0.7200 -0.5828 -0.3767
vn -0.4863 -0.6288 0.6067
vn -0.4863 -0.6269 0.6087
vn -0.4861 -0.6209 0.6150
vn 0.7407 -0.6350 0.2195
vn 0.6786 -0.6143 0.4027
vn 0.6914 -0.5999 0.4026
vn 0.4676 -0.6309 -0.6191
vn 0.4676 -0.6303 -0.6198
vn 0.4673 -0.6279 -0.6224
vn -0.0258 -0.6305 -0.7758
vn -0.0268 -0.6318 -0.7746
vn -0.0219 -0.6251 -0.7802
vn -0.7927 -0.6053 -0.0723
vn -0.8037 -0.5899 -0.0779
vn 0.0480 -0.6223 0.7813
vn 0.0475 -0.6215 0.7820
vn 0.0495 -0.6248 0.7792
vn 0.7818 -0.6226 0.0338
vn 0.7911 -0.6104 0.0407
vn -0.9057 0.4189 0.0654
vn -0.9053 0.4195 0.0664
vn -0.9059 0.4185 0.0648
vn -0.1463 0.4378 -0.8871
vn -0.1381 0.4324 -0.8910
vn -0.1521 0.4415 -0.8843
vn 0.9083 0.4142 -0.0587
vn 0.9078 0.4152 -0.0600
vn 0.9086 0.4137 -0.0579
vn 0.0850 0.4226 0.9023
vn 0.0851 0.4226 0.9023
vn -0.5933 0.4260 0.6830
vn -0.5951 0.4279 0.6802
vn -0.5964 0.4293 0.6783
vn -0.7403 0.4064 -0.5356
vn -0.7434 0.4036 -0.5334
vn -0.7460 0.4012 -0.5314
vn 0.6140 0.4242 -0.6656
vn 0.6138 0.4239 -0.6660
vn 0.6136 0.4237 -0.6663
vn 0.7497 0.4025 0.5254
vn 0.7526 0.3995 0.5234
vn 0.7555 0.3966 0.5214
vn -0.0858 0.0096 -0.9963
vn -0.0857 0.0556 -0.9948
vn 0.9963 0.0096 -0.0858
vn 0.9948 0.0556 -0.0857
vn 0.0858 0.0096 0.9963
vn 0.0857 0.0556 0.9948
vn -0.6438 0.0096 0.7652
vn -0.6428 0.0556 0.7640
vn -0.7652 0.0096 -0.6438
vn -0.7640 0.0556 -0.6428
vn 0.6438 0.0096 -0.7652
vn 0.6428 0.0556 -0.7640
vn 0.7652 0.0096 0.6438
vn 0.7640 0.0556 0.6428
vn -0.9963 0.0096 0.0858
vn -0.9948 0.0556 0.0857
vn -0.0858 -0.0367 -0.9956
vn 0.9956 -0.0367 -0.0858
vn 0.0858 -0.0367 0.9956
vn -0.6434 -0.0367 0.7647
vn -0.7647 -0.0367 -0.6434
vn 0.6434 -0.0367 -0.7647
vn 0.7647 -0.0367 0.6434
vn -0.9956 -0.0367 0.0858
vn 0.0758 0.1072 -0.9913
vn 0.0762 -0.0026 -0.9971
vn 0.9725 -0.0022 0.2328
vn 0.9684 0.0917 0.2318
vn -0.0758 0.1072 0.9913
vn -0.0762 -0.0026 0.9971
vn -0.8587 -0.0026 0.5124
vn -0.8538 0.1072 0.5094
vn -0.6389 0.0917 -0.7638
vn -0.6416 -0.0022 -0.7670
vn 0.8587 -0.0026 -0.5124
vn 0.8538 0.1072 -0.5094
vn 0.6389 0.0917 0.7638
vn 0.6416 -0.0022 0.7670
vn -0.9725 -0.0022 -0.2328
vn -0.9684 0.0917 -0.2318
vn 0.0757 -0.1122 -0.9908
vn 0.9680 -0.0960 0.2317
vn -0.0757 -0.1122 0.9908
vn -0.8533 -0.1122 0.5092
vn -0.6387 -0.0960 -0.7635
vn 0.8533 -0.1122 -0.5092
vn 0.6387 -0.0960 0.7635
vn -0.9680 -0.0960 -0.2317
vn -0.5011 -0.7987 -0.3331
vn -0.3486 -0.8196 0.4546
vn 0.4874 -0.8048 0.3387
vn 0.4139 -0.7334 -0.5393
vn -0.2194 -0.8279 -0.5161
vn -0.6146 -0.7820 -0.1034
vn 0.1965 -0.8303 0.5214
vn 0.6265 -0.7795 0.0002
vn -0.6453 -0.7609 -0.0681
vn -0.2544 -0.9147 0.3139
vn 0.5611 -0.8214 0.1020
vn 0.2433 -0.9212 -0.3037
vn 0.4356 -0.8136 0.3851
vn -0.8768 0.4554 -0.1545
vn 0.1542 0.5784 -0.8010
vn 0.8795 0.4499 0.1550
vn -0.0889 0.5847 0.8064
vn -0.7581 0.5163 0.3984
vn -0.6217 0.4999 -0.6031
vn 0.7876 0.5151 -0.3383
vn 0.6239 0.4943 0.6053
vn -0.8685 0.4441 -0.2202
vn 0.0202 0.5177 -0.8553
vn 0.8850 0.4388 0.1559
vn -0.0996 0.5703 0.8154
vn -0.8309 0.4643 0.3067
vn -0.6323 0.4732 -0.6134
vn 0.7235 0.5433 -0.4259
vn 0.6279 0.4845 0.6091
vn -0.8727 0.4713 -0.1275
vn 0.0971 0.5987 -0.7951
vn 0.8554 0.5137 -0.0662
vn -0.1232 0.5980 0.7920
vn -0.7857 0.5305 0.3183
vn -0.6346 0.5284 -0.5640
vn 0.7234 0.4607 0.5142
vn -0.8808 0.4476 -0.1542
vn 0.1055 0.4931 -0.8635
vn 0.8805 0.4479 0.1552
vn -0.1047 0.5042 0.8572
vn -0.8286 0.4184 0.3720
vn -0.6250 0.4917 -0.6063
vn 0.8135 0.4228 -0.3994
vn 0.6247 0.4925 0.6060
vn 0.4103 -0.9091 0.0723
vn -0.0428 -0.9357 0.3503
vn -0.4103 -0.9091 -0.0723
vn 0.0421 -0.9377 -0.3450
vn 0.2700 -0.9265 0.2620
vn -0.2700 -0.9265 -0.2620
vn -0.8543 0.3811 0.3534
vn -0.3636 0.3084 -0.8790
vn 0.8787 0.3083 -0.3644
vn 0.3636 0.3084 0.8790
vn -0.3638 0.3086 0.8789
vn -0.8610 0.3638 -0.3554
vn 0.3642 0.3087 -0.8787
vn 0.8786 0.3085 0.3645
vn -0.5713 -0.8208 -0.0023
vn -0.0215 -0.7926 0.6093
vn 0.5963 -0.8025 0.0200
vn -0.0136 -0.6732 -0.7393
vn -0.4492 -0.7519 -0.4825
vn 0.3565 -0.7920 -0.4956
vn -0.3696 -0.8502 0.3749
vn 0.3270 -0.8172 0.4746
vn -0.7161 -0.6979 0.0108
vn -0.0003 -0.8668 0.4986
vn 0.0031 -0.8534 -0.5212
vn 0.5695 -0.8218 -0.0209
vn -0.4774 -0.7252 -0.4962
vn -0.5216 -0.6839 0.5101
vn 0.4474 -0.7410 0.5008
vn 0.4919 -0.5800 -0.6494
vn -0.8325 0.4337 0.3448
vn -0.3068 0.4264 -0.8509
vn 0.8325 0.4337 -0.3448
vn 0.3529 0.4351 0.8283
vn -0.3239 0.4298 0.8429
vn -0.8325 0.4337 -0.3448
vn 0.3879 0.4410 -0.8093
vn 0.8325 0.4337 0.3448
vn -0.8382 0.4939 0.2315
vn -0.3973 0.4693 -0.7886
vn 0.8114 0.4781 -0.3361
vn 0.3361 0.4781 0.8114
vn -0.4181 0.4612 0.7826
vn -0.8114 0.4781 -0.3361
vn 0.2679 0.5341 -0.8019
vn 0.8114 0.4781 0.3361
vn -0.7766 0.5145 0.3635
vn -0.3297 0.5079 -0.7959
vn 0.8259 0.4947 -0.2704
vn 0.3114 0.5040 0.8056
vn -0.3841 0.5182 0.7642
vn -0.8144 0.5002 -0.2941
vn 0.3297 0.5079 -0.7959
vn 0.8555 0.4770 0.2015
vn -0.7877 0.5226 0.3263
vn -0.3263 0.5226 -0.7877
vn 0.7877 0.5226 -0.3263
vn 0.3263 0.5226 0.7877
vn -0.3550 0.5168 0.7790
vn 0.3263 0.5226 -0.7877
vn 0.7877 0.5226 0.3263
vn 0.0993 -0.9658 0.2397
vn -0.2397 -0.9658 0.0993
vn -0.0993 -0.9658 -0.2397
vn 0.0993 -0.9658 -0.2397
vn -0.0993 -0.9658 0.2397
vn -0.2397 -0.9658 -0.0993
vn -0.9439 0.3197 0.0827
vn -0.0827 0.2458 -0.9658
vn 0.9756 0.2027 -0.0846
vn 0.0844 0.2210 0.9716
vn -0.6240 0.2461 0.7417
vn -0.7279 0.3064 -0.6134
vn 0.6279 0.2210 -0.7463
vn 0.7485 0.2028 0.6314
vn -0.6522 -0.7286 -0.2092
vn -0.2395 -0.6933 0.6797
vn 0.6686 -0.7056 0.2349
vn 0.2379 -0.5588 -0.7944
vn -0.3304 -0.6448 -0.6892
vn 0.5783 -0.6927 -0.4309
vn -0.5673 -0.7671 0.2995
vn 0.2016 -0.7241 0.6596
vn -0.7762 -0.5849 -0.2354
vn -0.1853 -0.7897 0.5849
vn 0.1955 -0.7714 -0.6056
vn 0.6588 -0.7299 0.1824
vn -0.3517 -0.6147 -0.7060
vn -0.7327 -0.5701 0.3717
vn 0.3180 -0.6327 0.7061
vn 0.7222 -0.4663 -0.5109
vn -0.9158 0.3939 0.0789
vn -0.0359 0.3847 -0.9223
vn 0.9171 0.3906 -0.0790
vn 0.0877 0.3942 0.9148
vn -0.5741 0.3901 0.7199
vn -0.7036 0.3930 -0.5920
vn 0.6276 0.3975 -0.6694
vn 0.7041 0.3915 0.5924
vn -0.8684 0.4954 -0.0211
vn -0.1391 0.4518 -0.8812
vn 0.8716 0.4845 -0.0751
vn 0.0751 0.4833 0.8722
vn -0.6385 0.4632 0.6146
vn -0.6708 0.4811 -0.5644
vn 0.5040 0.5111 -0.6962
vn 0.6694 0.4844 0.5632
vn -0.8458 0.5222 0.1093
vn -0.0737 0.5117 -0.8560
vn 0.8698 0.4934 0.0064
vn 0.0538 0.5105 0.8582
vn -0.5939 0.5264 0.6084
vn -0.6858 0.5063 -0.5228
vn 0.5538 0.5099 -0.6582
vn 0.7600 0.4772 0.4412
vn -0.8489 0.5233 0.0743
vn -0.0730 0.5264 -0.8471
vn 0.8479 0.5252 -0.0730
vn 0.0732 0.5223 0.8496
vn -0.5745 0.5164 0.6350
vn -0.6512 0.5252 -0.5479
vn 0.5474 0.5264 -0.6506
vn 0.6520 0.5235 0.5485
vn 0.3398 -0.9400 -0.0293
vn 0.0293 -0.9400 0.3398
vn -0.3398 -0.9400 0.0293
vn -0.0293 -0.9400 -0.3398
vn 0.2196 -0.9400 -0.2610
vn -0.2196 -0.9400 0.2610
vn -0.2610 -0.9400 -0.2196
vn 0.1274 -0.8964 -0.4245
vn -0.4696 -0.8637 -0.1831
vn -0.0891 -0.8912 0.4447
vn 0.6304 -0.7598 0.1590
vn -0.4774 -0.8710 -0.1162
vn -0.1519 -0.8388 0.5229
vn 0.4662 -0.8668 0.1769
vn 0.1865 -0.7663 -0.6148
vn -0.8216 0.3543 0.4466
vn -0.0000 0.3777 -0.9259
vn -0.2859 -0.7816 -0.5543
vn -0.5468 -0.7879 0.2832
vn 0.2922 -0.7775 0.5569
vn 0.5668 -0.7710 -0.2902
vn -0.8513 0.4748 0.2233
vn -0.3085 0.4560 -0.8348
vn 0.8519 0.4868 -0.1932
vn 0.1613 0.4884 0.8576
vn -0.6846 0.4693 0.5577
vn -0.5288 0.4649 -0.7101
vn 0.6525 0.4868 -0.5807
vn 0.5993 0.4870 0.6354
vn -0.6759 -0.7090 -0.2011
vn -0.2076 -0.7507 0.6272
vn 0.6172 -0.7634 0.1904
vn 0.1989 -0.7594 -0.6195
vn -0.8778 0.4720 0.0817
vn -0.0857 0.4653 -0.8810
vn 0.8726 0.4685 -0.1378
vn 0.0165 0.4556 0.8900
vn -0.5100 0.4548 0.7301
vn -0.6514 0.4735 -0.5928
vn 0.6210 0.4705 -0.6269
vn 0.6455 0.4692 0.6027
vn -0.3336 -0.6605 -0.6727
vn -0.6619 -0.6558 0.3631
vn 0.3437 -0.6591 0.6689
vn 0.6803 -0.6458 -0.3466
vn -0.8735 0.4578 0.1657
vn -0.1125 0.4499 -0.8859
vn 0.8731 0.4591 -0.1640
vn 0.0840 0.4729 0.8771
vn -0.6090 0.4649 0.6426
vn -0.6294 0.4631 -0.6240
vn 0.6116 0.4940 -0.6179
vn 0.6357 0.4629 0.6178
vn -0.7408 -0.6325 -0.2264
vn -0.4864 -0.6336 0.6017
vn 0.7307 -0.6461 0.2207
vn 0.4678 -0.6327 -0.6171
vn -0.0298 -0.6360 -0.7712
vn 0.0463 -0.6196 0.7836
vn -0.9050 0.4201 0.0672
vn -0.1292 0.4267 -0.8951
vn 0.9073 0.4160 -0.0610
vn 0.0852 0.4227 0.9023
vn -0.5914 0.4239 0.6860
vn -0.7362 0.4100 -0.5384
vn 0.6143 0.4245 -0.6652
vn 0.7454 0.4067 0.5282
vt 0.870455 0.290582
vt 0.804079 0.261356
vt 0.859670 0.232967
vt 0.527485 0.226143
vt 0.436057 0.258528
vt 0.458518 0.216367
vt 0.632347 0.299841
vt 0.582577 0.256081
vt 0.641387 0.253995
vt 0.745593 0.254341
vt 0.693715 0.302570
vt 0.691266 0.270046
vt 0.809894 0.297175
vt 0.952529 0.270674
vt 0.930740 0.225923
vt 0.574907 0.290552
vt 0.880883 0.464776
vt 0.814971 0.404972
vt 0.893236 0.421456
vt 0.494632 0.408014
vt 0.391990 0.440652
vt 0.429555 0.381540
vt 0.624710 0.447539
vt 0.564179 0.395859
vt 0.634310 0.416973
vt 0.744924 0.418071
vt 0.700429 0.450666
vt 0.689094 0.406818
vt 0.747878 0.455114
vt 0.951635 0.406722
vt 0.479688 0.447040
vt 0.849103 0.624539
vt 0.794021 0.583409
vt 0.853389 0.577773
vt 0.517625 0.563911
vt 0.448779 0.607817
vt 0.454007 0.581577
vt 0.628543 0.596752
vt 0.567446 0.572208
vt 0.621894 0.559571
vt 0.738982 0.563146
vt 0.678323 0.595955
vt 0.665558 0.567052
vt 0.791134 0.608547
vt 0.904468 0.633232
vt 0.905913 0.603562
vt 0.567919 0.597536
vt 0.627776 0.742438
vt 0.529029 0.761548
vt 0.513230 0.606489
vt 0.810940 0.772710
vt 0.719374 0.751804
vt 0.733411 0.602691
vt 0.557917 0.447419
vt 0.995244 0.468590
vt 0.802780 0.459819
vt 0.508560 0.280161
vt 0.751816 0.302286
vt 0.654029 0.182494
vt 0.693561 0.182663
vt 0.558358 0.141793
vt 0.618689 0.166024
vt 0.829233 0.144847
vt 0.905550 0.073361
vt 0.736877 0.182815
vt 0.775069 0.168767
vt 0.483445 0.067450
vt 0.694209 0.078794
vt 0.657106 0.076839
vt 0.752882 0.044703
vt 0.727211 0.070826
vt 0.712219 0.081028
vt 0.644719 0.062077
vt 0.668683 0.944059
vt 0.641601 0.766519
vt 0.672842 0.765377
vt 0.662612 0.945141
vt 0.551626 0.779580
vt 0.604154 0.773638
vt 0.678843 0.949126
vt 0.803126 0.790607
vt 0.870497 0.809391
vt 0.674017 0.945222
vt 0.712188 0.766026
vt 0.748881 0.779701
vt 0.657582 0.948514
vt 0.473954 0.795826
vt 0.853968 0.244068
vt 0.806651 0.305103
vt 0.801124 0.271054
vt 0.538195 0.237581
vt 0.451285 0.268366
vt 0.472636 0.228289
vt 0.646470 0.264057
vt 0.583275 0.298808
vt 0.590566 0.266040
vt 0.745527 0.264386
vt 0.696212 0.310232
vt 0.693885 0.279315
vt 0.942238 0.279912
vt 0.921526 0.237372
vt 0.874132 0.464424
vt 0.811477 0.407574
vt 0.885875 0.423243
vt 0.492760 0.447564
vt 0.445105 0.385300
vt 0.506966 0.410466
vt 0.630617 0.448038
vt 0.573077 0.398912
vt 0.639743 0.418983
vt 0.744891 0.420026
vt 0.702595 0.451011
vt 0.691820 0.409330
vt 0.747699 0.455239
vt 0.982843 0.468049
vt 0.941388 0.409238
vt 0.567124 0.447924
vt 0.847997 0.571837
vt 0.788818 0.601090
vt 0.791562 0.577195
vt 0.528822 0.558660
vt 0.463378 0.600397
vt 0.468348 0.575453
vt 0.627940 0.554535
vt 0.576632 0.590624
vt 0.576182 0.566547
vt 0.739243 0.557933
vt 0.681581 0.589121
vt 0.669447 0.561646
vt 0.896552 0.624556
vt 0.897926 0.596352
vt 0.634260 0.589879
vt 0.764164 0.734811
vt 0.807646 0.757143
vt 0.501397 0.741586
vt 0.539663 0.746532
vt 0.590863 0.721539
vt 0.633531 0.728366
vt 0.675597 0.717065
vt 0.720603 0.737270
vt 0.850639 0.753610
vt 0.524645 0.599135
vt 0.843922 0.616293
vt 0.733947 0.595524
vt 0.799888 0.459711
vt 0.409396 0.441492
vt 0.637876 0.307638
vt 0.520206 0.288931
vt 0.864219 0.298836
vt 0.751442 0.309962
vt 0.658487 0.196089
vt 0.696066 0.196250
vt 0.567543 0.157399
vt 0.624893 0.180433
vt 0.825034 0.160302
vt 0.897581 0.092348
vt 0.737242 0.196394
vt 0.773547 0.183040
vt 0.496331 0.086729
vt 0.679463 0.100092
vt 0.661412 0.095654
vt 0.752456 0.065106
vt 0.728053 0.089938
vt 0.696682 0.097513
vt 0.642193 0.063452
vt 0.109020 0.443079
vt 0.043640 0.236545
vt 0.086775 0.231141
vt 0.327221 0.443535
vt 0.304245 0.225835
vt 0.348045 0.229128
vt 0.254766 0.442564
vt 0.216915 0.223844
vt 0.260525 0.224127
vt 0.218083 0.442371
vt 0.173422 0.224907
vt 0.130041 0.227313
vt 0.392295 0.234355
vt 0.291226 0.442956
vt 0.181410 0.442386
vt 0.088303 0.746202
vt 0.073767 0.443798
vt 0.349055 0.745084
vt 0.262360 0.749458
vt 0.175410 0.749882
vt 0.144979 0.442618
vt 0.392295 0.741310
vt 0.362500 0.444253
vt 0.305742 0.747777
vt 0.650797 0.834615
vt 0.671248 0.833872
vt 0.593131 0.843573
vt 0.626563 0.839381
vt 0.754649 0.850513
vt 0.797029 0.862956
vt 0.696561 0.834374
vt 0.720183 0.843151
vt 0.544345 0.854356
vt 0.677948 0.666801
vt 0.633817 0.673960
vt 0.585272 0.670108
vt 0.533763 0.688626
vt 0.868676 0.702910
vt 0.821897 0.701809
vt 0.773850 0.682278
vt 0.725845 0.681584
vt 0.486461 0.686119
vt 0.628916 0.515678
vt 0.681541 0.521279
vt 0.515664 0.518125
vt 0.572877 0.523266
vt 0.857533 0.532646
vt 0.928909 0.549539
vt 0.742328 0.520463
vt 0.794600 0.534329
vt 0.446839 0.526575
vt 0.693828 0.364018
vt 0.638889 0.368071
vt 0.577740 0.353140
vt 0.513020 0.354896
vt 0.941777 0.350105
vt 0.875973 0.366359
vt 0.809270 0.360720
vt 0.747887 0.369700
vt 0.447930 0.331833
vt 0.652740 0.228596
vt 0.695023 0.235977
vt 0.553507 0.195747
vt 0.608476 0.221375
vt 0.838872 0.200364
vt 0.909033 0.161707
vt 0.741204 0.228912
vt 0.786736 0.225134
vt 0.484999 0.154432
vt 0.734532 0.811426
vt 0.778888 0.820560
vt 0.509150 0.825091
vt 0.572378 0.811576
vt 0.615359 0.806509
vt 0.646199 0.800567
vt 0.672045 0.799625
vt 0.704374 0.800200
vt 0.833763 0.836174
vt 0.781940 0.209827
vt 0.833840 0.185796
vt 0.489120 0.129813
vt 0.558611 0.181802
vt 0.614446 0.206487
vt 0.654830 0.216775
vt 0.695402 0.221531
vt 0.739763 0.217087
vt 0.904868 0.136486
vt 0.871393 0.340046
vt 0.808249 0.339047
vt 0.515820 0.329190
vt 0.449237 0.307101
vt 0.638494 0.344521
vt 0.579897 0.331968
vt 0.749272 0.346421
vt 0.694757 0.343059
vt 0.941957 0.322751
vt 0.795979 0.514864
vt 0.861863 0.514848
vt 0.437071 0.504380
vt 0.509689 0.499718
vt 0.571376 0.503612
vt 0.629360 0.498033
vt 0.687033 0.502948
vt 0.743729 0.503448
vt 0.942979 0.528280
vt 0.829386 0.672733
vt 0.778939 0.654674
vt 0.530663 0.658199
vt 0.478613 0.656973
vt 0.633968 0.645372
vt 0.582335 0.643083
vt 0.728600 0.652324
vt 0.679183 0.640390
vt 0.878154 0.676270
vt 0.218912 0.750160
vt 0.131867 0.748588
vt 0.064312 0.221680
vt 0.050628 0.445391
vt 0.018935 0.227366
vt 0.317256 0.445114
vt 0.293085 0.216098
vt 0.339162 0.219563
vt 0.247093 0.214303
vt 0.202445 0.443890
vt 0.201217 0.214005
vt 0.155463 0.215122
vt 0.109827 0.217654
vt 0.087713 0.444635
vt 0.354369 0.445870
vt 0.385712 0.225062
vt 0.241035 0.444093
vt 0.163866 0.443906
vt 0.065919 0.763514
vt 0.294661 0.765170
vt 0.279390 0.444506
vt 0.249023 0.766938
vt 0.157554 0.767385
vt 0.111748 0.766023
vt 0.125541 0.444150
vt 0.340225 0.762338
vt 0.672029 0.730549
vt 0.582890 0.735256
vt 0.856168 0.768993
vt 0.765199 0.749217
vt 0.488774 0.756345
vt 0.676096 0.081508
vt 0.745069 0.062649
vt 0.636888 0.042963
vt 0.665591 0.944160
vt 0.659899 0.946518
vt 0.676665 0.946883
vt 0.671422 0.944324
vt 0.649637 0.081622
vt 0.745029 0.082165
vt 0.713802 0.099636
vt 0.044270 0.742540
vt 0.019598 0.759662
vt 0.203317 0.767677
vt 0.385712 0.758367
s 1
g off
g Ramas.002_Ramas
usemtl Ramas
f 21/1/1 68/2/2 71/3/3
s 2
f 70/4/4 22/5/5 67/6/6
s 3
f 17/7/7 66/8/8 69/9/9
s 4
f 72/10/10 18/11/11 65/12/12
f 24/13/13 72/10/10 68/2/14
s 1
f 22/14/15 71/3/3 67/15/16
s 2
f 20/16/17 70/4/4 66/8/18
s 3
f 18/11/19 69/9/9 65/12/20
s 5
f 27/17/21 60/18/22 63/19/23
s 6
f 62/20/24 31/21/25 59/22/26
s 7
f 25/23/27 58/24/28 61/25/29
s 8
f 64/26/30 29/27/31 57/28/32
s 5
f 60/18/22 28/29/33 64/26/34
s 6
f 59/30/26 27/17/35 63/19/36
s 7
f 58/24/28 26/31/37 62/20/38
s 8
f 57/28/32 25/23/39 61/25/40
s 9
f 35/32/41 52/33/42 55/34/43
s 10
f 54/35/44 39/36/45 51/37/46
s 11
f 33/38/47 50/39/48 53/40/49
s 12
f 56/41/50 37/42/51 49/43/52
f 40/44/53 56/41/50 52/33/54
s 9
f 39/45/55 55/34/43 51/46/56
s 10
f 38/47/57 54/35/44 50/39/58
s 11
f 49/43/59 33/38/47 53/40/49
s 13
f 37/42/60 45/48/61 33/38/62
s 14
f 38/47/63 46/49/64 34/50/65
s 15
f 39/45/66 47/51/67 35/32/68
s 16
f 40/44/69 48/52/70 36/53/71
s 17
f 48/52/72 37/42/73 36/53/73
s 13
f 45/48/61 38/47/74 33/38/62
s 18
f 46/49/75 39/36/76 34/50/77
s 15
f 47/51/67 40/44/78 35/32/68
s 19
f 49/43/79 25/23/80 29/27/81
s 20
f 50/39/82 26/31/83 30/54/84
s 21
f 51/46/85 27/17/86 31/55/87
s 22
f 52/33/88 28/29/89 32/56/90
s 19
f 28/29/91 49/43/79 29/27/81
s 23
f 25/23/92 50/39/93 30/54/94
s 21
f 26/31/95 51/37/85 31/21/87
s 24
f 27/17/96 52/33/97 32/56/98
s 25
f 18/11/99 61/25/100 17/7/101
s 26
f 20/16/102 62/20/103 19/57/104
s 27
f 22/14/105 63/19/106 21/1/107
s 28
f 24/13/108 64/26/109 23/58/110
s 29
f 64/26/111 18/11/112 23/58/113
s 30
f 17/7/114 58/24/115 20/16/116
s 27
f 62/20/117 22/5/105 19/57/118
f 63/19/106 24/13/119 21/1/107
s 31
f 65/12/120 7/59/121 8/60/122
s 32
f 66/8/123 5/61/124 6/62/125
s 33
f 67/15/126 3/63/127 4/64/128
s 34
f 68/2/129 1/65/130 2/66/131
s 31
f 1/65/132 65/12/120 8/60/122
s 32
f 7/59/133 66/8/123 6/62/125
s 33
f 5/61/134 67/6/126 4/67/128
s 34
f 3/63/135 68/2/129 2/66/131
s 35
f 7/59/136 80/68/137 8/60/138
s 36
f 5/61/139 78/69/140 6/62/141
s 37
f 3/63/142 76/70/143 4/64/144
s 38
f 1/65/145 74/71/146 2/66/147
s 35
f 8/60/138 73/72/148 1/65/149
s 36
f 78/69/140 7/59/150 6/62/141
s 37
f 4/67/144 77/73/151 5/61/152
s 38
f 74/71/146 3/63/153 2/66/147
s 39
f 96/74/154 121/75/155 125/76/156
s 40
f 94/77/157 122/78/158 126/79/159
s 41
f 92/80/160 123/81/161 127/82/162
s 42
f 90/83/163 124/84/164 128/85/165
s 39
f 124/84/166 96/74/154 125/76/156
s 43
f 121/75/167 94/77/168 126/79/167
s 44
f 122/78/169 92/86/170 127/87/169
s 45
f 123/81/171 90/83/172 128/85/171
s 46
f 159/88/173 104/89/174 156/90/175
f 158/91/176 102/92/177 155/93/178
s 47
f 157/94/179 100/95/180 154/96/181
s 48
f 160/97/182 98/98/183 153/99/184
f 104/89/185 160/97/182 156/90/186
s 46
f 102/100/177 159/88/173 155/101/178
f 100/95/187 158/91/176 154/96/188
s 47
f 98/98/189 157/94/179 153/99/190
s 49
f 107/102/191 148/103/192 151/104/193
s 50
f 106/105/194 147/106/195 150/107/196
s 51
f 105/108/197 146/109/198 149/110/199
s 52
f 152/111/200 109/112/201 145/113/202
s 49
f 148/103/192 108/114/203 152/111/204
s 50
f 111/115/205 151/104/206 147/116/195
s 51
f 110/117/207 150/107/208 146/109/198
s 52
f 145/113/202 105/108/209 149/110/210
s 53
f 143/118/211 120/119/212 140/120/213
s 54
f 142/121/214 119/122/215 139/123/216
s 55
f 141/124/217 118/125/218 138/126/219
s 56
f 144/127/220 117/128/221 137/129/222
f 120/119/223 144/127/220 140/120/224
s 53
f 119/130/225 143/118/211 139/131/226
s 54
f 118/125/227 142/121/214 138/126/228
s 55
f 137/129/229 113/132/230 141/124/217
s 57
f 123/81/231 132/133/232 135/134/233
s 58
f 122/78/234 131/135/235 134/136/236
s 59
f 121/75/237 130/137/238 133/138/239
s 60
f 124/84/240 129/139/241 136/140/242
s 57
f 132/133/232 124/84/243 136/140/244
s 58
f 131/141/235 123/81/245 135/134/246
s 59
f 130/137/238 122/78/247 134/136/248
s 60
f 129/139/241 121/75/249 133/138/250
s 61
f 117/128/251 133/138/252 113/132/253
s 62
f 118/125/254 134/136/255 114/142/256
s 63
f 119/130/257 135/134/258 115/143/259
s 64
f 120/119/260 136/140/261 116/144/262
s 65
f 136/140/263 117/128/264 116/144/265
s 66
f 133/138/266 118/125/267 113/132/268
s 67
f 134/136/269 119/122/270 114/142/271
s 68
f 135/134/272 120/119/273 115/143/274
s 69
f 137/129/275 105/108/276 109/112/277
s 70
f 110/117/278 142/121/279 106/105/280
s 71
f 139/131/281 107/102/282 111/115/283
s 72
f 140/120/284 108/114/285 112/145/286
s 73
f 108/114/287 137/129/288 109/112/289
s 74
f 105/108/290 138/126/291 110/117/292
s 75
f 106/105/293 139/123/294 111/146/295
s 76
f 107/102/296 140/120/297 112/145/298
s 77
f 98/98/299 149/110/300 97/147/301
s 78
f 100/95/302 150/107/303 99/148/304
s 79
f 102/100/305 151/104/306 101/149/307
s 80
f 104/89/308 152/111/309 103/150/310
s 81
f 152/111/311 98/98/312 103/150/313
s 82
f 149/110/314 100/95/315 97/147/316
s 83
f 150/107/317 102/92/318 99/148/319
s 84
f 151/104/320 104/89/321 101/149/322
s 85
f 153/99/323 87/151/324 88/152/325
s 86
f 154/96/326 85/153/327 86/154/328
s 87
f 155/101/329 83/155/330 84/156/331
s 88
f 156/90/332 81/157/333 82/158/334
s 85
f 81/157/335 153/99/323 88/152/325
s 86
f 157/94/336 86/154/328 87/151/337
s 89
f 85/153/338 155/93/339 84/159/340
s 90
f 83/155/341 156/90/342 82/158/343
s 91
f 167/160/344 88/152/345 87/151/346
s 92
f 85/153/347 166/161/348 86/154/349
s 93
f 83/155/350 164/162/351 84/156/352
s 94
f 81/157/353 162/163/354 82/158/355
s 91
f 168/164/356 81/157/357 88/152/345
s 92
f 86/154/349 167/160/358 87/151/359
s 93
f 164/165/351 85/153/360 84/159/352
s 94
f 162/163/354 83/155/361 82/158/355
s 103
f 208/74/386 281/190/387 285/191/388
s 104
f 206/77/389 282/192/390 286/193/390
s 105
f 204/80/391 283/194/392 287/195/392
s 106
f 202/83/393 284/196/394 288/197/394
s 103
f 284/196/395 208/74/386 285/191/388
s 107
f 281/190/396 206/77/397 286/193/396
s 108
f 282/192/398 204/86/399 287/198/398
s 109
f 283/194/400 202/83/401 288/197/400
s 110
f 271/88/402 216/89/403 268/90/404
s 111
f 270/91/405 214/92/406 267/93/407
s 112
f 269/94/408 212/95/409 266/96/410
s 113
f 272/97/411 210/98/412 265/99/413
f 216/89/414 272/97/411 268/90/415
s 110
f 214/100/416 271/88/402 267/101/417
s 111
f 212/95/418 270/91/405 266/96/419
s 112
f 210/98/420 269/94/408 265/99/421
s 114
f 219/102/422 260/103/423 263/104/424
s 115
f 218/105/425 259/106/426 262/107/427
s 116
f 217/108/428 258/109/429 261/110/430
s 117
f 264/111/431 221/112/432 257/113/433
s 114
f 260/103/423 220/114/434 264/111/435
s 115
f 223/115/436 263/104/437 259/116/426
s 116
f 222/117/438 262/107/439 258/109/429
s 117
f 257/113/433 217/108/440 261/110/441
s 118
f 255/118/442 232/119/443 252/120/444
s 119
f 254/121/445 231/122/446 251/123/447
s 120
f 253/124/448 230/125/449 250/126/450
s 121
f 256/127/451 229/128/452 249/129/453
f 232/119/454 256/127/451 252/120/455
s 118
f 231/130/456 255/118/442 251/131/457
s 119
f 230/125/458 254/121/445 250/126/459
s 120
f 249/129/460 225/132/461 253/124/448
s 122
f 235/81/462 244/133/463 247/134/464
s 123
f 234/78/465 243/135/466 246/136/467
s 124
f 233/75/468 242/137/469 245/138/470
s 125
f 236/84/471 241/139/472 248/140/473
s 122
f 244/133/463 236/84/474 248/140/475
s 123
f 243/141/466 235/81/476 247/134/477
s 124
f 242/137/469 234/78/478 246/136/479
s 125
f 241/139/472 233/75/480 245/138/481
s 126
f 345/199/482 245/138/483 349/200/484
s 127
f 346/201/485 246/136/486 350/202/487
s 128
f 347/203/488 247/134/489 351/204/488
s 129
f 348/205/490 248/140/491 352/206/492
s 130
f 248/140/493 345/199/494 352/206/495
s 131
f 245/138/496 346/201/497 349/200/498
s 132
f 246/136/499 347/207/500 350/202/501
s 133
f 247/134/502 348/205/503 351/204/504
s 134
f 249/129/505 333/208/506 329/209/507
s 135
f 250/126/508 334/210/509 330/211/510
s 136
f 251/131/511 335/212/512 331/213/513
s 137
f 252/120/514 336/214/515 332/215/516
s 138
f 336/214/517 249/129/518 329/209/519
s 139
f 333/208/520 250/126/521 330/211/522
s 140
f 334/210/523 251/123/524 331/216/525
s 141
f 335/212/526 252/120/527 332/215/528
s 142
f 313/217/529 261/110/530 317/218/531
s 143
f 314/219/532 262/107/533 318/220/534
s 144
f 315/221/535 263/104/536 319/222/537
s 145
f 316/223/538 264/111/539 320/224/540
s 146
f 264/111/541 313/217/542 320/224/543
s 147
f 261/110/544 314/219/545 317/218/546
s 148
f 262/107/547 315/225/548 318/220/549
s 149
f 263/104/550 316/223/551 319/222/552
s 150
f 265/99/553 301/226/554 297/227/555
s 151
f 266/96/556 302/228/557 298/229/558
s 152
f 267/101/559 303/230/560 299/231/561
s 153
f 268/90/562 304/232/563 300/233/564
s 150
f 304/232/565 265/99/553 297/227/555
s 151
f 301/226/566 266/96/556 298/229/558
s 154
f 302/228/567 267/93/568 299/234/569
s 155
f 303/230/570 268/90/571 300/233/572
s 156
f 199/151/573 280/164/574 200/152/575
s 157
f 197/153/576 278/161/577 198/154/578
s 158
f 195/155/579 276/162/580 196/156/581
s 159
f 193/157/582 274/163/583 194/158/584
s 156
f 280/164/574 193/157/585 200/152/575
s 157
f 198/154/578 279/160/586 199/151/587
s 158
f 276/165/580 197/153/588 196/159/581
s 159
f 274/163/583 195/155/589 194/158/584
s 160
f 283/194/590 292/235/591 295/236/592
s 161
f 282/192/593 291/237/594 294/238/595
s 162
f 281/190/596 290/239/597 293/240/598
s 163
f 284/196/599 289/241/600 296/242/601
s 164
f 292/235/602 284/196/603 296/242/604
s 165
f 291/243/605 283/194/606 295/236/607
s 166
f 290/239/608 282/192/609 294/238/610
s 167
f 289/241/611 281/190/612 293/240/613
s 168
f 289/241/614 233/75/615 237/76/616
s 169
f 290/239/617 234/78/617 238/79/617
s 170
f 291/243/618 235/81/618 239/82/618
s 171
f 292/235/619 236/84/619 240/85/619
s 168
f 236/84/620 289/241/614 237/76/616
s 172
f 233/75/621 290/239/622 238/79/621
s 173
f 234/78/623 291/237/623 239/87/623
s 174
f 235/81/624 292/235/624 240/85/624
s 175
f 303/230/625 308/244/626 311/245/627
s 176
f 302/228/628 307/246/629 310/247/630
s 177
f 301/226/631 306/248/632 309/249/633
s 178
f 304/232/634 305/250/635 312/251/636
s 175
f 308/244/626 304/232/637 312/251/638
s 176
f 307/252/629 303/230/639 311/245/640
s 177
f 306/248/632 302/228/641 310/247/642
s 178
f 305/250/635 301/226/643 309/249/644
s 179
f 305/250/645 199/151/646 200/152/647
s 180
f 306/248/648 197/153/649 198/154/650
s 181
f 307/252/651 195/155/652 196/156/653
s 182
f 308/244/654 193/157/655 194/158/656
s 179
f 193/157/657 305/250/645 200/152/647
s 180
f 199/151/658 306/248/648 198/154/650
s 181
f 197/153/659 307/246/651 196/159/653
s 182
f 195/155/660 308/244/654 194/158/656
s 183
f 327/253/661 316/223/662 324/254/663
s 184
f 326/255/664 315/225/665 323/256/666
s 185
f 325/257/667 314/219/668 322/258/669
s 186
f 328/259/670 313/217/671 321/260/672
f 316/223/673 328/259/670 324/254/674
s 183
f 315/221/675 327/253/661 323/261/676
s 184
f 314/219/677 326/255/664 322/258/678
s 185
f 313/217/679 325/257/667 321/260/680
s 187
f 210/98/681 325/257/682 209/147/683
s 188
f 212/95/684 326/255/684 211/148/685
s 189
f 214/100/686 327/253/687 213/149/688
s 190
f 216/89/689 328/259/690 215/150/691
s 191
f 328/259/692 210/98/693 215/150/694
s 192
f 325/257/695 212/95/696 209/147/697
s 193
f 326/255/698 214/92/699 211/148/700
s 194
f 327/253/701 216/89/702 213/149/703
s 195
f 335/212/704 340/262/705 343/263/706
s 196
f 334/210/707 339/264/708 342/265/709
s 197
f 333/208/710 338/266/711 341/267/712
s 198
f 336/214/713 337/268/714 344/269/715
s 195
f 340/262/705 336/214/716 344/269/717
s 196
f 339/270/708 335/212/718 343/263/719
s 197
f 338/266/711 334/210/720 342/265/721
s 198
f 337/268/714 333/208/722 341/267/723
s 199
f 337/268/724 217/108/725 221/112/726
s 200
f 338/266/727 218/105/728 222/117/729
s 201
f 339/270/730 219/102/731 223/115/732
s 202
f 340/262/733 220/114/734 224/145/735
s 203
f 220/114/736 337/268/737 221/112/738
s 204
f 217/108/739 338/266/740 222/117/741
s 201
f 218/105/742 339/264/730 223/146/732
s 205
f 219/102/743 340/262/744 224/145/745
s 206
f 359/271/746 348/205/747 356/272/748
s 207
f 358/273/749 347/207/750 355/274/751
s 208
f 357/275/752 346/201/753 354/276/754
s 209
f 360/277/755 345/199/756 353/278/757
s 210
f 348/205/758 360/277/759 356/272/760
s 206
f 347/203/761 359/271/746 355/279/762
s 211
f 346/201/763 358/273/764 354/276/765
s 208
f 345/199/766 357/275/752 353/278/767
s 212
f 229/128/768 357/275/769 225/132/770
s 213
f 230/125/771 358/273/772 226/142/773
s 214
f 231/130/774 359/271/775 227/143/776
s 215
f 232/119/777 360/277/778 228/144/777
s 216
f 360/277/779 229/128/780 228/144/781
s 217
f 357/275/782 230/125/783 225/132/784
s 218
f 358/273/785 231/122/786 226/142/787
s 219
f 359/271/788 232/119/789 227/143/790
s 1
f 21/1/1 24/13/839 68/2/2
s 2
f 70/4/4 19/57/840 22/5/5
s 3
f 17/7/7 20/16/841 66/8/8
s 4
f 72/10/10 23/58/842 18/11/11
f 24/13/13 23/58/842 72/10/10
s 1
f 22/14/15 21/1/1 71/3/3
s 2
f 20/16/17 19/57/840 70/4/4
s 3
f 18/11/19 17/7/7 69/9/9
s 5
f 27/17/21 32/56/843 60/18/22
s 6
f 62/20/24 26/31/844 31/21/25
s 7
f 25/23/27 30/54/845 58/24/28
s 8
f 64/26/30 28/29/846 29/27/31
s 5
f 60/18/22 32/56/843 28/29/33
s 6
f 59/30/26 31/55/25 27/17/35
s 7
f 58/24/28 30/54/845 26/31/37
s 8
f 57/28/32 29/27/31 25/23/39
s 9
f 35/32/41 40/44/847 52/33/42
s 10
f 54/35/44 34/50/848 39/36/45
s 11
f 33/38/47 38/47/849 50/39/48
s 12
f 56/41/50 36/53/850 37/42/51
f 40/44/53 36/53/850 56/41/50
s 9
f 39/45/55 35/32/41 55/34/43
s 10
f 38/47/57 34/50/848 54/35/44
s 11
f 49/43/59 37/42/851 33/38/47
s 13
f 37/42/60 41/306/852 45/48/61
s 14
f 38/47/63 42/307/853 46/49/64
s 15
f 39/45/66 43/308/854 47/51/67
s 16
f 40/44/69 44/309/855 48/52/70
s 17
f 48/52/72 41/306/856 37/42/73
s 13
f 45/48/61 42/307/857 38/47/74
s 18
f 46/49/75 43/310/858 39/36/76
s 15
f 47/51/67 44/309/859 40/44/78
s 19
f 49/43/79 53/40/860 25/23/80
s 20
f 50/39/82 54/35/861 26/31/83
s 21
f 51/46/85 55/34/862 27/17/86
s 22
f 52/33/88 56/41/863 28/29/89
s 19
f 28/29/91 56/41/864 49/43/79
s 23
f 25/23/92 53/40/865 50/39/93
s 21
f 26/31/95 54/35/866 51/37/85
s 24
f 27/17/96 55/34/867 52/33/97
s 25
f 18/11/99 57/28/868 61/25/100
s 26
f 20/16/102 58/24/869 62/20/103
s 27
f 22/14/105 59/30/870 63/19/106
s 28
f 24/13/108 60/18/871 64/26/109
s 29
f 64/26/111 57/28/872 18/11/112
s 30
f 17/7/114 61/25/873 58/24/115
s 27
f 62/20/117 59/22/870 22/5/105
f 63/19/106 60/18/874 24/13/119
s 31
f 65/12/120 69/9/875 7/59/121
s 32
f 66/8/123 70/4/876 5/61/124
s 33
f 67/15/126 71/3/877 3/63/127
s 34
f 68/2/129 72/10/878 1/65/130
s 31
f 1/65/132 72/10/879 65/12/120
s 32
f 7/59/133 69/9/880 66/8/123
s 33
f 5/61/134 70/4/881 67/6/126
s 34
f 3/63/135 71/3/882 68/2/129
s 35
f 7/59/136 79/311/883 80/68/137
s 36
f 5/61/139 77/73/884 78/69/140
s 37
f 3/63/142 75/312/885 76/70/143
s 38
f 1/65/145 73/72/886 74/71/146
s 35
f 8/60/138 80/68/137 73/72/148
s 36
f 78/69/140 79/311/887 7/59/150
s 37
f 4/67/144 76/313/143 77/73/151
s 38
f 74/71/146 75/312/888 3/63/153
s 39
f 96/74/154 95/314/889 121/75/155
s 40
f 94/77/157 93/315/890 122/78/158
s 41
f 92/80/160 91/316/891 123/81/161
s 42
f 90/83/163 89/317/892 124/84/164
s 39
f 124/84/166 89/317/893 96/74/154
s 43
f 121/75/167 95/314/894 94/77/168
s 44
f 122/78/169 93/315/895 92/86/170
s 45
f 123/81/171 91/316/896 90/83/172
s 46
f 159/88/173 101/149/897 104/89/174
f 158/91/176 99/148/898 102/92/177
s 47
f 157/94/179 97/147/899 100/95/180
s 48
f 160/97/182 103/150/900 98/98/183
f 104/89/185 103/150/900 160/97/182
s 46
f 102/100/177 101/149/897 159/88/173
f 100/95/187 99/148/898 158/91/176
s 47
f 98/98/189 97/147/899 157/94/179
s 49
f 107/102/191 112/145/901 148/103/192
s 50
f 106/105/194 111/146/205 147/106/195
s 51
f 105/108/197 110/117/207 146/109/198
s 52
f 152/111/200 108/114/902 109/112/201
s 49
f 148/103/192 112/145/901 108/114/203
s 50
f 111/115/205 107/102/903 151/104/206
s 51
f 110/117/207 106/105/904 150/107/208
s 52
f 145/113/202 109/112/201 105/108/209
s 53
f 143/118/211 115/143/905 120/119/212
s 54
f 142/121/214 114/142/906 119/122/215
s 55
f 141/124/217 113/132/230 118/125/218
s 56
f 144/127/220 116/144/907 117/128/221
f 120/119/223 116/144/907 144/127/220
s 53
f 119/130/225 115/143/905 143/118/211
s 54
f 118/125/227 114/142/906 142/121/214
s 55
f 137/129/229 117/128/908 113/132/230
s 57
f 123/81/231 128/85/909 132/133/232
s 58
f 122/78/234 127/87/910 131/135/235
s 59
f 121/75/237 126/79/911 130/137/238
s 60
f 124/84/240 125/76/912 129/139/241
s 57
f 132/133/232 128/85/909 124/84/243
s 58
f 131/141/235 127/82/910 123/81/245
s 59
f 130/137/238 126/79/911 122/78/247
s 60
f 129/139/241 125/76/912 121/75/249
s 61
f 117/128/251 129/139/913 133/138/252
s 62
f 118/125/254 130/137/914 134/136/255
s 63
f 119/130/257 131/141/915 135/134/258
s 64
f 120/119/260 132/133/916 136/140/261
s 65
f 136/140/263 129/139/917 117/128/264
s 66
f 133/138/266 130/137/918 118/125/267
s 67
f 134/136/269 131/135/919 119/122/270
s 68
f 135/134/272 132/133/920 120/119/273
s 69
f 137/129/275 141/124/921 105/108/276
s 70
f 110/117/278 138/126/922 142/121/279
s 71
f 139/131/281 143/118/923 107/102/282
s 72
f 140/120/284 144/127/924 108/114/285
s 73
f 108/114/287 144/127/925 137/129/288
s 74
f 105/108/290 141/124/926 138/126/291
s 75
f 106/105/293 142/121/927 139/123/294
s 76
f 107/102/296 143/118/928 140/120/297
s 77
f 98/98/299 145/113/929 149/110/300
s 78
f 100/95/302 146/109/930 150/107/303
s 79
f 102/100/305 147/116/931 151/104/306
s 80
f 104/89/308 148/103/932 152/111/309
s 81
f 152/111/311 145/113/933 98/98/312
s 82
f 149/110/314 146/109/934 100/95/315
s 83
f 150/107/317 147/106/935 102/92/318
s 84
f 151/104/320 148/103/936 104/89/321
s 85
f 153/99/323 157/94/937 87/151/324
s 86
f 154/96/326 158/91/938 85/153/327
s 87
f 155/101/329 159/88/939 83/155/330
s 88
f 156/90/332 160/97/940 81/157/333
s 85
f 81/157/335 160/97/941 153/99/323
s 86
f 157/94/336 154/96/326 86/154/328
s 89
f 85/153/338 158/91/942 155/93/339
s 90
f 83/155/341 159/88/943 156/90/342
s 91
f 167/160/344 168/164/356 88/152/345
s 92
f 85/153/347 165/318/944 166/161/348
s 93
f 83/155/350 163/319/945 164/162/351
s 94
f 81/157/353 161/320/946 162/163/354
s 91
f 168/164/356 161/320/947 81/157/357
s 92
f 86/154/349 166/161/348 167/160/358
s 93
f 164/165/351 165/318/948 85/153/360
s 94
f 162/163/354 163/319/949 83/155/361
s 103
f 208/74/386 207/314/950 281/190/387
s 104
f 206/77/389 205/315/951 282/192/390
s 105
f 204/80/391 203/316/952 283/194/392
s 106
f 202/83/393 201/317/953 284/196/394
s 103
f 284/196/395 201/317/954 208/74/386
s 107
f 281/190/396 207/314/955 206/77/397
s 108
f 282/192/398 205/315/956 204/86/399
s 109
f 283/194/400 203/316/957 202/83/401
s 110
f 271/88/402 213/149/958 216/89/403
s 111
f 270/91/405 211/148/959 214/92/406
s 112
f 269/94/408 209/147/960 212/95/409
s 113
f 272/97/411 215/150/961 210/98/412
f 216/89/414 215/150/961 272/97/411
s 110
f 214/100/416 213/149/958 271/88/402
s 111
f 212/95/418 211/148/959 270/91/405
s 112
f 210/98/420 209/147/960 269/94/408
s 114
f 219/102/422 224/145/962 260/103/423
s 115
f 218/105/425 223/146/436 259/106/426
s 116
f 217/108/428 222/117/438 258/109/429
s 117
f 264/111/431 220/114/963 221/112/432
s 114
f 260/103/423 224/145/962 220/114/434
s 115
f 223/115/436 219/102/964 263/104/437
s 116
f 222/117/438 218/105/965 262/107/439
s 117
f 257/113/433 221/112/432 217/108/440
s 118
f 255/118/442 227/143/966 232/119/443
s 119
f 254/121/445 226/142/967 231/122/446
s 120
f 253/124/448 225/132/461 230/125/449
s 121
f 256/127/451 228/144/968 229/128/452
f 232/119/454 228/144/968 256/127/451
s 118
f 231/130/456 227/143/966 255/118/442
s 119
f 230/125/458 226/142/967 254/121/445
s 120
f 249/129/460 229/128/969 225/132/461
s 122
f 235/81/462 240/85/970 244/133/463
s 123
f 234/78/465 239/87/971 243/135/466
s 124
f 233/75/468 238/79/972 242/137/469
s 125
f 236/84/471 237/76/973 241/139/472
s 122
f 244/133/463 240/85/970 236/84/474
s 123
f 243/141/466 239/82/971 235/81/476
s 124
f 242/137/469 238/79/972 234/78/478
s 125
f 241/139/472 237/76/973 233/75/480
s 126
f 345/199/482 241/139/974 245/138/483
s 127
f 346/201/485 242/137/975 246/136/486
s 128
f 347/203/488 243/141/976 247/134/489
s 129
f 348/205/490 244/133/977 248/140/491
s 130
f 248/140/493 241/139/978 345/199/494
s 131
f 245/138/496 242/137/979 346/201/497
s 132
f 246/136/499 243/135/980 347/207/500
s 133
f 247/134/502 244/133/981 348/205/503
s 134
f 249/129/505 253/124/982 333/208/506
s 135
f 250/126/508 254/121/983 334/210/509
s 136
f 251/131/511 255/118/984 335/212/512
s 137
f 252/120/514 256/127/985 336/214/515
s 138
f 336/214/517 256/127/986 249/129/518
s 139
f 333/208/520 253/124/987 250/126/521
s 140
f 334/210/523 254/121/988 251/123/524
s 141
f 335/212/526 255/118/989 252/120/527
s 142
f 313/217/529 257/113/990 261/110/530
s 143
f 314/219/532 258/109/991 262/107/533
s 144
f 315/221/535 259/116/992 263/104/536
s 145
f 316/223/538 260/103/993 264/111/539
s 146
f 264/111/541 257/113/994 313/217/542
s 147
f 261/110/544 258/109/995 314/219/545
s 148
f 262/107/547 259/106/996 315/225/548
s 149
f 263/104/550 260/103/997 316/223/551
s 150
f 265/99/553 269/94/998 301/226/554
s 151
f 266/96/556 270/91/999 302/228/557
s 152
f 267/101/559 271/88/1000 303/230/560
s 153
f 268/90/562 272/97/1001 304/232/563
s 150
f 304/232/565 272/97/1002 265/99/553
s 151
f 301/226/566 269/94/1003 266/96/556
s 154
f 302/228/567 270/91/1004 267/93/568
s 155
f 303/230/570 271/88/1005 268/90/571
s 156
f 199/151/573 279/160/1006 280/164/574
s 157
f 197/153/576 277/318/1007 278/161/577
s 158
f 195/155/579 275/319/1008 276/162/580
s 159
f 193/157/582 273/320/1009 274/163/583
s 156
f 280/164/574 273/320/1010 193/157/585
s 157
f 198/154/578 278/161/577 279/160/586
s 158
f 276/165/580 277/318/1011 197/153/588
s 159
f 274/163/583 275/319/1012 195/155/589
s 160
f 283/194/590 288/197/1013 292/235/591
s 161
f 282/192/593 287/198/1014 291/237/594
s 162
f 281/190/596 286/193/1015 290/239/597
s 163
f 284/196/599 285/191/1016 289/241/600
s 164
f 292/235/602 288/197/1017 284/196/603
s 165
f 291/243/605 287/195/1018 283/194/606
s 166
f 290/239/608 286/193/1019 282/192/609
s 167
f 289/241/611 285/191/1020 281/190/612
s 168
f 289/241/614 293/240/1021 233/75/615
s 169
f 290/239/617 294/238/1022 234/78/617
s 170
f 291/243/618 295/236/618 235/81/618
s 171
f 292/235/619 296/242/619 236/84/619
s 168
f 236/84/620 296/242/620 289/241/614
s 172
f 233/75/621 293/240/622 290/239/622
s 173
f 234/78/623 294/238/623 291/237/623
s 174
f 235/81/624 295/236/624 292/235/624
s 175
f 303/230/625 300/233/1023 308/244/626
s 176
f 302/228/628 299/234/1024 307/246/629
s 177
f 301/226/631 298/229/1025 306/248/632
s 178
f 304/232/634 297/227/1026 305/250/635
s 175
f 308/244/626 300/233/1023 304/232/637
s 176
f 307/252/629 299/231/1024 303/230/639
s 177
f 306/248/632 298/229/1025 302/228/641
s 178
f 305/250/635 297/227/1026 301/226/643
s 179
f 305/250/645 309/249/1027 199/151/646
s 180
f 306/248/648 310/247/1028 197/153/649
s 181
f 307/252/651 311/245/1029 195/155/652
s 182
f 308/244/654 312/251/1030 193/157/655
s 179
f 193/157/657 312/251/1031 305/250/645
s 180
f 199/151/658 309/249/1032 306/248/648
s 181
f 197/153/659 310/247/1033 307/246/651
s 182
f 195/155/660 311/245/1034 308/244/654
s 183
f 327/253/661 319/222/1035 316/223/662
s 184
f 326/255/664 318/220/1036 315/225/665
s 185
f 325/257/667 317/218/1037 314/219/668
s 186
f 328/259/670 320/224/1038 313/217/671
f 316/223/673 320/224/1038 328/259/670
s 183
f 315/221/675 319/222/1035 327/253/661
s 184
f 314/219/677 318/220/1036 326/255/664
s 185
f 313/217/679 317/218/1037 325/257/667
s 187
f 210/98/681 321/260/1039 325/257/682
s 188
f 212/95/684 322/258/1040 326/255/684
s 189
f 214/100/686 323/261/1041 327/253/687
s 190
f 216/89/689 324/254/1042 328/259/690
s 191
f 328/259/692 321/260/1043 210/98/693
s 192
f 325/257/695 322/258/1044 212/95/696
s 193
f 326/255/698 323/256/1045 214/92/699
s 194
f 327/253/701 324/254/1046 216/89/702
s 195
f 335/212/704 332/215/1047 340/262/705
s 196
f 334/210/707 331/216/1048 339/264/708
s 197
f 333/208/710 330/211/1049 338/266/711
s 198
f 336/214/713 329/209/1050 337/268/714
s 195
f 340/262/705 332/215/1047 336/214/716
s 196
f 339/270/708 331/213/1048 335/212/718
s 197
f 338/266/711 330/211/1049 334/210/720
s 198
f 337/268/714 329/209/1050 333/208/722
s 199
f 337/268/724 341/267/1051 217/108/725
s 200
f 338/266/727 342/265/1052 218/105/728
s 201
f 339/270/730 343/263/1053 219/102/731
s 202
f 340/262/733 344/269/1054 220/114/734
s 203
f 220/114/736 344/269/1055 337/268/737
s 204
f 217/108/739 341/267/1056 338/266/740
s 201
f 218/105/742 342/265/1057 339/264/730
s 205
f 219/102/743 343/263/1058 340/262/744
s 206
f 359/271/746 351/204/1059 348/205/747
s 207
f 358/273/749 350/202/1060 347/207/750
s 208
f 357/275/752 349/200/1061 346/201/753
s 209
f 360/277/755 352/206/1062 345/199/756
s 210
f 348/205/758 352/206/1063 360/277/759
s 206
f 347/203/761 351/204/1059 359/271/746
s 211
f 346/201/763 350/202/1064 358/273/764
s 208
f 345/199/766 349/200/1061 357/275/752
s 212
f 229/128/768 353/278/1065 357/275/769
s 213
f 230/125/771 354/276/1066 358/273/772
s 214
f 231/130/774 355/279/1067 359/271/775
s 215
f 232/119/777 356/272/1068 360/277/778
s 216
f 360/277/779 353/278/1069 229/128/780
s 217
f 357/275/782 354/276/1070 230/125/783
s 218
f 358/273/785 355/274/1071 231/122/786
s 219
f 359/271/788 356/272/1072 232/119/789
s 95
g Ramas.002_Tronco
usemtl Tronco
f 182/166/362 173/167/363 174/168/363
s 96
f 180/169/364 171/170/365 172/171/365
s 97
f 178/172/366 169/173/367 170/174/367
s 98
f 177/175/368 176/176/369 169/173/369
s 99
f 175/177/370 182/166/371 174/168/370
s 100
f 173/178/372 180/169/373 172/171/372
s 101
f 179/179/374 170/174/375 171/170/375
s 102
f 184/180/376 175/177/377 176/176/377
s 95
f 190/181/378 181/182/362 182/166/362
s 96
f 188/183/379 179/179/364 180/169/364
s 97
f 186/184/380 177/175/366 178/172/366
s 98
f 177/175/368 192/185/381 184/180/368
s 99
f 183/186/371 190/181/382 182/166/371
s 100
f 189/187/383 180/169/373 181/188/373
s 101
f 187/189/384 178/172/374 179/179/374
s 102
f 192/185/385 183/186/376 184/180/376
s 220
f 374/166/791 365/167/792 366/168/792
s 221
f 372/169/793 363/170/794 364/171/794
s 222
f 370/172/795 361/173/796 362/174/796
s 223
f 369/175/797 368/176/798 361/173/798
s 224
f 375/186/799 366/168/800 367/177/800
s 225
f 373/188/801 364/171/802 365/178/802
s 226
f 371/179/803 362/174/804 363/170/804
s 227
f 376/180/805 367/177/806 368/176/806
s 220
f 382/181/807 373/182/791 374/166/791
s 221
f 380/183/808 371/179/793 372/169/793
s 222
f 378/184/809 369/175/795 370/172/795
s 223
f 377/280/810 376/180/797 369/175/797
s 224
f 383/281/811 374/166/799 375/186/799
s 225
f 381/187/812 372/169/801 373/188/801
s 226
f 371/179/803 378/184/813 370/172/803
s 227
f 384/185/814 375/186/805 376/180/805
s 228
f 390/282/815 397/283/816 389/284/815
s 229
f 396/285/817 387/286/818 388/287/818
s 230
f 386/288/819 393/289/820 385/290/819
s 231
f 393/289/821 392/291/822 385/290/822
s 232
f 391/292/823 398/293/824 390/282/823
s 233
f 397/294/825 388/287/826 389/295/826
s 234
f 387/286/827 394/296/828 386/288/827
s 235
f 400/297/829 391/292/830 392/291/830
s 228
f 406/298/831 397/283/816 398/293/816
s 229
f 396/285/817 403/299/832 395/300/817
s 230
f 402/301/833 393/289/820 394/296/820
s 231
f 393/289/821 408/302/834 400/297/821
s 232
f 407/303/835 398/293/824 399/304/824
s 233
f 397/294/825 404/305/836 396/285/825
s 234
f 403/299/837 394/296/828 395/300/828
s 235
f 400/297/829 407/303/838 399/304/829
s 95
f 182/166/362 181/182/362 173/167/363
s 96
f 180/169/364 179/179/364 171/170/365
s 97
f 178/172/366 177/175/366 169/173/367
s 98
f 177/175/368 184/180/368 176/176/369
s 99
f 175/177/370 183/186/371 182/166/371
s 100
f 173/178/372 181/188/373 180/169/373
s 101
f 179/179/374 178/172/374 170/174/375
s 102
f 184/180/376 183/186/376 175/177/377
s 95
f 190/181/378 189/321/378 181/182/362
s 96
f 188/183/379 187/189/379 179/179/364
s 97
f 186/184/380 185/280/380 177/175/366
s 98
f 177/175/368 185/280/381 192/185/381
s 99
f 183/186/371 191/281/382 190/181/382
s 100
f 189/187/383 188/183/383 180/169/373
s 101
f 187/189/384 186/184/384 178/172/374
s 102
f 192/185/385 191/281/385 183/186/376
s 220
f 374/166/791 373/182/791 365/167/792
s 221
f 372/169/793 371/179/793 363/170/794
s 222
f 370/172/795 369/175/795 361/173/796
s 223
f 369/175/797 376/180/797 368/176/798
s 224
f 375/186/799 374/166/799 366/168/800
s 225
f 373/188/801 372/169/801 364/171/802
s 226
f 371/179/803 370/172/803 362/174/804
s 227
f 376/180/805 375/186/805 367/177/806
s 220
f 382/181/807 381/321/807 373/182/791
s 221
f 380/183/808 379/189/808 371/179/793
s 222
f 378/184/809 377/280/809 369/175/795
s 223
f 377/280/810 384/185/810 376/180/797
s 224
f 383/281/811 382/181/811 374/166/799
s 225
f 381/187/812 380/183/812 372/169/801
s 226
f 371/179/803 379/189/813 378/184/813
s 227
f 384/185/814 383/281/814 375/186/805
s 228
f 390/282/815 398/293/816 397/283/816
s 229
f 396/285/817 395/300/817 387/286/818
s 230
f 386/288/819 394/296/820 393/289/820
s 231
f 393/289/821 400/297/821 392/291/822
s 232
f 391/292/823 399/304/824 398/293/824
s 233
f 397/294/825 396/285/825 388/287/826
s 234
f 387/286/827 395/300/828 394/296/828
s 235
f 400/297/829 399/304/829 391/292/830
s 228
f 406/298/831 405/322/831 397/283/816
s 229
f 396/285/817 404/305/832 403/299/832
s 230
f 402/301/833 401/323/833 393/289/820
s 231
f 393/289/821 401/323/834 408/302/834
s 232
f 407/303/835 406/298/835 398/293/824
s 233
f 397/294/825 405/324/836 404/305/836
s 234
f 403/299/837 402/301/837 394/296/828
s 235
f 400/297/829 408/302/838 407/303/838
