# Blender 4.5.2 LTS
# www.blender.org
mtllib es_Puesto.mtl
o small_cabin_house
v 4.000000 0.139948 -4.000000
v 4.000000 7.004741 -4.000000
v -2.527495 2.094296 4.000000
v -2.527494 5.156974 4.000000
v 2.699412 2.094296 4.000000
v 2.699412 5.156973 4.000000
v 4.000000 7.102847 4.000000
v 4.000000 0.139948 4.000000
v 2.699412 5.156973 3.698187
v 2.699412 2.094296 3.698187
v -2.527495 2.094296 3.698187
v -2.527494 5.156974 3.698187
v -4.509701 0.139948 -4.000000
v -4.000000 7.004741 -4.000000
v -4.000000 7.102847 4.000000
v -4.509702 0.139948 4.000000
v -2.514795 1.905735 3.649945
v -2.514795 2.155735 3.649945
v 2.665762 1.905735 3.649945
v 2.665762 2.155735 3.649945
v -2.514795 1.905735 4.129541
v -2.514795 2.155735 4.129541
v 2.665762 1.905735 4.129541
v 2.665762 2.155735 4.129541
v -4.498750 0.122143 3.064144
v -4.498751 6.709618 3.064144
v -3.088261 0.122143 3.064144
v -3.088261 6.709618 3.064144
v -4.498751 0.122143 4.474634
v -4.498751 6.690111 4.474634
v -3.088261 0.122143 4.474634
v -3.088261 6.690112 4.474634
v 3.194310 0.122143 3.064144
v 3.194310 6.709618 3.064144
v 4.604800 0.122143 3.064144
v 4.604800 6.709618 3.064144
v 3.194310 0.122143 4.474634
v 3.194310 6.690111 4.474634
v 4.604800 0.122143 4.474634
v 4.604800 6.690111 4.474634
v 3.194310 0.122143 -4.653032
v 3.194310 6.709618 -4.653032
v 4.604800 0.122143 -4.653032
v 4.604800 6.709618 -4.653032
v 3.194310 0.122143 -3.242543
v 3.194310 6.690111 -3.242543
v 4.604800 0.122143 -3.242543
v 4.604800 6.690111 -3.242543
v -4.522867 0.122143 -4.653032
v -4.522867 6.709618 -4.653032
v -3.112377 0.122143 -4.653032
v -3.112377 6.709618 -4.653032
v -4.522867 0.122143 -3.242543
v -4.522867 6.690111 -3.242543
v -3.112377 0.122143 -3.242543
v -3.112377 6.690112 -3.242543
v 2.665762 1.905735 6.113078
v 2.665762 2.155735 6.113078
v -2.514794 1.905735 6.113078
v -2.514794 2.155735 6.113078
v 4.996857 8.254935 4.996857
v 4.996857 6.450011 4.996857
v -4.996857 8.254937 4.996857
v -4.996857 6.450011 4.996857
v 4.996857 8.254935 -4.996857
v 4.996857 6.450011 -4.996857
v -4.996857 8.254937 -4.996857
v -4.996857 6.450011 -4.996857
v -0.000000 6.450011 4.996857
v -0.000000 6.450011 -4.996857
v 0.000000 8.254936 4.996857
v 0.000000 8.254936 -4.996857
v -2.498429 6.450012 4.996857
v -2.498429 6.450012 -4.996857
v -2.498429 8.254936 4.996857
v -2.498429 8.254936 -4.996857
v 2.498429 6.450011 4.996857
v 2.498429 6.450011 -4.996857
v 2.498429 8.254936 4.996857
v 2.498429 8.254936 -4.996857
v -4.996857 6.450011 0.000000
v 4.996857 6.450011 -0.000000
v 4.996857 8.254935 -0.000000
v -4.996857 8.254937 -0.000000
v -0.000000 6.450011 -0.000000
v 0.000000 8.254936 -0.000000
v -2.498429 8.254936 0.000000
v -2.498429 6.450012 0.000000
v 2.498429 6.450011 -0.000000
v 2.498428 8.254936 -0.000000
v -4.996857 6.450011 2.498429
v 4.996857 6.450011 2.498429
v 4.996857 8.254935 2.498429
v -4.996857 8.254937 2.498429
v -0.000000 6.450011 2.498429
v -2.498429 6.450012 2.498429
v 2.498429 6.450011 2.498429
v 0.000000 8.254936 2.498429
v -2.498429 8.254936 2.498429
v 2.498429 8.254936 2.498429
v -0.000000 8.254936 -2.498429
v -2.498429 8.254936 -2.498429
v 2.498428 8.254936 -2.498429
v -4.996857 6.450011 -2.498429
v 4.996857 6.450011 -2.498429
v 4.996858 8.254935 -2.498429
v -4.996857 8.254937 -2.498429
v -0.000000 6.450011 -2.498429
v -2.498429 6.450012 -2.498429
v 2.498429 6.450011 -2.498429
vn -0.0000 -0.0000 -1.0000
vn -1.0000 -0.0000 -0.0000
vn -0.0000 -1.0000 -0.0000
vn -0.0000 0.9999 -0.0123
vn -0.0000 -0.0000 1.0000
vn 1.0000 -0.0000 -0.0000
vn -0.0000 1.0000 -0.0000
vn -0.0000 0.9999 0.0138
vt -0.122623 -0.005348
vt 1.127303 1.214103
vt -0.122623 1.214103
vt 0.270780 0.899872
vt 0.280714 0.799063
vt 0.280714 0.899872
vt 0.568237 0.356400
vt 0.304916 0.619721
vt 0.304916 0.356400
vt 0.304916 0.619735
vt 0.041596 0.356400
vt -0.210992 0.681986
vt -0.583406 1.036234
vt -0.694301 -0.451453
vt 0.290648 0.799063
vt 0.300799 0.619735
vt 0.290865 0.791779
vt 0.290865 0.619735
vt 0.300799 0.963823
vt 0.290865 0.963823
vt -0.170240 -0.033036
vt 1.165907 1.194915
vt -0.177748 1.203928
vt 0.867871 0.912670
vt 0.911914 0.000000
vt 0.911914 0.912670
vt 0.955957 0.867871
vt 1.000000 0.783379
vt 1.000000 0.867871
vt 0.201273 0.584737
vt 0.314865 0.660268
vt 0.201273 0.660268
vt 0.955957 0.084491
vt 1.000000 0.000000
vt 1.000000 0.084491
vt 0.518427 -0.000000
vt 0.433935 0.912670
vt 0.433935 -0.000000
vt 0.173808 0.660268
vt 1.000000 0.934069
vt 0.800000 0.000000
vt 1.000000 -0.000000
vt 0.800000 0.000000
vt 0.600000 0.931303
vt 0.600000 0.000000
vt 0.793315 0.832730
vt 0.221126 0.105409
vt 0.793315 0.105409
vt 0.791969 0.830885
vt 0.208031 0.101016
vt 0.791969 0.101016
vt 0.000000 0.734050
vt 0.200000 0.534050
vt 0.200000 0.734050
vt 0.200000 0.934069
vt 0.000000 0.734050
vt 0.200000 0.734050
vt 0.568237 0.619721
vt 0.041596 0.619735
vt 0.300799 0.791779
vt 0.867871 0.000000
vt 0.955957 0.783379
vt 0.242415 0.702530
vt 0.253612 0.621199
vt 0.253612 0.702530
vt 0.955957 0.000000
vt 0.518427 0.912670
vt 0.230500 0.623124
vt 0.230500 0.547593
vt 0.257965 0.547593
vt 0.800000 0.934069
vt 0.800000 0.934069
vt 0.221126 0.832730
vt 0.208031 0.833053
vt 0.000000 0.534050
vt 0.000000 0.934069
vt 0.811355 0.841042
vt 0.791294 0.618233
vt 0.811355 0.618233
vt 0.932457 0.359744
vt 0.912396 0.577479
vt 0.912396 0.359744
vt 0.791294 0.380436
vt 0.811355 0.598172
vt 0.791294 0.598172
vt 0.891245 0.588717
vt 0.911306 0.806453
vt 0.891245 0.806453
vt 0.791294 0.359744
vt 0.811355 0.380436
vt 0.791294 0.841042
vt 0.932457 0.582553
vt 0.911306 0.583643
vt 0.811355 0.359744
vt 0.231218 0.732622
vt 0.242415 0.520202
vt 0.242415 0.732622
vt 0.231218 0.520202
vt 0.253612 0.539867
vt 0.242415 0.621199
vt 0.242415 0.539867
vt 0.220737 0.515091
vt 0.301491 0.726003
vt 0.220737 0.726003
vt 0.314865 0.584737
vt 0.301491 0.515091
vt 0.250000 1.000000
vt 0.000000 0.750000
vt 0.250000 0.750000
vt 1.009974 -0.009974
vt -0.000486 0.999514
vt -0.000486 -0.009974
vt 0.993978 -0.000518
vt 0.005735 1.005697
vt -0.000821 0.006006
vt 0.754056 -0.016468
vt 1.004435 0.242215
vt 0.754056 0.242215
vt 1.009638 0.004762
vt 0.000545 1.010408
vt 0.000545 0.004762
vt 1.004196 -0.000558
vt -0.007331 0.995963
vt -0.000375 -0.007521
vt 0.999015 -0.014288
vt 0.007495 1.008513
vt 0.000226 0.005657
vt 0.754056 0.500897
vt 1.004435 0.759579
vt 0.754056 0.759579
vt 1.010951 0.001235
vt -0.009283 1.002903
vt -0.009283 0.001235
vt 0.250000 0.500000
vt 0.000000 0.250000
vt 0.250000 0.250000
vt 0.000000 0.000000
vt 0.250000 0.000000
vt 1.004435 1.018261
vt 0.754056 1.018261
vt 0.003261 -0.010548
vt 0.997451 0.999504
vt -0.003207 0.991093
vt 1.005330 0.001261
vt -0.001707 0.998511
vt 0.004665 -0.005092
vt 1.005086 0.003418
vt -0.003418 1.005086
vt -0.003418 0.003418
vt -0.006785 -0.013584
vt 0.993723 0.988081
vt -0.003435 1.000438
vt 1.004435 0.500897
vt 0.000000 0.500000
vt 0.750000 0.750000
vt 0.500000 0.500000
vt 0.750000 0.500000
vt 0.253298 0.242214
vt 0.503677 0.500897
vt 0.253298 0.500897
vt 0.253298 0.759579
vt 0.503677 1.018261
vt 0.253298 1.018261
vt 0.750000 0.250000
vt 0.500000 0.000000
vt 0.750000 0.000000
vt 0.500000 0.250000
vt 0.503677 0.759579
vt 1.004494 0.002807
vt -0.006554 0.998678
vt -0.006555 0.002807
vt 0.253298 -0.016468
vt 0.503677 0.242215
vt -0.007350 0.996929
vt 1.012928 0.003299
vt 1.001085 1.008807
vt 0.750000 1.000000
vt 0.500000 0.750000
vt 1.000000 0.750000
vt 1.008764 0.002807
vt -0.002285 1.004543
vt -0.002285 0.002807
vt 1.000000 0.500000
vt 1.000000 0.250000
vt 1.000000 0.000000
vt 0.503677 -0.016468
vt 0.999931 0.019322
vt -0.002173 1.011728
vt 0.003170 0.013984
vt 1.007503 0.003922
vt -0.003880 0.996763
vt 0.006875 -0.006802
vt 0.002919 -0.016468
vt 0.002919 0.242214
vt 0.002919 0.759579
vt 0.002919 1.018261
vt 0.002919 0.500896
vt 1.008044 0.000852
vt 0.000905 1.006498
vt 0.000905 0.000853
vt 0.500000 1.000000
vt 0.018653 0.276993
vt 1.354048 0.696947
vt -0.289929 0.672333
vt 0.418005 1.141224
vt 0.450806 0.516640
vt 0.641120 0.147754
vt 0.477128 -0.171983
vt 0.454742 1.178086
vt 0.104023 0.204080
vt 0.333340 0.678942
vt 0.094886 0.294604
vt 0.114937 -0.296917
vt 0.429083 0.632364
vt 0.640562 -0.292270
vt 0.640562 0.993158
vt 0.342886 0.553079
vt 0.715081 0.766376
vt 0.753877 1.678424
vt 1.127303 -0.005348
vt 0.270780 0.799063
vt 0.290648 0.899872
vt 0.300799 0.791779
vt 1.173307 -0.024620
vt 0.000000 1.000000
vt 1.009974 0.999514
vt 1.000534 0.999174
vt 1.004435 -0.016468
vt 1.009638 1.010408
vt 0.997307 0.993330
vt 1.018037 0.990377
vt 1.010951 1.002903
vt 1.005849 -0.000158
vt 0.998958 1.004864
vt 1.005086 1.005086
vt 1.004118 -0.020067
vt 1.004494 0.998678
vt 0.004493 -0.008579
vt 1.000000 1.000000
vt 1.008764 1.004543
vt 0.994588 1.017066
vt 0.992838 1.007446
vt 1.008044 1.006498
vt 1.092767 0.293074
s 0
usemtl Material.002
f 1/1/1 14/2/1 2/3/1
f 5/4/2 9/5/2 10/6/2
f 2/10/4 15/11/4 7/9/4
f 3/12/5 16/13/5 8/14/5
f 4/15/6 11/6/6 12/5/6
f 6/16/3 12/17/3 9/18/3
f 5/17/7 11/19/7 3/20/7
f 8/21/6 2/22/6 7/23/6
f 18/24/1 19/25/1 17/26/1
f 20/27/6 23/28/6 19/29/6
f 22/30/7 58/31/7 24/32/7
f 22/33/2 17/34/2 21/35/2
f 23/36/3 17/37/3 19/38/3
f 20/39/7 22/30/7 24/32/7
f 2/10/4 14/59/4 15/11/4
f 5/17/7 10/60/7 11/19/7
f 18/24/1 20/61/1 19/25/1
f 20/27/6 24/62/6 23/28/6
f 24/63/6 57/64/6 23/65/6
f 22/33/2 18/66/2 17/34/2
f 23/36/3 21/67/3 17/37/3
f 20/68/7 18/69/7 22/70/7
f 58/95/5 59/96/5 57/97/5
f 58/95/5 60/98/5 59/96/5
f 21/99/2 60/100/2 22/101/2
f 23/102/3 59/103/3 21/104/3
f 22/30/7 60/105/7 58/31/7
f 24/63/6 58/100/6 57/64/6
f 21/99/2 59/64/2 60/100/2
f 23/102/3 57/106/3 59/103/3
f 4/202/5 7/203/5 15/204/5
f 3/205/5 4/206/5 15/207/5
f 8/208/5 7/209/5 5/210/5
f 7/211/5 6/212/5 5/213/5
f 3/214/5 15/215/5 16/216/5
f 8/217/5 5/218/5 3/219/5
f 1/1/1 13/220/1 14/2/1
f 5/4/2 6/221/2 9/5/2
f 4/15/6 3/222/6 11/6/6
f 6/16/3 4/223/3 12/17/3
f 8/21/6 1/224/6 2/22/6
f 4/202/5 6/244/5 7/203/5
usemtl Material.003
f 68/110/1 76/111/1 74/112/1
f 64/113/2 94/114/2 91/115/2
f 66/119/6 106/120/6 105/121/6
f 62/122/5 79/123/5 77/124/5
f 69/125/5 75/126/5 73/127/5
f 70/131/1 80/132/1 78/133/1
f 64/141/5 75/142/5 63/143/5
f 74/144/1 72/145/1 70/146/1
f 78/147/1 65/148/1 66/149/1
f 69/150/5 79/151/5 71/152/5
f 82/169/6 93/170/6 92/171/6
f 81/174/2 107/175/2 104/176/2
f 92/180/6 61/181/6 62/182/6
f 91/187/2 84/188/2 81/189/2
f 104/190/2 67/191/2 68/192/2
f 105/198/6 83/199/6 82/200/6
f 68/110/1 67/226/1 76/111/1
f 64/113/2 63/227/2 94/114/2
f 66/119/6 65/229/6 106/120/6
f 62/122/5 61/230/5 79/123/5
f 69/125/5 71/231/5 75/126/5
f 70/131/1 72/232/1 80/132/1
f 64/141/5 73/233/5 75/142/5
f 74/144/1 76/234/1 72/145/1
f 78/147/1 80/235/1 65/148/1
f 69/150/5 77/236/5 79/151/5
f 82/169/6 83/237/6 93/170/6
f 81/174/2 84/238/2 107/175/2
f 92/180/6 93/240/6 61/181/6
f 91/187/2 94/241/2 84/188/2
f 104/190/2 107/242/2 67/191/2
f 105/198/6 106/243/6 83/199/6
usemtl Material
f 106/107/7 80/108/7 103/109/7
f 92/116/3 77/117/3 97/118/3
f 95/128/3 73/129/3 96/130/3
f 101/134/7 76/135/7 102/136/7
f 102/136/7 67/137/7 107/138/7
f 96/130/3 64/139/3 91/140/3
f 97/118/3 69/153/3 95/128/3
f 103/109/7 72/154/7 101/134/7
f 100/155/7 86/156/7 98/157/7
f 110/158/3 85/159/3 108/160/3
f 109/161/3 81/162/3 104/163/3
f 99/164/7 84/165/7 94/166/7
f 99/164/7 86/156/7 87/167/7
f 108/160/3 88/168/3 109/161/3
f 105/172/3 89/173/3 110/158/3
f 93/177/7 90/178/7 100/155/7
f 79/179/7 93/177/7 100/155/7
f 71/183/7 99/164/7 75/184/7
f 75/184/7 94/166/7 63/185/7
f 79/179/7 98/157/7 71/183/7
f 89/173/3 95/128/3 85/159/3
f 81/162/3 96/130/3 91/140/3
f 85/159/3 96/130/3 88/168/3
f 82/186/3 97/118/3 89/173/3
f 66/193/3 110/158/3 78/194/3
f 74/195/3 108/160/3 109/161/3
f 68/196/3 109/161/3 104/163/3
f 78/194/3 108/160/3 70/197/3
f 90/178/7 101/134/7 86/156/7
f 87/167/7 107/138/7 84/165/7
f 86/156/7 102/136/7 87/167/7
f 83/201/7 103/109/7 90/178/7
f 106/107/7 65/225/7 80/108/7
f 92/116/3 62/228/3 77/117/3
f 95/128/3 69/153/3 73/129/3
f 101/134/7 72/154/7 76/135/7
f 102/136/7 76/135/7 67/137/7
f 96/130/3 73/129/3 64/139/3
f 97/118/3 77/117/3 69/153/3
f 103/109/7 80/108/7 72/154/7
f 100/155/7 90/178/7 86/156/7
f 110/158/3 89/173/3 85/159/3
f 109/161/3 88/168/3 81/162/3
f 99/164/7 87/167/7 84/165/7
f 99/164/7 98/157/7 86/156/7
f 108/160/3 85/159/3 88/168/3
f 105/172/3 82/186/3 89/173/3
f 93/177/7 83/201/7 90/178/7
f 79/179/7 61/239/7 93/177/7
f 71/183/7 98/157/7 99/164/7
f 75/184/7 99/164/7 94/166/7
f 79/179/7 100/155/7 98/157/7
f 89/173/3 97/118/3 95/128/3
f 81/162/3 88/168/3 96/130/3
f 85/159/3 95/128/3 96/130/3
f 82/186/3 92/116/3 97/118/3
f 66/193/3 105/172/3 110/158/3
f 74/195/3 70/197/3 108/160/3
f 68/196/3 74/195/3 109/161/3
f 78/194/3 110/158/3 108/160/3
f 90/178/7 103/109/7 101/134/7
f 87/167/7 102/136/7 107/138/7
f 86/156/7 101/134/7 102/136/7
f 83/201/7 106/107/7 103/109/7
usemtl Material.001
f 8/7/3 13/8/3 1/9/3
f 26/40/1 27/41/1 25/42/1
f 27/43/6 32/44/6 31/45/6
f 32/46/5 29/47/5 31/48/5
f 30/49/2 25/50/2 29/51/2
f 31/52/3 25/53/3 27/54/3
f 28/55/8 30/56/8 32/57/8
f 8/7/3 16/58/3 13/8/3
f 26/40/1 28/71/1 27/41/1
f 27/43/6 28/72/6 32/44/6
f 32/46/5 30/73/5 29/47/5
f 30/49/2 26/74/2 25/50/2
f 31/52/3 29/75/3 25/53/3
f 28/55/8 26/76/8 30/56/8
f 34/77/1 35/78/1 33/79/1
f 35/80/6 40/81/6 39/82/6
f 40/83/5 37/84/5 39/85/5
f 38/86/2 33/87/2 37/88/2
f 39/85/3 33/79/3 35/78/3
f 36/89/8 38/90/8 40/83/8
f 34/77/1 36/91/1 35/78/1
f 35/80/6 36/92/6 40/81/6
f 40/83/5 38/90/5 37/84/5
f 38/86/2 34/93/2 33/87/2
f 39/85/3 37/84/3 33/79/3
f 36/89/8 34/94/8 38/90/8
f 42/77/1 43/78/1 41/79/1
f 43/80/6 48/81/6 47/82/6
f 48/83/5 45/84/5 47/85/5
f 46/86/2 41/87/2 45/88/2
f 47/85/3 41/79/3 43/78/3
f 44/89/8 46/90/8 48/83/8
f 42/77/1 44/91/1 43/78/1
f 43/80/6 44/92/6 48/81/6
f 48/83/5 46/90/5 45/84/5
f 46/86/2 42/93/2 41/87/2
f 47/85/3 45/84/3 41/79/3
f 44/89/8 42/94/8 46/90/8
f 50/77/1 51/78/1 49/79/1
f 51/80/6 56/81/6 55/82/6
f 56/83/5 53/84/5 55/85/5
f 54/86/2 49/87/2 53/88/2
f 55/85/3 49/79/3 51/78/3
f 52/89/8 54/90/8 56/83/8
f 50/77/1 52/91/1 51/78/1
f 51/80/6 52/92/6 56/81/6
f 56/83/5 54/90/5 53/84/5
f 54/86/2 50/93/2 49/87/2
f 55/85/3 53/84/3 49/79/3
f 52/89/8 50/94/8 54/90/8
