# Blender 4.4.3
# www.blender.org
mtllib hk_arm_left0_iselda.mtl
g Object_53_Malla
v -0.589737 1.243348 0.113653
v -0.592959 1.241583 0.109292
v -0.595766 1.238802 0.105133
v -0.599840 1.230631 0.098302
v -0.600906 1.225582 0.095852
v -0.601293 1.220130 0.094198
v -0.601027 1.214475 0.093429
v -0.599918 1.208841 0.093425
v -0.598253 1.203461 0.094380
v -0.595962 1.198540 0.096133
v -0.589981 1.190732 0.101907
v -0.586531 1.188180 0.105678
v -0.582909 1.186661 0.109833
v -0.579326 1.186234 0.114262
v -0.575842 1.186916 0.118727
v -0.572634 1.188682 0.123118
v -0.569816 1.191463 0.127243
v -0.565762 1.199633 0.134091
v -0.564707 1.204677 0.136540
v -0.564371 1.210119 0.138240
v -0.564658 1.215785 0.139019
v -0.565666 1.221399 0.138949
v -0.567358 1.226755 0.138032
v -0.569619 1.231715 0.136241
v -0.575666 1.239498 0.130549
v -0.579067 1.242074 0.126717
v -0.608149 1.218626 0.101303
v -0.611212 1.217893 0.104541
v -0.582672 1.243596 0.122547
v -0.586276 1.244021 0.118153
v -0.403560 1.264403 -0.048349
v -0.356511 1.258142 -0.091051
v -0.440494 1.220505 -0.014651
v -0.419009 1.232288 0.014350
v -0.434134 1.265003 0.002605
v -0.449001 1.235730 -0.021655
v -0.426317 1.218668 0.003594
v -0.423604 1.254933 0.014483
v -0.448786 1.254089 -0.017642
v -0.438010 1.218250 -0.011139
v -0.418913 1.236798 0.015928
v -0.440114 1.264793 -0.004869
v -0.437304 1.265350 -0.001007
v -0.447842 1.231019 -0.020598
v -0.423545 1.221099 0.006718
v -0.426629 1.258437 0.012929
v -0.449737 1.249829 -0.019670
v -0.435014 1.216959 -0.007586
v -0.419220 1.241541 0.016644
v -0.442604 1.263338 -0.008737
v -0.445557 1.227063 -0.019467
v -0.421656 1.224185 0.009875
v -0.429101 1.261435 0.010024
v -0.450186 1.245214 -0.020977
v -0.431985 1.216597 -0.003877
v -0.420265 1.246244 0.016753
v -0.404530 1.266888 -0.043339
v -0.443217 1.223444 -0.017327
v -0.420036 1.227981 0.012387
v -0.431036 1.263740 0.006017
v -0.449769 1.240484 -0.021774
v -0.429057 1.217170 -0.000095
v -0.421784 1.250760 0.016056
v -0.184233 1.312987 -0.197739
v -0.150717 1.315753 -0.219457
v -0.360563 1.245025 -0.036111
v -0.333965 1.251252 -0.058758
v -0.356308 1.254078 -0.090550
v -0.361798 1.248832 -0.033594
v -0.333701 1.255108 -0.057673
v -0.356078 1.250139 -0.089135
v -0.366899 1.252025 -0.028828
v -0.333862 1.259098 -0.057234
v -0.357642 1.245999 -0.085469
v -0.371483 1.255518 -0.025609
v -0.334450 1.263066 -0.057450
v -0.400305 1.232806 -0.049692
v -0.354720 1.243161 -0.084301
v -0.398478 1.236885 -0.054581
v -0.375312 1.259116 -0.024140
v -0.335454 1.266867 -0.058305
v -0.349965 1.241337 -0.083953
v -0.378815 1.262548 -0.023986
v -0.336804 1.270355 -0.059790
v -0.347581 1.239557 -0.081201
v -0.397235 1.270896 -0.038794
v -0.348939 1.278602 -0.077096
v -0.381796 1.265685 -0.025211
v -0.338487 1.273393 -0.061819
v -0.345013 1.238616 -0.078410
v -0.400356 1.269415 -0.041666
v -0.350766 1.277395 -0.080444
v -0.385061 1.268217 -0.026976
v -0.340403 1.275865 -0.064339
v -0.343499 1.238141 -0.074534
v -0.352700 1.275390 -0.083333
v -0.388186 1.270095 -0.029467
v -0.342488 1.277677 -0.067249
v -0.341351 1.238627 -0.071199
v -0.353033 1.273006 -0.086800
v -0.391340 1.271193 -0.032343
v -0.344658 1.278761 -0.070433
v -0.339410 1.239873 -0.067914
v -0.346801 1.279064 -0.073786
v -0.337623 1.241852 -0.064953
v -0.355947 1.266080 -0.089861
v -0.336179 1.244467 -0.062294
v -0.356632 1.262144 -0.090638
v -0.406028 1.252897 -0.053673
v -0.335090 1.247627 -0.060086
v -0.174489 1.307337 -0.179301
v -0.141451 1.311646 -0.203501
v -0.187067 1.267331 -0.190759
v -0.151937 1.276003 -0.214872
v -0.185749 1.312043 -0.200168
v -0.187388 1.310683 -0.202447
v -0.152829 1.314352 -0.222653
v -0.175945 1.310084 -0.182601
v -0.142934 1.313905 -0.206398
v -0.185107 1.267284 -0.186828
v -0.149996 1.275954 -0.211458
v -0.189188 1.308299 -0.205329
v -0.154929 1.311983 -0.225685
v -0.177837 1.312145 -0.186372
v -0.144694 1.315501 -0.209596
v -0.183320 1.267948 -0.183796
v -0.148027 1.276657 -0.208103
v -0.190740 1.305301 -0.207708
v -0.156602 1.309188 -0.227986
v -0.179816 1.313248 -0.190067
v -0.146564 1.316324 -0.212806
v -0.182158 1.268690 -0.181803
v -0.180906 1.269971 -0.179225
v -0.146095 1.278109 -0.204967
v -0.192121 1.301711 -0.209583
v -0.157944 1.305997 -0.229725
v -0.182046 1.313561 -0.193921
v -0.148933 1.316403 -0.216682
v -0.179329 1.271697 -0.177322
v -0.144281 1.280251 -0.202188
v -0.193280 1.297366 -0.210836
v -0.158984 1.302338 -0.230928
v -0.177083 1.275685 -0.173964
v -0.142638 1.283020 -0.199852
v -0.194053 1.292799 -0.211265
v -0.159635 1.298475 -0.231487
v -0.175793 1.278578 -0.172608
v -0.141240 1.286308 -0.198078
v -0.194412 1.288223 -0.210891
v -0.159890 1.294513 -0.231381
v -0.174468 1.282009 -0.171648
v -0.140100 1.290184 -0.196889
v -0.194359 1.283802 -0.209754
v -0.159741 1.290592 -0.230602
v -0.173413 1.286332 -0.171086
v -0.139374 1.294077 -0.196438
v -0.193931 1.279446 -0.207793
v -0.159199 1.286874 -0.229166
v -0.172725 1.291074 -0.171291
v -0.139014 1.298095 -0.196673
v -0.193096 1.275566 -0.205123
v -0.158274 1.283466 -0.227099
v -0.172527 1.295731 -0.172334
v -0.139077 1.302057 -0.197571
v -0.191963 1.272497 -0.202113
v -0.157021 1.280589 -0.224500
v -0.172724 1.299937 -0.174017
v -0.139469 1.305423 -0.198924
v -0.190557 1.269954 -0.198494
v -0.155532 1.278385 -0.221569
v -0.173361 1.303831 -0.176351
v -0.140276 1.308774 -0.200965
v -0.188900 1.268235 -0.194707
v -0.153820 1.276832 -0.218322
v -0.582632 1.204275 0.143950
v -0.586642 1.204905 0.143832
v -0.587171 1.186156 0.120426
v -0.590692 1.186173 0.123256
v -0.574071 1.219739 0.144103
v -0.577905 1.219022 0.146383
v -0.602859 1.236454 0.111793
v -0.606050 1.235329 0.114786
v -0.600421 1.193848 0.105555
v -0.603646 1.193678 0.108714
v -0.574191 1.198910 0.139415
v -0.578012 1.198658 0.141812
v -0.586864 1.239540 0.132441
v -0.590418 1.238366 0.134970
v -0.608047 1.213158 0.100714
v -0.610907 1.212612 0.103771
v -0.583845 1.186797 0.124719
v -0.587442 1.186805 0.127453
v -0.575678 1.224891 0.143219
v -0.579478 1.224057 0.145515
v -0.605082 1.232931 0.108250
v -0.608221 1.231882 0.111324
v -0.597379 1.190498 0.108625
v -0.600671 1.190406 0.111716
v -0.573156 1.203740 0.141760
v -0.577002 1.203382 0.144102
v -0.593674 1.241463 0.124114
v -0.597172 1.240201 0.126932
v -0.590311 1.241006 0.128457
v -0.593787 1.239795 0.131074
v -0.606863 1.207843 0.100560
v -0.609950 1.207353 0.103821
v -0.580774 1.188476 0.128921
v -0.584441 1.188450 0.131559
v -0.577853 1.229617 0.141532
v -0.581606 1.228674 0.143863
v -0.606743 1.228673 0.105248
v -0.609843 1.227717 0.108392
v -0.594071 1.188042 0.112221
v -0.597436 1.188009 0.115233
v -0.573030 1.208947 0.143527
v -0.576642 1.208482 0.145662
v -0.597089 1.240785 0.119943
v -0.600413 1.239570 0.122751
v -0.605256 1.202691 0.101444
v -0.608377 1.202318 0.104689
v -0.578075 1.191128 0.132869
v -0.581804 1.191046 0.135417
v -0.580513 1.233734 0.139107
v -0.584208 1.232697 0.141490
v -0.607779 1.223842 0.102902
v -0.610853 1.222993 0.106102
v -0.590624 1.186576 0.116206
v -0.594067 1.186580 0.119130
v -0.573094 1.214359 0.144151
v -0.576947 1.213763 0.146432
v -0.600160 1.239106 0.115742
v -0.603414 1.237925 0.118645
v -0.603081 1.197966 0.103131
v -0.606248 1.197701 0.106341
v -0.575852 1.194651 0.136413
v -0.579633 1.194493 0.138879
v -0.583806 1.237036 0.136190
v -0.587183 1.235969 0.138487
v -0.596811 1.213897 0.141337
v -0.610836 1.207590 0.109450
v -0.611464 1.207768 0.113458
v -0.582330 1.208644 0.145279
v -0.586379 1.208753 0.144998
v -0.609485 1.203282 0.110199
v -0.610271 1.203978 0.114122
v -0.582596 1.213166 0.145931
v -0.586618 1.212734 0.145568
v -0.607658 1.199333 0.111620
v -0.608660 1.200505 0.115376
v -0.583422 1.217668 0.145882
v -0.587347 1.216695 0.145520
v -0.605427 1.195895 0.113657
v -0.606694 1.197483 0.117173
v -0.584773 1.221976 0.145132
v -0.588540 1.220485 0.144856
v -0.602877 1.193100 0.116233
v -0.604448 1.195027 0.119443
v -0.601848 1.232617 0.130865
v -0.586600 1.225925 0.143711
v -0.590151 1.223958 0.143601
v -0.600106 1.191056 0.119248
v -0.602008 1.193233 0.122100
v -0.602708 1.235207 0.125618
v -0.604333 1.232099 0.127664
v -0.588831 1.229363 0.141674
v -0.592117 1.226981 0.141804
v -0.597220 1.189841 0.122587
v -0.599467 1.192169 0.125040
v -0.605275 1.233791 0.122103
v -0.606591 1.230846 0.124571
v -0.591381 1.232158 0.139098
v -0.594363 1.229436 0.139534
v -0.594331 1.189501 0.126120
v -0.596925 1.191875 0.128151
v -0.607529 1.231560 0.118803
v -0.608573 1.228878 0.121668
v -0.594152 1.234202 0.136083
v -0.596803 1.231230 0.136878
v -0.591550 1.190050 0.129714
v -0.594478 1.192364 0.131314
v -0.609383 1.228603 0.115843
v -0.610202 1.226271 0.119065
v -0.597038 1.235417 0.132745
v -0.599344 1.232295 0.133937
v -0.588983 1.191467 0.133228
v -0.592220 1.193617 0.134406
v -0.610767 1.225031 0.113337
v -0.611416 1.223124 0.116862
v -0.586729 1.193697 0.136529
v -0.590239 1.195585 0.137310
v -0.611626 1.220983 0.111382
v -0.612169 1.219558 0.115145
v -0.584875 1.196655 0.139489
v -0.588609 1.198192 0.139913
v -0.611928 1.216614 0.110053
v -0.612432 1.215711 0.113979
v -0.583491 1.200227 0.141994
v -0.587395 1.201340 0.142115
v -0.611661 1.212091 0.109400
v -0.612193 1.211730 0.113410
v -0.607335 1.203601 0.125951
v -0.597450 1.215953 0.140987
v -0.606123 1.202262 0.127173
v -0.604694 1.222493 0.133412
v -0.598316 1.217839 0.140317
v -0.604804 1.201279 0.128606
v -0.605988 1.222262 0.131742
v -0.599375 1.219484 0.139352
v -0.603430 1.200691 0.130194
v -0.607211 1.221647 0.130037
v -0.600588 1.220823 0.138130
v -0.602052 1.200520 0.131877
v -0.608289 1.220592 0.128461
v -0.601906 1.221806 0.136697
v -0.600725 1.200772 0.133589
v -0.609168 1.219158 0.127095
v -0.603296 1.222339 0.135121
v -0.599499 1.201438 0.135266
v -0.609842 1.217494 0.125847
v -0.598421 1.202493 0.136841
v -0.610258 1.215569 0.124909
v -0.597584 1.203920 0.138241
v -0.610408 1.213489 0.124268
v -0.596868 1.205591 0.139456
v -0.610287 1.211335 0.123950
v -0.596453 1.207516 0.140394
v -0.609892 1.209205 0.124022
v -0.596303 1.209596 0.141034
v -0.609260 1.207132 0.124316
v -0.596424 1.211750 0.141353
v -0.608395 1.205246 0.124986
v -0.603707 1.211446 0.135014
v -0.605021 1.209822 0.133005
v -0.147600 1.316399 -0.214517
v -0.604930 1.212005 0.133892
v -0.604778 1.211972 0.134073
v -0.604589 1.210622 0.134016
v -0.605240 1.211749 0.133448
v -0.605296 1.211544 0.133335
v -0.604473 1.210759 0.134192
v -0.605305 1.211338 0.133277
v -0.604395 1.210986 0.134337
v -0.604383 1.211157 0.134396
v -0.605251 1.211049 0.133282
v -0.605172 1.210869 0.133341
v -0.604408 1.211406 0.134418
v -0.605063 1.210705 0.133448
v -0.604930 1.212005 0.133892
v -0.604499 1.211670 0.134358
v -0.605017 1.211987 0.133779
v -0.604895 1.210583 0.133632
v -0.604642 1.211872 0.134224
v -0.604756 1.210561 0.133793
v -0.605139 1.211910 0.133609
v -0.604669 1.210578 0.133906
v -0.604400 1.203808 0.130611
v -0.600505 1.216591 0.138260
v -0.606294 1.205243 0.128558
v -0.599270 1.213865 0.139208
v -0.607809 1.207624 0.127185
v -0.598727 1.210774 0.139213
v -0.598957 1.207787 0.138275
v -0.608893 1.212153 0.126817
v -0.608663 1.215140 0.127756
v -0.600645 1.204476 0.135445
v -0.604695 1.222512 0.133412
v -0.602417 1.203539 0.133029
v -0.602243 1.218537 0.136514
v -0.606974 1.218450 0.130586
v -0.601832 1.232653 0.130850
v -0.597169 1.240198 0.126929
v -0.593900 1.241391 0.124296
v -0.586322 1.244010 0.118190
v -0.226385 1.265454 -0.173825
v -0.224091 1.263836 -0.171100
v -0.272767 1.279468 -0.104936
v -0.208327 1.292563 -0.152380
v -0.273383 1.283026 -0.106998
v -0.208499 1.296188 -0.154881
v -0.225664 1.266564 -0.175818
v -0.273080 1.275488 -0.103069
v -0.208507 1.288520 -0.150460
v -0.291318 1.258806 -0.133922
v -0.227296 1.271156 -0.180522
v -0.226004 1.268273 -0.178177
v -0.273546 1.271352 -0.101989
v -0.208983 1.284395 -0.149276
v -0.227613 1.274739 -0.182938
v -0.272069 1.267687 -0.103292
v -0.209839 1.280251 -0.148776
v -0.293077 1.262230 -0.135239
v -0.227552 1.278683 -0.184785
v -0.211027 1.276211 -0.148997
v -0.293497 1.266124 -0.136629
v -0.227126 1.282788 -0.185973
v -0.271990 1.263942 -0.104507
v -0.212530 1.272452 -0.149886
v -0.292960 1.270306 -0.137784
v -0.226313 1.286943 -0.186474
v -0.273018 1.260307 -0.105803
v -0.214177 1.269147 -0.151475
v -0.292491 1.274425 -0.137911
v -0.225137 1.290990 -0.186290
v -0.178300 1.273210 -0.175883
v -0.274361 1.257086 -0.107688
v -0.215952 1.266394 -0.153700
v -0.294645 1.277846 -0.135141
v -0.224345 1.294558 -0.184952
v -0.276943 1.252510 -0.113459
v -0.274871 1.254636 -0.110887
v -0.217707 1.264336 -0.156453
v -0.280367 1.291346 -0.118222
v -0.212726 1.304742 -0.168375
v -0.214540 1.304966 -0.172026
v -0.286702 1.285829 -0.135955
v -0.222542 1.296193 -0.185136
v -0.329527 1.274336 -0.107474
v -0.219449 1.262981 -0.159806
v -0.278320 1.290302 -0.114966
v -0.211272 1.303682 -0.164741
v -0.285029 1.288525 -0.133521
v -0.219578 1.301096 -0.181920
v -0.220883 1.298511 -0.184425
v -0.278801 1.251199 -0.116772
v -0.220947 1.262475 -0.163642
v -0.276566 1.288492 -0.111812
v -0.210134 1.301830 -0.161094
v -0.218079 1.303119 -0.178847
v -0.280344 1.250752 -0.120496
v -0.222553 1.262755 -0.167351
v -0.273122 1.286531 -0.110631
v -0.209160 1.299225 -0.157681
v -0.280747 1.291064 -0.132333
v -0.216445 1.304421 -0.175428
v -0.380875 1.236801 -0.021144
v -0.381729 1.233435 -0.023945
v -0.406037 1.257075 -0.052195
v -0.383492 1.230557 -0.026796
v -0.395336 1.271332 -0.034760
v -0.405301 1.260978 -0.050271
v -0.386709 1.228119 -0.029100
v -0.391386 1.226293 -0.036317
v -0.388972 1.226780 -0.032652
v -0.394111 1.226620 -0.039789
v -0.395698 1.228035 -0.043867
v -0.394456 1.271455 -0.035468
v -0.346707 1.279072 -0.073859
v -0.397825 1.230132 -0.047222
v -0.404441 1.244286 -0.054598
v -0.182001 1.313555 -0.193958
v -0.148934 1.316377 -0.216675
v -0.214577 1.304970 -0.172002
v -0.543251 1.230966 0.118709
v -0.551698 1.191144 0.099397
v -0.576691 1.218715 0.073961
v -0.554953 1.246260 0.107421
v -0.541537 1.203845 0.114655
v -0.543326 1.199378 0.111568
v -0.568892 1.198487 0.079244
v -0.571652 1.242993 0.085832
v -0.540389 1.220006 0.119570
v -0.541528 1.225610 0.119601
v -0.555171 1.190462 0.094910
v -0.577072 1.224361 0.074823
v -0.551431 1.243718 0.111123
v -0.571718 1.202782 0.076731
v -0.565641 1.247533 0.094335
v -0.568845 1.245772 0.089964
v -0.558780 1.190890 0.090499
v -0.576690 1.229817 0.076488
v -0.548302 1.240184 0.114415
v -0.545604 1.195701 0.107846
v -0.574109 1.207687 0.075056
v -0.562167 1.248213 0.098849
v -0.437356 1.265340 -0.000966
v -0.562007 1.248241 0.098720
v -0.540124 1.214347 0.118802
v -0.565893 1.194980 0.082573
v -0.562334 1.192424 0.086282
v -0.575572 1.234873 0.078899
v -0.545386 1.235933 0.116822
v -0.548491 1.192910 0.103786
v -0.575695 1.213081 0.074046
v -0.558470 1.247799 0.103184
v -0.540496 1.208895 0.117132
v -0.405882 1.248510 -0.054191
v -0.573903 1.239320 0.082083
v -0.572417 1.236014 0.133706
v -0.567490 1.195155 0.130937
v -0.593170 1.194244 0.098669
v -0.598089 1.235106 0.101429
vn 0.5907 -0.5382 0.6012
vn 0.6608 -0.3311 0.6736
vn 0.6141 -0.3677 0.6983
vn 0.2611 0.8387 0.4780
vn 0.1602 0.9323 0.3243
vn 0.1388 0.9183 0.3707
vn 0.6523 -0.3492 0.6728
vn 0.6614 -0.1501 0.7348
vn 0.6584 -0.1534 0.7369
vn -0.2926 -0.7133 -0.6369
vn -0.3997 -0.5797 -0.7101
vn -0.3098 -0.7197 -0.6213
vn -0.3186 0.9242 -0.2106
vn 0.5909 0.4860 -0.6440
vn -0.3972 0.8455 -0.3568
vn 0.2830 -0.9250 0.2537
vn 0.8166 -0.5372 -0.2109
vn 0.4082 -0.8538 0.3232
vn -0.0669 0.9888 0.1333
vn 0.7146 0.6011 -0.3577
vn 0.3294 0.8092 -0.4865
vn 0.4353 -0.7224 0.5373
vn 0.9117 -0.4073 -0.0541
vn 0.5097 -0.5888 0.6272
vn 0.9423 -0.3346 -0.0085
vn 0.5899 -0.4548 0.6673
vn 0.4742 0.2796 0.8348
vn 0.9946 0.0061 0.1032
vn 0.9904 0.1081 0.0857
vn -0.9601 -0.2292 -0.1600
vn -0.9613 -0.2746 -0.0206
vn -0.9883 -0.1343 0.0719
vn -0.9887 -0.0957 -0.1155
vn -0.8510 -0.1974 -0.4866
vn -0.9362 -0.0456 -0.3484
vn -0.0949 -0.3738 0.9227
vn -0.1978 -0.2950 0.9348
vn -0.2378 -0.3917 0.8888
vn -0.1373 -0.4656 0.8743
vn 0.2627 -0.4354 0.8611
vn 0.1067 -0.5767 0.8100
vn -0.9986 -0.0506 0.0174
vn -0.9947 0.0424 -0.0940
vn -0.9465 0.0603 -0.3171
vn -0.3479 -0.5037 0.7907
vn -0.1790 -0.5745 0.7987
vn 0.0457 -0.6989 0.7138
vn -0.9876 0.0974 0.1232
vn -0.9831 0.1758 -0.0521
vn -0.9203 0.2861 -0.2669
vn -0.3849 -0.5617 0.7323
vn -0.2339 -0.6637 0.7105
vn -0.0367 -0.7870 0.6158
vn -0.9647 0.1987 0.1726
vn -0.9618 0.2738 0.0058
vn -0.8767 0.4405 -0.1933
vn -0.4392 -0.6174 0.6527
vn -0.3020 -0.7319 0.6109
vn -0.1201 -0.8672 0.4832
vn -0.6279 0.4546 0.6317
vn -0.6126 0.5273 0.5889
vn -0.5065 0.6255 0.5934
vn -0.9300 0.2831 0.2344
vn -0.9205 0.3823 0.0810
vn -0.8213 0.5629 -0.0929
vn -0.5050 -0.6541 0.5631
vn -0.3863 -0.7835 0.4868
vn -0.2113 -0.9181 0.3354
vn -0.5630 0.4048 0.7206
vn -0.4637 0.5572 0.6889
vn -0.3063 0.8006 0.5149
vn -0.2511 0.7080 0.6601
vn -0.8945 0.3385 0.2921
vn -0.8651 0.4720 0.1696
vn -0.7619 0.6473 0.0234
vn -0.5655 -0.6683 0.4834
vn -0.4712 -0.7970 0.3777
vn -0.3214 -0.9213 0.2189
vn -0.4854 0.4347 0.7586
vn -0.3791 0.4953 0.7816
vn -0.1387 0.6252 0.7680
vn -0.8400 0.3943 0.3727
vn -0.7973 0.5401 0.2694
vn -0.6665 0.7308 0.1477
vn -0.5824 -0.7109 0.3943
vn -0.5591 -0.7839 0.2700
vn -0.4022 -0.9027 0.1532
vn -0.4348 0.2850 0.8542
vn -0.3016 0.4110 0.8603
vn -0.0519 0.5129 0.8569
vn -0.7810 0.4294 0.4536
vn -0.7037 0.5975 0.3845
vn -0.5677 0.7746 0.2786
vn -0.7167 -0.6279 0.3035
vn -0.6463 -0.7437 0.1710
vn -0.5339 -0.8450 -0.0305
vn -0.3906 0.2163 0.8948
vn -0.2348 0.3113 0.9209
vn 0.0053 0.3840 0.9233
vn -0.7292 0.5201 0.4448
vn -0.4891 0.8491 0.1998
vn -0.7317 -0.6461 0.2173
vn -0.7185 -0.6884 0.0992
vn -0.6324 -0.7598 -0.1510
vn -0.3451 0.1195 0.9309
vn -0.1788 0.1895 0.9655
vn 0.0797 0.2300 0.9699
vn -0.8021 -0.5788 0.1470
vn -0.7970 -0.6036 0.0203
vn -0.7242 -0.6483 -0.2351
vn -0.3113 0.0123 0.9502
vn -0.1374 0.0635 0.9885
vn 0.1372 0.0626 0.9886
vn -0.8891 -0.4391 0.1296
vn -0.8644 -0.5011 -0.0417
vn -0.8034 -0.5232 -0.2842
vn -0.2910 -0.0887 0.9526
vn -0.1115 -0.0716 0.9912
vn 0.1478 -0.0984 0.9841
vn -0.9343 -0.3440 0.0941
vn -0.9197 -0.3833 -0.0853
vn -0.8655 -0.3669 -0.3410
vn -0.2230 -0.1626 0.9612
vn -0.1030 -0.2097 0.9723
vn 0.1299 -0.2014 0.9709
vn 0.0400 0.9118 0.4086
vn 0.5041 -0.5250 0.6857
vn -0.4226 -0.7393 -0.5242
vn -0.5269 0.7844 -0.3272
vn 0.5111 0.2096 0.8336
vn 0.0522 -0.9986 0.0100
vn -0.7246 0.1268 -0.6775
vn 0.1844 0.8126 0.5529
vn 0.1852 0.8471 0.4981
vn 0.2641 0.6678 0.6959
vn 0.4501 -0.6812 0.5773
vn -0.5182 -0.5925 -0.6168
vn -0.4294 0.8835 -0.1872
vn 0.5469 0.0179 0.8370
vn -0.0755 -0.9888 -0.1285
vn -0.6988 0.3253 -0.6371
vn 0.3741 -0.8116 0.4487
vn -0.5967 -0.4236 -0.6815
vn -0.1613 0.9611 0.2244
vn -0.3810 0.7903 0.4799
vn -0.3158 0.9481 -0.0363
vn 0.5626 -0.1949 0.8034
vn 0.6260 -0.1572 0.7639
vn 0.5121 -0.4034 0.7583
vn -0.1965 -0.9408 -0.2763
vn -0.6682 0.4958 -0.5546
vn 0.3664 0.5654 0.7390
vn 0.2795 -0.9099 0.3066
vn -0.6554 -0.2256 -0.7208
vn -0.0966 0.9588 0.2670
vn -0.3145 -0.8570 -0.4082
vn -0.6071 0.6538 -0.4517
vn 0.4438 0.3996 0.8021
vn 0.1707 -0.9736 0.1516
vn -0.1574 -0.8658 -0.4750
vn 0.5423 -0.5686 -0.6186
vn 0.6129 -0.5554 -0.5620
vn 0.4002 0.4441 0.8016
vn 0.9715 0.2250 0.0744
vn 0.9561 0.2929 0.0016
vn 0.3862 0.5953 0.7046
vn 0.4082 0.4343 0.8030
vn 0.3965 0.6050 0.6905
vn -0.2481 -0.7576 -0.6037
vn 0.4863 -0.4785 -0.7311
vn 0.4628 0.4327 0.7737
vn 0.4696 0.2595 0.8439
vn -0.3397 -0.6175 -0.7094
vn 0.4391 -0.4420 -0.7822
vn 0.5843 0.0684 0.8087
vn 0.5108 0.0475 0.8584
vn 0.5435 0.2587 0.7985
vn -0.4706 -0.4092 -0.7817
vn -0.4799 -0.4773 -0.7361
vn -0.4073 -0.5882 -0.6986
vn 0.5260 -0.1427 0.8384
vn 0.9899 -0.1108 0.0889
vn 0.5408 0.0966 0.8356
vn 0.5971 -0.1196 0.7932
vn 0.5284 -0.1414 0.8372
vn -0.4731 -0.2753 -0.8369
vn 0.4428 -0.3150 -0.8395
vn -0.4509 -0.4558 -0.7675
vn -0.5282 -0.2283 -0.8179
vn -0.5539 -0.2985 -0.7772
vn 0.5293 -0.3351 0.7794
vn 0.9737 -0.2206 0.0569
vn 0.5793 -0.3231 0.7483
vn 0.5242 -0.3234 0.7878
vn -0.5143 -0.0828 -0.8536
vn 0.4196 -0.2064 -0.8839
vn -0.5689 -0.0371 -0.8216
vn -0.6025 -0.1107 -0.7904
vn 0.5567 -0.4897 0.6711
vn 0.5326 -0.5111 0.6746
vn -0.5344 0.1135 -0.8375
vn 0.3519 -0.1330 -0.9265
vn -0.5873 0.1550 -0.7944
vn -0.6294 0.0826 -0.7726
vn 0.5113 -0.6476 0.5650
vn 0.4711 -0.6680 0.5760
vn -0.5323 0.3062 -0.7893
vn 0.3420 -0.0087 -0.9396
vn -0.6036 0.3390 -0.7216
vn -0.6356 0.2705 -0.7231
vn 0.8433 -0.5287 -0.0963
vn 0.4443 -0.7755 0.4486
vn 0.4121 -0.7989 0.4381
vn -0.5099 0.4782 -0.7151
vn 0.3509 0.1111 -0.9298
vn 0.3855 -0.8915 0.2380
vn 0.3468 -0.8786 0.3282
vn -0.0750 0.9799 0.1848
vn -0.0422 0.9760 0.2138
vn -0.0921 0.9632 0.2527
vn -0.1413 0.9811 0.1324
vn -0.4860 0.6443 -0.5904
vn 0.3833 0.2269 -0.8953
vn -0.5737 0.5059 -0.6441
vn -0.5573 0.5684 -0.6052
vn -0.5982 0.4577 -0.6578
vn 0.7292 -0.6267 -0.2748
vn 0.2731 -0.9590 0.0763
vn 0.2623 -0.9532 0.1501
vn 0.0202 0.9303 0.3663
vn 0.7823 0.5822 -0.2213
vn 0.7567 0.5626 -0.3330
vn 0.0627 0.9315 0.3582
vn 0.0108 0.9158 0.4015
vn -0.4278 0.7769 -0.4621
vn 0.4911 0.4441 -0.7494
vn 0.4176 0.3344 -0.8449
vn -0.4717 0.7815 -0.4083
vn -0.4421 0.7906 -0.4237
vn -0.5563 0.6335 -0.5378
vn 0.1741 -0.9842 -0.0325
vn 0.5901 -0.7065 -0.3907
vn 0.1556 -0.9857 -0.0641
vn 0.1709 -0.9834 -0.0608
vn 0.1264 0.8534 0.5057
vn 0.8518 0.5105 -0.1176
vn 0.1297 0.8443 0.5199
vn -0.3781 0.8912 -0.2507
vn -0.4400 0.8646 -0.2428
vn 0.0661 -0.9799 -0.1881
vn 0.5938 -0.6436 -0.4829
vn 0.0384 -0.9689 -0.2445
vn 0.0531 -0.9744 -0.2184
vn 0.2261 0.7486 0.6232
vn 0.9033 0.4278 -0.0334
vn 0.1770 0.8502 0.4959
vn 0.2332 0.7293 0.6432
vn -0.2794 0.9562 -0.0871
vn -0.0487 -0.9393 -0.3395
vn -0.1054 -0.9173 -0.3840
vn -0.0897 -0.9214 -0.3781
vn 0.3191 0.5992 0.7343
vn -0.2539 0.9629 -0.0913
vn -0.2710 0.9588 -0.0858
vn -0.3312 0.9016 -0.2782
vn -0.1084 -0.9116 -0.3964
vn -0.4429 -0.5508 -0.7074
vn -0.4187 -0.5478 -0.7243
vn 0.6590 0.0264 0.7516
vn 0.6378 -0.1723 0.7507
vn 0.6142 -0.5061 0.6055
vn -0.1802 0.9804 -0.0795
vn 0.7112 0.7005 0.0586
vn 0.8086 0.5776 0.1118
vn 0.1096 -0.9902 -0.0864
vn 0.1321 -0.9852 -0.1094
vn 0.2593 -0.9608 0.0984
vn -0.0238 -0.9772 -0.2110
vn 0.0537 -0.9653 -0.2554
vn -0.1299 -0.9293 -0.3458
vn -0.1175 -0.9094 -0.3989
vn 0.3328 -0.9134 0.2346
vn 0.3918 -0.9015 0.1839
vn 0.4791 -0.8042 0.3518
vn -0.2451 -0.8297 -0.5015
vn -0.2209 -0.8451 -0.4869
vn 0.2889 -0.9567 0.0360
vn -0.6898 -0.0226 -0.7236
vn -0.6270 -0.0301 -0.7784
vn 0.2830 0.8341 0.4734
vn 0.2637 0.7175 0.6447
vn 0.5885 -0.5497 0.5929
vn 0.5532 -0.5160 0.6540
vn 0.4607 -0.6721 0.5797
vn -0.2680 -0.8549 -0.4442
vn -0.4391 -0.7309 -0.5224
vn -0.5761 0.5489 -0.6057
vn -0.6253 0.5040 -0.5958
vn -0.6120 0.6526 -0.4467
vn -0.2064 0.9745 -0.0885
vn -0.3190 0.9467 -0.0445
vn -0.2389 0.9709 0.0177
vn -0.1655 0.9859 -0.0241
vn -0.3322 0.9160 -0.2249
vn -0.4253 0.8905 -0.1618
vn -0.4164 0.8264 -0.3790
vn -0.5110 0.8054 -0.3005
vn -0.4839 0.6878 -0.5411
vn -0.5969 0.3800 -0.7066
vn -0.6957 0.3222 -0.6420
vn -0.6049 0.1925 -0.7727
vn -0.7113 0.1414 -0.6886
vn -0.5908 -0.0048 -0.8068
vn -0.5688 -0.1922 -0.7997
vn -0.6660 -0.2343 -0.7082
vn -0.5272 -0.3803 -0.7599
vn -0.6132 -0.4053 -0.6781
vn -0.4395 -0.5474 -0.7121
vn -0.5354 -0.5622 -0.6302
vn -0.3401 -0.6936 -0.6350
vn -0.1900 -0.9404 -0.2822
vn -0.0731 -0.9875 -0.1397
vn 0.0471 -0.9988 0.0109
vn 0.1476 -0.9785 0.1442
vn 0.2578 -0.9195 0.2967
vn 0.3560 -0.8323 0.4249
vn 0.5633 -0.6629 0.4933
vn 0.5442 -0.3496 0.7626
vn 0.6655 -0.1541 0.7303
vn 0.6526 0.0109 0.7576
vn 0.5343 0.0086 0.8452
vn 0.6228 0.2191 0.7511
vn 0.5023 0.2205 0.8361
vn 0.5381 0.3820 0.7513
vn 0.4795 0.3584 0.8010
vn 0.4744 0.5522 0.6855
vn 0.3767 0.5376 0.7544
vn 0.3841 0.7048 0.5964
vn 0.0380 0.9077 0.4180
vn 0.0082 0.9822 0.1876
vn -0.0718 0.9689 0.2366
vn -0.0448 0.9897 0.1359
vn -0.1071 0.9744 0.1978
vn -0.4386 0.8122 -0.3846
vn -0.5063 0.6752 -0.5364
vn -0.6271 0.1574 -0.7629
vn -0.5868 -0.0438 -0.8086
vn -0.5760 -0.0309 -0.8169
vn -0.6305 0.1735 -0.7566
vn -0.5818 0.1726 -0.7948
vn -0.5878 -0.0572 -0.8070
vn 0.5730 0.4094 0.7099
vn 0.4999 0.5732 0.6492
vn -0.5452 0.5457 -0.6364
vn -0.1854 0.9824 -0.0213
vn -0.2378 0.9701 -0.0491
vn -0.2810 0.9555 -0.0898
vn 0.6183 -0.5036 0.6034
vn -0.5498 -0.2000 -0.8110
vn -0.5279 -0.2147 -0.8217
vn -0.5406 -0.2450 -0.8048
vn -0.5214 -0.4012 -0.7531
vn -0.4767 -0.4138 -0.7756
vn 0.6582 0.0484 0.7513
vn 0.6251 0.2183 0.7494
vn 0.5992 0.2380 0.7644
vn -0.3001 -0.7186 -0.6273
vn 0.5666 0.4125 0.7133
vn -0.1809 -0.8286 -0.5299
vn 0.4929 0.5716 0.6560
vn -0.1934 -0.8271 -0.5277
vn -0.1591 0.9869 -0.0266
vn -0.2191 0.9674 -0.1269
vn -0.1681 0.9855 -0.0232
vn 0.3918 0.7226 0.5695
vn 0.3836 0.7206 0.5775
vn 0.0546 -0.9624 -0.2660
vn -0.3122 0.9121 -0.2657
vn -0.3374 0.9083 -0.2472
vn 0.2868 0.8397 0.4611
vn 0.1853 -0.9757 -0.1167
vn 0.1522 -0.9868 -0.0546
vn 0.1638 0.9275 0.3360
vn 0.2950 -0.9550 0.0321
vn 0.2673 -0.9579 0.1046
vn -0.4233 0.8146 -0.3965
vn 0.0427 0.9795 0.1967
vn 0.0247 0.9837 0.1782
vn 0.4106 -0.8924 0.1869
vn 0.3722 -0.8912 0.2594
vn -0.5706 0.5433 -0.6158
vn -0.5249 0.6716 -0.5229
vn -0.0438 0.9908 0.1280
vn -0.0364 0.9914 0.1253
vn 0.4672 -0.8128 0.3478
vn 0.5031 -0.7869 0.3572
vn 0.4869 -0.7829 0.3873
vn -0.5857 0.3758 -0.7181
vn -0.5708 0.3550 -0.7404
vn -0.5969 0.3359 -0.7286
vn 0.5678 -0.6836 0.4587
vn 0.5745 -0.6618 0.4816
vn 0.5690 -0.6551 0.4971
vn 0.3336 0.7316 0.5945
vn 0.4106 0.5859 0.6986
vn 0.3545 0.7357 0.5771
vn 0.2443 0.8519 0.4633
vn 0.1255 0.9352 0.3313
vn -0.5188 0.6537 -0.5509
vn 0.0022 0.9830 0.1835
vn 0.2771 -0.9565 0.0916
vn -0.0712 0.9884 0.1340
vn 0.4138 -0.8057 0.4239
vn 0.6612 -0.3319 0.6727
vn 0.6506 0.0510 0.7577
vn -0.4000 -0.6410 -0.6551
vn 0.5992 0.2390 0.7641
vn -0.3223 -0.7523 -0.5747
vn 0.5338 0.4277 0.7295
vn -0.2545 -0.8028 -0.5392
vn -0.1892 -0.8611 -0.4719
vn -0.2782 0.9577 0.0733
vn -0.8610 0.1969 0.4690
vn -0.8356 0.0261 0.5487
vn -0.7731 0.2508 0.5825
vn -0.8356 0.0305 0.5484
vn -0.8058 0.0481 0.5902
vn -0.8262 0.2149 0.5207
vn -0.5762 0.1228 0.8080
vn -0.7202 0.0309 0.6931
vn -0.6952 -0.0166 0.7187
vn -0.6133 0.1734 0.7706
vn -0.7003 0.0258 0.7134
vn -0.6618 -0.0312 0.7490
vn -0.7072 -0.4892 0.5105
vn -0.7264 -0.3200 0.6082
vn -0.7680 -0.3039 0.5638
vn -0.6827 -0.4960 0.5365
vn -0.8958 0.1384 0.4223
vn -0.7016 0.2091 0.6812
vn -0.6201 -0.4817 0.6193
vn -0.9225 0.1457 0.3575
vn -0.7101 0.2723 0.6493
vn -0.6865 -0.2981 0.6632
vn -0.5789 -0.4457 0.6828
vn -0.6915 -0.3039 0.6553
vn -0.7153 -0.3142 0.6241
vn -0.9316 0.0880 0.3528
vn -0.8736 -0.0566 0.4833
vn -0.5467 -0.4282 0.7195
vn -0.9431 -0.0397 0.3300
vn -0.4946 -0.3967 0.7733
vn -0.6612 -0.2728 0.6989
vn -0.8791 -0.1104 0.4637
vn -0.9508 -0.0900 0.2966
vn -0.5033 -0.3387 0.7949
vn -0.6455 -0.2109 0.7340
vn -0.9506 -0.1372 0.2786
vn -0.5097 -0.2137 0.8334
vn -0.6380 -0.2159 0.7392
vn -0.9403 -0.2252 0.2552
vn -0.6397 -0.1536 0.7531
vn -0.4899 -0.1609 0.8568
vn -0.9036 -0.2967 0.3091
vn -0.8498 -0.2286 0.4750
vn -0.4887 -0.1010 0.8666
vn -0.6509 -0.1184 0.7498
vn -0.8777 -0.3506 0.3268
vn -0.8448 -0.2456 0.4754
vn -0.8680 -0.1807 0.4625
vn -0.6522 -0.0746 0.7544
vn -0.4936 -0.0611 0.8676
vn -0.8186 -0.2791 0.5020
vn -0.8591 -0.3814 0.3412
vn -0.5535 0.0461 0.8316
vn -0.8031 -0.4433 0.3981
vn -0.5655 0.1030 0.8183
vn -0.7740 -0.4661 0.4287
vn -0.6358 -0.0756 0.7681
vn -0.6062 -0.1872 0.7729
vn -0.7951 -0.2920 0.5316
vn -0.7667 -0.3424 0.5431
vn -0.8267 -0.3000 0.4760
vn -0.7429 -0.3234 0.5861
vn -0.7944 0.0451 0.6057
vn -0.8776 -0.1160 0.4651
vn -0.8738 -0.0552 0.4831
vn -0.8566 -0.0063 0.5160
vn -0.6977 0.1929 0.6899
vn -0.7606 0.0467 0.6475
vn -0.7428 0.0405 0.6683
vt 0.343296 0.500000
vt 0.312265 0.500000
vt 0.312538 0.497410
vt 0.095101 0.500000
vt 0.061328 0.500000
vt 0.062536 0.497381
vt 0.319305 0.500000
vt 0.281042 0.500000
vt 0.283362 0.500000
vt 0.630275 0.500000
vt 0.661561 0.500000
vt 0.645426 0.500000
vt 0.951324 0.500000
vt 0.941640 0.500000
vt 0.931130 0.500000
vt 0.452988 0.500000
vt 0.439201 0.500000
vt 0.430198 0.500000
vt 0.000094 0.500000
vt 0.019922 0.500000
vt 0.000227 0.500000
vt 0.390847 0.500000
vt 0.376820 0.500000
vt 0.366773 0.500000
vt 0.345514 0.500000
vt 0.341756 0.500000
vt 0.215838 0.500000
vt 0.249835 0.500000
vt 0.218265 0.500000
vt 0.718730 0.000000
vt 0.718778 0.000000
vt 0.750028 0.000000
vt 0.749980 0.000000
vt 0.718782 0.000000
vt 0.750032 0.000000
vt 0.312480 0.000000
vt 0.312528 0.000000
vt 0.343778 0.000000
vt 0.343730 0.000000
vt 0.312532 0.000000
vt 0.343782 0.000000
vt 0.781278 0.000000
vt 0.781230 0.000000
vt 0.781282 0.000000
vt 0.375028 0.000000
vt 0.374980 0.000000
vt 0.375032 0.000000
vt 0.812528 0.000000
vt 0.812480 0.000000
vt 0.812532 0.000000
vt 0.406278 0.000000
vt 0.406230 0.000000
vt 0.406282 0.000000
vt 0.843778 0.000000
vt 0.843730 0.000000
vt 0.843782 0.000000
vt 0.437528 0.000000
vt 0.437480 0.000000
vt 0.437532 0.000000
vt 0.000003 0.000000
vt 0.031278 0.000000
vt 0.031230 0.000000
vt 0.875028 0.000000
vt 0.874980 0.000000
vt 0.875032 0.000000
vt 0.468778 0.000000
vt 0.468730 0.000000
vt 0.468782 0.000000
vt 0.062528 0.000000
vt 0.062480 0.000000
vt 0.031282 0.000000
vt 0.062532 0.000000
vt 0.906278 0.000000
vt 0.906230 0.000000
vt 0.906282 0.000000
vt 0.500028 0.000000
vt 0.499980 0.000000
vt 0.500032 0.000000
vt 0.093778 0.000000
vt 0.093730 0.000000
vt 0.093782 0.000000
vt 0.937528 0.000000
vt 0.937480 0.000000
vt 0.937532 0.000000
vt 0.531278 0.000000
vt 0.531230 0.000000
vt 0.531282 0.000000
vt 0.125028 0.000000
vt 0.124980 0.000000
vt 0.125032 0.000000
vt 0.968778 0.000000
vt 0.968730 0.000000
vt 0.968782 0.000000
vt 0.562528 0.000000
vt 0.562480 0.000000
vt 0.562532 0.000000
vt 0.156278 0.000000
vt 0.156230 0.000000
vt 0.156282 0.000000
vt 0.999996 0.000000
vt 0.999999 0.000000
vt 0.593778 0.000000
vt 0.593730 0.000000
vt 0.593782 0.000000
vt 0.187528 0.000000
vt 0.187480 0.000000
vt 0.187532 0.000000
vt 0.625028 0.000000
vt 0.624980 0.000000
vt 0.625032 0.000000
vt 0.218778 0.000000
vt 0.218730 0.000000
vt 0.218782 0.000000
vt 0.656278 0.000000
vt 0.656230 0.000000
vt 0.656282 0.000000
vt 0.250028 0.000000
vt 0.249980 0.000000
vt 0.250032 0.000000
vt 0.687528 0.000000
vt 0.687480 0.000000
vt 0.687532 0.000000
vt 0.281278 0.000000
vt 0.281230 0.000000
vt 0.281282 0.000000
vt 0.062476 0.000000
vt 0.343726 0.000000
vt 0.624976 0.000000
vt 0.906226 0.000000
vt 0.218726 0.000000
vt 0.499976 0.000000
vt 0.781226 0.000000
vt 0.093727 0.000000
vt 0.093812 0.002463
vt 0.124976 0.000000
vt 0.374976 0.000000
vt 0.656226 0.000000
vt 0.937476 0.000000
vt 0.249976 0.000000
vt 0.531226 0.000000
vt 0.812476 0.000000
vt 0.406226 0.000000
vt 0.687476 0.000000
vt 0.000024 0.000000
vt 0.000001 0.000000
vt 0.968726 0.000000
vt 0.281227 0.000000
vt 0.281316 0.002811
vt 0.312476 0.000000
vt 0.562476 0.000000
vt 0.843726 0.000000
vt 0.156226 0.000000
vt 0.437476 0.000000
vt 0.718726 0.000000
vt 0.031226 0.000000
vt 0.593726 0.000000
vt 0.874976 0.000000
vt 0.187476 0.000000
vt 0.468726 0.000000
vt 0.592430 0.500000
vt 0.594387 0.500000
vt 0.563360 0.500000
vt 0.184615 0.500000
vt 0.189928 0.500000
vt 0.158781 0.500000
vt 0.147807 0.500000
vt 0.187299 0.500000
vt 0.155727 0.500000
vt 0.625132 0.500000
vt 0.625200 0.500000
vt 0.178545 0.500000
vt 0.219204 0.500000
vt 0.656086 0.500000
vt 0.656941 0.500000
vt 0.232705 0.500000
vt 0.249994 0.500000
vt 0.219338 0.500000
vt 0.692584 0.500000
vt 0.681535 0.500000
vt 0.617751 0.500000
vt 0.282508 0.500000
vt 0.281326 0.500000
vt 0.248866 0.500000
vt 0.273452 0.500000
vt 0.280918 0.500000
vt 0.722458 0.500000
vt 0.688922 0.500000
vt 0.689334 0.500000
vt 0.723576 0.500000
vt 0.711940 0.500000
vt 0.314350 0.500000
vt 0.312460 0.500000
vt 0.323739 0.500000
vt 0.312145 0.500000
vt 0.753899 0.500000
vt 0.720442 0.500000
vt 0.757264 0.500000
vt 0.742463 0.500000
vt 0.354790 0.500000
vt 0.343558 0.500000
vt 0.785498 0.500000
vt 0.751880 0.500000
vt 0.791342 0.500000
vt 0.773919 0.500000
vt 0.386059 0.500000
vt 0.374615 0.500000
vt 0.817182 0.500000
vt 0.783130 0.500000
vt 0.837172 0.500000
vt 0.806082 0.500000
vt 0.408117 0.500000
vt 0.419717 0.500000
vt 0.405673 0.500000
vt 0.848560 0.500000
vt 0.814282 0.500000
vt 0.444452 0.500000
vt 0.436433 0.500000
vt 0.029625 0.500000
vt 0.025324 0.500000
vt 0.031259 0.500000
vt -0.000080 0.500000
vt 0.876853 0.500000
vt 0.845657 0.500000
vt 0.843385 0.500000
vt 0.856806 0.500000
vt 0.840686 0.500000
vt 0.470324 0.500000
vt 0.481532 0.500000
vt 0.469695 0.500000
vt 0.058507 0.500000
vt 0.065415 0.500000
vt 0.035623 0.500000
vt 0.056528 0.500000
vt 0.061878 0.500000
vt 0.904042 0.500000
vt 0.907324 0.500000
vt 0.876070 0.500000
vt 0.892299 0.500000
vt 0.908859 0.500000
vt 0.879691 0.500000
vt 0.496814 0.500000
vt 0.501330 0.500000
vt 0.514459 0.500000
vt 0.502236 0.500000
vt 0.090160 0.500000
vt 0.096603 0.500000
vt 0.093643 0.500000
vt 0.928460 0.500000
vt 0.937634 0.500000
vt 0.528643 0.500000
vt 0.532026 0.500000
vt 0.530759 0.500000
vt 0.533310 0.500000
vt 0.120964 0.500000
vt 0.127549 0.500000
vt 0.087540 0.500000
vt 0.125884 0.500000
vt 0.970892 0.500000
vt 0.560591 0.500000
vt 0.563421 0.500000
vt 0.564869 0.500000
vt 0.153173 0.500000
vt 0.968933 0.500000
vt 0.968271 0.500000
vt 0.935490 0.500000
vt 0.555246 0.500000
vt 0.656280 0.500000
vt 0.619725 0.500000
vt 0.251544 0.500000
vt 0.281134 0.500000
vt 0.354168 0.500000
vt 1.000017 0.500000
vt 0.999998 0.500000
vt 0.955009 0.500000
vt 0.500040 0.497395
vt 0.500030 0.500000
vt 0.468790 0.497408
vt 0.531290 0.497375
vt 0.531301 0.500000
vt 0.562578 0.497384
vt 0.562642 0.500000
vt 0.437539 0.497380
vt 0.437304 0.500000
vt 0.406292 0.497396
vt 0.593693 0.500000
vt 0.593704 0.497375
vt 0.468767 0.500000
vt 0.749977 0.000000
vt 0.750100 0.002449
vt 0.093784 0.497424
vt 0.124936 0.002745
vt 0.343823 0.497400
vt 0.343670 0.002902
vt 0.374962 0.002934
vt 0.593670 0.002902
vt 0.624962 0.002934
vt 0.843830 0.497392
vt 0.843714 0.002493
vt 0.874962 0.002934
vt 0.968779 0.497400
vt 0.968726 0.003097
vt 0.999915 0.002127
vt 0.999845 0.499951
vt 0.937535 0.497381
vt 0.937517 0.002545
vt 0.906285 0.497389
vt 0.906258 0.003071
vt 0.875038 0.497403
vt 0.812622 0.497384
vt 0.812506 0.002700
vt 0.781322 0.497402
vt 0.781227 0.002521
vt 0.750050 0.497400
vt 0.718770 0.497402
vt 0.718720 0.003045
vt 0.687593 0.497380
vt 0.687521 0.002465
vt 0.656322 0.497371
vt 0.656258 0.002872
vt 0.625017 0.497400
vt 0.562505 0.002482
vt 0.531219 0.003045
vt 0.500021 0.002465
vt 0.468758 0.002872
vt 0.437508 0.002872
vt 0.406258 0.002872
vt 0.375100 0.497396
vt 0.312476 0.002341
vt 0.281292 0.497399
vt 0.250018 0.497405
vt 0.250021 0.002465
vt 0.218814 0.497406
vt 0.218758 0.002872
vt 0.187534 0.497395
vt 0.187516 0.002545
vt 0.156328 0.497397
vt 0.156258 0.003071
vt 0.124994 0.497386
vt 0.062506 0.002701
vt 0.031297 0.497396
vt 0.031256 0.002700
vt 0.000074 0.497748
vt 0.000060 0.002595
vt 0.906300 0.500000
vt 0.876741 0.500000
vt 0.780764 0.500000
vt 0.753995 0.500000
vt 0.750034 0.500000
vt 0.781956 0.500000
vt 0.790103 0.500000
vt 0.758660 0.500000
vt 0.187301 0.500000
vt 0.156262 0.500000
vt 0.843427 0.500000
vt 1.000029 0.500000
vt 1.000003 0.500000
vt 0.967179 0.500000
vt 0.343547 0.500000
vt 0.718216 0.500000
vt 0.718580 0.500000
vt 0.730000 0.500000
vt 0.687285 0.500000
vt 0.687595 0.500000
vt 0.250009 0.500000
vt 0.218936 0.500000
vt 0.218524 0.500000
vt 0.625035 0.500000
vt 0.187482 0.500000
vt 0.595586 0.500000
vt 0.156276 0.500000
vt 0.593089 0.500000
vt 0.999997 0.500000
vt 0.968744 0.500000
vt 1.000168 0.500000
vt 0.124908 0.500000
vt 0.123351 0.500000
vt 0.531320 0.500000
vt 0.938024 0.500000
vt 0.933806 0.500000
vt 0.093734 0.500000
vt 0.498348 0.500000
vt 0.499412 0.500000
vt 0.062493 0.500000
vt 0.468132 0.500000
vt 0.468379 0.500000
vt 0.903792 0.500000
vt 0.031251 0.500000
vt 0.031289 0.500000
vt 0.436986 0.500000
vt 0.436744 0.500000
vt 0.845351 0.500000
vt 0.872397 0.500000
vt -0.000138 0.500000
vt -0.000001 0.500000
vt 0.404435 0.500000
vt 0.406341 0.500000
vt 0.405990 0.500000
vt 0.814407 0.500000
vt 0.812374 0.500000
vt 0.820655 0.500000
vt 0.382386 0.500000
vt 0.374918 0.500000
vt 0.374775 0.500000
vt 0.119636 0.500000
vt 0.156129 0.500000
vt 0.124870 0.500000
vt 0.093586 0.500000
vt 0.062323 0.500000
vt 0.861661 0.500000
vt 0.031037 0.500000
vt 0.470847 0.500000
vt -0.000008 0.500000
vt 0.408107 0.500000
vt 0.312299 0.500000
vt 0.249801 0.500000
vt 0.651273 0.500000
vt 0.218608 0.500000
vt 0.628247 0.500000
vt 0.187383 0.500000
vt 0.606155 0.500000
vt 0.589277 0.500000
vt 0.999931 0.000000
vt 0.937495 0.000000
vt 0.923809 0.000000
vt 0.968742 0.000000
vt 0.919969 0.000000
vt 0.968750 0.000000
vt 0.999998 0.000000
vt 0.124995 0.000000
vt 0.080056 0.000000
vt 0.142555 0.000000
vt 0.093745 0.000000
vt 0.101947 0.000000
vt 0.163912 0.000000
vt 0.531245 0.000000
vt 0.486305 0.000000
vt 0.548805 0.000000
vt 0.499995 0.000000
vt 0.906245 0.000000
vt 0.062495 0.000000
vt 0.468745 0.000000
vt 0.874991 0.000000
vt 0.031241 0.000000
vt 0.423807 0.000000
vt 0.437495 0.000000
vt 0.437499 0.000000
vt 0.468750 0.000000
vt 0.843745 0.000000
vt 0.830054 0.000000
vt 0.406245 0.000000
vt 0.812495 0.000000
vt 0.374991 0.000000
vt 0.382373 0.000000
vt 0.767556 0.000000
vt 0.781245 0.000000
vt 0.343745 0.000000
vt 0.330056 0.000000
vt 0.749995 0.000000
vt 0.312495 0.000000
vt 0.320570 0.000000
vt 0.718742 0.000000
vt 0.267557 0.000000
vt 0.281245 0.000000
vt 0.687495 0.000000
vt 0.673805 0.000000
vt 0.249995 0.000000
vt 0.239391 0.000000
vt 0.656245 0.000000
vt 0.656251 0.000000
vt 0.701070 0.000000
vt 0.205057 0.000000
vt 0.218745 0.000000
vt 0.611305 0.000000
vt 0.624995 0.000000
vt 0.187495 0.000000
vt 0.593745 0.000000
vt 0.156245 0.000000
vt 0.562495 0.000000
vt 0.226126 0.000000
vt 0.281250 0.000000
vt 0.578535 0.000000
vt 0.546877 0.000000
vt 0.607339 0.000000
vt 0.500001 0.000000
vt 1.000000 0.000000
vt 0.765687 0.000000
vt 0.812500 0.000000
vt 0.865114 0.000000
vt 0.000002 0.000000
vt 0.000000 0.000000
vt 0.052613 0.000000
s 1
g off
g Object_53_HeadIselda
usemtl HeadIselda
f 59/1/1 485/3/3 34/2/2
f 53/4/4 456/6/6 60/5/5
f 66/7/7 69/9/9 70/8/8
f 77/10/10 78/12/12 79/11/11
f 115/13/13 116/15/15 117/14/14
f 132/16/16 133/18/18 134/17/17
f 137/19/19 138/21/21 334/20/20
f 404/22/22 143/24/24 144/23/23
f 143/24/24 147/26/26 148/25/25
f 163/27/27 164/29/29 160/28/28
f 240/30/30 300/32/32 241/31/31
f 240/30/30 299/33/33 300/32/32
f 206/34/34 190/35/35 240/30/30
f 175/36/36 298/38/38 176/37/37
f 175/36/36 297/39/39 298/38/38
f 200/40/40 186/41/41 175/36/36
f 299/33/33 296/42/42 300/32/32
f 299/33/33 295/43/43 296/42/42
f 190/35/35 28/44/44 299/33/33
f 297/39/39 294/45/45 298/38/38
f 297/39/39 293/46/46 294/45/45
f 186/41/41 236/47/47 297/39/39
f 295/43/43 292/48/48 296/42/42
f 295/43/43 291/49/49 292/48/48
f 28/44/44 226/50/50 295/43/43
f 293/46/46 290/51/51 294/45/45
f 293/46/46 289/52/52 290/51/51
f 236/47/47 222/53/53 293/46/46
f 291/49/49 288/54/54 292/48/48
f 291/49/49 287/55/55 288/54/54
f 226/50/50 212/56/56 291/49/49
f 289/52/52 286/57/57 290/51/51
f 289/52/52 285/58/58 286/57/57
f 222/53/53 208/59/59 289/52/52
f 370/60/60 283/62/62 284/61/61
f 287/55/55 282/63/63 288/54/54
f 287/55/55 281/64/64 282/63/63
f 212/56/56 196/65/65 287/55/55
f 285/58/58 280/66/66 286/57/57
f 285/58/58 279/67/67 280/66/66
f 208/59/59 192/68/68 285/58/58
f 283/62/62 278/69/69 284/61/61
f 283/62/62 277/70/70 278/69/69
f 204/71/71 188/72/72 283/62/62
f 281/64/64 276/73/73 282/63/63
f 281/64/64 275/74/74 276/73/73
f 196/65/65 182/75/75 281/64/64
f 279/67/67 274/76/76 280/66/66
f 279/67/67 273/77/77 274/76/76
f 192/68/68 178/78/78 279/67/67
f 277/70/70 272/79/79 278/69/69
f 277/70/70 271/80/80 272/79/79
f 188/72/72 238/81/81 277/70/70
f 275/74/74 270/82/82 276/73/73
f 275/74/74 269/83/83 270/82/82
f 182/75/75 232/84/84 275/74/74
f 273/77/77 268/85/85 274/76/76
f 273/77/77 267/86/86 268/85/85
f 178/78/78 228/87/87 273/77/77
f 271/80/80 266/88/88 272/79/79
f 271/80/80 265/89/89 266/88/88
f 238/81/81 224/90/90 271/80/80
f 269/83/83 264/91/91 270/82/82
f 269/83/83 263/92/92 264/91/91
f 232/84/84 218/93/93 269/83/83
f 267/86/86 262/94/94 268/85/85
f 267/86/86 261/95/95 262/94/94
f 228/87/87 214/96/96 267/86/86
f 265/89/89 260/97/97 266/88/88
f 265/89/89 259/98/98 260/97/97
f 224/90/90 210/99/99 265/89/89
f 263/92/92 258/100/100 264/91/91
f 218/93/93 202/101/101 263/92/92
f 261/95/95 257/102/102 262/94/94
f 261/95/95 256/103/103 257/102/102
f 214/96/96 198/104/104 261/95/95
f 259/98/98 255/105/105 260/97/97
f 259/98/98 254/106/106 255/105/105
f 210/99/99 194/107/107 259/98/98
f 256/103/103 253/108/108 257/102/102
f 256/103/103 252/109/109 253/108/108
f 198/104/104 184/110/110 256/103/103
f 254/106/106 251/111/111 255/105/105
f 254/106/106 250/112/112 251/111/111
f 194/107/107 180/113/113 254/106/106
f 252/109/109 249/114/114 253/108/108
f 252/109/109 248/115/115 249/114/114
f 184/110/110 234/116/116 252/109/109
f 250/112/112 247/117/117 251/111/111
f 250/112/112 246/118/118 247/117/117
f 180/113/113 230/119/119 250/112/112
f 248/115/115 245/120/120 249/114/114
f 248/115/115 244/121/121 245/120/120
f 234/116/116 220/122/122 248/115/115
f 246/118/118 243/123/123 247/117/117
f 246/118/118 242/124/124 243/123/123
f 230/119/119 216/125/125 246/118/118
f 244/121/121 241/31/31 245/120/120
f 244/121/121 240/30/30 241/31/31
f 220/122/122 206/34/34 244/121/121
f 187/126/126 238/81/81 188/72/72
f 185/127/127 236/47/47 186/41/41
f 183/128/128 234/116/116 184/110/110
f 181/129/129 232/84/84 182/75/75
f 179/130/130 230/119/119 180/113/113
f 177/131/131 228/87/87 178/78/78
f 27/132/132 226/50/50 28/44/44
f 237/133/133 224/90/90 238/81/81
f 25/134/134 223/135/135 237/133/133
f 235/136/136 222/53/53 236/47/47
f 233/137/137 220/122/122 234/116/116
f 231/138/138 218/93/93 232/84/84
f 229/139/139 216/125/125 230/119/119
f 227/140/140 214/96/96 228/87/87
f 225/141/141 212/56/56 226/50/50
f 223/135/135 210/99/99 224/90/90
f 221/142/142 208/59/59 222/53/53
f 219/143/143 206/34/34 220/122/122
f 372/144/144 204/71/71 371/145/145
f 217/146/146 202/101/101 218/93/93
f 215/147/147 200/40/40 216/125/125
f 20/148/148 199/149/149 215/147/147
f 213/150/150 198/104/104 214/96/96
f 211/151/151 196/65/65 212/56/56
f 209/152/152 194/107/107 210/99/99
f 207/153/153 192/68/68 208/59/59
f 205/154/154 190/35/35 206/34/34
f 203/155/155 188/72/72 204/71/71
f 199/149/149 186/41/41 200/40/40
f 197/156/156 184/110/110 198/104/104
f 195/157/157 182/75/75 196/65/65
f 193/158/158 180/113/113 194/107/107
f 191/159/159 178/78/78 192/68/68
f 242/124/124 176/37/37 243/123/123
f 242/124/124 175/36/36 176/37/37
f 216/125/125 200/40/40 242/124/124
f 169/160/160 174/162/162 170/161/161
f 167/163/163 172/165/165 168/164/164
f 378/166/166 379/168/168 377/167/167
f 165/169/169 170/161/161 166/170/170
f 163/27/27 168/164/164 164/29/29
f 376/171/171 377/167/167 382/172/172
f 161/173/173 166/170/170 162/174/174
f 386/175/175 382/172/172 387/176/176
f 386/175/175 381/177/177 382/172/172
f 391/178/178 383/180/180 388/179/179
f 155/181/181 159/183/183 156/182/182
f 389/184/184 387/176/176 390/185/185
f 153/186/186 157/188/188 158/187/187
f 394/189/189 391/178/178 392/190/190
f 151/191/191 155/181/181 152/192/192
f 396/193/193 390/185/185 393/194/194
f 396/193/193 389/184/184 390/185/185
f 149/195/195 153/186/186 154/196/196
f 398/197/197 394/189/189 395/198/198
f 147/26/26 151/191/191 148/25/25
f 400/199/199 396/193/193 397/200/200
f 145/201/201 149/195/195 150/202/202
f 402/203/203 398/197/197 399/204/204
f 143/24/24 148/25/25 144/23/23
f 405/205/205 400/199/199 401/206/206
f 141/207/207 145/201/201 146/208/208
f 407/209/209 402/203/203 403/210/210
f 404/22/22 144/23/23 140/211/211
f 410/212/212 405/205/205 406/213/213
f 135/214/214 141/207/207 142/215/215
f 133/18/18 140/211/211 134/17/17
f 409/216/216 410/212/212 411/217/217
f 130/218/218 137/19/19 334/20/20
f 412/219/219 414/221/221 413/220/220
f 128/222/222 135/214/214 136/223/223
f 417/224/224 408/226/226 416/225/225
f 132/16/16 134/17/17 127/227/227
f 424/228/228 409/216/216 418/229/229
f 124/230/230 131/232/232 125/231/231
f 419/233/233 413/220/220 420/234/234
f 122/235/235 129/237/237 123/236/236
f 421/238/238 423/240/240 422/239/239
f 120/241/241 127/227/227 121/242/242
f 429/243/243 418/229/229 425/244/244
f 429/243/243 424/228/228 418/229/229
f 118/245/245 125/231/231 119/246/246
f 419/233/233 420/234/234 427/247/247
f 116/15/15 123/236/236 117/14/14
f 433/248/248 422/239/239 428/249/249
f 113/250/250 121/242/242 114/251/251
f 90/252/252 425/244/244 430/253/253
f 90/252/252 429/243/243 425/244/244
f 111/254/254 119/246/246 112/255/255
f 426/256/256 427/247/247 432/257/257
f 64/258/258 115/13/13 117/14/14
f 173/259/259 114/251/251 174/162/162
f 85/260/260 430/253/253 375/261/261
f 85/260/260 90/252/252 430/253/253
f 171/262/262 112/255/255 172/165/165
f 378/166/166 432/257/257 379/168/168
f 86/263/263 92/265/265 87/264/264
f 445/266/266 90/252/252 85/260/260
f 51/267/267 79/11/11 74/268/268
f 69/9/9 41/270/270 72/269/269
f 41/270/270 69/9/9 66/7/7
f 59/1/1 66/7/7 435/271/271
f 450/272/272 65/274/274 451/273/273
f 450/272/272 64/258/258 65/274/274
f 463/275/275 454/277/277 55/276/276
f 469/278/278 463/275/275 48/279/279
f 479/280/280 48/279/279 40/281/281
f 479/280/280 469/278/278 48/279/279
f 482/282/282 472/284/284 37/283/283
f 33/285/285 478/286/286 40/281/281
f 454/277/277 482/282/282 62/287/287
f 189/288/288 28/44/44 190/35/35
f 7/289/289 27/132/132 189/288/288
f 465/290/290 488/291/291 25/134/134
f 457/292/292 489/294/294 18/293/293
f 478/286/286 490/296/296 11/295/295
f 480/297/297 491/299/299 4/298/298
f 467/300/300 373/302/302 1/301/301
f 476/303/303 373/302/302 467/300/300
f 467/300/300 2/305/305 468/304/304
f 467/300/300 1/301/301 2/305/305
f 468/304/304 3/307/307 460/306/306
f 468/304/304 2/305/305 3/307/307
f 460/306/306 491/299/299 487/308/308
f 460/306/306 3/307/307 491/299/299
f 487/308/308 491/299/299 480/297/297
f 480/297/297 5/310/310 470/309/309
f 480/297/297 4/298/298 5/310/310
f 470/309/309 6/312/312 464/311/311
f 470/309/309 5/310/310 6/312/312
f 464/311/311 7/289/289 455/313/313
f 464/311/311 6/312/312 7/289/289
f 455/313/313 8/315/315 483/314/314
f 455/313/313 7/289/289 8/315/315
f 483/314/314 9/317/317 473/316/316
f 483/314/314 8/315/315 9/317/317
f 473/316/316 10/319/319 466/318/318
f 473/316/316 9/317/317 10/319/319
f 466/318/318 490/296/296 459/320/320
f 466/318/318 10/319/319 490/296/296
f 459/320/320 490/296/296 478/286/286
f 478/286/286 12/321/321 479/280/280
f 478/286/286 11/295/295 12/321/321
f 479/280/280 13/322/322 469/278/278
f 479/280/280 12/321/321 13/322/322
f 469/278/278 14/323/323 463/275/275
f 469/278/278 13/322/322 14/323/323
f 463/275/275 15/324/324 454/277/277
f 463/275/275 14/323/323 15/324/324
f 454/277/277 16/325/325 482/282/282
f 454/277/277 15/324/324 16/325/325
f 482/282/282 17/326/326 472/284/284
f 482/282/282 16/325/325 17/326/326
f 472/284/284 489/294/294 458/327/327
f 472/284/284 17/326/326 489/294/294
f 458/327/327 489/294/294 457/292/292
f 457/292/292 19/328/328 485/3/3
f 457/292/292 18/293/293 19/328/328
f 485/3/3 20/148/148 477/329/329
f 485/3/3 19/328/328 20/148/148
f 477/329/329 21/331/331 461/330/330
f 477/329/329 20/148/148 21/331/331
f 461/330/330 22/333/333 462/332/332
f 461/330/330 21/331/331 22/333/333
f 462/332/332 23/335/335 453/334/334
f 462/332/332 22/333/333 23/335/335
f 453/334/334 24/337/337 481/336/336
f 453/334/334 23/335/335 24/337/337
f 481/336/336 488/291/291 471/338/338
f 481/336/336 24/337/337 488/291/291
f 471/338/338 488/291/291 465/290/290
f 465/290/290 26/339/339 456/6/6
f 465/290/290 25/134/134 26/339/339
f 7/289/289 6/312/312 27/132/132
f 456/6/6 29/341/341 484/340/340
f 456/6/6 26/339/339 29/341/341
f 484/340/340 30/343/343 474/342/342
f 484/340/340 29/341/341 30/343/343
f 460/306/306 31/345/345 57/344/344
f 54/346/346 61/348/348 486/347/347
f 54/346/346 486/347/347 109/349/349
f 109/349/349 32/351/351 108/350/350
f 109/349/349 486/347/347 32/351/351
f 482/282/282 37/283/283 62/287/287
f 453/334/334 481/336/336 63/352/352
f 487/308/308 480/297/297 31/345/345
f 479/280/280 40/281/281 478/286/286
f 481/336/336 471/338/338 38/353/353
f 480/297/297 470/309/309 39/354/354
f 463/275/275 55/276/276 48/279/279
f 454/277/277 62/287/287 55/276/276
f 447/355/355 434/357/357 452/356/356
f 447/355/355 87/264/264 434/357/357
f 452/356/356 64/258/258 450/272/272
f 59/1/1 34/2/2 66/7/7
f 435/271/271 66/7/7 110/358/358
f 61/348/348 36/360/360 449/359/359
f 61/348/348 449/359/359 486/347/347
f 486/347/347 68/361/361 32/351/351
f 486/347/347 449/359/359 68/361/361
f 34/2/2 41/270/270 66/7/7
f 36/360/360 44/362/362 449/359/359
f 449/359/359 71/363/363 68/361/361
f 449/359/359 44/362/362 71/363/363
f 41/270/270 49/364/364 72/269/269
f 44/362/362 51/267/267 74/268/268
f 44/362/362 74/268/268 71/363/363
f 49/364/364 56/366/366 75/365/365
f 49/364/364 75/365/365 72/269/269
f 51/267/267 77/10/10 79/11/11
f 51/267/267 58/367/367 77/10/10
f 56/366/366 63/352/352 80/368/368
f 56/366/366 80/368/368 75/365/365
f 58/367/367 33/285/285 448/369/369
f 58/367/367 448/369/369 77/10/10
f 77/10/10 448/369/369 78/12/12
f 63/352/352 38/353/353 83/370/370
f 63/352/352 83/370/370 80/368/368
f 33/285/285 445/266/266 448/369/369
f 33/285/285 40/281/281 445/266/266
f 448/369/369 85/260/260 82/371/371
f 448/369/369 445/266/266 85/260/260
f 475/372/372 42/373/373 86/263/263
f 475/372/372 86/263/263 446/374/374
f 38/353/353 46/376/376 88/375/375
f 38/353/353 88/375/375 83/370/370
f 40/281/281 444/377/377 445/266/266
f 40/281/281 48/279/279 444/377/377
f 42/373/373 50/379/379 91/378/378
f 42/373/373 91/378/378 86/263/263
f 86/263/263 91/378/378 92/265/265
f 471/338/338 53/4/4 93/380/380
f 46/376/376 471/338/338 88/375/375
f 471/338/338 93/380/380 88/375/375
f 48/279/279 442/381/381 444/377/377
f 48/279/279 55/276/276 442/381/381
f 444/377/377 95/382/382 90/252/252
f 50/379/379 57/344/344 91/378/378
f 53/4/4 60/5/5 97/383/383
f 53/4/4 97/383/383 93/380/380
f 55/276/276 62/287/287 443/384/384
f 55/276/276 443/384/384 442/381/381
f 442/381/381 99/385/385 95/382/382
f 57/344/344 31/345/345 96/386/386
f 60/5/5 35/388/388 101/387/387
f 60/5/5 101/387/387 97/383/383
f 62/287/287 37/283/283 441/389/389
f 62/287/287 441/389/389 443/384/384
f 443/384/384 103/390/390 99/385/385
f 31/345/345 39/354/354 440/391/391
f 31/345/345 417/224/224 100/392/392
f 31/345/345 440/391/391 417/224/224
f 35/388/388 43/394/394 439/393/393
f 35/388/388 439/393/393 101/387/387
f 37/283/283 45/396/396 438/395/395
f 37/283/283 438/395/395 441/389/389
f 441/389/389 105/397/397 103/390/390
f 39/354/354 47/399/399 437/398/398
f 39/354/354 437/398/398 440/391/391
f 440/391/391 106/400/400 417/224/224
f 440/391/391 437/398/398 106/400/400
f 45/396/396 52/402/402 436/401/401
f 45/396/396 436/401/401 438/395/395
f 438/395/395 107/403/403 105/397/397
f 438/395/395 436/401/401 107/403/403
f 47/399/399 54/346/346 109/349/349
f 47/399/399 109/349/349 437/398/398
f 437/398/398 108/350/350 106/400/400
f 437/398/398 109/349/349 108/350/350
f 52/402/402 59/1/1 435/271/271
f 52/402/402 435/271/271 436/401/401
f 436/401/401 110/358/358 107/403/403
f 436/401/401 435/271/271 110/358/358
f 378/166/166 431/404/404 432/257/257
f 84/405/405 431/404/404 378/166/166
f 84/405/405 89/406/406 431/404/404
f 379/168/168 432/257/257 171/262/262
f 375/261/261 430/253/253 173/259/259
f 433/248/248 428/249/249 434/357/357
f 87/264/264 92/265/265 433/248/248
f 87/264/264 433/248/248 434/357/357
f 64/258/258 117/14/14 65/274/274
f 434/357/357 115/13/13 64/258/258
f 431/404/404 426/256/256 432/257/257
f 89/406/406 426/256/256 431/404/404
f 89/406/406 94/407/407 426/256/256
f 90/252/252 95/382/382 429/243/243
f 430/253/253 425/244/244 113/250/250
f 433/248/248 421/238/238 422/239/239
f 92/265/265 421/238/238 433/248/248
f 92/265/265 96/386/386 421/238/238
f 428/249/249 422/239/239 116/15/15
f 426/256/256 419/233/233 427/247/247
f 94/407/407 419/233/233 426/256/256
f 94/407/407 98/408/408 419/233/233
f 95/382/382 99/385/385 424/228/228
f 95/382/382 424/228/228 429/243/243
f 425/244/244 418/229/229 120/241/241
f 421/238/238 415/409/409 423/240/240
f 96/386/386 415/409/409 421/238/238
f 96/386/386 100/392/392 415/409/409
f 422/239/239 423/240/240 122/235/235
f 419/233/233 412/219/219 413/220/220
f 98/408/408 412/219/219 419/233/233
f 98/408/408 102/410/410 412/219/219
f 420/234/234 413/220/220 124/230/230
f 409/216/216 411/217/217 418/229/229
f 99/385/385 103/390/390 409/216/216
f 99/385/385 409/216/216 424/228/228
f 126/411/411 132/16/16 127/227/227
f 418/229/229 132/16/16 126/411/411
f 415/409/409 417/224/224 416/225/225
f 415/409/409 416/225/225 423/240/240
f 100/392/392 417/224/224 415/409/409
f 128/222/222 136/223/223 129/237/237
f 423/240/240 416/225/225 128/222/222
f 416/225/225 135/214/214 128/222/222
f 102/410/410 414/221/221 412/219/219
f 102/410/410 104/412/412 414/221/221
f 130/218/218 334/20/20 131/232/232
f 413/220/220 137/19/19 130/218/218
f 413/220/220 414/221/221 137/19/19
f 410/212/212 406/213/213 411/217/217
f 103/390/390 105/397/397 410/212/212
f 103/390/390 410/212/212 409/216/216
f 407/209/209 403/210/210 408/226/226
f 417/224/224 407/209/209 408/226/226
f 417/224/224 106/400/400 407/209/209
f 135/214/214 142/215/215 136/223/223
f 408/226/226 141/207/207 135/214/214
f 405/205/205 401/206/206 406/213/213
f 105/397/397 107/403/403 405/205/205
f 105/397/397 405/205/205 410/212/212
f 139/413/413 404/22/22 140/211/211
f 406/213/213 404/22/22 139/413/413
f 402/203/203 399/204/204 403/210/210
f 106/400/400 402/203/203 407/209/209
f 106/400/400 108/350/350 402/203/203
f 141/207/207 146/208/208 142/215/215
f 403/210/210 145/201/201 141/207/207
f 400/199/199 397/200/200 401/206/206
f 107/403/403 110/358/358 400/199/199
f 107/403/403 400/199/199 405/205/205
f 398/197/197 395/198/198 399/204/204
f 108/350/350 398/197/197 402/203/203
f 108/350/350 32/351/351 398/197/197
f 145/201/201 150/202/202 146/208/208
f 399/204/204 149/195/195 145/201/201
f 396/193/193 393/194/194 397/200/200
f 110/358/358 67/414/414 396/193/193
f 110/358/358 396/193/193 400/199/199
f 397/200/200 151/191/191 147/26/26
f 394/189/189 392/190/190 395/198/198
f 32/351/351 394/189/189 398/197/197
f 32/351/351 68/361/361 394/189/189
f 149/195/195 154/196/196 150/202/202
f 395/198/198 153/186/186 149/195/195
f 67/414/414 70/8/8 389/184/184
f 67/414/414 389/184/184 396/193/193
f 393/194/194 155/181/181 151/191/191
f 393/194/194 390/185/185 155/181/181
f 391/178/178 388/179/179 392/190/190
f 68/361/361 391/178/178 394/189/189
f 68/361/361 71/363/363 391/178/178
f 153/186/186 158/187/187 154/196/196
f 392/190/190 157/188/188 153/186/186
f 389/184/184 386/175/175 387/176/176
f 70/8/8 386/175/175 389/184/184
f 70/8/8 73/415/415 386/175/175
f 390/185/185 159/183/183 155/181/181
f 390/185/185 387/176/176 159/183/183
f 383/180/180 384/416/416 388/179/179
f 71/363/363 74/268/268 391/178/178
f 74/268/268 383/180/180 391/178/178
f 157/188/188 162/174/174 158/187/187
f 73/415/415 76/417/417 386/175/175
f 76/417/417 381/177/177 386/175/175
f 387/176/176 382/172/172 159/183/183
f 383/180/180 385/418/418 384/416/416
f 383/180/180 79/11/11 385/418/418
f 79/11/11 78/12/12 385/418/418
f 74/268/268 79/11/11 383/180/180
f 381/177/177 376/171/171 382/172/172
f 76/417/417 376/171/171 381/177/177
f 76/417/417 81/419/419 376/171/171
f 78/12/12 374/421/421 380/420/420
f 78/12/12 82/371/371 374/421/421
f 385/418/418 78/12/12 380/420/420
f 385/418/418 380/420/420 165/169/169
f 376/171/171 378/166/166 377/167/167
f 81/419/419 378/166/166 376/171/171
f 81/419/419 84/405/405 378/166/166
f 85/260/260 375/261/261 374/421/421
f 82/371/371 85/260/260 374/421/421
f 200/40/40 175/36/36 242/124/124
f 15/324/324 14/323/323 177/131/131
f 15/324/324 177/131/131 191/159/159
f 23/335/335 22/333/333 179/130/130
f 23/335/335 179/130/130 193/158/158
f 491/299/299 3/307/307 181/129/129
f 491/299/299 181/129/129 195/157/157
f 11/295/295 490/296/296 183/128/128
f 11/295/295 183/128/128 197/156/156
f 19/328/328 18/293/293 185/127/127
f 19/328/328 185/127/127 199/149/149
f 29/341/341 26/339/339 187/126/126
f 29/341/341 187/126/126 203/155/155
f 7/289/289 189/288/288 205/154/154
f 8/315/315 7/289/289 205/154/154
f 16/325/325 15/324/324 191/159/159
f 16/325/325 191/159/159 207/153/153
f 24/337/337 23/335/335 193/158/158
f 24/337/337 193/158/158 209/152/152
f 4/298/298 491/299/299 195/157/157
f 4/298/298 195/157/157 211/151/151
f 12/321/321 11/295/295 197/156/156
f 12/321/321 197/156/156 213/150/150
f 20/148/148 19/328/328 199/149/149
f 1/301/301 373/302/302 201/422/422
f 1/301/301 201/422/422 217/146/146
f 30/343/343 29/341/341 203/155/155
f 30/343/343 203/155/155 372/144/144
f 9/317/317 8/315/315 205/154/154
f 9/317/317 205/154/154 219/143/143
f 17/326/326 16/325/325 207/153/153
f 17/326/326 207/153/153 221/142/142
f 488/291/291 24/337/337 209/152/152
f 488/291/291 209/152/152 223/135/135
f 5/310/310 4/298/298 211/151/151
f 5/310/310 211/151/151 225/141/141
f 13/322/322 12/321/321 213/150/150
f 13/322/322 213/150/150 227/140/140
f 20/148/148 215/147/147 229/139/139
f 21/331/331 20/148/148 229/139/139
f 2/305/305 1/301/301 217/146/146
f 2/305/305 217/146/146 231/138/138
f 10/319/319 9/317/317 219/143/143
f 10/319/319 219/143/143 233/137/137
f 489/294/294 17/326/326 221/142/142
f 489/294/294 221/142/142 235/136/136
f 25/134/134 488/291/291 223/135/135
f 6/312/312 5/310/310 225/141/141
f 6/312/312 225/141/141 27/132/132
f 14/323/323 13/322/322 227/140/140
f 14/323/323 227/140/140 177/131/131
f 22/333/333 21/331/331 229/139/139
f 22/333/333 229/139/139 179/130/130
f 3/307/307 2/305/305 231/138/138
f 3/307/307 231/138/138 181/129/129
f 490/296/296 10/319/319 233/137/137
f 490/296/296 233/137/137 183/128/128
f 18/293/293 489/294/294 235/136/136
f 18/293/293 235/136/136 185/127/127
f 25/134/134 237/133/133 187/126/126
f 26/339/339 25/134/134 187/126/126
f 206/34/34 240/30/30 244/121/121
f 216/125/125 242/124/124 246/118/118
f 220/122/122 244/121/121 248/115/115
f 230/119/119 246/118/118 250/112/112
f 234/116/116 248/115/115 252/109/109
f 180/113/113 250/112/112 254/106/106
f 184/110/110 252/109/109 256/103/103
f 194/107/107 254/106/106 259/98/98
f 198/104/104 256/103/103 261/95/95
f 202/101/101 258/100/100 263/92/92
f 210/99/99 259/98/98 265/89/89
f 214/96/96 261/95/95 267/86/86
f 218/93/93 263/92/92 269/83/83
f 224/90/90 265/89/89 271/80/80
f 228/87/87 267/86/86 273/77/77
f 232/84/84 269/83/83 275/74/74
f 238/81/81 271/80/80 277/70/70
f 178/78/78 273/77/77 279/67/67
f 182/75/75 275/74/74 281/64/64
f 188/72/72 277/70/70 283/62/62
f 192/68/68 279/67/67 285/58/58
f 196/65/65 281/64/64 287/55/55
f 204/71/71 283/62/62 371/145/145
f 371/145/145 283/62/62 370/60/60
f 208/59/59 285/58/58 289/52/52
f 212/56/56 287/55/55 291/49/49
f 222/53/53 289/52/52 293/46/46
f 226/50/50 291/49/49 295/43/43
f 236/47/47 293/46/46 297/39/39
f 28/44/44 295/43/43 299/33/33
f 186/41/41 297/39/39 175/36/36
f 190/35/35 299/33/33 240/30/30
f 310/423/423 307/425/425 369/424/424
f 369/424/424 350/427/427 354/426/426
f 258/100/100 304/428/428 264/91/91
f 308/429/429 357/431/431 368/430/430
f 311/432/432 308/429/429 368/430/430
f 368/430/430 349/434/434 352/433/433
f 309/435/435 356/437/437 367/436/436
f 312/438/438 309/435/435 367/436/436
f 313/439/439 310/423/423 369/424/424
f 314/440/440 311/432/432 368/430/430
f 315/441/441 312/438/438 367/436/436
f 313/439/439 369/424/424 316/442/442
f 314/440/440 368/430/430 317/443/443
f 315/441/441 367/436/436 365/444/444
f 318/445/445 315/441/441 365/444/444
f 365/444/444 355/447/447 337/446/446
f 319/448/448 316/442/442 364/449/449
f 320/450/450 318/445/445 365/444/444
f 321/451/451 319/448/448 364/449/449
f 320/450/450 365/444/444 322/452/452
f 322/452/452 337/446/446 340/453/453
f 321/451/451 364/449/449 363/454/454
f 323/455/455 321/451/451 363/454/454
f 324/456/456 322/452/452 362/457/457
f 325/458/458 323/455/455 363/454/454
f 326/459/459 324/456/456 362/457/457
f 362/457/457 340/453/453 342/460/460
f 325/458/458 363/454/454 327/461/461
f 326/459/459 362/457/457 361/462/462
f 328/463/463 326/459/459 361/462/462
f 329/464/464 327/461/461 360/465/465
f 330/466/466 328/463/463 361/462/462
f 361/462/462 342/460/460 332/467/467
f 331/468/468 329/464/464 360/465/465
f 360/465/465 344/470/470 345/469/469
f 330/466/466 361/462/462 359/471/471
f 239/472/472 330/466/466 359/471/471
f 331/468/468 360/465/465 358/473/473
f 301/474/474 331/468/468 358/473/473
f 302/475/475 239/472/472 359/471/471
f 303/476/476 301/474/474 358/473/473
f 302/475/475 359/471/471 357/431/431
f 305/477/477 302/475/475 357/431/431
f 303/476/476 358/473/473 356/437/437
f 306/478/478 303/476/476 356/437/437
f 308/429/429 305/477/477 357/431/431
f 309/435/435 306/478/478 356/437/437
f 332/467/467 343/480/480 346/479/479
f 333/481/481 347/483/483 351/482/482
f 353/484/484 333/481/481 351/482/482
f 333/481/481 345/469/469 347/483/483
f 349/434/434 332/467/467 346/479/479
f 332/467/467 342/460/460 343/480/480
f 356/437/437 333/481/481 353/484/484
f 307/425/425 348/485/485 350/427/427
f 307/425/425 304/428/428 348/485/485
f 356/437/437 358/473/473 333/481/481
f 357/431/431 359/471/471 349/434/434
f 358/473/473 345/469/469 333/481/481
f 359/471/471 332/467/467 349/434/434
f 358/473/473 360/465/465 345/469/469
f 359/471/471 361/462/462 332/467/467
f 360/465/465 327/461/461 344/470/470
f 361/462/462 362/457/457 342/460/460
f 327/461/461 341/486/486 344/470/470
f 327/461/461 363/454/454 341/486/486
f 362/457/457 322/452/452 340/453/453
f 363/454/454 339/487/487 341/486/486
f 363/454/454 364/449/449 339/487/487
f 322/452/452 365/444/444 337/446/446
f 364/449/449 338/488/488 339/487/487
f 366/489/489 336/491/491 335/490/490
f 366/489/489 317/443/443 336/491/491
f 364/449/449 316/442/442 338/488/488
f 365/444/444 367/436/436 355/447/447
f 317/443/443 368/430/430 336/491/491
f 316/442/442 354/426/426 338/488/488
f 316/442/442 369/424/424 354/426/426
f 367/436/436 353/484/484 355/447/447
f 368/430/430 352/433/433 336/491/491
f 367/436/436 356/437/437 353/484/484
f 368/430/430 357/431/431 349/434/434
f 253/108/108 331/468/468 301/474/474
f 253/108/108 249/114/114 331/468/468
f 251/111/111 330/466/466 239/472/472
f 251/111/111 247/117/117 330/466/466
f 249/114/114 329/464/464 331/468/468
f 249/114/114 245/120/120 329/464/464
f 247/117/117 328/463/463 330/466/466
f 247/117/117 243/123/123 328/463/463
f 245/120/120 327/461/461 329/464/464
f 245/120/120 241/31/31 327/461/461
f 243/123/123 326/459/459 328/463/463
f 243/123/123 176/37/37 326/459/459
f 241/31/31 325/458/458 327/461/461
f 241/31/31 300/32/32 325/458/458
f 176/37/37 324/456/456 326/459/459
f 176/37/37 298/38/38 324/456/456
f 300/32/32 323/455/455 325/458/458
f 300/32/32 296/42/42 323/455/455
f 298/38/38 322/452/452 324/456/456
f 298/38/38 294/45/45 322/452/452
f 296/42/42 321/451/451 323/455/455
f 296/42/42 292/48/48 321/451/451
f 294/45/45 320/450/450 322/452/452
f 294/45/45 290/51/51 320/450/450
f 292/48/48 319/448/448 321/451/451
f 292/48/48 288/54/54 319/448/448
f 290/51/51 318/445/445 320/450/450
f 290/51/51 286/57/57 318/445/445
f 370/60/60 317/443/443 366/489/489
f 370/60/60 284/61/61 317/443/443
f 288/54/54 316/442/442 319/448/448
f 288/54/54 282/63/63 316/442/442
f 286/57/57 315/441/441 318/445/445
f 286/57/57 280/66/66 315/441/441
f 284/61/61 314/440/440 317/443/443
f 284/61/61 278/69/69 314/440/440
f 282/63/63 313/439/439 316/442/442
f 282/63/63 276/73/73 313/439/439
f 280/66/66 312/438/438 315/441/441
f 280/66/66 274/76/76 312/438/438
f 278/69/69 311/432/432 314/440/440
f 278/69/69 272/79/79 311/432/432
f 276/73/73 310/423/423 313/439/439
f 276/73/73 270/82/82 310/423/423
f 274/76/76 309/435/435 312/438/438
f 274/76/76 268/85/85 309/435/435
f 272/79/79 308/429/429 311/432/432
f 272/79/79 266/88/88 308/429/429
f 270/82/82 307/425/425 310/423/423
f 270/82/82 264/91/91 307/425/425
f 268/85/85 306/478/478 309/435/435
f 268/85/85 262/94/94 306/478/478
f 266/88/88 305/477/477 308/429/429
f 266/88/88 260/97/97 305/477/477
f 264/91/91 304/428/428 307/425/425
f 262/94/94 303/476/476 306/478/478
f 262/94/94 257/102/102 303/476/476
f 260/97/97 302/475/475 305/477/477
f 260/97/97 255/105/105 302/475/475
f 257/102/102 301/474/474 303/476/476
f 257/102/102 253/108/108 301/474/474
f 369/424/424 307/425/425 350/427/427
f 255/105/105 239/472/472 302/475/475
f 255/105/105 251/111/111 239/472/472
f 187/126/126 237/133/133 238/81/81
f 185/127/127 235/136/136 236/47/47
f 183/128/128 233/137/137 234/116/116
f 181/129/129 231/138/138 232/84/84
f 179/130/130 229/139/139 230/119/119
f 177/131/131 227/140/140 228/87/87
f 27/132/132 225/141/141 226/50/50
f 237/133/133 223/135/135 224/90/90
f 235/136/136 221/142/142 222/53/53
f 233/137/137 219/143/143 220/122/122
f 231/138/138 217/146/146 218/93/93
f 229/139/139 215/147/147 216/125/125
f 227/140/140 213/150/150 214/96/96
f 225/141/141 211/151/151 212/56/56
f 223/135/135 209/152/152 210/99/99
f 221/142/142 207/153/153 208/59/59
f 219/143/143 205/154/154 206/34/34
f 372/144/144 203/155/155 204/71/71
f 217/146/146 201/422/422 202/101/101
f 215/147/147 199/149/149 200/40/40
f 213/150/150 197/156/156 198/104/104
f 211/151/151 195/157/157 196/65/65
f 209/152/152 193/158/158 194/107/107
f 207/153/153 191/159/159 192/68/68
f 205/154/154 189/288/288 190/35/35
f 203/155/155 187/126/126 188/72/72
f 199/149/149 185/127/127 186/41/41
f 197/156/156 183/128/128 184/110/110
f 195/157/157 181/129/129 182/75/75
f 193/158/158 179/130/130 180/113/113
f 191/159/159 177/131/131 178/78/78
f 169/160/160 173/259/259 174/162/162
f 374/421/421 173/259/259 169/160/160
f 374/421/421 375/261/261 173/259/259
f 167/163/163 171/262/262 172/165/165
f 377/167/167 171/262/262 167/163/163
f 377/167/167 379/168/168 171/262/262
f 165/169/169 169/160/160 170/161/161
f 380/420/420 169/160/160 165/169/169
f 380/420/420 374/421/421 169/160/160
f 163/27/27 167/163/163 168/164/164
f 382/172/172 167/163/163 163/27/27
f 382/172/172 377/167/167 167/163/163
f 161/173/173 165/169/169 166/170/170
f 384/416/416 165/169/169 161/173/173
f 384/416/416 385/418/418 165/169/169
f 159/183/183 163/27/27 160/28/28
f 382/172/172 163/27/27 159/183/183
f 157/188/188 161/173/173 162/174/174
f 388/179/179 161/173/173 157/188/188
f 388/179/179 384/416/416 161/173/173
f 159/183/183 160/28/28 156/182/182
f 392/190/190 388/179/179 157/188/188
f 155/181/181 156/182/182 152/192/192
f 395/198/198 392/190/190 153/186/186
f 151/191/191 152/192/192 148/25/25
f 397/200/200 393/194/194 151/191/191
f 399/204/204 395/198/198 149/195/195
f 401/206/206 397/200/200 143/24/24
f 397/200/200 147/26/26 143/24/24
f 403/210/210 399/204/204 145/201/201
f 406/213/213 401/206/206 404/22/22
f 401/206/206 143/24/24 404/22/22
f 408/226/226 403/210/210 141/207/207
f 133/18/18 139/413/413 140/211/211
f 411/217/217 139/413/413 133/18/18
f 411/217/217 406/213/213 139/413/413
f 416/225/225 408/226/226 135/214/214
f 418/229/229 411/217/217 132/16/16
f 411/217/217 133/18/18 132/16/16
f 124/230/230 130/218/218 131/232/232
f 413/220/220 130/218/218 124/230/230
f 122/235/235 128/222/222 129/237/237
f 423/240/240 128/222/222 122/235/235
f 120/241/241 126/411/411 127/227/227
f 418/229/229 126/411/411 120/241/241
f 118/245/245 124/230/230 125/231/231
f 427/247/247 124/230/230 118/245/245
f 427/247/247 420/234/234 124/230/230
f 116/15/15 122/235/235 123/236/236
f 422/239/239 122/235/235 116/15/15
f 113/250/250 120/241/241 121/242/242
f 425/244/244 120/241/241 113/250/250
f 111/254/254 118/245/245 119/246/246
f 432/257/257 118/245/245 111/254/254
f 432/257/257 427/247/247 118/245/245
f 434/357/357 428/249/249 115/13/13
f 428/249/249 116/15/15 115/13/13
f 173/259/259 113/250/250 114/251/251
f 430/253/253 113/250/250 173/259/259
f 171/262/262 111/254/254 112/255/255
f 432/257/257 111/254/254 171/262/262
f 441/389/389 438/395/395 105/397/397
f 101/387/387 104/412/412 102/410/410
f 439/393/393 104/412/412 101/387/387
f 443/384/384 441/389/389 103/390/390
f 97/383/383 102/410/410 98/408/408
f 97/383/383 101/387/387 102/410/410
f 31/345/345 100/392/392 96/386/386
f 442/381/381 443/384/384 99/385/385
f 93/380/380 98/408/408 94/407/407
f 93/380/380 97/383/383 98/408/408
f 91/378/378 96/386/386 92/265/265
f 91/378/378 57/344/344 96/386/386
f 444/377/377 442/381/381 95/382/382
f 88/375/375 94/407/407 89/406/406
f 88/375/375 93/380/380 94/407/407
f 445/266/266 444/377/377 90/252/252
f 83/370/370 89/406/406 84/405/405
f 83/370/370 88/375/375 89/406/406
f 446/374/374 87/264/264 447/355/355
f 446/374/374 86/263/263 87/264/264
f 80/368/368 84/405/405 81/419/419
f 80/368/368 83/370/370 84/405/405
f 448/369/369 82/371/371 78/12/12
f 75/365/365 81/419/419 76/417/417
f 75/365/365 80/368/368 81/419/419
f 72/269/269 76/417/417 73/415/415
f 72/269/269 75/365/365 76/417/417
f 69/9/9 73/415/415 70/8/8
f 69/9/9 72/269/269 73/415/415
f 66/7/7 70/8/8 67/414/414
f 66/7/7 67/414/414 110/358/358
f 452/356/356 434/357/357 64/258/258
f 462/332/332 63/352/352 56/366/366
f 462/332/332 453/334/334 63/352/352
f 464/311/311 61/348/348 54/346/346
f 464/311/311 455/313/313 61/348/348
f 465/290/290 456/6/6 53/4/4
f 458/327/327 59/1/1 52/402/402
f 458/327/327 457/292/292 59/1/1
f 466/318/318 58/367/367 51/267/267
f 466/318/318 459/320/320 58/367/367
f 468/304/304 57/344/344 50/379/379
f 468/304/304 460/306/306 57/344/344
f 461/330/330 56/366/366 49/364/364
f 461/330/330 462/332/332 56/366/366
f 470/309/309 54/346/346 47/399/399
f 470/309/309 464/311/311 54/346/346
f 471/338/338 465/290/290 53/4/4
f 472/284/284 52/402/402 45/396/396
f 472/284/284 458/327/327 52/402/402
f 473/316/316 51/267/267 44/362/362
f 473/316/316 466/318/318 51/267/267
f 467/300/300 50/379/379 42/373/373
f 467/300/300 468/304/304 50/379/379
f 477/329/329 49/364/364 41/270/270
f 477/329/329 461/330/330 49/364/364
f 470/309/309 47/399/399 39/354/354
f 471/338/338 46/376/376 38/353/353
f 37/283/283 472/284/284 45/396/396
f 483/314/314 44/362/362 36/360/360
f 483/314/314 473/316/316 44/362/362
f 484/340/340 43/394/394 35/388/388
f 484/340/340 474/342/342 43/394/394
f 476/303/303 42/373/373 475/372/372
f 476/303/303 467/300/300 42/373/373
f 485/3/3 41/270/270 34/2/2
f 485/3/3 477/329/329 41/270/270
f 480/297/297 39/354/354 31/345/345
f 481/336/336 38/353/353 63/352/352
f 455/313/313 36/360/360 61/348/348
f 455/313/313 483/314/314 36/360/360
f 456/6/6 35/388/388 60/5/5
f 456/6/6 484/340/340 35/388/388
f 457/292/292 485/3/3 59/1/1
f 459/320/320 33/285/285 58/367/367
f 459/320/320 478/286/286 33/285/285
f 460/306/306 487/308/308 31/345/345
f 189/288/288 27/132/132 28/44/44
f 138/21/21 131/232/232 334/20/20
f 138/21/21 65/274/274 131/232/232
f 65/274/274 125/231/231 131/232/232
f 65/274/274 117/14/14 125/231/231
f 117/14/14 119/246/246 125/231/231
f 117/14/14 123/236/236 119/246/246
f 123/236/236 112/255/255 119/246/246
f 123/236/236 129/237/237 112/255/255
f 129/237/237 172/165/165 112/255/255
f 129/237/237 136/223/223 172/165/165
f 136/223/223 168/164/164 172/165/165
f 136/223/223 142/215/215 168/164/164
f 142/215/215 164/29/29 168/164/164
f 142/215/215 146/208/208 164/29/29
f 146/208/208 160/28/28 164/29/29
f 146/208/208 150/202/202 160/28/28
f 150/202/202 156/182/182 160/28/28
f 150/202/202 154/196/196 156/182/182
f 154/196/196 152/192/192 156/182/182
f 154/196/196 158/187/187 152/192/192
f 158/187/187 148/25/25 152/192/192
f 158/187/187 162/174/174 148/25/25
f 162/174/174 144/23/23 148/25/25
f 162/174/174 166/170/170 144/23/23
f 166/170/170 140/211/211 144/23/23
f 166/170/170 170/161/161 140/211/211
f 170/161/161 134/17/17 140/211/211
f 170/161/161 174/162/162 134/17/17
f 174/162/162 127/227/227 134/17/17
f 174/162/162 114/251/251 127/227/227
f 114/251/251 121/242/242 127/227/227
