# Blender 4.4.3
# www.blender.org
mtllib hk_Luciernaga_ala.mtl.mtl
g Círculo_Malla
v -1.602972 0.000002 -0.000002
v -1.587543 0.054226 0.056520
v -1.541849 0.106367 0.110870
v -1.467647 0.154419 0.160959
v -1.367787 0.196538 0.204862
v -1.246107 0.231104 0.240893
v -1.107284 0.256788 0.267666
v -0.956652 0.272605 0.284153
v -0.800000 0.277945 0.289720
v -0.643348 0.272604 0.284154
v -0.492716 0.256787 0.267667
v -0.353893 0.231102 0.240894
v -0.232213 0.196536 0.204864
v -0.132353 0.154418 0.160960
v -0.058150 0.106365 0.110872
v -0.012457 0.054224 0.056522
v 0.002972 -0.000000 0.000000
v -0.012457 -0.054224 -0.056522
v -0.058150 -0.106365 -0.110872
v -0.132353 -0.154417 -0.160961
v -0.232213 -0.196536 -0.204864
v -0.353892 -0.231102 -0.240895
v -0.492716 -0.256786 -0.267668
v -0.643348 -0.272603 -0.284155
v -0.800000 -0.277943 -0.289722
v -0.956652 -0.272602 -0.284156
v -1.107284 -0.256785 -0.267669
v -1.246107 -0.231100 -0.240896
v -1.367787 -0.196534 -0.204866
v -1.467647 -0.154416 -0.160962
v -1.541849 -0.106363 -0.110874
v -1.587543 -0.054222 -0.056524
vn -0.0000 0.7216 -0.6923
vt 0.402455 0.009607
vt 0.990393 0.402455
vt 0.597545 0.990393
vt 0.500000 1.000000
vt 0.402455 0.990393
vt 0.308658 0.961940
vt 0.222215 0.915735
vt 0.146447 0.853553
vt 0.084265 0.777785
vt 0.038060 0.691342
vt 0.009607 0.597545
vt 0.000000 0.500000
vt 0.009607 0.402455
vt 0.038060 0.308658
vt 0.084265 0.222215
vt 0.146447 0.146447
vt 0.222215 0.084265
vt 0.308658 0.038060
vt 0.500000 0.000000
vt 0.597545 0.009607
vt 0.691342 0.038060
vt 0.777785 0.084265
vt 0.853553 0.146447
vt 0.915735 0.222215
vt 0.961940 0.308658
vt 1.000000 0.500000
vt 0.990393 0.597545
vt 0.961940 0.691342
vt 0.915735 0.777785
vt 0.853553 0.853553
vt 0.777785 0.915735
vt 0.691342 0.961940
s 0
g off
f 16/1/1 24/2/1 32/3/1
f 32/3/1 1/4/1 2/5/1
f 2/5/1 3/6/1 4/7/1
f 4/7/1 5/8/1 6/9/1
f 6/9/1 7/10/1 8/11/1
f 8/11/1 9/12/1 10/13/1
f 10/13/1 11/14/1 12/15/1
f 12/15/1 13/16/1 14/17/1
f 14/17/1 15/18/1 16/1/1
f 16/1/1 17/19/1 18/20/1
f 18/20/1 19/21/1 20/22/1
f 20/22/1 21/23/1 22/24/1
f 22/24/1 23/25/1 24/2/1
f 24/2/1 25/26/1 26/27/1
f 26/27/1 27/28/1 28/29/1
f 28/29/1 29/30/1 30/31/1
f 30/31/1 31/32/1 32/3/1
f 32/3/1 2/5/1 4/7/1
f 4/7/1 6/9/1 8/11/1
f 8/11/1 10/13/1 12/15/1
f 12/15/1 14/17/1 16/1/1
f 16/1/1 18/20/1 20/22/1
f 20/22/1 22/24/1 24/2/1
f 24/2/1 26/27/1 28/29/1
f 28/29/1 30/31/1 32/3/1
f 32/3/1 4/7/1 8/11/1
f 8/11/1 12/15/1 16/1/1
f 16/1/1 20/22/1 24/2/1
f 24/2/1 28/29/1 32/3/1
f 32/3/1 8/11/1 16/1/1
