# Blender 4.4.3
# www.blender.org
mtllib Puerta_reja_piso.mtl
g Plano_Malla
v 1.985098 0.000000 -0.188125
v -1.985089 0.000000 -0.188125
v 1.985098 0.000000 0.188125
v -1.985089 0.000000 0.188125
v 0.000000 0.000000 -0.280000
v 0.000000 0.000000 0.280000
v 0.948750 0.000000 0.280000
v 0.948750 0.000000 -0.280000
v 1.552500 0.000000 0.280000
v 1.552500 0.000000 -0.280000
v -0.948741 0.000000 -0.280000
v -0.948741 0.000000 0.280000
v -1.552465 0.000000 -0.280000
v -1.552465 0.000000 0.280000
v 2.012051 0.000000 0.147656
v 2.032266 0.000000 0.102083
v 2.044395 0.000000 0.052135
v 2.048438 0.000000 0.000000
v 2.044395 0.000000 -0.052135
v 2.032266 0.000000 -0.102083
v 2.012051 0.000000 -0.147656
v -1.616985 0.000000 -0.279818
v -1.680495 0.000000 -0.278542
v -1.741985 0.000000 -0.275078
v -1.800443 0.000000 -0.268333
v -1.854860 0.000000 -0.257214
v -1.904222 0.000000 -0.240625
v -1.947519 0.000000 -0.217474
v -2.012045 0.000000 -0.147656
v -2.032262 0.000000 -0.102083
v -2.044392 0.000000 -0.052135
v -2.048435 0.000000 0.000000
v -2.044392 0.000000 0.052135
v -2.032262 0.000000 0.102083
v -2.012045 0.000000 0.147656
v 1.617019 0.000000 0.279818
v 1.680527 0.000000 0.278542
v 1.742014 0.000000 0.275078
v 1.800469 0.000000 0.268333
v 1.854881 0.000000 0.257214
v 1.904238 0.000000 0.240625
v 1.947532 0.000000 0.217474
v 0.847844 0.000000 -0.280000
v 0.739863 0.000000 -0.280000
v 0.625818 0.000000 -0.280000
v 0.506719 0.000000 -0.280000
v 0.383577 0.000000 -0.280000
v 0.257402 0.000000 -0.280000
v 0.129207 0.000000 -0.280000
v -0.847838 0.000000 0.280000
v -0.739860 0.000000 0.280000
v -0.625816 0.000000 0.280000
v -0.506718 0.000000 0.280000
v -0.383576 0.000000 0.280000
v -0.257402 0.000000 0.280000
v -0.129207 0.000000 0.280000
v 0.000000 0.000000 -0.210000
v 0.000000 0.000000 -0.140000
v 0.000000 0.000000 -0.070000
v 0.000000 0.000000 0.000000
v 0.000000 0.000000 0.070000
v 0.000000 0.000000 0.140000
v 0.000000 0.000000 0.210000
v 0.129207 0.000000 0.280000
v 0.257402 0.000000 0.280000
v 0.383577 0.000000 0.280000
v 0.506719 0.000000 0.280000
v 0.625818 0.000000 0.280000
v 0.739863 0.000000 0.280000
v 0.847844 0.000000 0.280000
v 1.487644 0.000000 -0.280000
v 1.421777 0.000000 -0.280000
v 1.353889 0.000000 -0.280000
v 1.282969 0.000000 -0.280000
v 1.208005 0.000000 -0.280000
v 1.127988 0.000000 -0.280000
v 1.041907 0.000000 -0.280000
v 0.948750 0.000000 -0.210000
v 0.948750 0.000000 -0.140000
v 0.948750 0.000000 -0.070000
v 0.948750 0.000000 0.000000
v 0.948750 0.000000 0.070000
v 0.948750 0.000000 0.140000
v 0.948750 0.000000 0.210000
v 1.041907 0.000000 0.280000
v 1.127988 0.000000 0.280000
v 1.208005 0.000000 0.280000
v 1.282969 0.000000 0.280000
v 1.353889 0.000000 0.280000
v 1.421777 0.000000 0.280000
v 1.487644 0.000000 0.280000
v 1.947532 0.000000 -0.217474
v 1.904238 0.000000 -0.240625
v 1.854881 0.000000 -0.257214
v 1.800469 0.000000 -0.268333
v 1.742014 0.000000 -0.275078
v 1.680527 0.000000 -0.278542
v 1.617019 0.000000 -0.279818
v 1.552500 0.000000 -0.210000
v 1.552500 0.000000 -0.140000
v 1.552500 0.000000 -0.070000
v 1.552500 0.000000 0.000000
v 1.552500 0.000000 0.070000
v 1.552500 0.000000 0.140000
v 1.552500 0.000000 0.210000
v -0.129207 0.000000 -0.280000
v -0.257402 0.000000 -0.280000
v -0.383576 0.000000 -0.280000
v -0.506718 0.000000 -0.280000
v -0.625816 0.000000 -0.280000
v -0.739860 0.000000 -0.280000
v -0.847838 0.000000 -0.280000
v -1.487610 0.000000 0.280000
v -1.421745 0.000000 0.280000
v -1.353860 0.000000 0.280000
v -1.282943 0.000000 0.280000
v -1.207984 0.000000 0.280000
v -1.127972 0.000000 0.280000
v -1.041894 0.000000 0.280000
v -0.948741 0.000000 -0.210000
v -0.948741 0.000000 -0.140000
v -0.948741 0.000000 -0.070000
v -0.948741 0.000000 0.000000
v -0.948741 0.000000 0.070000
v -0.948741 0.000000 0.140000
v -0.948741 0.000000 0.210000
v -1.041894 0.000000 -0.280000
v -1.127972 0.000000 -0.280000
v -1.207984 0.000000 -0.280000
v -1.282943 0.000000 -0.280000
v -1.353860 0.000000 -0.280000
v -1.421745 0.000000 -0.280000
v -1.487610 0.000000 -0.280000
v -1.947519 0.000000 0.217474
v -1.904222 0.000000 0.240625
v -1.854860 0.000000 0.257214
v -1.800443 0.000000 0.268333
v -1.741985 0.000000 0.275078
v -1.680495 0.000000 0.278542
v -1.616985 0.000000 0.279818
v -1.552465 0.000000 -0.210000
v -1.552465 0.000000 -0.140000
v -1.552465 0.000000 -0.070000
v -1.552465 0.000000 0.000000
v -1.552465 0.000000 0.070000
v -1.552465 0.000000 0.140000
v -1.552465 0.000000 0.210000
v -1.617026 0.000000 -0.209863
v -1.680825 0.000000 -0.208906
v -1.743098 0.000000 -0.206309
v -1.803083 0.000000 -0.201250
v -1.860093 0.000000 -0.192994
v -1.913762 0.000000 -0.181137
v -1.964036 0.000000 -0.165620
v -1.617062 0.000000 -0.139909
v -1.681113 0.000000 -0.139271
v -1.744070 0.000000 -0.137539
v -1.805385 0.000000 -0.134167
v -1.864638 0.000000 -0.128728
v -1.921911 0.000000 -0.121285
v -1.977529 0.000000 -0.112140
v -1.617087 0.000000 -0.069954
v -1.681317 0.000000 -0.069635
v -1.744757 0.000000 -0.068770
v -1.807014 0.000000 -0.067083
v -1.867817 0.000000 -0.064387
v -1.927394 0.000000 -0.060825
v -1.986111 0.000000 -0.056640
v -1.617097 0.000000 0.000000
v -1.681394 0.000000 0.000000
v -1.745018 0.000000 -0.000000
v -1.807632 0.000000 0.000000
v -1.869011 0.000000 0.000000
v -1.929381 0.000000 0.000000
v -1.989076 0.000000 -0.000000
v -1.617087 0.000000 0.069954
v -1.681316 0.000000 0.069635
v -1.744757 0.000000 0.068770
v -1.807014 0.000000 0.067083
v -1.867817 0.000000 0.064387
v -1.927394 0.000000 0.060825
v -1.986111 0.000000 0.056640
v -1.617062 0.000000 0.139909
v -1.681113 0.000000 0.139271
v -1.744070 0.000000 0.137539
v -1.805385 0.000000 0.134167
v -1.864638 0.000000 0.128728
v -1.921912 0.000000 0.121285
v -1.977529 0.000000 0.112140
v -1.617026 0.000000 0.209863
v -1.680825 0.000000 0.208906
v -1.743098 0.000000 0.206309
v -1.803083 0.000000 0.201250
v -1.860093 0.000000 0.192994
v -1.913761 0.000000 0.181137
v -1.964036 0.000000 0.165620
v 0.847844 0.000000 -0.210000
v 0.739863 0.000000 -0.210000
v 0.625818 0.000000 -0.210000
v 0.506719 0.000000 -0.210000
v 0.383577 0.000000 -0.210000
v 0.257402 0.000000 -0.210000
v 0.129207 0.000000 -0.210000
v 0.847844 0.000000 -0.140000
v 0.739863 0.000000 -0.140000
v 0.625818 0.000000 -0.140000
v 0.506719 0.000000 -0.140000
v 0.383577 0.000000 -0.140000
v 0.257402 0.000000 -0.140000
v 0.129207 0.000000 -0.140000
v 0.847844 0.000000 -0.070000
v 0.739863 0.000000 -0.070000
v 0.625818 0.000000 -0.070000
v 0.506719 0.000000 -0.070000
v 0.383577 0.000000 -0.070000
v 0.257402 0.000000 -0.070000
v 0.129207 0.000000 -0.070000
v 0.847844 0.000000 -0.000000
v 0.739863 0.000000 0.000000
v 0.625818 0.000000 -0.000000
v 0.506719 0.000000 0.000000
v 0.383577 0.000000 -0.000000
v 0.257402 0.000000 0.000000
v 0.129207 0.000000 -0.000000
v 0.847844 0.000000 0.070000
v 0.739863 0.000000 0.070000
v 0.625818 0.000000 0.070000
v 0.506719 0.000000 0.070000
v 0.383577 0.000000 0.070000
v 0.257402 0.000000 0.070000
v 0.129207 0.000000 0.070000
v 0.847844 0.000000 0.140000
v 0.739863 0.000000 0.140000
v 0.625818 0.000000 0.140000
v 0.506719 0.000000 0.140000
v 0.383577 0.000000 0.140000
v 0.257402 0.000000 0.140000
v 0.129207 0.000000 0.140000
v 0.847844 0.000000 0.210000
v 0.739863 0.000000 0.210000
v 0.625818 0.000000 0.210000
v 0.506719 0.000000 0.210000
v 0.383577 0.000000 0.210000
v 0.257402 0.000000 0.210000
v 0.129207 0.000000 0.210000
v 1.487644 0.000000 -0.210000
v 1.421777 0.000000 -0.210000
v 1.353889 0.000000 -0.210000
v 1.282969 0.000000 -0.210000
v 1.208005 0.000000 -0.210000
v 1.127988 0.000000 -0.210000
v 1.041907 0.000000 -0.210000
v 1.487644 0.000000 -0.140000
v 1.421777 0.000000 -0.140000
v 1.353889 0.000000 -0.140000
v 1.282969 0.000000 -0.140000
v 1.208006 0.000000 -0.140000
v 1.127988 0.000000 -0.140000
v 1.041907 0.000000 -0.140000
v 1.487644 0.000000 -0.070000
v 1.421777 0.000000 -0.070000
v 1.353889 0.000000 -0.070000
v 1.282969 0.000000 -0.070000
v 1.208005 0.000000 -0.070000
v 1.127988 0.000000 -0.070000
v 1.041907 0.000000 -0.070000
v 1.487644 0.000000 -0.000000
v 1.421777 0.000000 0.000000
v 1.353889 0.000000 -0.000000
v 1.282969 0.000000 0.000000
v 1.208006 0.000000 -0.000000
v 1.127988 0.000000 0.000000
v 1.041907 0.000000 -0.000000
v 1.487644 0.000000 0.070000
v 1.421777 0.000000 0.070000
v 1.353889 0.000000 0.070000
v 1.282969 0.000000 0.070000
v 1.208005 0.000000 0.070000
v 1.127988 0.000000 0.070000
v 1.041907 0.000000 0.070000
v 1.487644 0.000000 0.140000
v 1.421777 0.000000 0.140000
v 1.353889 0.000000 0.140000
v 1.282969 0.000000 0.140000
v 1.208006 0.000000 0.140000
v 1.127988 0.000000 0.140000
v 1.041907 0.000000 0.140000
v 1.487644 0.000000 0.210000
v 1.421777 0.000000 0.210000
v 1.353889 0.000000 0.210000
v 1.282969 0.000000 0.210000
v 1.208005 0.000000 0.210000
v 1.127988 0.000000 0.210000
v 1.041907 0.000000 0.210000
v 1.964047 0.000000 -0.165620
v 1.913777 0.000000 -0.181137
v 1.860114 0.000000 -0.192994
v 1.803108 0.000000 -0.201250
v 1.743127 0.000000 -0.206309
v 1.680857 0.000000 -0.208906
v 1.617061 0.000000 -0.209863
v 1.977538 0.000000 -0.112140
v 1.921926 0.000000 -0.121285
v 1.864658 0.000000 -0.128728
v 1.805410 0.000000 -0.134167
v 1.744099 0.000000 -0.137539
v 1.681145 0.000000 -0.139271
v 1.617096 0.000000 -0.139909
v 1.986120 0.000000 -0.056640
v 1.927408 0.000000 -0.060825
v 1.867837 0.000000 -0.064387
v 1.807039 0.000000 -0.067083
v 1.744786 0.000000 -0.068770
v 1.681349 0.000000 -0.069635
v 1.617122 0.000000 -0.069954
v 1.989085 0.000000 0.000000
v 1.929394 0.000000 0.000000
v 1.869031 0.000000 0.000000
v 1.807656 0.000000 0.000000
v 1.745046 0.000000 -0.000000
v 1.681426 0.000000 0.000000
v 1.617131 0.000000 -0.000000
v 1.986120 0.000000 0.056640
v 1.927408 0.000000 0.060825
v 1.867837 0.000000 0.064387
v 1.807039 0.000000 0.067083
v 1.744786 0.000000 0.068770
v 1.681349 0.000000 0.069635
v 1.617122 0.000000 0.069954
v 1.977538 0.000000 0.112140
v 1.921926 0.000000 0.121285
v 1.864658 0.000000 0.128728
v 1.805410 0.000000 0.134167
v 1.744099 0.000000 0.137539
v 1.681145 0.000000 0.139271
v 1.617096 0.000000 0.139909
v 1.964047 0.000000 0.165620
v 1.913777 0.000000 0.181137
v 1.860114 0.000000 0.192994
v 1.803108 0.000000 0.201250
v 1.743128 0.000000 0.206309
v 1.680857 0.000000 0.208906
v 1.617060 0.000000 0.209863
v -0.129207 0.000000 -0.210000
v -0.257402 0.000000 -0.210000
v -0.383576 0.000000 -0.210000
v -0.506718 0.000000 -0.210000
v -0.625816 0.000000 -0.210000
v -0.739860 0.000000 -0.210000
v -0.847838 0.000000 -0.210000
v -0.129207 0.000000 -0.140000
v -0.257402 0.000000 -0.140000
v -0.383576 0.000000 -0.140000
v -0.506718 0.000000 -0.140000
v -0.625816 0.000000 -0.140000
v -0.739860 0.000000 -0.140000
v -0.847838 0.000000 -0.140000
v -0.129207 0.000000 -0.070000
v -0.257402 0.000000 -0.070000
v -0.383576 0.000000 -0.070000
v -0.506718 0.000000 -0.070000
v -0.625816 0.000000 -0.070000
v -0.739860 0.000000 -0.070000
v -0.847838 0.000000 -0.070000
v -0.129207 0.000000 -0.000000
v -0.257402 0.000000 0.000000
v -0.383576 0.000000 -0.000000
v -0.506718 0.000000 0.000000
v -0.625816 0.000000 -0.000000
v -0.739860 0.000000 0.000000
v -0.847838 0.000000 -0.000000
v -0.129207 0.000000 0.070000
v -0.257402 0.000000 0.070000
v -0.383576 0.000000 0.070000
v -0.506718 0.000000 0.070000
v -0.625816 0.000000 0.070000
v -0.739860 0.000000 0.070000
v -0.847838 0.000000 0.070000
v -0.129207 0.000000 0.140000
v -0.257402 0.000000 0.140000
v -0.383576 0.000000 0.140000
v -0.506718 0.000000 0.140000
v -0.625816 0.000000 0.140000
v -0.739860 0.000000 0.140000
v -0.847838 0.000000 0.140000
v -0.129207 0.000000 0.210000
v -0.257402 0.000000 0.210000
v -0.383576 0.000000 0.210000
v -0.506718 0.000000 0.210000
v -0.625816 0.000000 0.210000
v -0.739860 0.000000 0.210000
v -0.847838 0.000000 0.210000
v -1.041894 0.000000 -0.210000
v -1.127972 0.000000 -0.210000
v -1.207984 0.000000 -0.210000
v -1.282943 0.000000 -0.210000
v -1.353860 0.000000 -0.210000
v -1.421745 0.000000 -0.210000
v -1.487610 0.000000 -0.210000
v -1.041894 0.000000 -0.140000
v -1.127972 0.000000 -0.140000
v -1.207984 0.000000 -0.140000
v -1.282944 0.000000 -0.140000
v -1.353860 0.000000 -0.140000
v -1.421745 0.000000 -0.140000
v -1.487610 0.000000 -0.140000
v -1.041894 0.000000 -0.070000
v -1.127972 0.000000 -0.070000
v -1.207984 0.000000 -0.070000
v -1.282943 0.000000 -0.070000
v -1.353860 0.000000 -0.070000
v -1.421745 0.000000 -0.070000
v -1.487610 0.000000 -0.070000
v -1.041894 0.000000 -0.000000
v -1.127972 0.000000 0.000000
v -1.207984 0.000000 -0.000000
v -1.282944 0.000000 0.000000
v -1.353860 0.000000 -0.000000
v -1.421745 0.000000 0.000000
v -1.487610 0.000000 -0.000000
v -1.041894 0.000000 0.070000
v -1.127972 0.000000 0.070000
v -1.207984 0.000000 0.070000
v -1.282943 0.000000 0.070000
v -1.353860 0.000000 0.070000
v -1.421745 0.000000 0.070000
v -1.487610 0.000000 0.070000
v -1.041894 0.000000 0.140000
v -1.127972 0.000000 0.140000
v -1.207984 0.000000 0.140000
v -1.282944 0.000000 0.140000
v -1.353860 0.000000 0.140000
v -1.421745 0.000000 0.140000
v -1.487610 0.000000 0.140000
v -1.041894 0.000000 0.210000
v -1.127972 0.000000 0.210000
v -1.207984 0.000000 0.210000
v -1.282943 0.000000 0.210000
v -1.353860 0.000000 0.210000
v -1.421745 0.000000 0.210000
v -1.487610 0.000000 0.210000
vn -0.0000 1.0000 -0.0000
vt 0.746940 0.250911
vt 0.737442 0.333941
vt 0.737441 0.250911
vt 0.756438 0.250911
vt 0.746940 0.333941
vt 0.765937 0.250911
vt 0.756439 0.333941
vt 0.775436 0.250911
vt 0.765937 0.333941
vt 0.784935 0.250911
vt 0.775436 0.333941
vt 0.794434 0.250911
vt 0.784935 0.333941
vt 0.737442 0.416970
vt 0.746940 0.416970
vt 0.756439 0.416970
vt 0.765937 0.416970
vt 0.775436 0.416970
vt 0.794434 0.333941
vt 0.784935 0.416970
vt 0.737442 0.500000
vt 0.746940 0.500000
vt 0.756439 0.500000
vt 0.765937 0.500000
vt 0.775436 0.500000
vt 0.794434 0.416970
vt 0.784935 0.500000
vt 0.746940 0.583030
vt 0.737442 0.583030
vt 0.756439 0.583030
vt 0.765937 0.583030
vt 0.775436 0.583030
vt 0.784935 0.583030
vt 0.794434 0.583030
vt 0.746940 0.666060
vt 0.737442 0.666060
vt 0.756439 0.666060
vt 0.765937 0.666060
vt 0.775436 0.666060
vt 0.784935 0.666060
vt 0.794434 0.666060
vt 0.746940 0.749089
vt 0.737441 0.749089
vt 0.756438 0.749089
vt 0.765937 0.749089
vt 0.775436 0.749089
vt 0.784935 0.749089
vt 0.794434 0.749089
vt 0.737441 0.167881
vt 0.727943 0.250911
vt 0.727942 0.167881
vt 0.746940 0.167881
vt 0.756438 0.171055
vt 0.765937 0.175938
vt 0.775436 0.181797
vt 0.784935 0.191807
vt 0.794434 0.208164
vt 0.803933 0.239902
vt 0.803933 0.250911
vt 0.803933 0.333941
vt 0.803933 0.416970
vt 0.794434 0.500000
vt 0.803933 0.583030
vt 0.803933 0.666060
vt 0.803933 0.749089
vt 0.803933 0.759066
vt 0.794434 0.789295
vt 0.784935 0.805378
vt 0.775436 0.814098
vt 0.765937 0.822237
vt 0.756438 0.828050
vt 0.746940 0.830569
vt 0.737441 0.832119
vt 0.727943 0.749089
vt 0.727942 0.832119
vt 0.727944 0.666060
vt 0.727944 0.583030
vt 0.727944 0.500000
vt 0.727944 0.416970
vt 0.727944 0.333941
vt 0.387519 0.250911
vt 0.371986 0.333941
vt 0.369873 0.250911
vt 0.405801 0.250911
vt 0.388771 0.333941
vt 0.424404 0.250911
vt 0.406475 0.333941
vt 0.443319 0.333941
vt 0.424742 0.333941
vt 0.462057 0.250911
vt 0.443176 0.250911
vt 0.481010 0.250911
vt 0.462099 0.333941
vt 0.389574 0.416970
vt 0.373195 0.416970
vt 0.406942 0.416970
vt 0.424982 0.416970
vt 0.443420 0.416970
vt 0.481016 0.333941
vt 0.462129 0.416970
vt 0.373576 0.500000
vt 0.389851 0.500000
vt 0.425072 0.500000
vt 0.407115 0.500000
vt 0.462140 0.500000
vt 0.443458 0.500000
vt 0.481019 0.416970
vt 0.373195 0.583030
vt 0.389574 0.583030
vt 0.406942 0.583030
vt 0.424982 0.583030
vt 0.443420 0.583030
vt 0.481021 0.500000
vt 0.462129 0.583030
vt 0.371986 0.666060
vt 0.406475 0.666060
vt 0.388771 0.666060
vt 0.443319 0.666060
vt 0.424742 0.666060
vt 0.481019 0.583030
vt 0.462099 0.666060
vt 0.369873 0.749089
vt 0.405801 0.749089
vt 0.387519 0.749089
vt 0.443176 0.749089
vt 0.424404 0.749089
vt 0.481016 0.666060
vt 0.462057 0.749089
vt 0.367030 0.167881
vt 0.354003 0.250911
vt 0.348034 0.167881
vt 0.386025 0.167881
vt 0.405021 0.167881
vt 0.424017 0.167881
vt 0.443013 0.167881
vt 0.462008 0.167881
vt 0.481004 0.167881
vt 0.500000 0.167881
vt 0.500000 0.250911
vt 0.500000 0.333941
vt 0.500000 0.416970
vt 0.500000 0.500000
vt 0.500000 0.583030
vt 0.500000 0.666060
vt 0.481010 0.749089
vt 0.500000 0.749089
vt 0.481004 0.832119
vt 0.462008 0.832119
vt 0.443013 0.832119
vt 0.424017 0.832119
vt 0.405021 0.832119
vt 0.386025 0.832119
vt 0.367030 0.832119
vt 0.348034 0.832119
vt 0.354003 0.749089
vt 0.356740 0.666060
vt 0.358158 0.583030
vt 0.358587 0.500000
vt 0.358158 0.416970
vt 0.356740 0.333941
vt 0.291095 0.250911
vt 0.281560 0.333941
vt 0.281555 0.250911
vt 0.300708 0.250911
vt 0.291137 0.333941
vt 0.310768 0.333941
vt 0.300850 0.333941
vt 0.320320 0.250911
vt 0.310430 0.250911
vt 0.330531 0.250911
vt 0.320994 0.333941
vt 0.341379 0.250911
vt 0.331783 0.333941
vt 0.291167 0.416970
vt 0.281564 0.416970
vt 0.300951 0.416970
vt 0.311007 0.416970
vt 0.321461 0.416970
vt 0.343492 0.333941
vt 0.332586 0.416970
vt 0.291178 0.500000
vt 0.281565 0.500000
vt 0.311097 0.500000
vt 0.300989 0.500000
vt 0.332864 0.500000
vt 0.321634 0.500000
vt 0.344702 0.416970
vt 0.291167 0.583030
vt 0.281564 0.583030
vt 0.300951 0.583030
vt 0.311007 0.583030
vt 0.321461 0.583030
vt 0.345082 0.500000
vt 0.332586 0.583030
vt 0.281560 0.666060
vt 0.300850 0.666060
vt 0.291137 0.666060
vt 0.320994 0.666060
vt 0.310768 0.666060
vt 0.344702 0.583030
vt 0.331783 0.666060
vt 0.281555 0.749089
vt 0.300708 0.749089
vt 0.291095 0.749089
vt 0.320320 0.749089
vt 0.310430 0.749089
vt 0.343492 0.666060
vt 0.330531 0.749089
vt 0.281548 0.167881
vt 0.272051 0.250911
vt 0.272051 0.167881
vt 0.291046 0.167881
vt 0.300544 0.167881
vt 0.310042 0.167881
vt 0.319540 0.167881
vt 0.329038 0.167881
vt 0.338536 0.167881
vt 0.341379 0.749089
vt 0.338536 0.832119
vt 0.329038 0.832119
vt 0.319540 0.832119
vt 0.310042 0.832119
vt 0.300544 0.832119
vt 0.291046 0.832119
vt 0.281548 0.832119
vt 0.272051 0.832119
vt 0.272051 0.749089
vt 0.272051 0.666060
vt 0.272051 0.583030
vt 0.272051 0.500000
vt 0.272051 0.416970
vt 0.272051 0.333941
vt 0.205565 0.250911
vt 0.215063 0.333941
vt 0.205565 0.333941
vt 0.215063 0.250911
vt 0.224561 0.333941
vt 0.224561 0.250911
vt 0.234059 0.333941
vt 0.234059 0.250911
vt 0.243557 0.333941
vt 0.243557 0.250911
vt 0.253055 0.333941
vt 0.253055 0.250911
vt 0.262553 0.333941
vt 0.215063 0.416970
vt 0.205565 0.416970
vt 0.224561 0.416970
vt 0.234059 0.416970
vt 0.243557 0.416970
vt 0.253055 0.416970
vt 0.262553 0.416970
vt 0.215063 0.500000
vt 0.205565 0.500000
vt 0.224561 0.500000
vt 0.234059 0.500000
vt 0.243557 0.500000
vt 0.253055 0.500000
vt 0.262553 0.500000
vt 0.205565 0.583030
vt 0.215063 0.583030
vt 0.224561 0.583030
vt 0.234059 0.583030
vt 0.243557 0.583030
vt 0.253055 0.583030
vt 0.205565 0.666060
vt 0.215063 0.666060
vt 0.224561 0.666060
vt 0.234059 0.666060
vt 0.243557 0.666060
vt 0.262553 0.583030
vt 0.253055 0.666060
vt 0.205565 0.749089
vt 0.215063 0.749089
vt 0.224561 0.749089
vt 0.234059 0.749089
vt 0.243557 0.749089
vt 0.262553 0.666060
vt 0.253055 0.749089
vt 0.196067 0.234539
vt 0.196067 0.250911
vt 0.205565 0.206248
vt 0.215063 0.191521
vt 0.224561 0.181251
vt 0.234059 0.174469
vt 0.243557 0.171175
vt 0.253055 0.167881
vt 0.262553 0.250911
vt 0.262553 0.167881
vt 0.262553 0.749089
vt 0.262553 0.832119
vt 0.253055 0.830889
vt 0.243557 0.827198
vt 0.234059 0.823506
vt 0.224561 0.815355
vt 0.215063 0.806127
vt 0.205565 0.792593
vt 0.196067 0.768754
vt 0.196067 0.749089
vt 0.196067 0.666060
vt 0.196067 0.583030
vt 0.196067 0.500000
vt 0.196067 0.416970
vt 0.196067 0.333941
vt 0.537943 0.250911
vt 0.518984 0.333941
vt 0.518990 0.250911
vt 0.556824 0.250911
vt 0.537901 0.333941
vt 0.575596 0.250911
vt 0.556681 0.333941
vt 0.594199 0.250911
vt 0.575258 0.333941
vt 0.612481 0.250911
vt 0.593525 0.333941
vt 0.630127 0.250911
vt 0.611229 0.333941
vt 0.518981 0.416970
vt 0.537871 0.416970
vt 0.556580 0.416970
vt 0.575018 0.416970
vt 0.593058 0.416970
vt 0.628014 0.333941
vt 0.610426 0.416970
vt 0.518979 0.500000
vt 0.537860 0.500000
vt 0.574928 0.500000
vt 0.556542 0.500000
vt 0.592885 0.500000
vt 0.626804 0.416970
vt 0.610149 0.500000
vt 0.518981 0.583030
vt 0.537871 0.583030
vt 0.556580 0.583030
vt 0.575018 0.583030
vt 0.610426 0.583030
vt 0.593058 0.583030
vt 0.626424 0.500000
vt 0.518985 0.666060
vt 0.556681 0.666060
vt 0.537901 0.666060
vt 0.593525 0.666060
vt 0.575258 0.666060
vt 0.626804 0.583030
vt 0.611229 0.666060
vt 0.518990 0.749089
vt 0.556824 0.749089
vt 0.537943 0.749089
vt 0.594199 0.749089
vt 0.575596 0.749089
vt 0.628014 0.666060
vt 0.612481 0.749089
vt 0.537992 0.167881
vt 0.518996 0.167881
vt 0.556987 0.167881
vt 0.575983 0.167881
vt 0.594979 0.167881
vt 0.632971 0.167881
vt 0.613975 0.167881
vt 0.651966 0.167881
vt 0.645997 0.250911
vt 0.641841 0.416970
vt 0.641412 0.500000
vt 0.641841 0.583030
vt 0.643259 0.666060
vt 0.630127 0.749089
vt 0.645997 0.749089
vt 0.632971 0.832119
vt 0.613975 0.832119
vt 0.594979 0.832119
vt 0.575983 0.832119
vt 0.556987 0.832119
vt 0.537992 0.832119
vt 0.518996 0.832119
vt 0.500000 0.832119
vt 0.669467 0.250911
vt 0.656507 0.333941
vt 0.658620 0.250911
vt 0.679677 0.250911
vt 0.668214 0.333941
vt 0.689567 0.250911
vt 0.679003 0.333941
vt 0.699288 0.250911
vt 0.689229 0.333941
vt 0.708900 0.250911
vt 0.699145 0.333941
vt 0.718439 0.250911
vt 0.708858 0.333941
vt 0.655297 0.416970
vt 0.667412 0.416970
vt 0.688990 0.416970
vt 0.678536 0.416970
vt 0.708828 0.416970
vt 0.699044 0.416970
vt 0.718435 0.333941
vt 0.667134 0.500000
vt 0.654916 0.500000
vt 0.678363 0.500000
vt 0.688899 0.500000
vt 0.708817 0.500000
vt 0.699006 0.500000
vt 0.718431 0.416970
vt 0.655297 0.583030
vt 0.678536 0.583030
vt 0.667412 0.583030
vt 0.699044 0.583030
vt 0.688990 0.583030
vt 0.718430 0.500000
vt 0.708828 0.583030
vt 0.656507 0.666060
vt 0.679003 0.666060
vt 0.668214 0.666060
vt 0.689229 0.666060
vt 0.699145 0.666060
vt 0.718431 0.583030
vt 0.708858 0.666060
vt 0.658620 0.749089
vt 0.679677 0.749089
vt 0.669467 0.749089
vt 0.699288 0.749089
vt 0.689567 0.749089
vt 0.718435 0.666060
vt 0.708900 0.749089
vt 0.661463 0.167881
vt 0.670960 0.167881
vt 0.680457 0.167881
vt 0.689954 0.167881
vt 0.699451 0.167881
vt 0.708948 0.167881
vt 0.718445 0.167881
vt 0.718439 0.749089
vt 0.718445 0.832119
vt 0.708948 0.832119
vt 0.699451 0.832119
vt 0.689954 0.832119
vt 0.680457 0.832119
vt 0.670960 0.832119
vt 0.661463 0.832119
vt 0.651966 0.832119
vt 0.643259 0.333941
vt 0.803933 0.500000
s 0
g off
g Plano_Material
usemtl Material
f 149/1/1 155/2/1 148/3/1
f 150/4/1 156/5/1 149/1/1
f 151/6/1 157/7/1 150/4/1
f 152/8/1 158/9/1 151/6/1
f 153/10/1 159/11/1 152/8/1
f 154/12/1 160/13/1 153/10/1
f 156/5/1 162/14/1 155/2/1
f 157/7/1 163/15/1 156/5/1
f 158/9/1 164/16/1 157/7/1
f 159/11/1 165/17/1 158/9/1
f 160/13/1 166/18/1 159/11/1
f 161/19/1 167/20/1 160/13/1
f 163/15/1 169/21/1 162/14/1
f 164/16/1 170/22/1 163/15/1
f 165/17/1 171/23/1 164/16/1
f 166/18/1 172/24/1 165/17/1
f 167/20/1 173/25/1 166/18/1
f 168/26/1 174/27/1 167/20/1
f 169/21/1 177/28/1 176/29/1
f 170/22/1 178/30/1 177/28/1
f 171/23/1 179/31/1 178/30/1
f 172/24/1 180/32/1 179/31/1
f 173/25/1 181/33/1 180/32/1
f 174/27/1 182/34/1 181/33/1
f 176/29/1 184/35/1 183/36/1
f 177/28/1 185/37/1 184/35/1
f 178/30/1 186/38/1 185/37/1
f 179/31/1 187/39/1 186/38/1
f 180/32/1 188/40/1 187/39/1
f 181/33/1 189/41/1 188/40/1
f 183/36/1 191/42/1 190/43/1
f 184/35/1 192/44/1 191/42/1
f 185/37/1 193/45/1 192/44/1
f 186/38/1 194/46/1 193/45/1
f 187/39/1 195/47/1 194/46/1
f 188/40/1 196/48/1 195/47/1
f 22/49/1 141/50/1 13/51/1
f 23/52/1 148/3/1 22/49/1
f 24/53/1 149/1/1 23/52/1
f 25/54/1 150/4/1 24/53/1
f 26/55/1 151/6/1 25/54/1
f 27/56/1 152/8/1 26/55/1
f 28/57/1 153/10/1 27/56/1
f 2/58/1 154/12/1 28/57/1
f 29/59/1 161/19/1 154/12/1
f 30/60/1 168/26/1 161/19/1
f 31/61/1 175/62/1 168/26/1
f 175/62/1 33/63/1 182/34/1
f 182/34/1 34/64/1 189/41/1
f 189/41/1 35/65/1 196/48/1
f 196/48/1 4/66/1 134/67/1
f 195/47/1 134/67/1 135/68/1
f 194/46/1 135/68/1 136/69/1
f 193/45/1 136/69/1 137/70/1
f 192/44/1 137/70/1 138/71/1
f 191/42/1 138/71/1 139/72/1
f 190/43/1 139/72/1 140/73/1
f 147/74/1 140/73/1 14/75/1
f 146/76/1 190/43/1 147/74/1
f 145/77/1 183/36/1 146/76/1
f 144/78/1 176/29/1 145/77/1
f 162/14/1 144/78/1 143/79/1
f 155/2/1 143/79/1 142/80/1
f 148/3/1 142/80/1 141/50/1
f 198/81/1 204/82/1 197/83/1
f 199/84/1 205/85/1 198/81/1
f 200/86/1 206/87/1 199/84/1
f 200/86/1 208/88/1 207/89/1
f 202/90/1 208/88/1 201/91/1
f 203/92/1 209/93/1 202/90/1
f 204/82/1 212/94/1 211/95/1
f 206/87/1 212/94/1 205/85/1
f 207/89/1 213/96/1 206/87/1
f 208/88/1 214/97/1 207/89/1
f 209/93/1 215/98/1 208/88/1
f 210/99/1 216/100/1 209/93/1
f 212/94/1 218/101/1 211/95/1
f 213/96/1 219/102/1 212/94/1
f 213/96/1 221/103/1 220/104/1
f 215/98/1 221/103/1 214/97/1
f 215/98/1 223/105/1 222/106/1
f 217/107/1 223/105/1 216/100/1
f 219/102/1 225/108/1 218/101/1
f 220/104/1 226/109/1 219/102/1
f 221/103/1 227/110/1 220/104/1
f 222/106/1 228/111/1 221/103/1
f 223/105/1 229/112/1 222/106/1
f 224/113/1 230/114/1 223/105/1
f 226/109/1 232/115/1 225/108/1
f 226/109/1 234/116/1 233/117/1
f 228/111/1 234/116/1 227/110/1
f 228/111/1 236/118/1 235/119/1
f 230/114/1 236/118/1 229/112/1
f 231/120/1 237/121/1 230/114/1
f 233/117/1 239/122/1 232/115/1
f 233/117/1 241/123/1 240/124/1
f 235/119/1 241/123/1 234/116/1
f 235/119/1 243/125/1 242/126/1
f 237/121/1 243/125/1 236/118/1
f 238/127/1 244/128/1 237/121/1
f 43/129/1 78/130/1 8/131/1
f 44/132/1 197/83/1 43/129/1
f 45/133/1 198/81/1 44/132/1
f 46/134/1 199/84/1 45/133/1
f 47/135/1 200/86/1 46/134/1
f 48/136/1 201/91/1 47/135/1
f 49/137/1 202/90/1 48/136/1
f 5/138/1 203/92/1 49/137/1
f 57/139/1 210/99/1 203/92/1
f 58/140/1 217/107/1 210/99/1
f 59/141/1 224/113/1 217/107/1
f 60/142/1 231/120/1 224/113/1
f 61/143/1 238/127/1 231/120/1
f 62/144/1 245/145/1 238/127/1
f 63/146/1 64/147/1 245/145/1
f 245/145/1 65/148/1 244/128/1
f 244/128/1 66/149/1 243/125/1
f 242/126/1 66/149/1 67/150/1
f 242/126/1 68/151/1 241/123/1
f 240/124/1 68/151/1 69/152/1
f 240/124/1 70/153/1 239/122/1
f 239/122/1 7/154/1 84/155/1
f 232/115/1 84/155/1 83/156/1
f 225/108/1 83/156/1 82/157/1
f 218/101/1 82/157/1 81/158/1
f 211/95/1 81/158/1 80/159/1
f 204/82/1 80/159/1 79/160/1
f 197/83/1 79/160/1 78/130/1
f 247/161/1 253/162/1 246/163/1
f 248/164/1 254/165/1 247/161/1
f 248/164/1 256/166/1 255/167/1
f 250/168/1 256/166/1 249/169/1
f 251/170/1 257/171/1 250/168/1
f 252/172/1 258/173/1 251/170/1
f 253/162/1 261/174/1 260/175/1
f 255/167/1 261/174/1 254/165/1
f 256/166/1 262/176/1 255/167/1
f 257/171/1 263/177/1 256/166/1
f 258/173/1 264/178/1 257/171/1
f 259/179/1 265/180/1 258/173/1
f 260/175/1 268/181/1 267/182/1
f 262/176/1 268/181/1 261/174/1
f 262/176/1 270/183/1 269/184/1
f 264/178/1 270/183/1 263/177/1
f 264/178/1 272/185/1 271/186/1
f 266/187/1 272/185/1 265/180/1
f 267/182/1 275/188/1 274/189/1
f 269/184/1 275/188/1 268/181/1
f 270/183/1 276/190/1 269/184/1
f 271/186/1 277/191/1 270/183/1
f 272/185/1 278/192/1 271/186/1
f 273/193/1 279/194/1 272/185/1
f 275/188/1 281/195/1 274/189/1
f 275/188/1 283/196/1 282/197/1
f 277/191/1 283/196/1 276/190/1
f 277/191/1 285/198/1 284/199/1
f 279/194/1 285/198/1 278/192/1
f 280/200/1 286/201/1 279/194/1
f 282/197/1 288/202/1 281/195/1
f 282/197/1 290/203/1 289/204/1
f 284/199/1 290/203/1 283/196/1
f 284/199/1 292/205/1 291/206/1
f 286/201/1 292/205/1 285/198/1
f 287/207/1 293/208/1 286/201/1
f 71/209/1 99/210/1 10/211/1
f 72/212/1 246/163/1 71/209/1
f 73/213/1 247/161/1 72/212/1
f 74/214/1 248/164/1 73/213/1
f 75/215/1 249/169/1 74/214/1
f 76/216/1 250/168/1 75/215/1
f 77/217/1 251/170/1 76/216/1
f 8/131/1 252/172/1 77/217/1
f 78/130/1 259/179/1 252/172/1
f 79/160/1 266/187/1 259/179/1
f 266/187/1 81/158/1 273/193/1
f 81/158/1 280/200/1 273/193/1
f 82/157/1 287/207/1 280/200/1
f 83/156/1 294/218/1 287/207/1
f 84/155/1 85/219/1 294/218/1
f 294/218/1 86/220/1 293/208/1
f 293/208/1 87/221/1 292/205/1
f 291/206/1 87/221/1 88/222/1
f 291/206/1 89/223/1 290/203/1
f 289/204/1 89/223/1 90/224/1
f 289/204/1 91/225/1 288/202/1
f 288/202/1 9/226/1 105/227/1
f 281/195/1 105/227/1 104/228/1
f 274/189/1 104/228/1 103/229/1
f 267/182/1 103/229/1 102/230/1
f 260/175/1 102/230/1 101/231/1
f 253/162/1 101/231/1 100/232/1
f 246/163/1 100/232/1 99/210/1
f 295/233/1 303/234/1 302/235/1
f 296/236/1 304/237/1 303/234/1
f 297/238/1 305/239/1 304/237/1
f 298/240/1 306/241/1 305/239/1
f 299/242/1 307/243/1 306/241/1
f 300/244/1 308/245/1 307/243/1
f 302/235/1 310/246/1 309/247/1
f 303/234/1 311/248/1 310/246/1
f 304/237/1 312/249/1 311/248/1
f 305/239/1 313/250/1 312/249/1
f 306/241/1 314/251/1 313/250/1
f 307/243/1 315/252/1 314/251/1
f 309/247/1 317/253/1 316/254/1
f 310/246/1 318/255/1 317/253/1
f 311/248/1 319/256/1 318/255/1
f 312/249/1 320/257/1 319/256/1
f 313/250/1 321/258/1 320/257/1
f 314/251/1 322/259/1 321/258/1
f 317/253/1 323/260/1 316/254/1
f 318/255/1 324/261/1 317/253/1
f 319/256/1 325/262/1 318/255/1
f 320/257/1 326/263/1 319/256/1
f 321/258/1 327/264/1 320/257/1
f 322/259/1 328/265/1 321/258/1
f 324/261/1 330/266/1 323/260/1
f 325/262/1 331/267/1 324/261/1
f 326/263/1 332/268/1 325/262/1
f 327/264/1 333/269/1 326/263/1
f 328/265/1 334/270/1 327/264/1
f 329/271/1 335/272/1 328/265/1
f 331/267/1 337/273/1 330/266/1
f 332/268/1 338/274/1 331/267/1
f 333/269/1 339/275/1 332/268/1
f 334/270/1 340/276/1 333/269/1
f 335/272/1 341/277/1 334/270/1
f 336/278/1 342/279/1 335/272/1
f 1/280/1 295/233/1 21/281/1
f 92/282/1 296/236/1 295/233/1
f 93/283/1 297/238/1 296/236/1
f 94/284/1 298/240/1 297/238/1
f 95/285/1 299/242/1 298/240/1
f 96/286/1 300/244/1 299/242/1
f 97/287/1 301/288/1 300/244/1
f 98/289/1 99/210/1 301/288/1
f 301/288/1 100/232/1 308/245/1
f 308/245/1 101/231/1 315/252/1
f 315/252/1 102/230/1 322/259/1
f 102/230/1 329/271/1 322/259/1
f 103/229/1 336/278/1 329/271/1
f 104/228/1 343/290/1 336/278/1
f 105/227/1 36/291/1 343/290/1
f 343/290/1 37/292/1 342/279/1
f 342/279/1 38/293/1 341/277/1
f 341/277/1 39/294/1 340/276/1
f 340/276/1 40/295/1 339/275/1
f 339/275/1 41/296/1 338/274/1
f 338/274/1 42/297/1 337/273/1
f 337/273/1 3/298/1 15/299/1
f 330/266/1 15/299/1 16/300/1
f 323/260/1 16/300/1 17/301/1
f 316/254/1 17/301/1 18/302/1
f 19/303/1 316/254/1 18/302/1
f 20/304/1 309/247/1 19/303/1
f 21/281/1 302/235/1 20/304/1
f 345/305/1 351/306/1 344/307/1
f 346/308/1 352/309/1 345/305/1
f 347/310/1 353/311/1 346/308/1
f 348/312/1 354/313/1 347/310/1
f 349/314/1 355/315/1 348/312/1
f 350/316/1 356/317/1 349/314/1
f 352/309/1 358/318/1 351/306/1
f 353/311/1 359/319/1 352/309/1
f 354/313/1 360/320/1 353/311/1
f 355/315/1 361/321/1 354/313/1
f 356/317/1 362/322/1 355/315/1
f 357/323/1 363/324/1 356/317/1
f 359/319/1 365/325/1 358/318/1
f 360/320/1 366/326/1 359/319/1
f 360/320/1 368/327/1 367/328/1
f 362/322/1 368/327/1 361/321/1
f 363/324/1 369/329/1 362/322/1
f 364/330/1 370/331/1 363/324/1
f 366/326/1 372/332/1 365/325/1
f 367/328/1 373/333/1 366/326/1
f 368/327/1 374/334/1 367/328/1
f 369/329/1 375/335/1 368/327/1
f 369/329/1 377/336/1 376/337/1
f 371/338/1 377/336/1 370/331/1
f 373/333/1 379/339/1 372/332/1
f 373/333/1 381/340/1 380/341/1
f 375/335/1 381/340/1 374/334/1
f 375/335/1 383/342/1 382/343/1
f 377/336/1 383/342/1 376/337/1
f 378/344/1 384/345/1 377/336/1
f 380/341/1 386/346/1 379/339/1
f 380/341/1 388/347/1 387/348/1
f 382/343/1 388/347/1 381/340/1
f 382/343/1 390/349/1 389/350/1
f 384/345/1 390/349/1 383/342/1
f 385/351/1 391/352/1 384/345/1
f 5/138/1 344/307/1 57/139/1
f 107/353/1 344/307/1 106/354/1
f 108/355/1 345/305/1 107/353/1
f 109/356/1 346/308/1 108/355/1
f 110/357/1 347/310/1 109/356/1
f 110/357/1 349/314/1 348/312/1
f 112/358/1 349/314/1 111/359/1
f 11/360/1 350/316/1 112/358/1
f 120/361/1 357/323/1 350/316/1
f 357/323/1 122/362/1 364/330/1
f 364/330/1 123/363/1 371/338/1
f 123/363/1 378/344/1 371/338/1
f 124/364/1 385/351/1 378/344/1
f 125/365/1 392/366/1 385/351/1
f 126/367/1 50/368/1 392/366/1
f 392/366/1 51/369/1 391/352/1
f 391/352/1 52/370/1 390/349/1
f 389/350/1 52/370/1 53/371/1
f 389/350/1 54/372/1 388/347/1
f 387/348/1 54/372/1 55/373/1
f 387/348/1 56/374/1 386/346/1
f 386/346/1 6/375/1 63/146/1
f 379/339/1 63/146/1 62/144/1
f 372/332/1 62/144/1 61/143/1
f 365/325/1 61/143/1 60/142/1
f 358/318/1 60/142/1 59/141/1
f 351/306/1 59/141/1 58/140/1
f 344/307/1 58/140/1 57/139/1
f 394/376/1 400/377/1 393/378/1
f 395/379/1 401/380/1 394/376/1
f 396/381/1 402/382/1 395/379/1
f 397/383/1 403/384/1 396/381/1
f 398/385/1 404/386/1 397/383/1
f 399/387/1 405/388/1 398/385/1
f 401/380/1 407/389/1 400/377/1
f 402/382/1 408/390/1 401/380/1
f 402/382/1 410/391/1 409/392/1
f 404/386/1 410/391/1 403/384/1
f 404/386/1 412/393/1 411/394/1
f 406/395/1 412/393/1 405/388/1
f 407/389/1 415/396/1 414/397/1
f 409/392/1 415/396/1 408/390/1
f 410/391/1 416/398/1 409/392/1
f 411/394/1 417/399/1 410/391/1
f 411/394/1 419/400/1 418/401/1
f 413/402/1 419/400/1 412/393/1
f 415/396/1 421/403/1 414/397/1
f 415/396/1 423/404/1 422/405/1
f 417/399/1 423/404/1 416/398/1
f 417/399/1 425/406/1 424/407/1
f 419/400/1 425/406/1 418/401/1
f 420/408/1 426/409/1 419/400/1
f 422/405/1 428/410/1 421/403/1
f 422/405/1 430/411/1 429/412/1
f 424/407/1 430/411/1 423/404/1
f 425/406/1 431/413/1 424/407/1
f 426/409/1 432/414/1 425/406/1
f 427/415/1 433/416/1 426/409/1
f 429/412/1 435/417/1 428/410/1
f 429/412/1 437/418/1 436/419/1
f 431/413/1 437/418/1 430/411/1
f 431/413/1 439/420/1 438/421/1
f 433/416/1 439/420/1 432/414/1
f 434/422/1 440/423/1 433/416/1
f 127/424/1 120/361/1 11/360/1
f 128/425/1 393/378/1 127/424/1
f 129/426/1 394/376/1 128/425/1
f 130/427/1 395/379/1 129/426/1
f 131/428/1 396/381/1 130/427/1
f 132/429/1 397/383/1 131/428/1
f 133/430/1 398/385/1 132/429/1
f 133/430/1 141/50/1 399/387/1
f 141/50/1 406/395/1 399/387/1
f 142/80/1 413/402/1 406/395/1
f 143/79/1 420/408/1 413/402/1
f 144/78/1 427/415/1 420/408/1
f 427/415/1 146/76/1 434/422/1
f 146/76/1 441/431/1 434/422/1
f 147/74/1 113/432/1 441/431/1
f 441/431/1 114/433/1 440/423/1
f 440/423/1 115/434/1 439/420/1
f 438/421/1 115/434/1 116/435/1
f 438/421/1 117/436/1 437/418/1
f 437/418/1 118/437/1 436/419/1
f 436/419/1 119/438/1 435/417/1
f 435/417/1 12/439/1 126/367/1
f 428/410/1 126/367/1 125/365/1
f 421/403/1 125/365/1 124/364/1
f 414/397/1 124/364/1 123/363/1
f 122/362/1 414/397/1 123/363/1
f 400/377/1 122/362/1 121/440/1
f 393/378/1 121/440/1 120/361/1
f 149/1/1 156/5/1 155/2/1
f 150/4/1 157/7/1 156/5/1
f 151/6/1 158/9/1 157/7/1
f 152/8/1 159/11/1 158/9/1
f 153/10/1 160/13/1 159/11/1
f 154/12/1 161/19/1 160/13/1
f 156/5/1 163/15/1 162/14/1
f 157/7/1 164/16/1 163/15/1
f 158/9/1 165/17/1 164/16/1
f 159/11/1 166/18/1 165/17/1
f 160/13/1 167/20/1 166/18/1
f 161/19/1 168/26/1 167/20/1
f 163/15/1 170/22/1 169/21/1
f 164/16/1 171/23/1 170/22/1
f 165/17/1 172/24/1 171/23/1
f 166/18/1 173/25/1 172/24/1
f 167/20/1 174/27/1 173/25/1
f 168/26/1 175/62/1 174/27/1
f 169/21/1 170/22/1 177/28/1
f 170/22/1 171/23/1 178/30/1
f 171/23/1 172/24/1 179/31/1
f 172/24/1 173/25/1 180/32/1
f 173/25/1 174/27/1 181/33/1
f 174/27/1 175/62/1 182/34/1
f 176/29/1 177/28/1 184/35/1
f 177/28/1 178/30/1 185/37/1
f 178/30/1 179/31/1 186/38/1
f 179/31/1 180/32/1 187/39/1
f 180/32/1 181/33/1 188/40/1
f 181/33/1 182/34/1 189/41/1
f 183/36/1 184/35/1 191/42/1
f 184/35/1 185/37/1 192/44/1
f 185/37/1 186/38/1 193/45/1
f 186/38/1 187/39/1 194/46/1
f 187/39/1 188/40/1 195/47/1
f 188/40/1 189/41/1 196/48/1
f 22/49/1 148/3/1 141/50/1
f 23/52/1 149/1/1 148/3/1
f 24/53/1 150/4/1 149/1/1
f 25/54/1 151/6/1 150/4/1
f 26/55/1 152/8/1 151/6/1
f 27/56/1 153/10/1 152/8/1
f 28/57/1 154/12/1 153/10/1
f 2/58/1 29/59/1 154/12/1
f 29/59/1 30/60/1 161/19/1
f 30/60/1 31/61/1 168/26/1
f 31/61/1 32/441/1 175/62/1
f 175/62/1 32/441/1 33/63/1
f 182/34/1 33/63/1 34/64/1
f 189/41/1 34/64/1 35/65/1
f 196/48/1 35/65/1 4/66/1
f 195/47/1 196/48/1 134/67/1
f 194/46/1 195/47/1 135/68/1
f 193/45/1 194/46/1 136/69/1
f 192/44/1 193/45/1 137/70/1
f 191/42/1 192/44/1 138/71/1
f 190/43/1 191/42/1 139/72/1
f 147/74/1 190/43/1 140/73/1
f 146/76/1 183/36/1 190/43/1
f 145/77/1 176/29/1 183/36/1
f 144/78/1 169/21/1 176/29/1
f 162/14/1 169/21/1 144/78/1
f 155/2/1 162/14/1 143/79/1
f 148/3/1 155/2/1 142/80/1
f 198/81/1 205/85/1 204/82/1
f 199/84/1 206/87/1 205/85/1
f 200/86/1 207/89/1 206/87/1
f 200/86/1 201/91/1 208/88/1
f 202/90/1 209/93/1 208/88/1
f 203/92/1 210/99/1 209/93/1
f 204/82/1 205/85/1 212/94/1
f 206/87/1 213/96/1 212/94/1
f 207/89/1 214/97/1 213/96/1
f 208/88/1 215/98/1 214/97/1
f 209/93/1 216/100/1 215/98/1
f 210/99/1 217/107/1 216/100/1
f 212/94/1 219/102/1 218/101/1
f 213/96/1 220/104/1 219/102/1
f 213/96/1 214/97/1 221/103/1
f 215/98/1 222/106/1 221/103/1
f 215/98/1 216/100/1 223/105/1
f 217/107/1 224/113/1 223/105/1
f 219/102/1 226/109/1 225/108/1
f 220/104/1 227/110/1 226/109/1
f 221/103/1 228/111/1 227/110/1
f 222/106/1 229/112/1 228/111/1
f 223/105/1 230/114/1 229/112/1
f 224/113/1 231/120/1 230/114/1
f 226/109/1 233/117/1 232/115/1
f 226/109/1 227/110/1 234/116/1
f 228/111/1 235/119/1 234/116/1
f 228/111/1 229/112/1 236/118/1
f 230/114/1 237/121/1 236/118/1
f 231/120/1 238/127/1 237/121/1
f 233/117/1 240/124/1 239/122/1
f 233/117/1 234/116/1 241/123/1
f 235/119/1 242/126/1 241/123/1
f 235/119/1 236/118/1 243/125/1
f 237/121/1 244/128/1 243/125/1
f 238/127/1 245/145/1 244/128/1
f 43/129/1 197/83/1 78/130/1
f 44/132/1 198/81/1 197/83/1
f 45/133/1 199/84/1 198/81/1
f 46/134/1 200/86/1 199/84/1
f 47/135/1 201/91/1 200/86/1
f 48/136/1 202/90/1 201/91/1
f 49/137/1 203/92/1 202/90/1
f 5/138/1 57/139/1 203/92/1
f 57/139/1 58/140/1 210/99/1
f 58/140/1 59/141/1 217/107/1
f 59/141/1 60/142/1 224/113/1
f 60/142/1 61/143/1 231/120/1
f 61/143/1 62/144/1 238/127/1
f 62/144/1 63/146/1 245/145/1
f 63/146/1 6/375/1 64/147/1
f 245/145/1 64/147/1 65/148/1
f 244/128/1 65/148/1 66/149/1
f 242/126/1 243/125/1 66/149/1
f 242/126/1 67/150/1 68/151/1
f 240/124/1 241/123/1 68/151/1
f 240/124/1 69/152/1 70/153/1
f 239/122/1 70/153/1 7/154/1
f 232/115/1 239/122/1 84/155/1
f 225/108/1 232/115/1 83/156/1
f 218/101/1 225/108/1 82/157/1
f 211/95/1 218/101/1 81/158/1
f 204/82/1 211/95/1 80/159/1
f 197/83/1 204/82/1 79/160/1
f 247/161/1 254/165/1 253/162/1
f 248/164/1 255/167/1 254/165/1
f 248/164/1 249/169/1 256/166/1
f 250/168/1 257/171/1 256/166/1
f 251/170/1 258/173/1 257/171/1
f 252/172/1 259/179/1 258/173/1
f 253/162/1 254/165/1 261/174/1
f 255/167/1 262/176/1 261/174/1
f 256/166/1 263/177/1 262/176/1
f 257/171/1 264/178/1 263/177/1
f 258/173/1 265/180/1 264/178/1
f 259/179/1 266/187/1 265/180/1
f 260/175/1 261/174/1 268/181/1
f 262/176/1 269/184/1 268/181/1
f 262/176/1 263/177/1 270/183/1
f 264/178/1 271/186/1 270/183/1
f 264/178/1 265/180/1 272/185/1
f 266/187/1 273/193/1 272/185/1
f 267/182/1 268/181/1 275/188/1
f 269/184/1 276/190/1 275/188/1
f 270/183/1 277/191/1 276/190/1
f 271/186/1 278/192/1 277/191/1
f 272/185/1 279/194/1 278/192/1
f 273/193/1 280/200/1 279/194/1
f 275/188/1 282/197/1 281/195/1
f 275/188/1 276/190/1 283/196/1
f 277/191/1 284/199/1 283/196/1
f 277/191/1 278/192/1 285/198/1
f 279/194/1 286/201/1 285/198/1
f 280/200/1 287/207/1 286/201/1
f 282/197/1 289/204/1 288/202/1
f 282/197/1 283/196/1 290/203/1
f 284/199/1 291/206/1 290/203/1
f 284/199/1 285/198/1 292/205/1
f 286/201/1 293/208/1 292/205/1
f 287/207/1 294/218/1 293/208/1
f 71/209/1 246/163/1 99/210/1
f 72/212/1 247/161/1 246/163/1
f 73/213/1 248/164/1 247/161/1
f 74/214/1 249/169/1 248/164/1
f 75/215/1 250/168/1 249/169/1
f 76/216/1 251/170/1 250/168/1
f 77/217/1 252/172/1 251/170/1
f 8/131/1 78/130/1 252/172/1
f 78/130/1 79/160/1 259/179/1
f 79/160/1 80/159/1 266/187/1
f 266/187/1 80/159/1 81/158/1
f 81/158/1 82/157/1 280/200/1
f 82/157/1 83/156/1 287/207/1
f 83/156/1 84/155/1 294/218/1
f 84/155/1 7/154/1 85/219/1
f 294/218/1 85/219/1 86/220/1
f 293/208/1 86/220/1 87/221/1
f 291/206/1 292/205/1 87/221/1
f 291/206/1 88/222/1 89/223/1
f 289/204/1 290/203/1 89/223/1
f 289/204/1 90/224/1 91/225/1
f 288/202/1 91/225/1 9/226/1
f 281/195/1 288/202/1 105/227/1
f 274/189/1 281/195/1 104/228/1
f 267/182/1 274/189/1 103/229/1
f 260/175/1 267/182/1 102/230/1
f 253/162/1 260/175/1 101/231/1
f 246/163/1 253/162/1 100/232/1
f 295/233/1 296/236/1 303/234/1
f 296/236/1 297/238/1 304/237/1
f 297/238/1 298/240/1 305/239/1
f 298/240/1 299/242/1 306/241/1
f 299/242/1 300/244/1 307/243/1
f 300/244/1 301/288/1 308/245/1
f 302/235/1 303/234/1 310/246/1
f 303/234/1 304/237/1 311/248/1
f 304/237/1 305/239/1 312/249/1
f 305/239/1 306/241/1 313/250/1
f 306/241/1 307/243/1 314/251/1
f 307/243/1 308/245/1 315/252/1
f 309/247/1 310/246/1 317/253/1
f 310/246/1 311/248/1 318/255/1
f 311/248/1 312/249/1 319/256/1
f 312/249/1 313/250/1 320/257/1
f 313/250/1 314/251/1 321/258/1
f 314/251/1 315/252/1 322/259/1
f 317/253/1 324/261/1 323/260/1
f 318/255/1 325/262/1 324/261/1
f 319/256/1 326/263/1 325/262/1
f 320/257/1 327/264/1 326/263/1
f 321/258/1 328/265/1 327/264/1
f 322/259/1 329/271/1 328/265/1
f 324/261/1 331/267/1 330/266/1
f 325/262/1 332/268/1 331/267/1
f 326/263/1 333/269/1 332/268/1
f 327/264/1 334/270/1 333/269/1
f 328/265/1 335/272/1 334/270/1
f 329/271/1 336/278/1 335/272/1
f 331/267/1 338/274/1 337/273/1
f 332/268/1 339/275/1 338/274/1
f 333/269/1 340/276/1 339/275/1
f 334/270/1 341/277/1 340/276/1
f 335/272/1 342/279/1 341/277/1
f 336/278/1 343/290/1 342/279/1
f 1/280/1 92/282/1 295/233/1
f 92/282/1 93/283/1 296/236/1
f 93/283/1 94/284/1 297/238/1
f 94/284/1 95/285/1 298/240/1
f 95/285/1 96/286/1 299/242/1
f 96/286/1 97/287/1 300/244/1
f 97/287/1 98/289/1 301/288/1
f 98/289/1 10/211/1 99/210/1
f 301/288/1 99/210/1 100/232/1
f 308/245/1 100/232/1 101/231/1
f 315/252/1 101/231/1 102/230/1
f 102/230/1 103/229/1 329/271/1
f 103/229/1 104/228/1 336/278/1
f 104/228/1 105/227/1 343/290/1
f 105/227/1 9/226/1 36/291/1
f 343/290/1 36/291/1 37/292/1
f 342/279/1 37/292/1 38/293/1
f 341/277/1 38/293/1 39/294/1
f 340/276/1 39/294/1 40/295/1
f 339/275/1 40/295/1 41/296/1
f 338/274/1 41/296/1 42/297/1
f 337/273/1 42/297/1 3/298/1
f 330/266/1 337/273/1 15/299/1
f 323/260/1 330/266/1 16/300/1
f 316/254/1 323/260/1 17/301/1
f 19/303/1 309/247/1 316/254/1
f 20/304/1 302/235/1 309/247/1
f 21/281/1 295/233/1 302/235/1
f 345/305/1 352/309/1 351/306/1
f 346/308/1 353/311/1 352/309/1
f 347/310/1 354/313/1 353/311/1
f 348/312/1 355/315/1 354/313/1
f 349/314/1 356/317/1 355/315/1
f 350/316/1 357/323/1 356/317/1
f 352/309/1 359/319/1 358/318/1
f 353/311/1 360/320/1 359/319/1
f 354/313/1 361/321/1 360/320/1
f 355/315/1 362/322/1 361/321/1
f 356/317/1 363/324/1 362/322/1
f 357/323/1 364/330/1 363/324/1
f 359/319/1 366/326/1 365/325/1
f 360/320/1 367/328/1 366/326/1
f 360/320/1 361/321/1 368/327/1
f 362/322/1 369/329/1 368/327/1
f 363/324/1 370/331/1 369/329/1
f 364/330/1 371/338/1 370/331/1
f 366/326/1 373/333/1 372/332/1
f 367/328/1 374/334/1 373/333/1
f 368/327/1 375/335/1 374/334/1
f 369/329/1 376/337/1 375/335/1
f 369/329/1 370/331/1 377/336/1
f 371/338/1 378/344/1 377/336/1
f 373/333/1 380/341/1 379/339/1
f 373/333/1 374/334/1 381/340/1
f 375/335/1 382/343/1 381/340/1
f 375/335/1 376/337/1 383/342/1
f 377/336/1 384/345/1 383/342/1
f 378/344/1 385/351/1 384/345/1
f 380/341/1 387/348/1 386/346/1
f 380/341/1 381/340/1 388/347/1
f 382/343/1 389/350/1 388/347/1
f 382/343/1 383/342/1 390/349/1
f 384/345/1 391/352/1 390/349/1
f 385/351/1 392/366/1 391/352/1
f 5/138/1 106/354/1 344/307/1
f 107/353/1 345/305/1 344/307/1
f 108/355/1 346/308/1 345/305/1
f 109/356/1 347/310/1 346/308/1
f 110/357/1 348/312/1 347/310/1
f 110/357/1 111/359/1 349/314/1
f 112/358/1 350/316/1 349/314/1
f 11/360/1 120/361/1 350/316/1
f 120/361/1 121/440/1 357/323/1
f 357/323/1 121/440/1 122/362/1
f 364/330/1 122/362/1 123/363/1
f 123/363/1 124/364/1 378/344/1
f 124/364/1 125/365/1 385/351/1
f 125/365/1 126/367/1 392/366/1
f 126/367/1 12/439/1 50/368/1
f 392/366/1 50/368/1 51/369/1
f 391/352/1 51/369/1 52/370/1
f 389/350/1 390/349/1 52/370/1
f 389/350/1 53/371/1 54/372/1
f 387/348/1 388/347/1 54/372/1
f 387/348/1 55/373/1 56/374/1
f 386/346/1 56/374/1 6/375/1
f 379/339/1 386/346/1 63/146/1
f 372/332/1 379/339/1 62/144/1
f 365/325/1 372/332/1 61/143/1
f 358/318/1 365/325/1 60/142/1
f 351/306/1 358/318/1 59/141/1
f 344/307/1 351/306/1 58/140/1
f 394/376/1 401/380/1 400/377/1
f 395/379/1 402/382/1 401/380/1
f 396/381/1 403/384/1 402/382/1
f 397/383/1 404/386/1 403/384/1
f 398/385/1 405/388/1 404/386/1
f 399/387/1 406/395/1 405/388/1
f 401/380/1 408/390/1 407/389/1
f 402/382/1 409/392/1 408/390/1
f 402/382/1 403/384/1 410/391/1
f 404/386/1 411/394/1 410/391/1
f 404/386/1 405/388/1 412/393/1
f 406/395/1 413/402/1 412/393/1
f 407/389/1 408/390/1 415/396/1
f 409/392/1 416/398/1 415/396/1
f 410/391/1 417/399/1 416/398/1
f 411/394/1 418/401/1 417/399/1
f 411/394/1 412/393/1 419/400/1
f 413/402/1 420/408/1 419/400/1
f 415/396/1 422/405/1 421/403/1
f 415/396/1 416/398/1 423/404/1
f 417/399/1 424/407/1 423/404/1
f 417/399/1 418/401/1 425/406/1
f 419/400/1 426/409/1 425/406/1
f 420/408/1 427/415/1 426/409/1
f 422/405/1 429/412/1 428/410/1
f 422/405/1 423/404/1 430/411/1
f 424/407/1 431/413/1 430/411/1
f 425/406/1 432/414/1 431/413/1
f 426/409/1 433/416/1 432/414/1
f 427/415/1 434/422/1 433/416/1
f 429/412/1 436/419/1 435/417/1
f 429/412/1 430/411/1 437/418/1
f 431/413/1 438/421/1 437/418/1
f 431/413/1 432/414/1 439/420/1
f 433/416/1 440/423/1 439/420/1
f 434/422/1 441/431/1 440/423/1
f 127/424/1 393/378/1 120/361/1
f 128/425/1 394/376/1 393/378/1
f 129/426/1 395/379/1 394/376/1
f 130/427/1 396/381/1 395/379/1
f 131/428/1 397/383/1 396/381/1
f 132/429/1 398/385/1 397/383/1
f 133/430/1 399/387/1 398/385/1
f 133/430/1 13/51/1 141/50/1
f 141/50/1 142/80/1 406/395/1
f 142/80/1 143/79/1 413/402/1
f 143/79/1 144/78/1 420/408/1
f 144/78/1 145/77/1 427/415/1
f 427/415/1 145/77/1 146/76/1
f 146/76/1 147/74/1 441/431/1
f 147/74/1 14/75/1 113/432/1
f 441/431/1 113/432/1 114/433/1
f 440/423/1 114/433/1 115/434/1
f 438/421/1 439/420/1 115/434/1
f 438/421/1 116/435/1 117/436/1
f 437/418/1 117/436/1 118/437/1
f 436/419/1 118/437/1 119/438/1
f 435/417/1 119/438/1 12/439/1
f 428/410/1 435/417/1 126/367/1
f 421/403/1 428/410/1 125/365/1
f 414/397/1 421/403/1 124/364/1
f 122/362/1 407/389/1 414/397/1
f 400/377/1 407/389/1 122/362/1
f 393/378/1 400/377/1 121/440/1
