# Blender 4.4.3
# www.blender.org
mtllib hk_arm_right0_iselda.mtl
g Object_51_Malla
v -0.362136 1.238712 0.226963
v -0.356599 1.237139 0.226258
v -0.347320 1.230501 0.225767
v -0.341518 1.231795 0.208136
v -0.344438 1.225182 0.227944
v -0.339143 1.226303 0.208498
v -0.341841 1.219955 0.227266
v -0.339700 1.215624 0.222752
v -0.339280 1.209947 0.221418
v -0.340082 1.203821 0.205781
v -0.342312 1.198401 0.221516
v -0.345106 1.193677 0.219940
v -0.348559 1.189958 0.216667
v -0.353074 1.186691 0.215244
v -0.356418 1.189179 0.200492
v -0.358358 1.184013 0.215734
v -0.362022 1.187269 0.201130
v -0.363832 1.182710 0.214686
v -0.367879 1.186860 0.200848
v -0.369497 1.182482 0.213888
v -0.378767 1.189896 0.199450
v -0.385265 1.188500 0.211512
v -0.389595 1.192262 0.211910
v -0.393115 1.196753 0.212602
v -0.395779 1.201343 0.215256
v -0.397193 1.207167 0.214682
v -0.396922 1.218319 0.217508
v -0.395132 1.223513 0.219107
v -0.388621 1.232294 0.222292
v -0.343001 1.210653 0.238055
v -0.344517 1.208857 0.243771
v -0.367845 1.239425 0.226835
v -0.323647 1.290241 0.031344
v -0.299621 1.312507 -0.138267
v -0.290847 1.326044 -0.232827
v -0.328283 1.253567 0.018339
v -0.320782 1.268514 -0.024823
v -0.361278 1.275556 -0.012230
v -0.346748 1.298685 0.030348
v -0.340402 1.311152 -0.016751
v -0.314025 1.277354 -0.006276
v -0.349291 1.250125 0.018416
v -0.363514 1.288869 0.026029
v -0.320686 1.285997 0.031159
v -0.317182 1.302051 -0.016355
v -0.332867 1.251020 0.018544
v -0.359504 1.286394 -0.031535
v -0.336609 1.298043 0.031517
v -0.330516 1.310443 -0.015529
v -0.341956 1.298280 0.032152
v -0.335659 1.310989 -0.015865
v -0.316327 1.270938 -0.000053
v -0.356681 1.254418 0.016164
v -0.348785 1.267807 -0.029564
v -0.360244 1.292325 0.027512
v -0.355226 1.303502 -0.021451
v -0.318540 1.281259 0.030718
v -0.311532 1.298923 -0.033767
v -0.337947 1.249399 0.019312
v -0.328459 1.264673 -0.026808
v -0.358054 1.293224 -0.042071
v -0.321370 1.259333 0.021932
v -0.316223 1.273091 -0.023030
v -0.360573 1.257664 0.016344
v -0.311829 1.291860 -0.020723
v -0.342807 1.249042 0.018369
v -0.336567 1.263732 -0.028363
v -0.369445 1.276005 0.036096
v -0.358116 1.296688 -0.037124
v -0.329113 1.294386 0.032720
v -0.323335 1.307088 -0.015292
v -0.324491 1.256219 0.019603
v -0.363594 1.261168 0.017488
v -0.355326 1.273298 -0.028681
v -0.353821 1.296472 0.029714
v -0.347311 1.309054 -0.018016
v -0.313997 1.280143 0.000471
v -0.341356 1.264532 -0.028768
v -0.366125 1.284246 0.025704
v -0.356739 1.300936 -0.036544
v -0.291838 1.359617 -0.404544
v -0.287021 1.356079 -0.447268
v -0.339129 1.312998 -0.161771
v -0.331739 1.322073 -0.216881
v -0.295484 1.315901 -0.203818
v -0.332626 1.328004 -0.214101
v -0.301905 1.304617 -0.162286
v -0.296300 1.314669 -0.221647
v -0.339529 1.321175 -0.160484
v -0.331544 1.332756 -0.217766
v -0.306499 1.300689 -0.164534
v -0.332818 1.333322 -0.194338
v -0.300634 1.310790 -0.222942
v -0.331690 1.335624 -0.188119
v -0.313058 1.297861 -0.165860
v -0.308276 1.346009 -0.206469
v -0.334590 1.331325 -0.147173
v -0.307216 1.308139 -0.223838
v -0.313433 1.337262 -0.151387
v -0.331057 1.334139 -0.148619
v -0.325684 1.342400 -0.208518
v -0.319636 1.297511 -0.166678
v -0.313191 1.307874 -0.224142
v -0.307019 1.333557 -0.149520
v -0.302575 1.343870 -0.207662
v -0.327669 1.335643 -0.146343
v -0.323912 1.298194 -0.166081
v -0.303346 1.331243 -0.153497
v -0.323296 1.337196 -0.148213
v -0.318540 1.346030 -0.206439
v -0.329597 1.300670 -0.165460
v -0.318397 1.308867 -0.223288
v -0.296524 1.338699 -0.209630
v -0.318415 1.337891 -0.151159
v -0.312026 1.346563 -0.206189
v -0.324297 1.312047 -0.221844
v -0.299943 1.326500 -0.154847
v -0.335425 1.305703 -0.164154
v -0.297900 1.320181 -0.156071
v -0.292717 1.331122 -0.212499
v -0.328397 1.316027 -0.220023
v -0.275855 1.342179 -0.497440
v -0.274968 1.337959 -0.510374
v -0.310271 1.355523 -0.406269
v -0.306109 1.353763 -0.448234
v -0.292882 1.317785 -0.449537
v -0.288182 1.358100 -0.404755
v -0.304966 1.359046 -0.405319
v -0.297825 1.320873 -0.412857
v -0.284818 1.355812 -0.404984
v -0.281981 1.352880 -0.446788
v -0.299077 1.357156 -0.447698
v -0.305274 1.322974 -0.412839
v -0.298434 1.318217 -0.449692
v -0.281971 1.352898 -0.405318
v -0.278313 1.348856 -0.446941
v -0.299825 1.360359 -0.404910
v -0.278877 1.347799 -0.405843
v -0.295250 1.360396 -0.404561
v -0.292003 1.357523 -0.446790
v -0.311248 1.327637 -0.412093
v -0.304310 1.320741 -0.450246
v -0.275310 1.341623 -0.446041
v -0.308518 1.324341 -0.450121
v -0.277751 1.340017 -0.401307
v -0.315102 1.334050 -0.411398
v -0.310652 1.327509 -0.461678
v -0.311916 1.330881 -0.463754
v -0.278638 1.333109 -0.408958
v -0.312401 1.334315 -0.467040
v -0.282109 1.327162 -0.410390
v -0.315994 1.341058 -0.415818
v -0.315285 1.346324 -0.415341
v -0.281034 1.322924 -0.447990
v -0.313646 1.351551 -0.406933
v -0.286572 1.323625 -0.411488
v -0.310744 1.348424 -0.449204
v -0.291373 1.321500 -0.412308
v -0.287439 1.318909 -0.448898
v -0.276389 1.318779 -0.539755
v -0.292743 1.350428 -0.499445
v -0.274169 1.339156 -0.496619
v -0.287756 1.349111 -0.503595
v -0.287514 1.346720 -0.513129
v -0.307881 1.320326 -0.495308
v -0.302826 1.313722 -0.501362
v -0.272507 1.332515 -0.503694
v -0.306914 1.317379 -0.502403
v -0.310218 1.325740 -0.492822
v -0.309499 1.321185 -0.503621
v -0.311082 1.324549 -0.508852
v -0.274497 1.321833 -0.499678
v -0.311194 1.330123 -0.502610
v -0.278009 1.318339 -0.492449
v -0.310853 1.332282 -0.509768
v -0.309597 1.339612 -0.494439
v -0.282346 1.315227 -0.491782
v -0.307739 1.341307 -0.502198
v -0.285809 1.313800 -0.491192
v -0.289524 1.313044 -0.490751
v -0.284809 1.348231 -0.503386
v -0.283418 1.344493 -0.515764
v -0.293563 1.312888 -0.491152
v -0.279620 1.345423 -0.502660
v -0.301109 1.345009 -0.512543
v -0.296946 1.313533 -0.490872
v -0.278386 1.341955 -0.511697
v -0.297215 1.348834 -0.503486
v -0.294689 1.346884 -0.513811
v -0.302503 1.315290 -0.494069
v -0.295872 1.310913 -0.500658
v -0.312870 1.311818 -0.535117
v -0.274467 1.317434 -0.530018
v -0.312570 1.320251 -0.522215
v -0.276315 1.312096 -0.528440
v -0.314608 1.319012 -0.535783
v -0.278049 1.311703 -0.538811
v -0.313927 1.324612 -0.536715
v -0.311818 1.328399 -0.524237
v -0.280020 1.307442 -0.526825
v -0.282030 1.306133 -0.537550
v -0.312342 1.328530 -0.535332
v -0.286756 1.302667 -0.536698
v -0.310016 1.332284 -0.534089
v -0.306222 1.336807 -0.529224
v -0.292436 1.302106 -0.524494
v -0.288235 1.341404 -0.528776
v -0.287423 1.334905 -0.545519
v -0.302028 1.339509 -0.530273
v -0.306349 1.334839 -0.543530
v -0.294544 1.300601 -0.535714
v -0.300095 1.303130 -0.524147
v -0.283996 1.332343 -0.545688
v -0.297147 1.340411 -0.533180
v -0.300946 1.337143 -0.544370
v -0.302199 1.301847 -0.535136
v -0.278013 1.332043 -0.534105
v -0.281012 1.328741 -0.545792
v -0.293950 1.341180 -0.531350
v -0.306792 1.306914 -0.524590
v -0.276287 1.326695 -0.536635
v -0.289190 1.339222 -0.535363
v -0.291480 1.336682 -0.545180
v -0.294764 1.337387 -0.544981
v -0.308535 1.305793 -0.534897
v -0.274309 1.323217 -0.531769
v -0.311490 1.312841 -0.525845
v -0.393591 1.196074 0.240150
v -0.391218 1.195894 0.245112
v -0.370883 1.179698 0.226896
v -0.371867 1.178804 0.232527
v -0.397638 1.213561 0.231990
v -0.397532 1.211615 0.238076
v -0.354109 1.228306 0.241305
v -0.355598 1.226270 0.246779
v -0.351391 1.186472 0.231062
v -0.352527 1.185470 0.236750
v -0.393916 1.193012 0.227100
v -0.394001 1.191698 0.233445
v -0.380570 1.232404 0.239148
v -0.380959 1.229843 0.244893
v -0.342600 1.205345 0.236698
v -0.344127 1.203684 0.242500
v -0.376426 1.180568 0.226135
v -0.377136 1.179605 0.232045
v -0.395944 1.218555 0.233518
v -0.395878 1.216451 0.239528
v -0.350030 1.224664 0.240882
v -0.351581 1.222765 0.246406
v -0.355718 1.183364 0.229683
v -0.356712 1.182416 0.235424
v -0.396391 1.197832 0.228037
v -0.396376 1.196372 0.234331
v -0.369823 1.233810 0.241226
v -0.370586 1.231291 0.246583
v -0.375064 1.233783 0.239855
v -0.375809 1.231334 0.245440
v -0.343270 1.200097 0.235215
v -0.344777 1.198568 0.241107
v -0.381622 1.182380 0.225929
v -0.382153 1.181366 0.232347
v -0.393271 1.223097 0.235055
v -0.393278 1.220848 0.240990
v -0.346882 1.220434 0.240541
v -0.348317 1.218584 0.245763
v -0.360613 1.181159 0.228466
v -0.361455 1.180237 0.234249
v -0.397866 1.202996 0.229196
v -0.397786 1.201378 0.235427
v -0.364233 1.233003 0.241561
v -0.365436 1.230540 0.247040
v -0.345082 1.194888 0.234089
v -0.346442 1.193705 0.239647
v -0.386388 1.185134 0.226025
v -0.386750 1.184047 0.232434
v -0.389721 1.227015 0.236544
v -0.389831 1.224638 0.242407
v -0.344452 1.215602 0.239594
v -0.345932 1.213888 0.244873
v -0.365188 1.180238 0.226828
v -0.366572 1.179017 0.233270
v -0.398287 1.208308 0.230530
v -0.398257 1.206696 0.236219
v -0.358814 1.231129 0.241429
v -0.360214 1.228965 0.246866
v -0.347800 1.190364 0.232549
v -0.349059 1.189282 0.238176
v -0.390539 1.188725 0.226421
v -0.390750 1.187536 0.232805
v -0.385433 1.230157 0.237925
v -0.385672 1.227675 0.243725
v -0.384346 1.203981 0.255008
v -0.352143 1.197497 0.249866
v -0.394819 1.200394 0.241099
v -0.392281 1.199630 0.245929
v -0.353428 1.193767 0.248744
v -0.392908 1.203502 0.246534
v -0.355443 1.190377 0.247615
v -0.394621 1.209231 0.243393
v -0.391602 1.209364 0.248497
v -0.358109 1.187457 0.246521
v -0.393203 1.213409 0.244651
v -0.361325 1.185119 0.245505
v -0.371944 1.222442 0.254061
v -0.390969 1.217209 0.245918
v -0.388957 1.214179 0.250080
v -0.364966 1.183454 0.244605
v -0.366717 1.225477 0.251267
v -0.368147 1.221467 0.254625
v -0.388004 1.220487 0.247146
v -0.386393 1.217016 0.251139
v -0.368894 1.182525 0.243856
v -0.363943 1.220852 0.254300
v -0.384421 1.223116 0.248288
v -0.383295 1.219293 0.252124
v -0.372956 1.182369 0.243287
v -0.360405 1.218777 0.254230
v -0.380230 1.224899 0.249464
v -0.379782 1.220922 0.252998
v -0.376787 1.183004 0.243060
v -0.357328 1.216081 0.253942
v -0.371403 1.225963 0.251064
v -0.376213 1.222149 0.253532
v -0.381142 1.183146 0.238636
v -0.380576 1.184721 0.243642
v -0.354830 1.212867 0.253445
v -0.385251 1.185452 0.238511
v -0.384010 1.186713 0.243704
v -0.353006 1.209259 0.252761
v -0.388713 1.188456 0.238831
v -0.387002 1.189309 0.243978
v -0.351928 1.205395 0.251913
v -0.391529 1.192043 0.239384
v -0.389436 1.192410 0.244454
v -0.351637 1.201424 0.250936
v -0.368082 1.190580 0.253651
v -0.373078 1.211385 0.258556
v -0.382352 1.207810 0.256246
v -0.368916 1.214220 0.257493
v -0.369715 1.210694 0.258777
v -0.372386 1.189516 0.252818
v -0.378984 1.210555 0.257387
v -0.365897 1.209007 0.258646
v -0.377518 1.190458 0.252468
v -0.375756 1.211529 0.258085
v -0.363115 1.205497 0.258111
v -0.381774 1.191312 0.250541
v -0.361887 1.201259 0.257187
v -0.383251 1.195479 0.252977
v -0.360328 1.196738 0.254722
v -0.384661 1.199650 0.253860
v -0.364575 1.193184 0.254773
v -0.372988 1.200194 0.258454
v -0.376191 1.205441 0.257997
v -0.368402 1.197396 0.256952
v -0.378758 1.201531 0.256808
v -0.373738 1.200682 0.258475
v -0.374105 1.200565 0.258399
v -0.374320 1.200332 0.258311
v -0.374420 1.199923 0.258193
v -0.374212 1.199491 0.258110
v -0.373918 1.199302 0.258101
v -0.373594 1.199255 0.258128
v -0.373120 1.199466 0.258246
v -0.372953 1.199872 0.258371
v -0.373013 1.200247 0.258460
v -0.373339 1.200597 0.258508
v -0.372970 1.199739 0.258342
v -0.374397 1.199823 0.258179
v -0.374368 1.200238 0.258278
v -0.373248 1.199376 0.258204
v -0.374573 1.200614 0.258249
v -0.373413 1.199032 0.258025
v -0.373661 1.200680 0.258487
v -0.373262 1.200550 0.258508
v -0.373671 1.200699 0.258501
v -0.374134 1.200543 0.258388
v -0.373689 1.199249 0.258112
v -0.374147 1.199418 0.258110
v -0.368788 1.193490 0.255285
v -0.382111 1.201626 0.255635
v -0.363534 1.196575 0.256235
v -0.379769 1.195644 0.254492
v -0.365652 1.202415 0.258064
v -0.374301 1.192573 0.254419
v -0.373226 1.208799 0.258590
v -0.369572 1.207286 0.258797
v -0.378920 1.207250 0.257488
v -0.358191 1.193333 0.251417
v -0.388428 1.204117 0.251000
v -0.356188 1.199333 0.253218
v -0.388056 1.198151 0.249523
v -0.356715 1.205699 0.254782
v -0.385376 1.192704 0.248478
v -0.359689 1.211458 0.255872
v -0.380798 1.188607 0.248027
v -0.373015 1.212055 0.258329
v -0.372008 1.221899 0.254348
v -0.376281 1.185813 0.246989
v -0.377072 1.216355 0.255650
v -0.364658 1.215739 0.256322
v -0.371476 1.185418 0.247654
v -0.382386 1.214033 0.254323
v -0.366531 1.186330 0.248392
v -0.362424 1.188608 0.249653
v -0.386437 1.209693 0.252685
v -0.347332 1.198089 0.244202
v -0.346718 1.202795 0.245488
v -0.347061 1.207557 0.246664
v -0.348348 1.212191 0.247684
v -0.350529 1.216518 0.248509
v -0.370605 1.231207 0.246688
v -0.375608 1.228152 0.248442
v -0.353520 1.220374 0.249107
v -0.377459 1.180844 0.235942
v -0.357205 1.223609 0.249457
v -0.372437 1.179951 0.236196
v -0.361443 1.226102 0.249543
v -0.367462 1.180165 0.236987
v -0.362746 1.181271 0.237885
v -0.358372 1.183261 0.238965
v -0.354509 1.186058 0.240185
v -0.351303 1.189556 0.241499
v -0.396470 1.205991 0.239910
v -0.348880 1.193618 0.242855
v -0.380576 1.185358 0.212877
v -0.369800 1.233877 0.241023
v -0.375111 1.183742 0.211688
v -0.273192 1.328592 -0.521334
v -0.307426 1.314826 -0.510030
v -0.287705 1.343961 -0.521471
v -0.288243 1.341382 -0.528752
v -0.275147 1.333772 -0.521853
v -0.304365 1.311974 -0.509060
v -0.301440 1.306973 -0.515458
v -0.291187 1.344513 -0.521593
v -0.277714 1.337291 -0.522673
v -0.298569 1.309146 -0.507713
v -0.280329 1.339395 -0.523981
v -0.291491 1.310066 -0.502344
v -0.294096 1.304977 -0.515272
v -0.289371 1.338891 -0.536413
v -0.287093 1.310804 -0.502059
v -0.286171 1.305888 -0.515919
v -0.283517 1.312083 -0.502235
v -0.284699 1.304094 -0.525640
v -0.280209 1.309118 -0.516894
v -0.309743 1.333355 -0.523612
v -0.278327 1.315375 -0.503365
v -0.276255 1.313212 -0.518705
v -0.312028 1.325849 -0.518988
v -0.274339 1.316620 -0.519690
v -0.272543 1.325403 -0.510577
v -0.273328 1.319623 -0.519813
v -0.310151 1.318869 -0.512314
v -0.299872 1.315567 -0.482560
v -0.298951 1.351918 -0.484250
v -0.281370 1.350524 -0.473934
v -0.279187 1.346854 -0.490811
v -0.302866 1.348110 -0.493911
v -0.285680 1.352956 -0.473982
v -0.283838 1.349961 -0.491532
v -0.305367 1.343826 -0.504440
v -0.287520 1.346591 -0.513407
v -0.289738 1.354043 -0.474962
v -0.287890 1.349823 -0.500333
v -0.311352 1.336803 -0.482685
v -0.311227 1.330410 -0.492449
v -0.277495 1.327187 -0.449473
v -0.274404 1.327505 -0.476496
v -0.272859 1.332386 -0.483400
v -0.308399 1.322821 -0.482395
v -0.273835 1.339333 -0.480081
v -0.306054 1.319880 -0.482386
v -0.293989 1.354385 -0.474448
v -0.288728 1.352148 -0.487838
v -0.277183 1.346256 -0.473196
v -0.303175 1.317428 -0.482464
v -0.273029 1.323580 -0.522956
v -0.292761 1.321544 -0.354169
v -0.302527 1.315309 -0.288898
v -0.320061 1.347302 -0.335224
v -0.323116 1.345679 -0.275707
v -0.295150 1.318001 -0.287194
v -0.287933 1.324413 -0.352450
v -0.324036 1.337775 -0.307231
v -0.284317 1.328756 -0.351044
v -0.325881 1.331416 -0.282909
v -0.320083 1.335263 -0.351457
v -0.289768 1.323275 -0.283497
v -0.283249 1.333732 -0.332054
v -0.324002 1.326174 -0.284942
v -0.317354 1.329143 -0.352849
v -0.282026 1.342516 -0.346447
v -0.319567 1.320554 -0.287221
v -0.312150 1.323841 -0.354279
v -0.287408 1.337747 -0.277014
v -0.285228 1.349948 -0.345240
v -0.314788 1.317384 -0.288183
v -0.305900 1.353553 -0.273756
v -0.304968 1.358511 -0.343956
v -0.300105 1.358676 -0.343320
v -0.305502 1.320703 -0.355000
v -0.310471 1.356906 -0.344567
v -0.290688 1.345055 -0.275667
v -0.289557 1.354383 -0.344411
v -0.310178 1.315748 -0.289308
v -0.312262 1.353116 -0.273922
v -0.293043 1.356579 -0.343949
v -0.297953 1.320078 -0.354782
v -0.319044 1.349928 -0.275232
v -0.316541 1.352147 -0.346530
v -0.296577 1.350528 -0.274227
v -0.296918 1.358041 -0.343620
v -0.349065 1.288557 -0.079501
v -0.346594 1.284252 -0.077489
v -0.310169 1.310109 -0.065117
v -0.343140 1.281501 -0.078203
v -0.334400 1.320181 -0.058225
v -0.328541 1.322798 -0.070962
v -0.312851 1.313853 -0.064663
v -0.338813 1.276995 -0.071673
v -0.332115 1.287553 -0.117232
v -0.317402 1.315973 -0.058407
v -0.330683 1.277370 -0.079506
v -0.340648 1.318649 -0.060110
v -0.326127 1.277515 -0.078925
v -0.346983 1.314544 -0.061140
v -0.320406 1.319569 -0.065377
v -0.321449 1.278749 -0.078944
v -0.350130 1.311237 -0.062614
v -0.311995 1.346566 -0.206548
v -0.325361 1.320852 -0.063028
v -0.317143 1.281251 -0.080830
v -0.313732 1.283314 -0.078119
v -0.310293 1.287297 -0.081090
v -0.305768 1.296715 -0.085699
v -0.307787 1.291524 -0.081855
v -0.351011 1.292714 -0.079270
v -0.291952 1.357430 -0.447453
v -0.302267 1.352941 -0.273979
v -0.300148 1.358514 -0.343020
v -0.389897 1.235979 0.166726
v -0.378618 1.259709 0.107025
v -0.355077 1.232846 0.068237
v -0.332582 1.227682 0.170480
v -0.361260 1.277312 0.098273
v -0.337245 1.271211 0.108975
v -0.390439 1.230947 0.164288
v -0.362432 1.200786 0.162067
v -0.332504 1.234515 0.167692
v -0.375077 1.263034 0.126703
v -0.366993 1.277799 0.078288
v -0.370850 1.265936 0.128794
v -0.341587 1.274842 0.105535
v -0.390256 1.225100 0.164527
v -0.345307 1.231143 0.072729
v -0.328152 1.256217 0.115365
v -0.375217 1.265615 0.103754
v -0.359874 1.235008 0.066838
v -0.353765 1.283555 0.081461
v -0.352549 1.275166 0.112235
v -0.341890 1.298457 0.031675
v -0.335655 1.311040 -0.015877
v -0.350610 1.279329 0.097498
v -0.346872 1.275673 0.108595
v -0.351788 1.201011 0.167624
v -0.330351 1.261819 0.113675
v -0.373799 1.202818 0.163369
v -0.360253 1.270275 0.128293
v -0.348600 1.198432 0.183026
v -0.333236 1.267315 0.110070
v -0.361765 1.254907 0.181847
v -0.367359 1.254748 0.180818
v -0.373440 1.239380 0.225522
v -0.372851 1.253434 0.179879
v -0.379055 1.237987 0.224618
v -0.377947 1.251095 0.178726
v -0.384116 1.235555 0.223721
v -0.382499 1.247736 0.177501
v -0.392309 1.228262 0.220675
v -0.386128 1.243848 0.175744
v -0.388939 1.239128 0.174270
v -0.397620 1.212846 0.215940
v -0.393482 1.207961 0.196860
v -0.389821 1.205475 0.188594
v -0.385541 1.201773 0.184782
v -0.380740 1.199880 0.179749
v -0.368828 1.199713 0.167020
v -0.357563 1.199108 0.168253
v -0.344439 1.200864 0.186742
v -0.342699 1.199706 0.202631
v -0.339933 1.204640 0.219742
v -0.333577 1.221706 0.171591
v -0.341616 1.245358 0.182749
v -0.351587 1.234368 0.225764
v -0.345794 1.249259 0.182565
v -0.350796 1.251928 0.183139
v -0.356066 1.254115 0.182142
v -0.361779 1.254863 0.181969
v -0.367825 1.239475 0.226714
v -0.337734 1.241796 0.179270
v -0.335203 1.236786 0.178418
v -0.305880 1.353528 -0.273993
v -0.295237 1.360316 -0.404835
v -0.329014 1.322048 -0.067281
v -0.318422 1.337860 -0.151099
v -0.287705 1.343961 -0.521471
v -0.299879 1.301145 -0.543096
v -0.279021 1.324007 -0.545699
v -0.278401 1.320430 -0.545569
v -0.278505 1.316801 -0.545398
v -0.279333 1.313249 -0.545195
v -0.281418 1.308953 -0.544775
v -0.284612 1.305362 -0.544384
v -0.287598 1.303262 -0.544111
v -0.292655 1.301246 -0.543745
v -0.305610 1.303330 -0.542534
v -0.308849 1.305776 -0.542219
v -0.311204 1.308445 -0.542014
v -0.313081 1.311704 -0.541857
v -0.314209 1.315040 -0.541793
v -0.314694 1.318550 -0.541822
v -0.314253 1.323838 -0.542030
v -0.311242 1.330292 -0.542655
vn 0.5063 0.8106 0.2942
vn 0.5251 0.8084 0.2659
vn 0.2481 0.9359 0.2499
vn 0.7452 -0.6642 -0.0587
vn 0.5507 -0.8283 -0.1029
vn 0.5397 -0.8383 -0.0775
vn -0.2961 -0.9260 -0.2342
vn -0.5420 -0.8062 -0.2371
vn -0.3539 -0.9175 -0.1815
vn -0.7981 -0.5616 -0.2181
vn -0.8255 -0.5402 -0.1633
vn -0.6054 -0.7759 -0.1772
vn -0.4454 -0.8953 -0.0027
vn -0.7500 -0.6609 -0.0261
vn -0.7353 -0.6775 0.0175
vn -0.5286 -0.8475 0.0472
vn -0.9385 -0.3411 -0.0545
vn -0.8963 -0.4435 -0.0031
vn -0.9980 -0.0037 -0.0634
vn -0.9953 -0.0834 -0.0501
vn 0.9307 -0.3571 0.0794
vn 0.7473 -0.6600 0.0765
vn 0.8351 -0.5410 0.0996
vn 0.9747 0.0704 -0.2123
vn 0.9685 -0.2160 -0.1239
vn 0.9563 -0.0831 -0.2805
vn -0.5481 -0.8208 0.1610
vn -0.8101 -0.5737 0.1204
vn -0.7626 -0.6152 0.2000
vn -0.5470 -0.7983 0.2520
vn -0.9042 -0.4071 0.1294
vn -0.9458 -0.3210 0.0492
vn -0.9963 -0.0862 -0.0042
vn -0.9792 -0.1758 0.1012
vn 0.8673 -0.4840 0.1165
vn 0.7110 -0.6900 0.1352
vn 0.6927 -0.6914 0.2055
vn 0.5008 -0.8508 0.1593
vn 0.4526 -0.8534 0.2585
vn 0.3097 -0.9357 0.1690
vn 0.2370 -0.9284 0.2861
vn 0.1197 -0.9786 0.1672
vn 0.0214 -0.9542 0.2984
vn -0.0660 -0.9828 0.1724
vn -0.2115 -0.9402 0.2669
vn -0.2748 -0.9483 0.1585
vn -0.9785 -0.1218 0.1663
vn -0.9929 0.0934 0.0743
vn -0.9948 -0.0471 0.0903
vn 0.8719 -0.4880 -0.0411
vn 0.6893 -0.7187 -0.0914
vn 0.8816 -0.4295 -0.1955
vn -0.6659 0.7362 -0.1210
vn -0.4382 0.8767 -0.1983
vn -0.5334 0.5312 -0.6582
vn 0.5935 0.7448 -0.3050
vn 0.4323 0.3992 -0.8086
vn 0.2623 0.4377 -0.8600
vn 0.7844 0.5382 -0.3083
vn 0.5766 0.1951 -0.7934
vn 0.9125 0.2774 -0.3008
vn -0.1783 0.9513 -0.2514
vn 0.0305 0.9512 -0.3072
vn -0.1545 0.3751 -0.9140
vn 0.1457 0.9453 -0.2917
vn 0.2663 0.3150 -0.9110
vn -0.0207 -0.9821 -0.1870
vn 0.1729 -0.9712 -0.1638
vn 0.1244 -0.9888 0.0827
vn -0.3230 -0.0891 0.9422
vn -0.3060 -0.2010 0.9306
vn -0.2260 -0.0306 0.9737
vn -0.0559 -0.4591 0.8866
vn 0.2030 -0.4700 0.8590
vn -0.1796 -0.4479 0.8759
vn -0.2330 -0.0419 0.9716
vn -0.3378 -0.1886 0.9221
vn -0.4027 -0.3125 0.8603
vn 0.0944 -0.3447 0.9340
vn 0.1189 -0.1732 0.9777
vn 0.1019 -0.3321 0.9377
vn 0.0107 -0.0332 0.9994
vn 0.0175 -0.0521 0.9985
vn 0.1008 -0.1574 0.9824
vn -0.7575 0.0747 0.6485
vn -0.8059 -0.1291 0.5778
vn -0.6904 -0.1023 0.7162
vn -0.6763 -0.3267 0.6603
vn 0.4559 -0.3892 0.8004
vn 0.3522 -0.1993 0.9145
vn 0.2497 -0.3687 0.8954
vn -0.7500 -0.4064 0.5219
vn -0.5807 -0.5325 0.6159
vn -0.4892 -0.6257 0.6075
vn -0.2806 -0.6274 0.7264
vn -0.5083 -0.4328 0.7445
vn -0.6006 -0.6402 0.4790
vn -0.4087 -0.6943 0.5923
vn -0.3746 -0.8002 0.4683
vn -0.2202 -0.7671 0.6026
vn -0.3530 0.4682 0.8101
vn -0.4594 0.2732 0.8452
vn -0.2667 0.3627 0.8929
vn -0.5785 0.3381 0.7423
vn -0.6115 0.1116 0.7833
vn 0.0735 0.3416 0.9370
vn -0.0362 0.1972 0.9797
vn 0.0366 0.1758 0.9837
vn 0.0672 0.4900 0.8692
vn 0.0063 0.5289 0.8486
vn -0.8315 -0.4055 0.3797
vn -0.6918 -0.5242 0.4966
vn -0.9099 -0.3872 0.1490
vn -0.8287 -0.5481 0.1134
vn -0.7600 -0.5473 0.3505
vn -0.7169 -0.6918 0.0868
vn -0.6617 -0.6738 0.3289
vn -0.5006 -0.7290 0.4668
vn -0.5788 -0.8124 0.0702
vn -0.5402 -0.7801 0.3157
vn -0.4213 -0.9045 0.0660
vn -0.1268 0.6447 0.7539
vn -0.2132 0.5195 0.8275
vn -0.1428 0.5047 0.8514
vn -0.4056 -0.8601 0.3094
vn -0.2410 -0.8655 0.4392
vn -0.2575 -0.9205 0.2938
vn -0.3654 0.6022 0.7098
vn -0.4644 0.4227 0.7782
vn -0.3744 0.7514 0.5434
vn -0.5383 0.6775 0.5012
vn -0.5062 0.5346 0.6767
vn -0.6804 0.5755 0.4537
vn 0.2100 0.4788 0.8524
vn 0.1068 0.6242 0.7739
vn -0.6309 0.4443 0.6361
vn -0.6720 0.2386 0.7011
vn -0.7987 0.4478 0.4019
vn 0.1524 0.7727 0.6162
vn 0.0659 0.7895 0.6103
vn -0.7351 0.3276 0.5936
vn -0.8886 0.2989 0.3478
vn -0.9457 0.1352 0.2956
vn -0.8096 0.2043 0.5503
vn -0.8655 0.0593 0.4974
vn -0.8927 -0.0851 0.4426
vn -0.3674 0.8699 0.3290
vn -0.8437 -0.5156 -0.1497
vn 0.6664 -0.7452 -0.0231
vn 0.7934 -0.6077 0.0351
vn 0.7270 -0.6321 0.2683
vn 0.6082 -0.7643 0.2143
vn 0.6868 -0.7192 -0.1053
vn 0.8110 -0.5843 -0.0289
vn 0.5604 0.7257 0.3991
vn 0.3934 0.8237 0.4083
vn 0.3330 0.7312 0.5954
vn 0.4892 0.6372 0.5955
vn -0.9763 0.2106 0.0495
vn -0.9780 -0.0329 0.2061
vn -0.0620 -0.9963 0.0589
vn -0.0179 -0.9650 -0.2617
vn 0.1719 -0.9558 -0.2386
vn 0.9592 0.1004 0.2644
vn 0.9068 0.2770 0.3176
vn 0.8249 0.2132 0.5235
vn 0.8774 0.0434 0.4779
vn -0.5448 0.7900 0.2812
vn -0.7235 -0.6666 -0.1795
vn 0.8905 -0.4446 0.0966
vn 0.8157 -0.4791 0.3243
vn 0.9037 -0.4267 0.0363
vn 0.2079 0.8875 0.4112
vn 0.2048 0.9086 0.3639
vn -0.9996 0.0234 -0.0128
vn -0.9574 -0.2135 0.1944
vn 0.3380 -0.9331 -0.1229
vn 0.2994 -0.9466 0.1198
vn 0.3508 -0.9155 -0.1972
vn 0.8166 0.4530 0.3578
vn 0.7398 0.3738 0.5594
vn 0.9139 0.3016 0.2719
vn 0.8230 0.4751 0.3114
vn -0.6961 0.6805 0.2290
vn -0.5758 -0.7931 -0.1985
vn 0.9528 -0.2623 0.1531
vn 0.8730 -0.3095 0.3768
vn -0.0933 0.9214 0.3773
vn -0.2074 0.8122 0.5453
vn -0.1148 0.7936 0.5975
vn 0.1068 0.9078 0.4056
vn 0.1093 0.9279 0.3565
vn -0.9846 -0.1632 -0.0624
vn 0.5137 -0.8545 -0.0772
vn 0.4641 -0.8704 0.1642
vn 0.5225 -0.8363 -0.1660
vn 0.6996 0.6041 0.3816
vn 0.6264 0.5190 0.5816
vn -0.8219 0.5432 0.1712
vn -0.4080 -0.8892 -0.2069
vn -0.2412 -0.9698 0.0374
vn 0.9744 -0.0813 0.2098
vn 0.8934 -0.1342 0.4288
vn -0.1867 0.9153 0.3569
vn -0.3670 0.8873 0.2795
vn -0.9320 -0.3455 -0.1099
vn -0.9166 0.3842 0.1111
vn -0.2207 -0.9533 -0.2061
vn -0.2173 -0.9303 -0.2954
vn -0.8752 -0.2559 0.4106
vn -0.7842 -0.2743 0.5565
vn -0.6488 -0.7195 0.2478
vn -0.8884 -0.4124 0.2014
vn -0.9042 -0.4070 0.1296
vn -0.6790 -0.7221 0.1326
vn 0.0583 0.9461 -0.3184
vn 0.1190 0.9300 -0.3479
vn 0.1975 0.9245 -0.3260
vn -0.3112 -0.9189 0.2424
vn -0.3501 -0.9307 0.1062
vn -0.3163 -0.8779 0.3594
vn -0.6058 -0.7271 0.3230
vn -0.4218 -0.8375 0.3474
vn -0.1370 0.9551 -0.2628
vn -0.2188 0.5135 -0.8297
vn 0.0707 -0.9771 0.2007
vn 0.0436 -0.9979 0.0471
vn -0.4645 0.8557 -0.2282
vn 0.4451 0.8533 -0.2717
vn -0.0636 -0.9381 0.3404
vn 0.2848 0.8991 -0.3325
vn 0.3184 0.8887 -0.3299
vn 0.4458 -0.8870 0.1202
vn 0.3163 -0.9056 0.2825
vn -0.8628 0.5014 -0.0648
vn -0.6883 0.7069 -0.1628
vn 0.6304 -0.7497 0.2014
vn -0.9498 0.3096 0.0457
vn -0.8971 0.4418 0.0097
vn -0.9674 0.2497 0.0422
vn -0.9738 0.2262 -0.0244
vn 0.8166 -0.5651 0.1179
vn -0.9129 -0.3521 0.2064
vn 0.3793 0.9038 -0.1981
vn 0.6302 0.7597 -0.1602
vn 0.2918 0.9497 -0.1133
vn 0.4280 0.8945 -0.1289
vn 0.3104 0.9368 -0.1616
vn -0.9861 0.1522 -0.0673
vn 0.9466 -0.3113 0.0839
vn -0.9980 0.0627 0.0019
vn -0.9638 -0.2655 -0.0224
vn -0.8346 -0.5497 0.0351
vn -0.0417 0.9812 -0.1886
vn 0.0671 0.9721 -0.2249
vn 0.0595 0.9635 -0.2611
vn -0.0408 0.9902 -0.1338
vn 0.0390 0.9866 -0.1586
vn -0.2915 0.9341 -0.2060
vn 0.5003 -0.8640 0.0563
vn 0.3479 -0.9307 0.1133
vn 0.6635 -0.7412 0.1020
vn -0.9721 0.2259 -0.0635
vn -0.9112 0.4098 -0.0417
vn -0.9530 0.2920 -0.0802
vn 0.8311 -0.5556 0.0237
vn 0.5184 -0.8541 -0.0423
vn 0.6654 -0.7465 -0.0010
vn -0.9775 -0.1901 -0.0914
vn -0.9930 -0.0847 -0.0822
vn -0.9599 -0.2651 -0.0912
vn 0.9794 -0.1919 0.0623
vn 0.8577 -0.5128 0.0363
vn -0.8855 -0.4463 -0.1292
vn 0.9978 -0.0076 0.0663
vn -0.8425 -0.5308 -0.0920
vn 0.9743 0.2087 0.0849
vn 0.9871 -0.1455 0.0665
vn 0.9784 0.1920 0.0760
vn 0.9327 0.3568 0.0519
vn 0.9753 0.2181 0.0363
vn -0.6825 -0.7212 -0.1189
vn -0.5991 -0.7960 -0.0859
vn 0.8074 0.5755 0.1297
vn 0.8350 0.5444 0.0794
vn -0.1225 0.9918 -0.0365
vn -0.0082 0.9996 -0.0269
vn -0.0370 0.9946 -0.0969
vn -0.2668 0.9610 0.0723
vn -0.0875 0.9942 0.0618
vn -0.0568 0.9979 0.0314
vn -0.1523 0.9879 0.0294
vn 0.7900 0.6123 0.0330
vn 0.8387 0.5446 -0.0020
vn -0.2391 -0.9684 0.0706
vn -0.4540 -0.8849 -0.1041
vn -0.2688 -0.9601 -0.0765
vn -0.4089 0.9119 -0.0347
vn -0.2268 0.9684 -0.1042
vn -0.4444 0.8958 0.0039
vn 0.6419 0.7665 0.0208
vn 0.5414 0.8293 0.1382
vn 0.6366 0.7675 0.0751
vn -0.5850 0.8108 0.0190
vn 0.4758 0.8795 0.0078
vn 0.6492 0.7600 -0.0310
vn 0.4561 0.8875 0.0649
vn -0.0951 -0.9944 0.0455
vn 0.0545 -0.9943 0.0912
vn 0.1574 -0.9835 -0.0893
vn -0.2204 -0.9726 -0.0738
vn 0.1156 -0.9927 -0.0353
vn -0.7428 0.6688 -0.0308
vn 0.2891 0.9573 -0.0070
vn 0.4039 0.9123 -0.0673
vn 0.2679 0.9577 0.1051
vn 0.2619 0.9634 0.0581
vn 0.2315 -0.9715 0.0518
vn -0.8466 0.5276 -0.0705
vn -0.6560 0.7516 -0.0695
vn -0.5867 0.8012 -0.1178
vn 0.8157 0.5719 -0.0871
vn 0.8710 0.4704 -0.1416
vn 0.8154 0.5779 -0.0337
vn 0.6696 0.7366 -0.0950
vn 0.8942 0.4152 0.1676
vn 0.9700 0.2102 0.1221
vn 0.8072 0.5716 0.1471
vn -0.3378 -0.8994 -0.2775
vn -0.5521 -0.7889 -0.2698
vn -0.3440 -0.9034 -0.2561
vn -0.1561 0.9759 0.1524
vn -0.0930 0.9898 0.1081
vn -0.2871 0.9533 0.0938
vn -0.1356 0.9724 0.1897
vn -0.0543 0.9834 0.1730
vn -0.4172 0.8999 0.1268
vn -0.3708 0.9219 0.1122
vn 0.5641 0.7990 0.2081
vn 0.5250 0.8375 0.1512
vn -0.0536 -0.9761 -0.2104
vn -0.0721 -0.9849 -0.1572
vn -0.0664 -0.9667 -0.2470
vn -0.5353 0.8417 0.0710
vn 0.2542 -0.9525 -0.1677
vn 0.2234 -0.9667 -0.1250
vn -0.6454 0.7605 0.0719
vn -0.6917 0.7212 0.0374
vn 0.2933 0.9364 0.1925
vn 0.2586 0.9548 0.1462
vn -0.8124 0.5831 0.0046
vn -0.7968 0.6042 -0.0037
vn 0.1779 0.9728 0.1485
vn -0.9031 0.4279 -0.0371
vn -0.9041 0.4242 -0.0522
vn -0.9842 0.1315 -0.1189
vn -0.9685 0.2343 -0.0839
vn -0.9930 0.0224 -0.1163
vn -0.9608 -0.2155 -0.1746
vn -0.9541 -0.2613 -0.1466
vn 0.9943 -0.0600 0.0877
vn 0.9690 -0.2435 0.0427
vn 0.9588 -0.2816 0.0370
vn 0.1649 0.9823 0.0886
vn -0.9688 0.2332 -0.0843
vn -0.9647 0.2562 -0.0606
vn -0.9040 0.4273 -0.0110
vn -0.0143 -0.9456 -0.3251
vn -0.2005 -0.9200 -0.3367
vn -0.0161 -0.9492 -0.3144
vn 0.6785 -0.7202 -0.1452
vn 0.6078 -0.7804 -0.1469
vn 0.7884 -0.6094 -0.0840
vn -0.9904 0.0569 -0.1257
vn -0.9887 0.0532 -0.1401
vn 0.1914 -0.9396 -0.2838
vn 0.0043 -0.9596 -0.2812
vn 0.1790 -0.9382 -0.2962
vn -0.6578 0.7442 0.1159
vn -0.4393 0.8794 0.1834
vn -0.4698 0.8710 0.1435
vn -0.7516 0.6575 0.0535
vn -0.5115 -0.7916 -0.3343
vn -0.6980 -0.6469 -0.3071
vn -0.5075 -0.8046 -0.3084
vn -0.5613 -0.7534 -0.3424
vn 0.2351 0.9265 0.2937
vn 0.8506 0.4732 0.2293
vn 0.9374 0.2910 0.1912
vn 0.9226 0.3447 0.1731
vn 0.7734 0.5898 0.2322
vn -0.3834 -0.8571 -0.3441
vn -0.3926 -0.8535 -0.3426
vn -0.1694 0.9536 0.2487
vn -0.0284 0.9640 0.2642
vn -0.0175 0.9714 0.2369
vn -0.1622 0.9649 0.2066
vn 0.0897 0.9587 0.2698
vn 0.1023 0.9628 0.2503
vn -0.9202 -0.3108 -0.2380
vn -0.9740 -0.1266 -0.1880
vn -0.9134 -0.3271 -0.2423
vn 0.5371 -0.8200 -0.1976
vn 0.3669 -0.8980 -0.2428
vn 0.3227 -0.9167 -0.2355
vn 0.7168 0.6456 0.2635
vn -0.9122 0.4089 -0.0270
vn 0.9936 -0.0512 0.1009
vn 0.9674 -0.2511 0.0329
vn -0.3863 0.9006 0.1994
vn -0.1678 0.9514 0.2583
vn -0.1709 0.9526 0.2519
vn -0.8268 -0.4882 -0.2794
vn -0.7557 -0.5929 -0.2782
vn -0.8245 -0.4871 -0.2880
vn -0.1730 0.9452 0.2769
vn -0.1815 0.9306 0.3178
vn -0.9784 -0.1519 -0.1402
vn -0.9960 0.0435 -0.0777
vn -0.9285 -0.3282 -0.1738
vn -0.8394 -0.4904 -0.2342
vn -0.3932 -0.8477 -0.3562
vn -0.4047 -0.8707 -0.2794
vn -0.5624 -0.7745 -0.2895
vn -0.2045 -0.9140 -0.3503
vn -0.0185 -0.9426 -0.3333
vn 0.1793 -0.9352 -0.3055
vn 0.1821 -0.9363 -0.3002
vn 0.3677 -0.8910 -0.2665
vn 0.8134 -0.5740 -0.0943
vn 0.9079 -0.4183 -0.0256
vn 0.9864 -0.0649 0.1507
vn 0.9641 -0.2529 0.0810
vn 0.9221 0.3106 0.2309
vn 0.9704 0.1255 0.2066
vn 0.8324 0.4800 0.2769
vn 0.5608 0.7656 0.3152
vn 0.5566 0.7500 0.3574
vn 0.7102 0.6374 0.2991
vn 0.3931 0.8595 0.3266
vn 0.2132 0.9237 0.3184
vn 0.1136 0.9422 0.3151
vn 0.3893 0.8452 0.3662
vn 0.7044 0.6251 0.3362
vn 0.8324 0.4895 0.2598
vn 0.9239 0.3123 0.2210
vn 0.9773 0.1409 0.1583
vn 0.6829 -0.7129 -0.1597
vn 0.5424 -0.8126 -0.2134
vn 0.3554 -0.8979 -0.2596
vn -0.7002 -0.6369 -0.3226
vn -0.7153 -0.6459 -0.2666
vn -0.9712 -0.1376 -0.1943
vn -0.9732 0.2297 -0.0132
vn -0.9128 0.4051 0.0519
vn -0.9060 0.4231 0.0098
vn -0.8179 0.5637 0.1153
vn -0.8108 0.5809 0.0726
vn -0.6848 0.7161 0.1351
vn -0.6914 0.7005 0.1769
vn -0.5388 0.8097 0.2326
vn -0.5318 0.8256 0.1887
vn -0.3579 0.9030 0.2378
vn -0.0868 0.9383 0.3346
vn -0.0817 0.9529 0.2921
vn 0.7061 0.6528 0.2744
vn 0.5483 0.7827 0.2946
vn 0.9779 0.1546 0.1406
vn 0.9942 -0.0600 0.0893
vn -0.2761 -0.9003 -0.3365
vn -0.8076 0.5875 0.0513
vn 0.8335 0.4964 0.2425
vn 0.2023 0.9343 0.2936
vn 0.0831 0.9535 0.2898
vn -0.0610 0.9624 0.2648
vn 0.9154 -0.4020 -0.0206
vn -0.6888 0.7168 0.1082
vn -0.6322 0.7632 0.1337
vn -0.8147 0.5780 0.0465
vn 0.9258 0.3216 0.1987
vn 0.3882 0.8707 0.3018
vn 0.8129 -0.5756 -0.0887
vn -0.5041 0.8456 0.1754
vn 0.1297 0.9867 0.0982
vn 0.1442 0.9895 0.0015
vn 0.2685 0.9604 -0.0737
vn -0.9153 -0.3381 -0.2191
vn -0.8390 -0.4863 -0.2442
vn 0.8996 -0.4366 -0.0094
vn 0.9012 -0.4331 0.0134
vn 0.7962 -0.6032 -0.0465
vn 0.6513 -0.7507 -0.1109
vn 0.5093 -0.8486 -0.1432
vn 0.3390 -0.9226 -0.1840
vn 0.2115 0.9508 0.2264
vn 0.0503 0.9793 0.1960
vn 0.0838 0.9802 0.1793
vn 0.1568 -0.9638 -0.2158
vn 0.4206 0.8819 0.2130
vn 0.5675 0.7892 0.2346
vn -0.6198 0.7843 0.0269
vn -0.2526 -0.9220 -0.2935
vn 0.7309 0.6473 0.2163
vn 0.8665 0.4634 0.1857
vn -0.7101 -0.6510 -0.2683
vn 0.9835 0.1340 0.1217
vn 0.6075 0.7916 -0.0656
vn 0.6899 0.6946 -0.2038
vn -0.8072 0.5900 -0.0180
vn -0.8413 0.5289 -0.1119
vn 0.9981 -0.0422 0.0449
vn 0.7521 -0.6587 -0.0198
vn 0.3844 -0.9226 -0.0326
vn 0.9709 0.1971 -0.1360
vn 0.9942 -0.1064 0.0172
vn 0.9951 -0.0258 -0.0954
vn 0.9874 0.1544 -0.0348
vn -0.3356 0.9295 -0.1528
vn -0.5715 -0.8160 0.0864
vn -0.4283 -0.8980 0.1005
vn 0.9569 0.2905 0.0072
vn 0.9249 0.3773 -0.0483
vn -0.7101 -0.7018 0.0568
vn 0.9739 -0.2270 -0.0028
vn -0.9141 0.3953 -0.0905
vn -0.8220 0.5557 -0.1242
vn 0.3803 0.9200 -0.0946
vn 0.3241 0.9129 -0.2481
vn -0.5532 0.8178 -0.1589
vn -0.7836 -0.5622 0.2642
vn 0.9194 -0.3906 0.0462
vn 0.6979 -0.7145 0.0486
vn 0.4236 -0.9057 -0.0193
vn -0.7940 0.6066 -0.0405
vn 0.2850 0.9003 -0.3291
vn 0.7498 0.6094 -0.2577
vn 0.8782 0.4302 -0.2090
vn -0.5650 -0.0732 0.8218
vn 0.7427 -0.3406 0.5765
vn 0.6925 -0.4904 0.5291
vn 0.6288 -0.3511 0.6938
vn 0.5881 -0.4741 0.6553
vn 0.6128 -0.6267 0.4813
vn 0.5128 -0.6024 0.6117
vn 0.5065 -0.7444 0.4351
vn 0.4262 -0.6995 0.5736
vn 0.3776 -0.8388 0.3922
vn 0.3089 -0.7885 0.5318
vn 0.2311 -0.9061 0.3545
vn 0.1780 -0.8462 0.5022
vn 0.0728 -0.9434 0.3236
vn 0.0461 -0.8784 0.4757
vn 0.2664 0.5817 0.7685
vn -0.0947 -0.9491 0.3003
vn -0.1046 -0.8866 0.4506
vn 0.4066 0.5038 0.7622
vn 0.3370 0.3949 0.8547
vn 0.5293 0.3976 0.7495
vn 0.4383 0.3081 0.8444
vn -0.2065 0.6489 0.7323
vn 0.6295 0.2707 0.7284
vn 0.5321 0.1883 0.8255
vn 0.7033 0.1278 0.6994
vn 0.5934 0.0713 0.8017
vn 0.7477 -0.0257 0.6636
vn 0.6348 -0.0734 0.7692
vn 0.7610 -0.1840 0.6222
vn 0.6464 -0.2033 0.7354
vn 0.2868 -0.6685 0.6862
vn 0.1237 -0.7586 0.6397
vn 0.0939 -0.6289 0.7718
vn -0.4841 0.0718 0.8721
vn -0.0509 -0.7876 0.6140
vn -0.0740 -0.6725 0.7364
vn 0.2078 0.3015 0.9306
vn -0.3429 0.1947 0.9190
vn 0.3748 0.1561 0.9139
vn 0.1858 0.1129 0.9761
vn -0.1455 0.2702 0.9517
vn 0.4835 -0.0519 0.8738
vn 0.2925 -0.0223 0.9560
vn 0.5067 -0.2798 0.8155
vn 0.4331 -0.5038 0.7474
vn -0.5739 -0.2669 0.7742
vn 0.2459 -0.5250 0.8148
vn -0.2480 -0.0071 0.9687
vn -0.2013 0.2192 0.9547
vn -0.2808 -0.0432 0.9588
vn -0.1455 -0.4844 0.8627
vn -0.1695 0.0224 0.9853
vn -0.3189 -0.3921 0.8629
vn -0.3726 -0.2078 0.9044
vn 0.0172 -0.4564 0.8896
vn -0.2821 -0.4132 0.8658
vn -0.0606 -0.0093 0.9981
vn -0.0445 0.9867 0.1565
vn 0.7444 0.6408 0.1878
vn -0.1950 -0.9594 -0.2038
vn 0.0188 -0.4270 -0.9041
vn -0.7384 -0.5867 -0.3324
vn 0.1677 -0.7773 -0.6063
vn -0.6414 -0.1732 -0.7474
vn -0.5950 -0.0299 -0.8032
vn -0.5219 0.2039 -0.8283
vn -0.4835 0.3571 -0.7992
vn 0.7345 0.1006 -0.6711
vn 0.7458 -0.0517 -0.6641
vn 0.7293 -0.2215 -0.6473
vn 0.6602 -0.4863 -0.5724
vn 0.6900 -0.3056 -0.6562
vn -0.7723 -0.3394 -0.5369
vn -0.7609 -0.0125 -0.6488
vn -0.7255 0.2351 -0.6468
vn 0.3297 -0.8093 -0.4862
vn -0.0650 -0.1420 0.9877
vn -0.1359 -0.0996 0.9857
vn -0.1917 -0.1473 0.9703
vn -0.0171 -0.1975 0.9801
vn -0.2295 -0.1892 0.9547
vn -0.2415 -0.2517 0.9372
vn -0.0068 -0.2586 0.9660
vn -0.0361 -0.3280 0.9440
vn -0.2128 -0.3199 0.9233
vn -0.1648 -0.3501 0.9221
vn -0.0958 -0.3798 0.9201
vt 0.917457 0.500000
vt 0.916098 0.500000
vt 0.967285 0.500000
vt 0.652314 0.500000
vt 0.605782 0.500000
vt 0.603908 0.500000
vt 0.464207 0.500000
vt 0.416927 0.500000
vt 0.454911 0.500000
vt 0.357928 0.500000
vt 0.356096 0.500000
vt 0.401681 0.500000
vt 0.444284 0.500000
vt 0.381094 0.500000
vt 0.387226 0.500000
vt 0.433307 0.500000
vt 0.319600 0.500000
vt 0.347016 0.500000
vt 0.256710 0.500000
vt 0.285750 0.500000
vt 0.713420 0.500000
vt 0.656233 0.500000
vt 0.689521 0.500000
vt 0.810202 0.500000
vt 0.761053 0.500000
vt 0.788440 0.500000
vt 0.442296 0.500000
vt 0.380023 0.500000
vt 0.395400 0.500000
vt 0.441852 0.500000
vt 0.355768 0.500000
vt 0.334317 0.500000
vt 0.301315 0.500000
vt 0.315019 0.500000
vt 0.706586 0.500000
vt 0.656890 0.500000
vt 0.659629 0.500000
vt 0.615714 0.500000
vt 0.612122 0.500000
vt 0.584806 0.500000
vt 0.580171 0.500000
vt 0.553623 0.500000
vt 0.546173 0.500000
vt 0.522429 0.500000
vt 0.504316 0.500000
vt 0.491457 0.500000
vt 0.311347 0.500000
vt 0.276015 0.500000
vt 0.300629 0.500000
vt 0.713681 0.500000
vt 0.669501 0.500000
vt 0.727303 0.500000
vt 0.151492 0.500000
vt 0.113928 0.500000
vt 0.133739 0.500000
vt 0.936552 0.500000
vt 0.924269 0.500000
vt 0.959824 0.500000
vt 0.890706 0.500000
vt 0.885306 0.500000
vt 0.848713 0.500000
vt 0.066371 0.500000
vt 0.040173 0.500000
vt 0.028238 0.500000
vt 0.000005 0.500000
vt 0.044010 0.500000
vt 0.500487 0.000000
vt 0.532094 0.000000
vt 0.531207 0.000000
vt 0.166053 0.000000
vt 0.197644 0.000000
vt 0.110450 0.000000
vt 0.549048 0.000000
vt 0.603898 0.000000
vt 0.501681 0.000000
vt 0.080337 0.000000
vt 0.220764 0.000000
vt 0.291069 0.000000
vt 0.674039 0.000000
vt 0.799354 0.000000
vt 0.708968 0.000000
vt 0.924834 0.000000
vt 0.908169 0.000000
vt 0.809674 0.000000
vt 0.201138 0.000000
vt 0.249940 0.000000
vt 0.232407 0.000000
vt 0.294904 0.000000
vt 0.705244 0.000000
vt 0.763813 0.000000
vt 0.697920 0.000000
vt 0.312428 0.000000
vt 0.357408 0.000000
vt 0.392776 0.000000
vt 0.438113 0.000000
vt 0.347942 0.000000
vt 0.374932 0.000000
vt 0.419896 0.000000
vt 0.437429 0.000000
vt 0.468738 0.000000
vt 0.062436 0.000000
vt 0.107408 0.000000
vt 0.046904 0.000000
vt 0.124930 0.000000
vt 0.169915 0.000000
vt 0.958616 0.000000
vt 0.999989 0.000000
vt 0.950495 0.000000
vt 0.968685 0.000000
vt 0.999972 0.000000
vt 0.312547 0.000000
vt 0.343679 0.000000
vt 0.312428 0.000000
vt 0.343679 0.000000
vt 0.343795 0.000000
vt 0.374932 0.000000
vt 0.375044 0.000000
vt 0.406180 0.000000
vt 0.406185 0.000000
vt 0.406297 0.000000
vt 0.437441 0.000000
vt 0.000052 0.000000
vt 0.031316 0.000000
vt 0.000009 0.000000
vt 0.437742 0.000000
vt 0.468830 0.000000
vt 0.468736 0.000000
vt 0.062511 0.000000
vt 0.093682 0.000000
vt 0.062442 0.000000
vt 0.093688 0.000000
vt 0.093798 0.000000
vt 0.124934 0.000000
vt 0.937429 0.000000
vt 0.968748 0.000000
vt 0.125046 0.000000
vt 0.156178 0.000000
vt 0.156181 0.000000
vt 0.968706 0.000000
vt 0.999987 0.000000
vt 0.156294 0.000000
vt 0.187428 0.000000
vt 0.218678 0.000000
vt 0.187544 0.000000
vt 0.218795 0.000000
vt 0.249989 0.000000
vt 0.062554 0.000000
vt 0.343798 0.000000
vt 0.624934 0.000000
vt 0.656181 0.000000
vt 0.656227 0.000000
vt 0.624973 0.000000
vt 0.625098 0.015933
vt 0.656370 0.000000
vt 0.905993 0.000000
vt 0.937250 0.000000
vt 0.937461 0.000000
vt 0.906216 0.000000
vt 0.218796 0.000000
vt 0.249920 0.000000
vt 0.499950 0.000000
vt 0.500094 0.000000
vt 0.531351 0.000000
vt 0.781183 0.000000
vt 0.812422 0.000000
vt 0.812478 0.000000
vt 0.781230 0.000000
vt 0.093802 0.000000
vt 0.375050 0.000000
vt 0.687427 0.000000
vt 0.687480 0.000000
vt 0.687619 0.000000
vt 0.968682 0.000000
vt 0.969044 0.016618
vt 0.250046 0.000000
vt 0.281176 0.000000
vt 0.562441 0.000000
vt 0.562463 0.000000
vt 0.562608 0.000000
vt 0.843672 0.000000
vt 0.843726 0.000000
vt 0.812131 0.000000
vt 0.843648 0.000000
vt 0.125049 0.000000
vt 0.406302 0.000000
vt 0.718685 0.000000
vt 0.718731 0.000000
vt 0.000019 0.000000
vt 0.031196 0.000000
vt 0.000003 0.000000
vt 0.999970 0.000000
vt 0.997321 0.021134
vt 0.281296 0.000000
vt 0.593688 0.000000
vt 0.593719 0.000000
vt 0.593842 0.015943
vt 0.874737 0.000000
vt 0.874972 0.000000
vt 0.156298 0.000000
vt 0.437554 0.000000
vt 0.468695 0.000000
vt 0.749934 0.000000
vt 0.749981 0.000000
vt 0.031115 0.000000
vt 0.062883 0.018323
vt 0.312547 0.000000
vt 0.187547 0.000000
vt 0.468805 0.000000
vt 0.468632 0.016360
vt 0.281296 0.000000
vt 0.281173 0.000000
vt 0.425704 0.500000
vt 0.363094 0.500000
vt 0.363113 0.500000
vt 0.425529 0.500000
vt 0.028389 0.500000
vt 0.000005 0.500000
vt 0.000000 0.500000
vt 0.488610 0.500000
vt 0.488170 0.500000
vt 0.484474 0.500000
vt 0.438638 0.500000
vt 0.465190 0.500000
vt 0.060191 0.500000
vt 0.082802 0.500000
vt 0.551424 0.500000
vt 0.553012 0.500000
vt 0.113282 0.500000
vt 0.963969 0.500000
vt 0.527374 0.500000
vt 1.000000 0.500000
vt 0.999943 0.500000
vt 0.616547 0.500000
vt 0.592414 0.500000
vt 0.201111 0.500000
vt 0.156323 0.500000
vt 0.649453 0.500000
vt 0.240965 0.500000
vt 0.217466 0.500000
vt 0.251861 0.500000
vt 0.252381 0.500000
vt 0.696013 0.500000
vt 0.348689 0.500000
vt 0.975116 0.500000
vt 0.926374 0.500000
vt 0.997893 0.500000
vt 0.960602 0.500000
vt 1.000034 0.500000
vt 0.250802 0.500000
vt 0.724964 0.500000
vt 0.283644 0.500000
vt 0.316219 0.500000
vt 0.369500 0.500000
vt 0.037301 0.500000
vt 0.000140 0.500000
vt 0.000061 0.500000
vt 0.034824 0.500000
vt 0.000024 0.500000
vt 0.077959 0.500000
vt 0.608854 0.500000
vt 0.580273 0.500000
vt 0.643148 0.500000
vt 0.219338 0.500000
vt 0.187187 0.500000
vt 0.219715 0.500000
vt 0.679975 0.500000
vt 0.608958 0.500000
vt 0.638252 0.500000
vt 0.281970 0.500000
vt 0.251419 0.500000
vt 0.295908 0.500000
vt 0.720054 0.500000
vt 0.685761 0.500000
vt 0.328350 0.500000
vt 0.795114 0.500000
vt 0.349786 0.500000
vt 0.800909 0.500000
vt 0.766016 0.500000
vt 0.801661 0.500000
vt 0.834432 0.500000
vt 0.808922 0.500000
vt 0.388401 0.500000
vt 0.412811 0.500000
vt 0.862480 0.500000
vt 0.865648 0.500000
vt 0.035961 0.500000
vt 0.000310 0.500000
vt 0.001707 0.500000
vt 0.048292 0.500000
vt -0.000079 0.500000
vt 0.001284 0.500000
vt 0.039005 0.500000
vt 0.880271 0.500000
vt 0.870867 0.500000
vt 0.486988 0.500000
vt 0.435608 0.500000
vt 0.475812 0.500000
vt 0.077508 0.500000
vt 0.056909 0.500000
vt 0.083993 0.500000
vt 0.911726 0.500000
vt 0.923756 0.500000
vt 0.913453 0.500000
vt 0.106130 0.500000
vt 0.942909 0.500000
vt 0.913318 0.500000
vt 0.944919 0.500000
vt 0.509607 0.500000
vt 0.533485 0.500000
vt 0.541501 0.500000
vt 0.477170 0.500000
vt 0.541257 0.500000
vt 0.146446 0.500000
vt 0.973787 0.500000
vt 0.960048 0.500000
vt 0.972268 0.500000
vt 0.976492 0.500000
vt 0.564279 0.500000
vt 0.170383 0.500000
vt 0.129000 0.500000
vt 0.119476 0.500000
vt 0.878085 0.500000
vt 0.870458 0.500000
vt 0.878351 0.500000
vt 0.914676 0.500000
vt 0.832755 0.500000
vt 0.797809 0.500000
vt 0.864331 0.500000
vt 0.447194 0.500000
vt 0.405681 0.500000
vt 0.453690 0.500000
vt 0.033581 0.500000
vt 0.000015 0.500000
vt 0.051337 0.500000
vt 0.026584 0.500000
vt 0.000098 0.500000
vt 0.072268 0.500000
vt 0.063815 0.500000
vt 0.908694 0.500000
vt 0.924647 0.500000
vt 0.498284 0.500000
vt 0.497555 0.500000
vt 0.496131 0.500000
vt 0.094793 0.500000
vt 0.549593 0.500000
vt 0.545992 0.500000
vt 0.122565 0.500000
vt 0.128654 0.500000
vt 0.963525 0.500000
vt 0.971424 0.500000
vt 0.154657 0.500000
vt 0.154853 0.500000
vt 0.999286 0.500000
vt 0.189009 0.500000
vt 0.188385 0.500000
vt 0.230890 0.500000
vt 0.220148 0.500000
vt 0.250297 0.500000
vt 0.294147 0.500000
vt 0.299642 0.500000
vt 0.751919 0.500000
vt 0.718493 0.500000
vt 0.715997 0.500000
vt 1.000465 0.500000
vt 0.216527 0.500000
vt 0.218561 0.479612
vt 0.187892 0.500000
vt 0.500091 0.481461
vt 0.469343 0.500000
vt 0.501031 0.500000
vt 0.627364 0.500000
vt 0.613794 0.500000
vt 0.658940 0.500000
vt 0.250240 0.481083
vt 0.227682 0.500000
vt 0.533112 0.500000
vt 0.502587 0.500000
vt 0.531143 0.500000
vt 0.123628 0.500000
vt 0.075308 0.500000
vt 0.077910 0.500000
vt 0.145101 0.500000
vt 0.408203 0.500000
vt 0.374930 0.500000
vt 0.417726 0.500000
vt 0.407538 0.338213
vt 0.967820 0.500000
vt 0.842975 0.500000
vt 0.811911 0.500000
vt 0.810663 0.500000
vt 0.864177 0.500000
vt 0.440827 0.496511
vt 0.438543 0.500000
vt 0.030251 0.500000
vt 0.000331 0.500000
vt -0.000034 0.500000
vt 0.030812 0.500000
vt 1.000013 0.500000
vt 1.000054 0.500000
vt 0.312501 0.186236
vt 0.282555 0.500000
vt 0.312376 0.500000
vt 0.597232 0.500000
vt 0.563775 0.500000
vt 0.556520 0.500000
vt 0.874183 0.500000
vt 0.187413 0.500000
vt 0.751179 0.487142
vt 0.719533 0.498255
vt 0.062943 0.500000
vt 0.033330 0.500000
vt 0.027837 0.500000
vt 0.342188 0.500000
vt 0.361043 0.500000
vt 0.344496 0.259628
vt 0.031028 0.476300
vt 0.030573 0.018833
vt 0.281353 0.017002
vt 0.250103 0.018533
vt 0.312576 0.000000
vt 0.343858 0.016570
vt 0.437726 0.137981
vt 0.437443 0.000000
vt 0.406363 0.016530
vt 0.468470 0.478799
vt 0.499494 0.128635
vt 0.530748 0.479178
vt 0.531124 0.130226
vt 0.562584 0.147681
vt 0.655667 0.168994
vt 0.687481 0.151904
vt 0.750251 0.022424
vt 0.718910 0.024901
vt 0.812892 0.179451
vt 0.781462 0.023186
vt 0.844134 0.193598
vt 0.906170 0.478853
vt 0.906323 0.025622
vt 0.874883 0.471250
vt 0.937479 0.472323
vt 0.968528 0.479162
vt 1.000007 0.479195
vt 0.937560 0.020830
vt 0.875118 0.020912
vt 0.843529 0.500000
vt 0.812258 0.500000
vt 0.781410 0.500000
vt 0.624210 0.323988
vt 0.595217 0.341932
vt 0.561305 0.497783
vt 0.378263 0.301569
vt 0.375109 0.016548
vt 0.281947 0.499996
vt 0.218793 0.018045
vt 0.187558 0.017794
vt 0.187453 0.477218
vt 0.156283 0.017656
vt 0.155858 0.476359
vt 0.124756 0.474845
vt 0.125143 0.017056
vt 0.093815 0.016815
vt 0.093491 0.476975
vt 0.062183 0.477133
vt 0.000511 0.016815
vt 0.000034 0.478476
vt 0.875795 0.500000
vt 0.906841 0.500000
vt 0.783258 0.500000
vt 0.752500 0.500000
vt 0.460562 0.500000
vt 0.157179 0.500000
vt 0.844104 0.500000
vt 0.969229 0.500000
vt 0.997829 0.500000
vt -0.000182 0.500000
vt 0.688941 0.500000
vt 0.124823 0.500000
vt 0.120204 0.500000
vt 0.155035 0.500000
vt 0.812983 0.500000
vt 0.937576 0.500000
vt 0.658745 0.500000
vt 0.094927 0.500000
vt 1.000000 0.500000
vt 1.000002 0.500000
vt 0.312495 0.500000
vt 0.342943 0.500000
vt 0.686014 0.500000
vt 0.686138 0.500000
vt 0.655294 0.500000
vt 0.623398 0.500000
vt 0.592139 0.500000
vt 0.561236 0.500000
vt 0.973110 0.500000
vt 0.528018 0.500000
vt 0.943231 0.500000
vt 0.908523 0.500000
vt 0.116694 0.500000
vt 0.470548 0.500000
vt 0.873063 0.500000
vt 0.841876 0.500000
vt 0.375233 0.500000
vt 0.787074 0.500000
vt 0.926611 0.500000
vt 0.914644 0.500000
vt 0.150633 0.500000
vt 0.176877 0.500000
vt 0.770273 0.500000
vt 0.650374 0.500000
vt 0.588838 0.500000
vt 0.826786 0.500000
vt 0.773570 0.500000
vt 0.791290 0.500000
vt 0.808186 0.500000
vt 0.082246 0.500000
vt 0.431435 0.500000
vt 0.462288 0.500000
vt 0.827345 0.500000
vt 0.848107 0.500000
vt 0.400488 0.500000
vt 0.758335 0.500000
vt 0.219510 0.500000
vt 0.187271 0.500000
vt 0.966706 0.500000
vt 1.000017 0.500000
vt 0.123483 0.500000
vt 0.394416 0.500000
vt 0.728910 0.500000
vt 0.663840 0.500000
vt 0.620364 0.500000
vt 0.181898 0.500000
vt 0.903895 0.500000
vt 0.869140 0.500000
vt 0.222974 0.000000
vt 0.718783 0.000000
vt 0.687531 0.000000
vt 0.718685 0.000000
vt 0.687432 0.000000
vt 0.656281 0.000000
vt 0.656182 0.000000
vt 0.625027 0.000000
vt 0.624929 0.000000
vt 0.593779 0.000000
vt 0.593681 0.000000
vt 0.562527 0.000000
vt 0.562432 0.000000
vt 0.531273 0.000000
vt 0.531176 0.000000
vt 0.937524 0.000000
vt 0.500003 0.000000
vt 0.499926 0.000000
vt 0.906277 0.000000
vt 0.906181 0.000000
vt 0.875028 0.000000
vt 0.874931 0.000000
vt 0.031250 0.000000
vt 0.843779 0.000000
vt 0.843681 0.000000
vt 0.812531 0.000000
vt 0.812437 0.000000
vt 0.781283 0.000000
vt 0.781182 0.000000
vt 0.750031 0.000000
vt 0.749939 0.000000
vt 0.609116 0.000000
vt 0.562495 0.000000
vt 0.576308 0.000000
vt 0.160485 0.000000
vt 0.515387 0.000000
vt 0.513820 0.000000
vt 0.921574 0.000000
vt 0.097998 0.000000
vt 0.859073 0.000000
vt 0.888828 0.000000
vt 0.000011 0.000000
vt 0.796579 0.000000
vt 0.826302 0.000000
vt 0.734080 0.000000
vt 0.671604 0.000000
vt 0.285461 0.000000
vt 0.638807 0.000000
vt 0.001234 0.000000
vt 0.042555 0.000000
vt 0.112116 0.000000
vt 0.487339 0.000000
vt -0.000002 0.000000
vt 0.362366 0.000000
vt 0.237176 0.000000
vt 0.594291 0.000000
vt 0.396042 0.000000
vt 0.999944 0.000000
vt -0.000043 0.500000
vt 0.875673 0.500000
vt 0.520050 0.500000
vt 0.583673 0.500000
vt 0.465646 0.500000
vt 0.662738 0.500000
vt 0.398271 0.500000
vt 0.334000 0.500000
vt 0.256074 0.500000
vt 0.193260 0.500000
vt 0.840167 0.500000
vt 0.808829 0.500000
vt 0.777473 0.500000
vt 0.745972 0.500000
vt 0.704265 0.500000
vt 0.429640 0.500000
vt 0.365047 0.500000
vt 0.302803 0.500000
vt 0.631043 0.500000
vt 0.353407 0.538438
vt 0.224969 0.512469
vt 0.107380 0.559848
vt 0.463337 0.645183
vt 0.037898 0.640147
vt 0.017895 0.777744
vt 0.488150 0.768752
vt 0.428328 0.900454
vt 0.082850 0.916959
vt 0.177697 0.977658
vt 0.283573 0.985088
s 1
g off
g Object_51_HeadIselda
usemtl HeadIselda
f 70/1/1 71/2/2 49/3/3
f 87/4/4 91/5/5 93/6/6
f 107/7/7 111/8/8 112/9/9
f 118/10/10 121/11/11 116/12/12
f 133/13/13 141/14/14 144/15/15
f 133/13/13 144/15/15 142/16/16
f 141/14/14 146/17/17 147/18/18
f 146/17/17 152/19/19 150/20/20
f 149/21/21 151/22/22 469/23/23
f 226/24/24 193/25/25 160/26/26
f 190/27/27 165/28/28 168/29/29
f 190/27/27 168/29/29 166/30/30
f 165/28/28 170/31/31 168/29/29
f 165/28/28 169/32/32 170/31/31
f 169/32/32 468/33/33 171/34/34
f 172/35/35 174/36/36 449/37/37
f 174/36/36 177/38/38 445/39/39
f 174/36/36 445/39/39 449/37/37
f 177/38/38 179/40/40 443/41/41
f 177/38/38 443/41/41 445/39/39
f 179/40/40 180/42/42 440/43/43
f 179/40/40 440/43/43 443/41/41
f 180/42/42 183/44/44 191/45/45
f 180/42/42 191/45/45 440/43/43
f 183/44/44 186/46/46 191/45/45
f 186/46/46 190/27/27 166/30/30
f 186/46/46 166/30/30 191/45/45
f 194/47/47 451/48/48 196/49/49
f 195/50/50 201/51/51 197/52/52
f 205/53/53 209/54/54 210/55/55
f 439/56/56 213/57/57 208/58/58
f 217/59/59 218/60/60 213/57/57
f 217/59/59 221/61/61 218/60/60
f 214/62/62 219/63/63 224/64/64
f 222/65/65 223/66/66 224/64/64
f 226/24/24 160/26/26 221/61/61
f 230/67/67 280/68/68 281/69/69
f 372/70/70 370/71/71 377/72/72
f 373/73/73 371/74/74 378/75/75
f 354/76/76 356/77/77 372/70/70
f 356/77/77 369/78/78 372/70/70
f 355/79/79 384/80/80 368/81/81
f 387/82/82 375/83/83 353/84/84
f 300/85/85 297/86/86 390/87/87
f 297/86/86 392/88/88 390/87/87
f 350/89/89 348/90/90 382/91/91
f 229/92/92 394/93/93 392/88/88
f 347/94/94 344/95/95 349/96/96
f 331/97/97 396/98/98 394/93/93
f 325/99/99 399/100/100 396/98/98
f 319/101/101 403/102/102 400/103/103
f 311/104/104 406/105/105 403/102/102
f 339/106/106 337/107/107 340/108/108
f 309/109/109 304/110/110 337/107/107
f 309/109/109 337/107/107 339/106/106
f 228/111/111 334/112/112 229/92/92
f 253/113/113 239/114/114 228/111/111
f 333/115/115 331/97/97 334/112/112
f 239/114/114 289/116/116 333/115/115
f 330/117/117 328/118/118 331/97/97
f 289/116/116 275/119/119 330/117/117
f 327/120/120 325/99/99 328/118/118
f 275/119/119 261/121/121 327/120/120
f 322/122/122 323/123/123 398/124/124
f 324/125/125 320/126/126 325/99/99
f 261/121/121 415/127/127 324/125/125
f 323/123/123 318/128/128 319/101/101
f 318/128/128 315/129/129 319/101/101
f 241/130/130 291/131/131 318/128/128
f 314/132/132 311/104/104 315/129/129
f 291/131/131 277/133/133 314/132/132
f 313/134/134 308/135/135 309/109/109
f 310/136/136 306/137/137 311/104/104
f 277/133/133 263/138/138 310/136/136
f 308/135/135 304/110/110 309/109/109
f 271/139/139 255/140/140 308/135/135
f 305/141/141 300/85/85 306/137/137
f 263/138/138 247/142/142 305/141/141
f 247/142/142 233/143/143 302/144/144
f 299/145/145 297/86/86 300/85/85
f 233/143/143 424/146/146 299/145/145
f 300/85/85 390/87/87 406/105/105
f 240/147/147 291/131/131 241/130/130
f 238/148/148 289/116/116 239/114/114
f 236/149/149 286/150/150 287/151/151
f 236/149/149 287/151/151 237/152/152
f 13/153/153 12/154/154 236/149/149
f 234/155/155 284/156/156 285/157/157
f 234/155/155 285/157/157 235/158/158
f 232/159/159 283/160/160 233/143/143
f 230/67/67 281/69/69 231/161/161
f 20/162/162 18/163/163 230/67/67
f 30/164/164 278/165/165 279/166/166
f 30/164/164 279/166/166 31/167/167
f 290/168/168 277/133/133 291/131/131
f 288/169/169 275/119/119 289/116/116
f 286/150/150 272/170/170 273/171/171
f 286/150/150 273/171/171 287/151/151
f 12/154/154 11/172/172 286/150/150
f 284/156/156 270/173/173 271/139/139
f 284/156/156 271/139/139 285/157/157
f 284/156/156 1/174/174 270/173/173
f 282/175/175 269/176/176 283/160/160
f 280/68/68 266/177/177 267/178/178
f 280/68/68 267/178/178 281/69/69
f 18/163/163 16/179/179 280/68/68
f 278/165/165 264/180/180 265/181/181
f 278/165/165 265/181/181 279/166/166
f 7/182/182 5/183/183 264/180/180
f 276/184/184 263/138/138 277/133/133
f 274/185/185 261/121/121 275/119/119
f 272/170/170 258/186/186 259/187/187
f 272/170/170 259/187/187 273/171/171
f 11/172/172 258/186/186 272/170/170
f 427/188/188 257/189/189 412/190/190
f 270/173/173 254/191/191 255/140/140
f 270/173/173 255/140/140 271/139/139
f 1/174/174 601/192/192 270/173/173
f 268/193/193 253/113/113 269/176/176
f 266/177/177 250/194/194 251/195/195
f 266/177/177 251/195/195 267/178/178
f 16/179/179 14/196/196 266/177/177
f 264/180/180 248/197/197 249/198/198
f 264/180/180 249/198/198 265/181/181
f 262/199/199 247/142/142 263/138/138
f 260/200/200 245/201/201 261/121/121
f 258/186/186 242/202/202 243/203/203
f 258/186/186 243/203/203 259/187/187
f 256/204/204 241/130/130 257/189/189
f 256/204/204 577/205/205 240/147/147
f 252/206/206 239/114/114 253/113/113
f 250/194/194 236/149/149 237/152/152
f 250/194/194 237/152/152 251/195/195
f 14/196/196 13/153/153 250/194/194
f 248/197/197 234/155/155 235/158/158
f 248/197/197 235/158/158 249/198/198
f 246/207/207 233/143/143 247/142/142
f 244/208/208 231/161/161 245/201/201
f 428/209/209 20/162/162 244/208/208
f 294/210/210 229/92/92 295/211/211
f 269/176/176 253/113/113 294/210/210
f 220/212/212 227/213/213 192/214/214
f 220/212/212 192/214/214 225/215/215
f 219/63/63 222/65/65 224/64/64
f 436/216/216 432/217/217 219/63/63
f 436/216/216 431/218/218 432/217/217
f 212/219/219 220/212/212 225/215/215
f 212/219/219 225/215/215 216/220/220
f 438/221/221 434/222/222 435/223/223
f 189/224/224 436/216/216 219/63/63
f 209/54/54 214/62/62 215/225/225
f 189/224/224 219/63/63 214/62/62
f 206/226/226 212/219/219 216/220/220
f 206/226/226 216/220/220 211/227/227
f 209/54/54 215/225/225 210/55/55
f 185/228/228 214/62/62 209/54/54
f 182/229/229 439/56/56 208/58/58
f 443/41/41 440/43/43 441/230/230
f 442/231/231 207/232/232 208/58/58
f 446/233/233 206/226/226 211/227/227
f 445/39/39 443/41/41 444/234/234
f 448/235/235 463/236/236 205/53/53
f 447/237/237 445/39/39 444/234/234
f 199/238/238 202/239/239 198/240/240
f 175/241/241 448/235/235 199/238/238
f 450/242/242 449/37/37 447/237/237
f 451/48/48 198/240/240 196/49/49
f 175/241/241 199/238/238 451/48/48
f 171/34/34 451/48/48 194/47/47
f 227/213/213 194/47/47 196/49/49
f 227/213/213 196/49/49 192/214/214
f 455/243/243 171/34/34 194/47/47
f 181/244/244 184/245/245 182/229/229
f 465/246/246 462/247/247 466/248/248
f 150/20/20 467/249/249 468/33/33
f 470/250/250 469/23/23 172/35/35
f 469/23/23 174/36/36 172/35/35
f 468/33/33 173/251/251 171/34/34
f 148/252/252 150/20/20 468/33/33
f 169/32/32 171/34/34 170/31/31
f 147/18/18 148/252/252 169/32/32
f 148/252/252 468/33/33 169/32/32
f 147/18/18 169/32/32 472/253/253
f 161/254/254 163/255/255 164/256/256
f 475/257/257 476/258/258 161/254/254
f 188/259/259 161/254/254 189/224/224
f 156/260/260 159/261/261 154/262/262
f 90/263/263 482/264/264 153/265/265
f 490/266/266 484/267/267 485/268/268
f 151/22/22 154/262/262 469/23/23
f 152/19/19 467/249/249 150/20/20
f 488/269/269 486/270/270 489/271/271
f 149/21/21 469/23/23 470/250/250
f 491/272/272 490/266/266 487/273/273
f 146/17/17 150/20/20 148/252/252
f 492/274/274 488/269/269 489/271/271
f 145/275/275 149/21/21 470/250/250
f 146/17/17 148/252/252 147/18/18
f 492/274/274 489/271/271 493/276/276
f 497/277/277 35/278/278 491/272/272
f 497/277/277 491/272/272 494/279/279
f 141/14/14 147/18/18 144/15/15
f 138/280/280 145/275/275 143/281/281
f 495/282/282 493/276/276 496/283/283
f 505/284/284 497/277/277 494/279/279
f 505/284/284 494/279/279 498/285/285
f 137/286/286 139/287/287 140/288/288
f 508/289/289 500/290/290 502/291/291
f 508/289/289 502/291/291 501/292/292
f 135/293/293 138/280/280 136/294/294
f 133/13/13 142/16/16 134/295/295
f 499/296/296 496/283/283 503/297/297
f 128/298/298 137/286/286 132/299/299
f 508/289/289 501/292/292 504/300/300
f 130/301/301 135/293/293 136/294/294
f 513/302/302 505/284/284 498/285/285
f 513/302/302 498/285/285 506/303/303
f 511/304/304 508/289/289 504/300/300
f 127/305/305 130/301/301 131/306/306
f 513/302/302 506/303/303 509/307/307
f 129/308/308 134/295/295 126/309/309
f 481/310/310 507/311/311 503/297/297
f 481/310/310 503/297/297 510/312/312
f 511/304/304 504/300/300 512/313/313
f 81/314/314 127/305/305 82/315/315
f 541/316/316 513/302/302 509/307/307
f 541/316/316 509/307/307 514/317/317
f 158/318/318 126/309/309 159/261/261
f 155/319/319 124/320/320 125/321/321
f 184/245/245 122/322/322 123/323/323
f 477/324/324 122/322/322 459/325/325
f 111/8/8 118/10/10 116/12/12
f 117/326/326 120/327/327 113/328/328
f 111/8/8 116/12/12 112/9/9
f 522/329/329 518/330/330 523/331/331
f 109/332/332 115/333/333 110/334/334
f 519/335/335 520/336/336 109/332/332
f 526/337/337 109/332/332 106/338/338
f 104/339/339 113/328/328 105/340/340
f 102/341/341 107/7/7 112/9/9
f 102/341/341 112/9/9 103/342/342
f 525/343/343 522/329/329 523/331/331
f 526/337/337 106/338/338 100/344/344
f 95/345/345 102/341/341 103/342/342
f 95/345/345 103/342/342 98/346/346
f 528/347/347 100/344/344 97/348/348
f 99/349/349 105/340/340 96/350/350
f 531/351/351 97/348/348 94/352/352
f 99/349/349 96/350/350 532/353/353
f 91/5/5 95/345/345 93/6/6
f 80/354/354 531/351/351 94/352/352
f 80/354/354 94/352/352 92/355/355
f 89/356/356 92/355/355 90/263/263
f 69/357/357 80/354/354 89/356/356
f 89/356/356 90/263/263 86/358/358
f 83/359/359 86/358/358 84/360/360
f 34/361/361 41/362/362 537/363/363
f 118/10/10 84/360/360 121/11/11
f 541/316/316 514/317/317 542/364/364
f 68/365/365 80/354/354 69/357/357
f 543/366/366 544/367/367 68/365/365
f 550/368/368 545/369/369 66/370/370
f 72/371/371 37/372/372 63/373/373
f 549/374/374 69/357/357 61/375/375
f 59/376/376 66/370/370 67/377/377
f 557/378/378 550/368/368 66/370/370
f 55/379/379 75/380/380 76/381/381
f 55/379/379 76/381/381 56/382/382
f 53/383/383 64/384/384 54/385/385
f 588/386/386 64/384/384 53/383/383
f 48/387/387 70/1/1 49/3/3
f 44/388/388 57/389/389 58/390/390
f 44/388/388 58/390/390 45/391/391
f 569/392/392 53/383/383 560/393/393
f 39/394/394 50/395/395 51/396/396
f 39/394/394 51/396/396 40/397/397
f 563/398/398 49/3/3 564/399/399
f 585/400/400 47/401/401 38/402/402
f 36/403/403 46/404/404 60/405/405
f 36/403/403 60/405/405 37/372/372
f 33/406/406 44/388/388 45/391/391
f 79/407/407 56/382/382 80/354/354
f 545/369/369 569/392/392 560/393/393
f 546/408/408 594/409/409 41/362/362
f 75/380/380 40/397/397 76/381/381
f 547/410/410 570/411/411 561/412/412
f 73/413/413 38/402/402 74/414/414
f 586/415/415 38/402/402 73/413/413
f 72/371/371 36/403/403 37/372/372
f 70/1/1 45/391/391 71/2/2
f 574/416/416 577/205/205 575/417/417
f 242/202/202 30/164/164 31/167/167
f 242/202/202 31/167/167 243/203/203
f 26/418/418 584/419/419 549/374/374
f 585/400/400 25/420/420 26/418/418
f 24/421/421 25/420/420 585/400/400
f 569/392/392 21/422/422 588/386/386
f 21/422/422 426/423/423 22/424/424
f 589/425/425 21/422/422 569/392/392
f 428/209/209 426/423/423 21/422/422
f 550/368/368 19/426/426 589/425/425
f 19/426/426 20/162/162 428/209/209
f 590/427/427 17/428/428 550/368/368
f 17/428/428 18/163/163 20/162/162
f 15/429/429 16/179/179 18/163/163
f 592/430/430 12/154/154 13/153/153
f 10/431/431 11/172/172 12/154/154
f 546/408/408 9/432/432 593/433/433
f 6/434/434 7/182/182 8/435/435
f 4/436/436 5/183/183 7/182/182
f 597/437/437 596/438/438 595/439/439
f 598/440/440 596/438/438 597/437/437
f 599/441/441 1/174/174 598/440/440
f 600/442/442 601/192/192 1/174/174
f 600/442/442 1/174/174 599/441/441
f 598/440/440 2/443/443 596/438/438
f 595/439/439 3/444/444 4/436/436
f 595/439/439 4/436/436 602/445/445
f 602/445/445 4/436/436 6/434/434
f 602/445/445 6/434/434 603/446/446
f 603/446/446 6/434/434 8/435/435
f 603/446/446 8/435/435 551/447/447
f 551/447/447 8/435/435 9/432/432
f 551/447/447 9/432/432 546/408/408
f 546/408/408 593/433/433 594/409/409
f 594/409/409 593/433/433 10/431/431
f 591/448/448 13/153/153 571/449/449
f 571/449/449 14/196/196 15/429/429
f 571/449/449 15/429/429 567/450/450
f 567/450/450 15/429/429 17/428/428
f 567/450/450 17/428/428 590/427/427
f 550/368/368 17/428/428 19/426/426
f 589/425/425 19/426/426 428/209/209
f 589/425/425 428/209/209 21/422/422
f 21/422/422 22/424/424 588/386/386
f 587/451/451 22/424/424 23/452/452
f 588/386/386 22/424/424 587/451/451
f 586/415/415 23/452/452 24/421/421
f 587/451/451 23/452/452 586/415/415
f 586/415/415 24/421/421 585/400/400
f 585/400/400 26/418/418 556/453/453
f 556/453/453 26/418/418 549/374/374
f 549/374/374 584/419/419 27/454/454
f 549/374/374 27/454/454 543/366/366
f 543/366/366 27/454/454 28/455/455
f 543/366/366 28/455/455 583/456/456
f 583/456/456 28/455/455 581/457/457
f 583/456/456 581/457/457 582/458/458
f 582/458/458 581/457/457 580/459/459
f 580/459/459 29/460/460 579/461/461
f 580/459/459 579/461/461 578/462/462
f 578/462/462 579/461/461 577/205/205
f 578/462/462 577/205/205 576/463/463
f 9/432/432 8/435/435 30/164/164
f 9/432/432 30/164/164 242/202/202
f 576/463/463 577/205/205 574/416/416
f 574/416/416 575/417/417 32/464/464
f 574/416/416 32/464/464 573/465/465
f 597/437/437 595/439/439 572/466/466
f 597/437/437 572/466/466 548/467/467
f 65/468/468 77/469/469 34/361/361
f 591/448/448 571/449/449 36/403/403
f 591/448/448 36/403/403 72/371/371
f 586/415/415 585/400/400 38/402/402
f 576/463/463 574/416/416 570/411/411
f 576/463/463 570/411/411 547/410/410
f 547/410/410 561/412/412 75/380/380
f 546/408/408 41/362/362 77/469/469
f 589/425/425 569/392/392 545/369/369
f 545/369/369 560/393/393 42/470/470
f 583/456/456 582/458/458 559/471/471
f 583/456/456 559/471/471 544/367/367
f 544/367/367 559/471/471 79/407/407
f 595/439/439 602/445/445 568/472/472
f 595/439/439 568/472/472 572/466/466
f 572/466/466 44/388/388 33/406/406
f 571/449/449 567/450/450 46/404/404
f 571/449/449 46/404/404 36/403/403
f 585/400/400 556/453/453 47/401/401
f 600/442/442 599/441/441 566/473/473
f 600/442/442 566/473/473 565/474/474
f 570/411/411 562/475/475 561/412/412
f 574/416/416 573/465/465 562/475/475
f 574/416/416 562/475/475 570/411/411
f 561/412/412 50/395/395 39/394/394
f 594/409/409 10/431/431 52/476/476
f 594/409/409 52/476/476 41/362/362
f 569/392/392 588/386/386 53/383/383
f 42/470/470 53/383/383 54/385/385
f 560/393/393 53/383/383 42/470/470
f 559/471/471 552/477/477 553/478/478
f 582/458/458 580/459/459 552/477/477
f 582/458/458 552/477/477 559/471/471
f 559/471/471 553/478/478 43/479/479
f 602/445/445 603/446/446 558/480/480
f 602/445/445 558/480/480 568/472/472
f 568/472/472 57/389/389 44/388/388
f 567/450/450 590/427/427 557/378/378
f 567/450/450 557/378/378 46/404/404
f 556/453/453 61/375/375 47/401/401
f 599/441/441 598/440/440 555/481/481
f 599/441/441 555/481/481 566/473/473
f 566/473/473 70/1/1 48/387/387
f 52/476/476 10/431/431 62/482/482
f 10/431/431 592/430/430 62/482/482
f 588/386/386 587/451/451 64/384/384
f 552/477/477 554/483/483 553/478/478
f 580/459/459 578/462/462 554/483/483
f 580/459/459 554/483/483 552/477/477
f 553/478/478 75/380/380 55/379/379
f 603/446/446 551/447/447 558/480/480
f 590/427/427 550/368/368 557/378/378
f 59/376/376 67/377/377 60/405/405
f 557/378/378 66/370/370 59/376/376
f 549/374/374 543/366/366 68/365/365
f 598/440/440 597/437/437 548/467/467
f 598/440/440 548/467/467 555/481/481
f 592/430/430 591/448/448 72/371/371
f 592/430/430 72/371/371 62/482/482
f 62/482/482 72/371/371 63/373/373
f 587/451/451 586/415/415 64/384/384
f 586/415/415 73/413/413 64/384/384
f 578/462/462 576/463/463 547/410/410
f 578/462/462 547/410/410 554/483/483
f 554/483/483 547/410/410 553/478/478
f 553/478/478 547/410/410 75/380/380
f 546/408/408 77/469/469 551/447/447
f 551/447/447 77/469/469 65/468/468
f 589/425/425 545/369/369 550/368/368
f 543/366/366 583/456/456 544/367/367
f 604/484/484 541/316/316 542/364/364
f 532/353/353 541/316/316 604/484/484
f 532/353/353 96/350/350 541/316/316
f 605/484/485 81/314/314 540/485/486
f 542/364/364 81/314/314 605/484/485
f 542/364/364 514/317/317 81/314/314
f 38/402/402 539/486/487 515/487/488
f 74/414/414 38/402/402 515/487/488
f 77/469/469 41/362/362 34/361/361
f 34/361/361 537/363/363 35/278/278
f 38/402/402 47/401/401 539/486/487
f 539/486/487 47/401/401 83/359/359
f 41/362/362 52/476/476 538/488/489
f 41/362/362 538/488/489 537/363/363
f 537/363/363 85/489/490 35/278/278
f 47/401/401 61/375/375 83/359/359
f 52/476/476 63/373/373 538/488/489
f 63/373/373 536/490/491 538/488/489
f 538/488/489 87/4/4 85/489/490
f 63/373/373 37/372/372 535/491/492
f 63/373/373 535/491/492 536/490/491
f 37/372/372 534/492/493 535/491/492
f 80/354/354 56/382/382 531/351/351
f 37/372/372 60/405/405 530/493/494
f 37/372/372 530/493/494 534/492/493
f 534/492/493 95/345/345 91/5/5
f 564/399/399 533/494/495 606/484/496
f 564/399/399 49/3/3 533/494/495
f 607/484/497 99/349/349 532/353/353
f 606/484/496 533/494/495 99/349/349
f 606/484/496 99/349/349 607/484/497
f 531/351/351 528/347/347 97/348/348
f 56/382/382 528/347/347 531/351/351
f 60/405/405 527/495/498 530/493/494
f 49/3/3 71/2/2 529/496/499
f 49/3/3 529/496/499 533/494/495
f 533/494/495 529/496/499 99/349/349
f 528/347/347 526/337/337 100/344/344
f 76/381/381 526/337/337 528/347/347
f 56/382/382 76/381/381 528/347/347
f 67/377/377 525/343/343 527/495/498
f 60/405/405 67/377/377 527/495/498
f 527/495/498 102/341/341 95/345/345
f 524/497/500 104/339/339 529/496/499
f 71/2/2 524/497/500 529/496/499
f 99/349/349 104/339/339 105/340/340
f 529/496/499 104/339/339 99/349/349
f 100/344/344 110/334/334 101/498/501
f 67/377/377 78/499/502 525/343/343
f 78/499/502 522/329/329 525/343/343
f 525/343/343 107/7/7 102/341/341
f 524/497/500 521/500/503 104/339/339
f 45/391/391 521/500/503 524/497/500
f 71/2/2 45/391/391 524/497/500
f 526/337/337 519/335/335 109/332/332
f 40/397/397 519/335/335 526/337/337
f 76/381/381 40/397/397 526/337/337
f 106/338/338 109/332/332 110/334/334
f 78/499/502 54/385/385 522/329/329
f 45/391/391 517/501/504 521/500/503
f 51/396/396 520/336/336 519/335/335
f 40/397/397 51/396/396 519/335/335
f 54/385/385 518/330/330 522/329/329
f 45/391/391 58/390/390 517/501/504
f 54/385/385 74/414/414 516/502/505
f 54/385/385 516/502/505 518/330/330
f 518/330/330 118/10/10 111/8/8
f 117/326/326 119/503/506 120/327/327
f 58/390/390 119/503/506 117/326/326
f 58/390/390 65/468/468 119/503/506
f 74/414/414 515/487/488 516/502/505
f 458/504/507 477/324/324 459/325/325
f 131/306/306 136/294/294 477/324/324
f 131/306/306 477/324/324 458/504/507
f 184/245/245 123/323/323 187/505/508
f 459/325/325 122/322/322 184/245/245
f 483/506/509 511/304/304 512/313/313
f 94/352/352 101/498/501 511/304/304
f 94/352/352 511/304/304 483/506/509
f 155/319/319 125/321/321 157/507/510
f 512/313/313 124/320/320 155/319/319
f 96/350/350 105/340/340 513/302/302
f 96/350/350 513/302/302 541/316/316
f 514/317/317 509/307/307 127/305/305
f 514/317/317 127/305/305 81/314/314
f 512/313/313 504/300/300 124/320/320
f 103/342/342 507/311/311 481/310/310
f 98/346/346 103/342/342 481/310/310
f 127/305/305 131/306/306 82/315/315
f 509/307/307 506/303/303 130/301/301
f 509/307/307 130/301/301 127/305/305
f 101/498/501 110/334/334 511/304/304
f 110/334/334 508/289/289 511/304/304
f 128/298/298 132/299/299 125/321/321
f 103/342/342 112/9/9 507/311/311
f 105/340/340 113/328/328 505/284/284
f 105/340/340 505/284/284 513/302/302
f 130/301/301 136/294/294 131/306/306
f 506/303/303 498/285/285 135/293/293
f 506/303/303 135/293/293 130/301/301
f 504/300/300 501/292/292 137/286/286
f 504/300/300 137/286/286 128/298/298
f 507/311/311 499/296/296 503/297/297
f 112/9/9 499/296/296 507/311/311
f 498/285/285 138/280/280 135/293/293
f 110/334/334 115/333/333 500/290/290
f 110/334/334 500/290/290 508/289/289
f 137/286/286 140/288/288 132/299/299
f 501/292/292 502/291/291 139/287/287
f 501/292/292 139/287/287 137/286/286
f 499/296/296 495/282/282 496/283/283
f 116/12/12 495/282/282 499/296/296
f 112/9/9 116/12/12 499/296/296
f 113/328/328 120/327/327 497/277/277
f 113/328/328 497/277/277 505/284/284
f 138/280/280 143/281/281 136/294/294
f 498/285/285 494/279/279 138/280/280
f 116/12/12 121/11/11 495/282/282
f 494/279/279 145/275/275 138/280/280
f 495/282/282 492/274/274 493/276/276
f 121/11/11 492/274/274 495/282/282
f 120/327/327 35/278/278 497/277/277
f 145/275/275 471/508/511 143/281/281
f 494/279/279 491/272/272 145/275/275
f 121/11/11 84/360/360 492/274/274
f 491/272/272 149/21/21 145/275/275
f 84/360/360 488/269/269 492/274/274
f 35/278/278 85/489/490 490/266/266
f 35/278/278 490/266/266 491/272/272
f 491/272/272 487/273/273 149/21/21
f 86/358/358 486/270/270 488/269/269
f 84/360/360 86/358/358 488/269/269
f 489/271/271 486/270/270 152/19/19
f 490/266/266 485/268/268 487/273/273
f 85/489/490 88/509/512 490/266/266
f 486/270/270 90/263/263 153/265/265
f 86/358/358 90/263/263 486/270/270
f 486/270/270 153/265/265 152/19/19
f 88/509/512 93/6/6 484/267/267
f 88/509/512 484/267/267 490/266/266
f 92/355/355 482/264/264 90/263/263
f 484/267/267 480/510/513 485/268/268
f 151/22/22 156/260/260 154/262/262
f 485/268/268 156/260/260 151/22/22
f 482/264/264 483/506/509 512/313/313
f 94/352/352 483/506/509 482/264/264
f 92/355/355 94/352/352 482/264/264
f 482/264/264 512/313/313 155/319/319
f 484/267/267 481/310/310 510/312/312
f 484/267/267 510/312/312 480/510/513
f 93/6/6 98/346/346 481/310/310
f 93/6/6 481/310/310 484/267/267
f 156/260/260 158/318/318 159/261/261
f 480/510/513 158/318/318 156/260/260
f 429/511/514 453/512/515 479/513/516
f 167/514/517 453/512/515 429/511/514
f 429/511/514 479/513/516 226/24/24
f 457/515/518 475/257/257 161/254/254
f 132/299/299 475/257/257 457/515/518
f 457/515/518 161/254/254 188/259/259
f 134/295/295 142/16/16 478/516/519
f 134/295/295 478/516/519 456/517/520
f 477/324/324 473/518/521 162/519/522
f 477/324/324 162/519/522 122/322/322
f 136/294/294 473/518/521 477/324/324
f 140/288/288 476/258/258 475/257/257
f 132/299/299 140/288/288 475/257/257
f 161/254/254 164/256/256 189/224/224
f 161/254/254 476/258/258 163/255/255
f 142/16/16 144/15/15 474/520/523
f 142/16/16 474/520/523 478/516/519
f 136/294/294 143/281/281 473/518/521
f 162/519/522 167/514/517 123/323/323
f 162/519/522 473/518/521 167/514/517
f 144/15/15 472/253/253 474/520/523
f 143/281/281 471/508/511 473/518/521
f 473/518/521 471/508/511 167/514/517
f 144/15/15 147/18/18 472/253/253
f 471/508/511 453/512/515 167/514/517
f 145/275/275 470/250/250 471/508/511
f 471/508/511 470/250/250 454/521/524
f 471/508/511 454/521/524 453/512/515
f 468/33/33 467/249/249 175/241/241
f 468/33/33 175/241/241 173/251/251
f 469/23/23 154/262/262 174/36/36
f 467/249/249 153/265/265 176/522/525
f 467/249/249 176/522/525 175/241/241
f 154/262/262 177/38/38 174/36/36
f 153/265/265 157/507/510 178/523/526
f 153/265/265 178/523/526 176/522/525
f 159/261/261 179/40/40 177/38/38
f 154/262/262 159/261/261 177/38/38
f 157/507/510 463/236/236 178/523/526
f 159/261/261 180/42/42 179/40/40
f 465/246/246 461/524/527 462/247/247
f 540/485/486 82/315/315 461/524/527
f 540/485/486 461/524/527 465/246/246
f 466/248/248 181/244/244 464/525/528
f 466/248/248 462/247/247 181/244/244
f 125/321/321 460/526/529 463/236/236
f 157/507/510 125/321/321 463/236/236
f 126/309/309 183/44/44 180/42/42
f 159/261/261 126/309/309 180/42/42
f 461/524/527 458/504/507 462/247/247
f 82/315/315 458/504/507 461/524/527
f 462/247/247 184/245/245 181/244/244
f 125/321/321 457/515/518 460/526/529
f 126/309/309 134/295/295 186/46/46
f 126/309/309 186/46/46 183/44/44
f 458/504/507 459/325/325 462/247/247
f 82/315/315 131/306/306 458/504/507
f 184/245/245 187/505/508 182/229/229
f 462/247/247 459/325/325 184/245/245
f 125/321/321 132/299/299 457/515/518
f 188/259/259 189/224/224 185/228/228
f 134/295/295 456/517/520 186/46/46
f 170/31/31 455/243/243 430/527/530
f 430/527/530 455/243/243 227/213/213
f 453/512/515 454/521/524 479/513/516
f 479/513/516 454/521/524 193/25/25
f 170/31/31 171/34/34 455/243/243
f 455/243/243 194/47/47 227/213/213
f 454/521/524 172/35/35 452/528/531
f 193/25/25 195/50/50 197/52/52
f 454/521/524 452/528/531 195/50/50
f 454/521/524 195/50/50 193/25/25
f 171/34/34 173/251/251 451/48/48
f 172/35/35 449/37/37 450/242/242
f 172/35/35 450/242/242 452/528/531
f 452/528/531 450/242/242 195/50/50
f 173/251/251 175/241/241 451/48/48
f 195/50/50 200/529/532 201/51/51
f 450/242/242 200/529/532 195/50/50
f 450/242/242 447/237/237 200/529/532
f 175/241/241 176/522/525 448/235/235
f 449/37/37 445/39/39 447/237/237
f 200/529/532 446/233/233 203/530/533
f 200/529/532 203/530/533 201/51/51
f 447/237/237 446/233/233 200/529/532
f 176/522/525 178/523/526 448/235/235
f 178/523/526 463/236/236 448/235/235
f 448/235/235 205/53/53 204/531/534
f 446/233/233 211/227/227 203/530/533
f 444/234/234 206/226/226 446/233/233
f 608/484/535 182/229/229 207/232/232
f 464/525/528 182/229/229 608/484/535
f 463/236/236 209/54/54 205/53/53
f 463/236/236 185/228/228 209/54/54
f 443/41/41 441/230/230 444/234/234
f 444/234/234 441/230/230 206/226/226
f 440/43/43 438/221/221 441/230/230
f 191/45/45 438/221/221 440/43/43
f 441/230/230 212/219/219 206/226/226
f 187/505/508 437/532/536 439/56/56
f 182/229/229 187/505/508 439/56/56
f 185/228/228 189/224/224 214/62/62
f 191/45/45 166/30/30 438/221/221
f 438/221/221 435/223/223 441/230/230
f 441/230/230 435/223/223 212/219/219
f 123/323/323 433/533/537 437/532/536
f 187/505/508 123/323/323 437/532/536
f 166/30/30 434/222/222 438/221/221
f 435/223/223 220/212/212 212/219/219
f 123/323/323 429/511/514 433/533/537
f 433/533/537 221/61/61 217/59/59
f 164/256/256 431/218/218 436/216/216
f 189/224/224 164/256/256 436/216/216
f 219/63/63 432/217/217 222/65/65
f 166/30/30 168/29/29 430/527/530
f 166/30/30 430/527/530 434/222/222
f 435/223/223 434/222/222 220/212/212
f 123/323/323 167/514/517 429/511/514
f 429/511/514 226/24/24 221/61/61
f 168/29/29 170/31/31 430/527/530
f 430/527/530 227/213/213 220/212/212
f 253/113/113 228/111/111 294/210/210
f 20/162/162 230/67/67 244/208/208
f 28/455/455 27/454/454 232/159/159
f 28/455/455 232/159/159 246/207/207
f 3/444/444 596/438/438 248/197/197
f 596/438/438 234/155/155 248/197/197
f 13/153/153 236/149/149 250/194/194
f 25/420/420 24/421/421 238/148/148
f 25/420/420 238/148/148 252/206/206
f 575/417/417 577/205/205 256/204/204
f 593/433/433 9/432/432 242/202/202
f 593/433/433 242/202/202 258/186/186
f 428/209/209 244/208/208 260/200/200
f 426/423/423 428/209/209 260/200/200
f 581/457/457 28/455/455 246/207/207
f 581/457/457 246/207/207 262/199/199
f 5/183/183 248/197/197 264/180/180
f 3/444/444 248/197/197 5/183/183
f 14/196/196 250/194/194 266/177/177
f 26/418/418 25/420/420 252/206/206
f 26/418/418 252/206/206 268/193/193
f 601/192/192 254/191/191 270/173/173
f 32/464/464 575/417/417 256/204/204
f 32/464/464 256/204/204 427/188/188
f 11/172/172 593/433/433 258/186/186
f 22/424/424 426/423/423 260/200/200
f 22/424/424 260/200/200 274/185/185
f 29/460/460 581/457/457 262/199/199
f 29/460/460 262/199/199 276/184/184
f 7/182/182 264/180/180 278/165/165
f 16/179/179 266/177/177 280/68/68
f 584/419/419 26/418/418 268/193/193
f 584/419/419 268/193/193 282/175/175
f 2/443/443 1/174/174 284/156/156
f 11/172/172 272/170/170 286/150/150
f 23/452/452 22/424/424 274/185/185
f 23/452/452 274/185/185 288/169/169
f 579/461/461 29/460/460 276/184/184
f 579/461/461 276/184/184 290/168/168
f 7/182/182 278/165/165 30/164/164
f 8/435/435 7/182/182 30/164/164
f 18/163/163 280/68/68 230/67/67
f 27/454/454 584/419/419 282/175/175
f 27/454/454 282/175/175 232/159/159
f 596/438/438 2/443/443 234/155/155
f 2/443/443 284/156/156 234/155/155
f 12/154/154 286/150/150 236/149/149
f 24/421/421 23/452/452 288/169/169
f 24/421/421 288/169/169 238/148/148
f 577/205/205 579/461/461 290/168/168
f 577/205/205 290/168/168 240/147/147
f 406/105/105 390/87/87 292/534/538
f 259/187/187 407/535/539 425/536/540
f 273/171/171 259/187/187 425/536/540
f 425/536/540 293/537/541 296/538/542
f 269/176/176 294/210/210 424/146/146
f 283/160/160 269/176/176 424/146/146
f 273/171/171 425/536/540 423/539/543
f 287/151/151 273/171/171 423/539/543
f 423/539/543 296/538/542 298/540/544
f 233/143/143 283/160/160 424/146/146
f 287/151/151 423/539/543 422/541/545
f 237/152/152 287/151/151 422/541/545
f 422/541/545 298/540/544 301/542/546
f 233/143/143 299/145/145 302/144/144
f 237/152/152 422/541/545 421/543/547
f 251/195/195 237/152/152 421/543/547
f 421/543/547 301/542/546 303/544/548
f 247/142/142 302/144/144 305/141/141
f 251/195/195 421/543/547 420/545/549
f 267/178/178 251/195/195 420/545/549
f 420/545/549 303/544/548 307/546/550
f 255/140/140 304/110/110 308/135/135
f 263/138/138 305/141/141 310/136/136
f 267/178/178 420/545/549 419/547/551
f 281/69/69 267/178/178 419/547/551
f 419/547/551 307/546/550 312/548/552
f 418/549/553 271/139/139 308/135/135
f 285/157/157 271/139/139 418/549/553
f 418/549/553 308/135/135 313/134/134
f 277/133/133 310/136/136 314/132/132
f 281/69/69 419/547/551 417/550/554
f 231/161/161 281/69/69 417/550/554
f 417/550/554 312/548/552 316/551/555
f 285/157/157 418/549/553 416/552/556
f 235/158/158 285/157/157 416/552/556
f 416/552/556 313/134/134 317/553/557
f 291/131/131 314/132/132 318/128/128
f 245/201/201 231/161/161 417/550/554
f 245/201/201 417/550/554 415/127/127
f 415/127/127 316/551/555 320/126/126
f 235/158/158 416/552/556 414/554/558
f 249/198/198 235/158/158 414/554/558
f 414/554/558 317/553/557 321/555/559
f 241/130/130 318/128/128 413/556/560
f 257/189/189 241/130/130 413/556/560
f 413/556/560 318/128/128 323/123/123
f 261/121/121 245/201/201 415/127/127
f 249/198/198 414/554/558 411/557/561
f 265/181/181 249/198/198 411/557/561
f 411/557/561 321/555/559 326/558/562
f 412/190/190 413/556/560 322/122/122
f 257/189/189 413/556/560 412/190/190
f 261/121/121 324/125/125 327/120/120
f 265/181/181 411/557/561 410/559/563
f 279/166/166 265/181/181 410/559/563
f 410/559/563 326/558/562 329/560/564
f 275/119/119 327/120/120 330/117/117
f 279/166/166 410/559/563 409/561/565
f 31/167/167 279/166/166 409/561/565
f 409/561/565 329/560/564 332/562/566
f 289/116/116 330/117/117 333/115/115
f 31/167/167 409/561/565 408/563/567
f 243/203/203 31/167/167 408/563/567
f 408/563/567 332/562/566 335/564/568
f 239/114/114 333/115/115 228/111/111
f 243/203/203 408/563/567 407/535/539
f 259/187/187 243/203/203 407/535/539
f 407/535/539 335/564/568 293/537/541
f 303/544/548 301/542/546 405/565/569
f 306/137/137 300/85/85 406/105/105
f 303/544/548 405/565/569 404/566/570
f 307/546/550 303/544/548 404/566/570
f 404/566/570 405/565/569 336/567/571
f 311/104/104 306/137/137 406/105/105
f 403/102/102 406/105/105 338/568/572
f 307/546/550 404/566/570 402/569/573
f 312/548/552 307/546/550 402/569/573
f 402/569/573 404/566/570 341/570/574
f 401/571/575 309/109/109 339/106/106
f 313/134/134 309/109/109 401/571/575
f 315/129/129 311/104/104 403/102/102
f 316/551/555 312/548/552 402/569/573
f 317/553/557 313/134/134 401/571/575
f 319/101/101 315/129/129 403/102/102
f 400/103/103 403/102/102 342/572/576
f 316/551/555 402/569/573 399/100/100
f 320/126/126 316/551/555 399/100/100
f 399/100/100 402/569/573 344/95/95
f 317/553/557 401/571/575 395/573/577
f 321/555/559 317/553/557 395/573/577
f 395/573/577 401/571/575 343/574/578
f 323/123/123 319/101/101 400/103/103
f 320/126/126 399/100/100 325/99/99
f 396/98/98 399/100/100 344/95/95
f 326/558/562 321/555/559 395/573/577
f 398/124/124 323/123/123 400/103/103
f 398/124/124 400/103/103 397/575/579
f 328/118/118 325/99/99 396/98/98
f 326/558/562 395/573/577 393/576/580
f 329/560/564 326/558/562 393/576/580
f 393/576/580 395/573/577 346/577/581
f 331/97/97 328/118/118 396/98/98
f 394/93/93 396/98/98 347/94/94
f 332/562/566 329/560/564 393/576/580
f 334/112/112 331/97/97 394/93/93
f 332/562/566 393/576/580 391/578/582
f 335/564/568 332/562/566 391/578/582
f 391/578/582 393/576/580 348/90/90
f 229/92/92 334/112/112 394/93/93
f 392/88/88 394/93/93 349/96/96
f 293/537/541 335/564/568 391/578/582
f 295/211/211 229/92/92 392/88/88
f 293/537/541 391/578/582 389/579/583
f 296/538/542 293/537/541 389/579/583
f 389/579/583 391/578/582 350/89/89
f 297/86/86 295/211/211 392/88/88
f 390/87/87 392/88/88 351/580/584
f 298/540/544 296/538/542 389/579/583
f 298/540/544 389/579/583 405/565/569
f 301/542/546 298/540/544 405/565/569
f 405/565/569 389/579/583 352/581/585
f 354/76/76 372/70/70 376/582/586
f 343/574/578 340/108/108 387/82/82
f 345/583/587 342/572/576 388/584/588
f 344/95/95 341/570/574 385/585/589
f 386/586/590 388/584/588 354/76/76
f 345/583/587 388/584/588 386/586/590
f 343/574/578 387/82/82 384/80/80
f 346/577/581 343/574/578 384/80/80
f 397/575/579 345/583/587 386/586/590
f 344/95/95 385/585/589 383/587/591
f 349/96/96 344/95/95 383/587/591
f 348/90/90 346/577/581 384/80/80
f 351/580/584 349/96/96 383/587/591
f 382/91/91 384/80/80 355/79/79
f 348/90/90 384/80/80 382/91/91
f 381/588/592 383/587/591 356/77/77
f 351/580/584 383/587/591 381/588/592
f 292/534/538 351/580/584 381/588/592
f 380/589/593 382/91/91 355/79/79
f 352/581/585 382/91/91 380/589/593
f 338/568/572 292/534/538 381/588/592
f 336/567/571 352/581/585 380/589/593
f 388/584/588 381/588/592 356/77/77
f 338/568/572 381/588/592 388/584/588
f 340/108/108 337/107/107 387/82/82
f 388/584/588 356/77/77 354/76/76
f 342/572/576 338/568/572 388/584/588
f 336/567/571 380/589/593 385/585/589
f 341/570/574 336/567/571 385/585/589
f 379/590/594 373/73/73 378/75/75
f 376/582/586 372/70/70 377/72/72
f 373/73/73 368/81/81 371/74/74
f 372/70/70 369/78/78 370/71/71
f 385/585/589 380/589/593 373/73/73
f 387/82/82 337/107/107 374/591/595
f 387/82/82 374/591/595 375/83/83
f 380/589/593 355/79/79 368/81/81
f 380/589/593 368/81/81 373/73/73
f 356/77/77 383/587/591 379/590/594
f 356/77/77 379/590/594 369/78/78
f 384/80/80 353/84/84 368/81/81
f 383/587/591 385/585/589 379/590/594
f 386/586/590 354/76/76 376/582/586
f 384/80/80 387/82/82 353/84/84
f 385/585/589 373/73/73 379/590/594
f 390/87/87 351/580/584 292/534/538
f 352/581/585 350/89/89 382/91/91
f 389/579/583 350/89/89 352/581/585
f 392/88/88 349/96/96 351/580/584
f 391/578/582 348/90/90 350/89/89
f 394/93/93 347/94/94 349/96/96
f 393/576/580 346/577/581 348/90/90
f 396/98/98 344/95/95 347/94/94
f 397/575/579 400/103/103 345/583/587
f 395/573/577 343/574/578 346/577/581
f 400/103/103 342/572/576 345/583/587
f 402/569/573 341/570/574 344/95/95
f 343/574/578 339/106/106 340/108/108
f 401/571/575 339/106/106 343/574/578
f 403/102/102 338/568/572 342/572/576
f 404/566/570 336/567/571 341/570/574
f 406/105/105 292/534/538 338/568/572
f 405/565/569 352/581/585 336/567/571
f 407/535/539 408/563/567 335/564/568
f 228/111/111 333/115/115 334/112/112
f 408/563/567 409/561/565 332/562/566
f 333/115/115 330/117/117 331/97/97
f 409/561/565 410/559/563 329/560/564
f 330/117/117 327/120/120 328/118/118
f 410/559/563 411/557/561 326/558/562
f 327/120/120 324/125/125 325/99/99
f 413/556/560 323/123/123 322/122/122
f 411/557/561 414/554/558 321/555/559
f 415/127/127 320/126/126 324/125/125
f 414/554/558 416/552/556 317/553/557
f 415/127/127 417/550/554 316/551/555
f 318/128/128 314/132/132 315/129/129
f 416/552/556 418/549/553 313/134/134
f 417/550/554 419/547/551 312/548/552
f 314/132/132 310/136/136 311/104/104
f 419/547/551 420/545/549 307/546/550
f 310/136/136 305/141/141 306/137/137
f 420/545/549 421/543/547 303/544/548
f 305/141/141 302/144/144 300/85/85
f 421/543/547 422/541/545 301/542/546
f 302/144/144 299/145/145 300/85/85
f 422/541/545 423/539/543 298/540/544
f 299/145/145 424/146/146 297/86/86
f 423/539/543 425/536/540 296/538/542
f 297/86/86 294/210/210 295/211/211
f 424/146/146 294/210/210 297/86/86
f 425/536/540 407/535/539 293/537/541
f 240/147/147 290/168/168 291/131/131
f 238/148/148 288/169/169 289/116/116
f 232/159/159 282/175/175 283/160/160
f 290/168/168 276/184/184 277/133/133
f 288/169/169 274/185/185 275/119/119
f 282/175/175 268/193/193 269/176/176
f 276/184/184 262/199/199 263/138/138
f 274/185/185 260/200/200 261/121/121
f 427/188/188 256/204/204 257/189/189
f 268/193/193 252/206/206 253/113/113
f 262/199/199 246/207/207 247/142/142
f 260/200/200 244/208/208 245/201/201
f 256/204/204 240/147/147 241/130/130
f 252/206/206 238/148/148 239/114/114
f 246/207/207 232/159/159 233/143/143
f 244/208/208 230/67/67 231/161/161
f 294/210/210 228/111/111 229/92/92
f 434/222/222 430/527/530 220/212/212
f 433/533/537 429/511/514 221/61/61
f 437/532/536 433/533/537 217/59/59
f 439/56/56 217/59/59 213/57/57
f 437/532/536 217/59/59 439/56/56
f 182/229/229 208/58/58 207/232/232
f 448/235/235 204/531/534 202/239/239
f 447/237/237 444/234/234 446/233/233
f 199/238/238 448/235/235 202/239/239
f 451/48/48 199/238/238 198/240/240
f 193/25/25 197/52/52 160/26/26
f 186/46/46 456/517/520 190/27/27
f 460/526/529 188/259/259 185/228/228
f 460/526/529 457/515/518 188/259/259
f 463/236/236 460/526/529 185/228/228
f 181/244/244 182/229/229 464/525/528
f 470/250/250 172/35/35 454/521/524
f 472/253/253 169/32/32 165/28/28
f 474/520/523 472/253/253 165/28/28
f 478/516/519 474/520/523 165/28/28
f 478/516/519 165/28/28 190/27/27
f 122/322/322 162/519/522 123/323/323
f 456/517/520 478/516/519 190/27/27
f 479/513/516 193/25/25 226/24/24
f 480/510/513 510/312/312 158/318/318
f 485/268/268 480/510/513 156/260/260
f 153/265/265 155/319/319 157/507/510
f 482/264/264 155/319/319 153/265/265
f 152/19/19 153/265/265 467/249/249
f 487/273/273 485/268/268 151/22/22
f 487/273/273 151/22/22 149/21/21
f 489/271/271 152/19/19 146/17/17
f 493/276/276 489/271/271 146/17/17
f 493/276/276 146/17/17 141/14/14
f 496/283/283 493/276/276 141/14/14
f 496/283/283 141/14/14 133/13/13
f 503/297/297 496/283/283 133/13/13
f 129/308/308 133/13/13 134/295/295
f 503/297/297 133/13/13 129/308/308
f 510/312/312 503/297/297 129/308/308
f 124/320/320 128/298/298 125/321/321
f 504/300/300 128/298/298 124/320/320
f 158/318/318 129/308/308 126/309/309
f 510/312/312 129/308/308 158/318/318
f 516/502/505 515/487/488 118/10/10
f 518/330/330 516/502/505 118/10/10
f 517/501/504 58/390/390 117/326/326
f 523/331/331 518/330/330 111/8/8
f 109/332/332 114/592/596 115/333/333
f 520/336/336 114/592/596 109/332/332
f 108/593/597 117/326/326 113/328/328
f 521/500/503 517/501/504 117/326/326
f 521/500/503 117/326/326 108/593/597
f 523/331/331 111/8/8 107/7/7
f 104/339/339 108/593/597 113/328/328
f 104/339/339 521/500/503 108/593/597
f 525/343/343 523/331/331 107/7/7
f 100/344/344 106/338/338 110/334/334
f 527/495/498 525/343/343 102/341/341
f 97/348/348 100/344/344 101/498/501
f 530/493/494 527/495/498 95/345/345
f 97/348/348 101/498/501 94/352/352
f 95/345/345 98/346/346 93/6/6
f 534/492/493 530/493/494 95/345/345
f 535/491/492 534/492/493 91/5/5
f 80/354/354 92/355/355 89/356/356
f 87/4/4 93/6/6 88/509/512
f 536/490/491 535/491/492 87/4/4
f 535/491/492 91/5/5 87/4/4
f 61/375/375 69/357/357 89/356/356
f 87/4/4 88/509/512 85/489/490
f 538/488/489 536/490/491 87/4/4
f 83/359/359 89/356/356 86/358/358
f 61/375/375 89/356/356 83/359/359
f 537/363/363 538/488/489 85/489/490
f 118/10/10 83/359/359 84/360/360
f 515/487/488 539/486/487 83/359/359
f 515/487/488 83/359/359 118/10/10
f 81/314/314 82/315/315 540/485/486
f 68/365/365 79/407/407 80/354/354
f 544/367/367 79/407/407 68/365/365
f 66/370/370 42/470/470 78/499/502
f 66/370/370 78/499/502 67/377/377
f 545/369/369 42/470/470 66/370/370
f 64/384/384 73/413/413 74/414/414
f 555/481/481 548/467/467 70/1/1
f 549/374/374 68/365/365 69/357/357
f 57/389/389 65/468/468 58/390/390
f 558/480/480 551/447/447 65/468/468
f 558/480/480 65/468/468 57/389/389
f 64/384/384 74/414/414 54/385/385
f 52/476/476 62/482/482 63/373/373
f 566/473/473 555/481/481 70/1/1
f 556/453/453 549/374/374 61/375/375
f 46/404/404 59/376/376 60/405/405
f 46/404/404 557/378/378 59/376/376
f 568/472/472 558/480/480 57/389/389
f 43/479/479 55/379/379 56/382/382
f 553/478/478 55/379/379 43/479/479
f 561/412/412 562/475/475 50/395/395
f 563/398/398 48/387/387 49/3/3
f 565/474/474 566/473/473 48/387/387
f 565/474/474 48/387/387 563/398/398
f 572/466/466 568/472/472 44/388/388
f 79/407/407 43/479/479 56/382/382
f 559/471/471 43/479/479 79/407/407
f 42/470/470 54/385/385 78/499/502
f 75/380/380 39/394/394 40/397/397
f 561/412/412 39/394/394 75/380/380
f 119/503/506 34/361/361 35/278/278
f 119/503/506 35/278/278 120/327/327
f 65/468/468 34/361/361 119/503/506
f 70/1/1 33/406/406 45/391/391
f 548/467/467 572/466/466 33/406/406
f 548/467/467 33/406/406 70/1/1
f 581/457/457 29/460/460 580/459/459
f 17/428/428 20/162/162 19/426/426
f 15/429/429 18/163/163 17/428/428
f 14/196/196 16/179/179 15/429/429
f 571/449/449 13/153/153 14/196/196
f 592/430/430 13/153/153 591/448/448
f 10/431/431 12/154/154 592/430/430
f 593/433/433 11/172/172 10/431/431
f 4/436/436 7/182/182 6/434/434
f 3/444/444 5/183/183 4/436/436
f 596/438/438 3/444/444 595/439/439
f 598/440/440 1/174/174 2/443/443
f 211/227/227 609/594/598 617/595/599
f 211/227/227 216/220/220 609/594/598
f 216/220/220 618/596/600 609/594/598
f 201/51/51 203/530/533 615/597/601
f 216/220/220 225/215/215 618/596/600
f 203/530/533 211/227/227 617/595/599
f 225/215/215 192/214/214 620/598/602
f 192/214/214 196/49/49 622/599/603
f 196/49/49 198/240/240 624/600/604
f 198/240/240 202/239/239 624/600/604
f 202/239/239 204/531/534 625/601/605
f 204/531/534 205/53/53 625/601/605
f 215/225/225 214/62/62 224/64/64
f 221/61/61 610/602/606 218/60/60
f 221/61/61 611/603/607 610/602/606
f 160/26/26 612/604/608 611/603/607
f 221/61/61 160/26/26 611/603/607
f 160/26/26 197/52/52 613/605/609
f 160/26/26 613/605/609 612/604/608
f 197/52/52 614/606/610 613/605/609
f 197/52/52 201/51/51 614/606/610
f 442/231/231 208/58/58 223/66/66
f 225/215/215 619/607/611 618/596/600
f 225/215/215 620/598/602 619/607/611
f 192/214/214 621/608/612 620/598/602
f 192/214/214 622/599/603 621/608/612
f 196/49/49 623/609/613 622/599/603
f 196/49/49 624/600/604 623/609/613
f 202/239/239 625/601/605 624/600/604
f 205/53/53 210/55/55 625/601/605
f 201/51/51 615/597/601 614/606/610
f 203/530/533 616/610/614 615/597/601
f 203/530/533 617/595/599 616/610/614
s 2
f 367/611/615 357/612/616 358/613/617
f 367/611/615 358/613/617 366/614/618
f 366/614/618 358/613/617 359/615/619
f 366/614/618 359/615/619 360/616/620
f 366/614/618 360/616/620 365/617/621
f 365/617/621 360/616/620 364/618/622
f 364/618/622 360/616/620 361/619/623
f 364/618/622 361/619/623 362/620/624
f 364/618/622 362/620/624 363/621/625
s 1
f 215/225/225 224/64/64 223/66/66
f 215/225/225 223/66/66 210/55/55
f 210/55/55 223/66/66 208/58/58
f 210/55/55 208/58/58 213/57/57
f 210/55/55 213/57/57 625/601/605
f 625/601/605 213/57/57 218/60/60
f 625/601/605 218/60/60 624/600/604
f 624/600/604 218/60/60 610/602/606
f 624/600/604 610/602/606 611/603/607
f 624/600/604 611/603/607 623/609/613
f 623/609/613 611/603/607 612/604/608
f 623/609/613 612/604/608 622/599/603
f 622/599/603 612/604/608 613/605/609
f 622/599/603 613/605/609 621/608/612
f 621/608/612 613/605/609 614/606/610
f 621/608/612 614/606/610 620/598/602
f 620/598/602 614/606/610 619/607/611
f 619/607/611 614/606/610 615/597/601
f 619/607/611 615/597/601 618/596/600
f 618/596/600 615/597/601 616/610/614
f 618/596/600 616/610/614 617/595/599
f 618/596/600 617/595/599 609/594/598
