# Blender 4.4.3
# www.blender.org
mtllib hk_Luciernaga_cuerpo.mtl
g Luciernaga_3.001_Malla
v -0.004048 0.529299 0.105151
v -0.004048 0.498628 0.206261
v -0.004048 0.448820 0.299444
v -0.004048 0.381791 0.381120
v -0.004048 0.300115 0.448150
v -0.004048 0.206931 0.497957
v -0.004048 0.105821 0.528628
v -0.004048 0.000671 0.538985
v -0.004048 -0.104480 0.528629
v -0.004048 -0.447479 0.299444
v -0.024562 0.529299 0.103130
v -0.044288 0.498628 0.202297
v -0.062467 0.448820 0.293690
v -0.078401 0.381791 0.373797
v -0.091478 0.300115 0.439539
v -0.101195 0.206931 0.488389
v -0.107179 0.105821 0.518471
v -0.109199 0.000671 0.528628
v -0.107179 -0.104480 0.518471
v -0.101195 -0.205590 0.488389
v -0.091478 -0.298773 0.439539
v -0.078401 -0.380449 0.373797
v -0.062467 -0.447479 0.293690
v -0.044288 -0.497286 0.202297
v -0.024562 -0.527958 0.103130
v -0.044288 0.529299 0.097147
v -0.082981 0.498628 0.190560
v -0.118641 0.448820 0.276650
v -0.149897 0.381791 0.352109
v -0.175548 0.300115 0.414036
v -0.194608 0.206931 0.460052
v -0.206346 0.105821 0.488389
v -0.210309 0.000671 0.497957
v -0.206346 -0.104480 0.488389
v -0.194608 -0.205590 0.460052
v -0.175548 -0.298773 0.414036
v -0.149897 -0.380449 0.352109
v -0.118641 -0.447479 0.276650
v -0.082981 -0.497286 0.190560
v -0.044288 -0.527958 0.097147
v -0.062467 0.529299 0.087430
v -0.118641 0.498628 0.171500
v -0.170411 0.448820 0.248979
v -0.215787 0.381791 0.316890
v -0.253027 0.300115 0.372623
v -0.280699 0.206931 0.414036
v -0.297739 0.105821 0.439538
v -0.303492 0.000671 0.448150
v -0.297739 -0.104480 0.439538
v -0.280699 -0.205590 0.414036
v -0.253027 -0.298773 0.372623
v -0.215787 -0.380449 0.316890
v -0.170411 -0.447479 0.248979
v -0.118641 -0.497286 0.171499
v -0.062467 -0.527958 0.087430
v -0.078401 0.529299 0.074353
v -0.149897 0.498628 0.145848
v -0.215787 0.448820 0.211739
v -0.273541 0.381791 0.269492
v -0.320938 0.300115 0.316890
v -0.356157 0.206931 0.352109
v -0.377845 0.105821 0.373797
v -0.385168 0.000671 0.381120
v -0.377845 -0.104480 0.373797
v -0.356157 -0.205590 0.352109
v -0.320938 -0.298773 0.316890
v -0.273541 -0.380449 0.269492
v -0.215787 -0.447479 0.211739
v -0.149897 -0.497286 0.145848
v -0.078401 -0.527958 0.074353
v -0.091478 0.529299 0.058419
v -0.175548 0.498628 0.114592
v -0.253027 0.448820 0.166362
v -0.320938 0.381791 0.211739
v -0.376671 0.300115 0.248979
v -0.418085 0.206931 0.276650
v -0.443587 0.105821 0.293690
v -0.452198 0.000671 0.299444
v -0.443587 -0.104480 0.293690
v -0.418085 -0.205590 0.276650
v -0.376671 -0.298773 0.248979
v -0.320938 -0.380449 0.211739
v -0.253027 -0.447479 0.166362
v -0.175548 -0.497286 0.114592
v -0.091478 -0.527958 0.058419
v -0.101195 0.529299 0.040239
v -0.194609 0.498628 0.078933
v -0.280699 0.448820 0.114592
v -0.356157 0.381791 0.145848
v -0.418085 0.300115 0.171499
v -0.464101 0.206931 0.190560
v -0.492437 0.105821 0.202297
v -0.502006 0.000671 0.206261
v -0.492437 -0.104480 0.202297
v -0.464101 -0.205590 0.190560
v -0.418085 -0.298773 0.171499
v -0.356157 -0.380449 0.145848
v -0.280699 -0.447479 0.114592
v -0.194608 -0.497286 0.078933
v -0.101195 -0.527958 0.040239
v -0.107179 0.529299 0.020514
v -0.206346 0.498628 0.040239
v -0.297739 0.448820 0.058419
v -0.377845 0.381791 0.074353
v -0.443587 0.300115 0.087430
v -0.492437 0.206931 0.097147
v -0.522519 0.105821 0.103130
v -0.532677 0.000671 0.105151
v -0.522519 -0.104480 0.103130
v -0.492437 -0.205590 0.097147
v -0.443587 -0.298773 0.087430
v -0.377845 -0.380449 0.074353
v -0.297739 -0.447479 0.058419
v -0.206346 -0.497286 0.040239
v -0.107179 -0.527958 0.020514
v -0.109199 0.529299 -0.000000
v -0.210309 0.498628 -0.000000
v -0.303493 0.448820 -0.000000
v -0.385168 0.381791 -0.000000
v -0.452198 0.300115 -0.000000
v -0.502006 0.206931 -0.000000
v -0.532677 0.105821 -0.000000
v -0.543033 0.000671 -0.000000
v -0.532677 -0.104480 -0.000000
v -0.502006 -0.205590 0.000000
v -0.452198 -0.298773 -0.000000
v -0.385168 -0.380449 -0.000000
v -0.303492 -0.447479 -0.000000
v -0.210309 -0.497286 -0.000000
v -0.109199 -0.527958 -0.000000
v -0.107179 0.529299 -0.020514
v -0.206346 0.498628 -0.040240
v -0.297739 0.448820 -0.058419
v -0.377845 0.381791 -0.074353
v -0.443587 0.300115 -0.087430
v -0.492437 0.206931 -0.097147
v -0.522519 0.105821 -0.103130
v -0.532677 0.000671 -0.105151
v -0.522519 -0.104480 -0.103130
v -0.492437 -0.205590 -0.097147
v -0.443587 -0.298773 -0.087430
v -0.377845 -0.380449 -0.074353
v -0.297739 -0.447479 -0.058419
v -0.206346 -0.497286 -0.040239
v -0.107179 -0.527958 -0.020514
v -0.101195 0.529299 -0.040240
v -0.194608 0.498628 -0.078933
v -0.280699 0.448820 -0.114592
v -0.356157 0.381791 -0.145848
v -0.418085 0.300115 -0.171499
v -0.464101 0.206931 -0.190560
v -0.492437 0.105821 -0.202297
v -0.502006 0.000671 -0.206261
v -0.492437 -0.104480 -0.202297
v -0.464101 -0.205590 -0.190560
v -0.418085 -0.298773 -0.171499
v -0.356157 -0.380449 -0.145848
v -0.280699 -0.447479 -0.114592
v -0.194608 -0.497286 -0.078933
v -0.101195 -0.527958 -0.040239
v -0.091478 0.529299 -0.058419
v -0.175548 0.498628 -0.114592
v -0.253027 0.448820 -0.166362
v -0.320938 0.381791 -0.211739
v -0.376671 0.300115 -0.248979
v -0.418085 0.206931 -0.276650
v -0.443587 0.105821 -0.293690
v -0.452198 0.000671 -0.299444
v -0.443587 -0.104480 -0.293690
v -0.418085 -0.205590 -0.276650
v -0.376671 -0.298773 -0.248979
v -0.320938 -0.380449 -0.211739
v -0.253027 -0.447479 -0.166362
v -0.175548 -0.497286 -0.114592
v -0.091478 -0.527958 -0.058419
v -0.078401 0.529299 -0.074353
v -0.149897 0.498628 -0.145848
v -0.215787 0.448820 -0.211739
v -0.273541 0.381791 -0.269492
v -0.320938 0.300115 -0.316890
v -0.356157 0.206931 -0.352109
v -0.377845 0.105821 -0.373797
v -0.385168 0.000671 -0.381120
v -0.377845 -0.104480 -0.373797
v -0.356157 -0.205590 -0.352109
v -0.320938 -0.298773 -0.316890
v -0.273541 -0.380449 -0.269492
v -0.215787 -0.447479 -0.211739
v -0.149897 -0.497286 -0.145848
v -0.078401 -0.527958 -0.074353
v -0.062467 0.529299 -0.087430
v -0.118641 0.498628 -0.171499
v -0.170411 0.448820 -0.248979
v -0.215787 0.381791 -0.316890
v -0.253027 0.300115 -0.372623
v -0.280699 0.206931 -0.414036
v -0.297739 0.105821 -0.439538
v -0.303492 0.000671 -0.448150
v -0.297739 -0.104480 -0.439538
v -0.280699 -0.205590 -0.414036
v -0.253027 -0.298773 -0.372623
v -0.215787 -0.380449 -0.316890
v -0.170411 -0.447479 -0.248979
v -0.118641 -0.497286 -0.171499
v -0.062467 -0.527958 -0.087430
v -0.004048 -0.538314 -0.000000
v -0.044288 0.529299 -0.097147
v -0.082981 0.498628 -0.190560
v -0.118641 0.448820 -0.276650
v -0.149897 0.381791 -0.352109
v -0.175548 0.300115 -0.414036
v -0.194608 0.206931 -0.460052
v -0.206346 0.105821 -0.488389
v -0.210309 0.000671 -0.497957
v -0.206346 -0.104480 -0.488389
v -0.194608 -0.205590 -0.460052
v -0.175548 -0.298773 -0.414036
v -0.149897 -0.380449 -0.352109
v -0.118641 -0.447479 -0.276650
v -0.082981 -0.497286 -0.190560
v -0.044288 -0.527958 -0.097147
v -0.024562 0.529299 -0.103130
v -0.044288 0.498628 -0.202297
v -0.062467 0.448820 -0.293690
v -0.078401 0.381791 -0.373797
v -0.091478 0.300115 -0.439538
v -0.101195 0.206931 -0.488389
v -0.107179 0.105821 -0.518471
v -0.109199 0.000671 -0.528628
v -0.107179 -0.104480 -0.518471
v -0.101195 -0.205590 -0.488389
v -0.091478 -0.298773 -0.439538
v -0.078401 -0.380449 -0.373797
v -0.062467 -0.447479 -0.293690
v -0.044288 -0.497286 -0.202297
v -0.024562 -0.527958 -0.103130
v -0.004048 0.529299 -0.105151
v -0.004048 0.498628 -0.206261
v -0.004048 0.448820 -0.299444
v -0.004048 0.381791 -0.381120
v -0.004048 0.300115 -0.448149
v -0.004048 0.206931 -0.497957
v -0.004048 0.105821 -0.528628
v -0.004048 0.000671 -0.538985
v -0.004048 -0.104480 -0.528628
v -0.004048 -0.205590 -0.497957
v -0.004048 -0.298773 -0.448149
v -0.004048 -0.380449 -0.381120
v -0.004048 -0.447479 -0.299444
v -0.004048 -0.497286 -0.206261
v -0.004048 -0.527958 -0.105151
v 0.016465 0.529299 -0.103130
v 0.036191 0.498628 -0.202297
v 0.054370 0.448820 -0.293690
v 0.070304 0.381791 -0.373797
v 0.083381 0.300115 -0.439538
v 0.093098 0.206931 -0.488389
v 0.099082 0.105821 -0.518471
v 0.101102 0.000671 -0.528628
v 0.099082 -0.104480 -0.518471
v 0.093098 -0.205590 -0.488389
v 0.083381 -0.298773 -0.439538
v 0.070304 -0.380449 -0.373797
v 0.054370 -0.447479 -0.293690
v 0.036191 -0.497286 -0.202297
v 0.016465 -0.527958 -0.103130
v 0.036191 0.529299 -0.097147
v 0.074884 0.498628 -0.190560
v 0.110544 0.448820 -0.276650
v 0.141800 0.381791 -0.352109
v 0.167451 0.300115 -0.414036
v 0.186511 0.206931 -0.460052
v 0.198249 0.105821 -0.488389
v 0.202212 0.000671 -0.497957
v 0.198249 -0.104480 -0.488389
v 0.186511 -0.205590 -0.460052
v 0.167451 -0.298773 -0.414036
v 0.141800 -0.380449 -0.352109
v 0.110544 -0.447479 -0.276650
v 0.074884 -0.497286 -0.190560
v 0.036191 -0.527958 -0.097147
v 0.054370 0.529299 -0.087430
v 0.110544 0.498628 -0.171499
v 0.162314 0.448820 -0.248979
v 0.207690 0.381791 -0.316890
v 0.244930 0.300115 -0.372623
v 0.272602 0.206931 -0.414036
v 0.289642 0.105821 -0.439538
v 0.295396 0.000671 -0.448149
v 0.289642 -0.104480 -0.439538
v 0.272602 -0.205590 -0.414036
v 0.244930 -0.298773 -0.372623
v 0.207690 -0.380449 -0.316890
v 0.162314 -0.447479 -0.248979
v 0.110544 -0.497286 -0.171499
v 0.054370 -0.527958 -0.087430
v -0.004048 0.539656 -0.000000
v 0.070304 0.529299 -0.074353
v 0.141800 0.498628 -0.145848
v 0.207690 0.448820 -0.211739
v 0.265444 0.381791 -0.269492
v 0.312841 0.300115 -0.316889
v 0.348060 0.206931 -0.352109
v 0.369748 0.105821 -0.373797
v 0.377071 0.000671 -0.381120
v 0.369748 -0.104480 -0.373797
v 0.348060 -0.205590 -0.352109
v 0.312841 -0.298773 -0.316889
v 0.265444 -0.380449 -0.269492
v 0.207690 -0.447479 -0.211739
v 0.141800 -0.497286 -0.145848
v 0.070304 -0.527958 -0.074353
v 0.083381 0.529299 -0.058419
v 0.167451 0.498628 -0.114592
v 0.244930 0.448820 -0.166362
v 0.312841 0.381791 -0.211739
v 0.368574 0.300115 -0.248978
v 0.409988 0.206931 -0.276650
v 0.435490 0.105821 -0.293690
v 0.444101 0.000671 -0.299444
v 0.435490 -0.104480 -0.293690
v 0.409988 -0.205590 -0.276650
v 0.368574 -0.298773 -0.248978
v 0.312841 -0.380449 -0.211739
v 0.244930 -0.447479 -0.166362
v 0.167451 -0.497286 -0.114592
v 0.083381 -0.527958 -0.058419
v 0.093098 0.529299 -0.040240
v 0.186511 0.498628 -0.078932
v 0.272602 0.448820 -0.114592
v 0.348060 0.381791 -0.145848
v 0.409987 0.300115 -0.171499
v 0.456004 0.206931 -0.190560
v 0.484340 0.105821 -0.202297
v 0.493909 0.000671 -0.206260
v 0.484340 -0.104480 -0.202297
v 0.456004 -0.205590 -0.190560
v 0.409987 -0.298773 -0.171499
v 0.348060 -0.380449 -0.145848
v 0.272602 -0.447479 -0.114592
v 0.186511 -0.497286 -0.078932
v 0.093098 -0.527958 -0.040239
v 0.099082 0.529299 -0.020514
v 0.198249 0.498628 -0.040239
v 0.289642 0.448820 -0.058419
v 0.369748 0.381791 -0.074353
v 0.435490 0.300115 -0.087430
v 0.484340 0.206931 -0.097147
v 0.514422 0.105821 -0.103130
v 0.524580 0.000671 -0.105151
v 0.514422 -0.104480 -0.103130
v 0.484340 -0.205590 -0.097147
v 0.435490 -0.298773 -0.087430
v 0.369748 -0.380449 -0.074353
v 0.289642 -0.447479 -0.058419
v 0.198249 -0.497286 -0.040239
v 0.099082 -0.527958 -0.020514
v 0.101102 0.529299 -0.000000
v 0.202212 0.498628 -0.000000
v 0.295395 0.448820 -0.000000
v 0.377071 0.381791 0.000000
v 0.444101 0.300115 0.000000
v 0.493909 0.206931 -0.000000
v 0.524580 0.105821 0.000000
v 0.534936 0.000671 0.000000
v 0.524580 -0.104480 0.000000
v 0.493909 -0.205590 -0.000000
v 0.444101 -0.298773 0.000000
v 0.377071 -0.380449 0.000000
v 0.295395 -0.447479 -0.000000
v 0.202212 -0.497286 0.000000
v 0.101102 -0.527958 -0.000000
v 0.099082 0.529299 0.020514
v 0.198249 0.498628 0.040239
v 0.289642 0.448820 0.058419
v 0.369748 0.381791 0.074353
v 0.435490 0.300115 0.087430
v 0.484340 0.206931 0.097147
v 0.514422 0.105821 0.103130
v 0.524580 0.000671 0.105151
v 0.514422 -0.104480 0.103130
v 0.484340 -0.205590 0.097147
v 0.435490 -0.298773 0.087430
v 0.369748 -0.380449 0.074353
v 0.289642 -0.447479 0.058419
v 0.198249 -0.497286 0.040239
v 0.099082 -0.527958 0.020514
v 0.093098 0.529299 0.040239
v 0.186511 0.498628 0.078932
v 0.272602 0.448820 0.114592
v 0.348060 0.381791 0.145848
v 0.409987 0.300115 0.171499
v 0.456004 0.206931 0.190560
v 0.484340 0.105821 0.202297
v 0.493908 0.000671 0.206261
v 0.484340 -0.104480 0.202297
v 0.456004 -0.205590 0.190560
v 0.409987 -0.298773 0.171499
v 0.348060 -0.380449 0.145848
v 0.272601 -0.447479 0.114592
v 0.186511 -0.497286 0.078932
v 0.093098 -0.527958 0.040239
v 0.083381 0.529299 0.058419
v 0.167451 0.498628 0.114592
v 0.244930 0.448820 0.166362
v 0.312841 0.381791 0.211739
v 0.368574 0.300115 0.248978
v 0.409988 0.206931 0.276650
v 0.435490 0.105821 0.293690
v 0.444101 0.000671 0.299444
v 0.435490 -0.104480 0.293690
v 0.409988 -0.205590 0.276650
v 0.368574 -0.298773 0.248978
v 0.312841 -0.380449 0.211739
v 0.244930 -0.447479 0.166362
v 0.167451 -0.497286 0.114592
v 0.083381 -0.527958 0.058419
v 0.070304 0.529299 0.074353
v 0.141800 0.498628 0.145848
v 0.207690 0.448820 0.211739
v 0.265444 0.381791 0.269492
v 0.312841 0.300115 0.316889
v 0.348060 0.206931 0.352109
v 0.369748 0.105821 0.373797
v 0.377071 0.000671 0.381120
v 0.369748 -0.104480 0.373797
v 0.348060 -0.205590 0.352109
v 0.312841 -0.298773 0.316889
v 0.265444 -0.380449 0.269492
v 0.207690 -0.447479 0.211739
v 0.141800 -0.497286 0.145848
v 0.070304 -0.527958 0.074353
v 0.054370 0.529299 0.087430
v 0.110544 0.498628 0.171499
v 0.162314 0.448820 0.248978
v 0.207690 0.381791 0.316889
v 0.244930 0.300115 0.372623
v 0.272602 0.206931 0.414036
v 0.289641 0.105821 0.439538
v 0.295395 0.000671 0.448149
v 0.289641 -0.104480 0.439538
v 0.272602 -0.205590 0.414036
v 0.244930 -0.298773 0.372623
v 0.207690 -0.380449 0.316889
v 0.162314 -0.447479 0.248978
v 0.110544 -0.497286 0.171499
v 0.054370 -0.527958 0.087430
v 0.036191 0.529299 0.097147
v 0.074884 0.498628 0.190560
v 0.110544 0.448820 0.276650
v 0.141800 0.381791 0.352109
v 0.167451 0.300115 0.414036
v 0.186511 0.206931 0.460052
v 0.198249 0.105821 0.488389
v 0.202212 0.000671 0.497957
v 0.198249 -0.104480 0.488389
v 0.186511 -0.205590 0.460052
v 0.167451 -0.298773 0.414036
v 0.141800 -0.380449 0.352109
v 0.110544 -0.447479 0.276650
v 0.074884 -0.497286 0.190560
v 0.036191 -0.527958 0.097147
v 0.016465 0.529299 0.103130
v 0.036191 0.498628 0.202297
v 0.054370 0.448820 0.293690
v 0.070304 0.381791 0.373797
v 0.083381 0.300115 0.439538
v 0.093098 0.206931 0.488389
v 0.099082 0.105821 0.518471
v 0.101102 0.000671 0.528628
v 0.099082 -0.104480 0.518471
v 0.093098 -0.205590 0.488389
v 0.083381 -0.298773 0.439538
v 0.070304 -0.380449 0.373797
v 0.054370 -0.447479 0.293690
v 0.036191 -0.497286 0.202297
v 0.016465 -0.527958 0.103130
v -0.004048 -0.205590 0.497957
v -0.004049 -0.298773 0.448149
v -0.004049 -0.380449 0.381120
v -0.004049 -0.497286 0.206260
v -0.004048 -0.527958 0.105151
vn -0.0000 0.9796 0.2010
vn -0.0000 0.9217 0.3879
vn -0.0000 0.8286 0.5598
vn -0.0000 0.7041 0.7101
vn -0.0000 0.5528 0.8333
vn -0.0000 0.3805 0.9248
vn -0.0000 0.1939 0.9810
vn -0.0000 -0.0000 1.0000
vn -0.0000 -0.1939 0.9810
vn -0.0000 -0.8286 0.5598
vn -0.0392 0.9796 0.1971
vn -0.0757 0.9217 0.3804
vn -0.1092 0.8286 0.5490
vn -0.1385 0.7041 0.6965
vn -0.1626 0.5528 0.8173
vn -0.1804 0.3805 0.9070
vn -0.1914 0.1939 0.9622
vn -0.1951 -0.0000 0.9808
vn -0.1914 -0.1939 0.9622
vn -0.1804 -0.3805 0.9070
vn -0.1626 -0.5528 0.8173
vn -0.1385 -0.7041 0.6965
vn -0.1092 -0.8286 0.5490
vn -0.0757 -0.9217 0.3804
vn -0.0392 -0.9796 0.1971
vn -0.0769 0.9796 0.1857
vn -0.1484 0.9217 0.3584
vn -0.2142 0.8286 0.5172
vn -0.2718 0.7041 0.6561
vn -0.3189 0.5528 0.7699
vn -0.3539 0.3805 0.8544
vn -0.3754 0.1939 0.9063
vn -0.3827 -0.0000 0.9239
vn -0.3754 -0.1939 0.9063
vn -0.3539 -0.3805 0.8544
vn -0.3189 -0.5528 0.7699
vn -0.2718 -0.7041 0.6561
vn -0.2142 -0.8286 0.5172
vn -0.1484 -0.9217 0.3584
vn -0.0769 -0.9796 0.1857
vn -0.1117 0.9796 0.1671
vn -0.2155 0.9217 0.3225
vn -0.3110 0.8286 0.4654
vn -0.3945 0.7041 0.5905
vn -0.4630 0.5528 0.6929
vn -0.5138 0.3805 0.7689
vn -0.5450 0.1939 0.8157
vn -0.5556 -0.0000 0.8315
vn -0.5450 -0.1939 0.8157
vn -0.5138 -0.3805 0.7689
vn -0.4630 -0.5528 0.6929
vn -0.3945 -0.7041 0.5905
vn -0.3110 -0.8286 0.4654
vn -0.2155 -0.9217 0.3225
vn -0.1117 -0.9796 0.1671
vn -0.1421 0.9796 0.1421
vn -0.2743 0.9217 0.2743
vn -0.3958 0.8286 0.3958
vn -0.5021 0.7041 0.5021
vn -0.5893 0.5528 0.5893
vn -0.6539 0.3805 0.6539
vn -0.6937 0.1939 0.6937
vn -0.7071 -0.0000 0.7071
vn -0.6937 -0.1939 0.6937
vn -0.6539 -0.3805 0.6539
vn -0.5893 -0.5528 0.5893
vn -0.5021 -0.7041 0.5021
vn -0.3958 -0.8286 0.3958
vn -0.2743 -0.9217 0.2743
vn -0.1421 -0.9796 0.1421
vn -0.1671 0.9796 0.1117
vn -0.3225 0.9217 0.2155
vn -0.4654 0.8286 0.3110
vn -0.5905 0.7041 0.3945
vn -0.6929 0.5528 0.4630
vn -0.7689 0.3805 0.5138
vn -0.8157 0.1939 0.5450
vn -0.8315 -0.0000 0.5556
vn -0.8157 -0.1939 0.5450
vn -0.7689 -0.3805 0.5138
vn -0.6929 -0.5528 0.4630
vn -0.5905 -0.7041 0.3945
vn -0.4654 -0.8286 0.3110
vn -0.3225 -0.9217 0.2155
vn -0.1671 -0.9796 0.1117
vn -0.1857 0.9796 0.0769
vn -0.3584 0.9217 0.1484
vn -0.5172 0.8286 0.2142
vn -0.6561 0.7041 0.2718
vn -0.7699 0.5528 0.3189
vn -0.8544 0.3805 0.3539
vn -0.9063 0.1939 0.3754
vn -0.9239 -0.0000 0.3827
vn -0.9063 -0.1939 0.3754
vn -0.8544 -0.3805 0.3539
vn -0.7699 -0.5528 0.3189
vn -0.6561 -0.7041 0.2718
vn -0.5172 -0.8286 0.2142
vn -0.3584 -0.9217 0.1484
vn -0.1857 -0.9796 0.0769
vn -0.1971 0.9796 0.0392
vn -0.3804 0.9217 0.0757
vn -0.5490 0.8286 0.1092
vn -0.6965 0.7041 0.1385
vn -0.8173 0.5528 0.1626
vn -0.9070 0.3805 0.1804
vn -0.9622 0.1939 0.1914
vn -0.9808 -0.0000 0.1951
vn -0.9622 -0.1939 0.1914
vn -0.9070 -0.3805 0.1804
vn -0.8173 -0.5528 0.1626
vn -0.6965 -0.7041 0.1385
vn -0.5490 -0.8286 0.1092
vn -0.3804 -0.9217 0.0757
vn -0.1971 -0.9796 0.0392
vn -0.2010 0.9796 -0.0000
vn -0.3879 0.9217 -0.0000
vn -0.5598 0.8286 -0.0000
vn -0.7101 0.7041 -0.0000
vn -0.8333 0.5528 -0.0000
vn -0.9248 0.3805 -0.0000
vn -0.9810 0.1939 -0.0000
vn -1.0000 -0.0000 -0.0000
vn -0.9810 -0.1939 -0.0000
vn -0.9248 -0.3805 -0.0000
vn -0.8333 -0.5528 -0.0000
vn -0.7101 -0.7041 -0.0000
vn -0.5598 -0.8286 -0.0000
vn -0.3879 -0.9217 -0.0000
vn -0.2010 -0.9796 -0.0000
vn -0.1971 0.9796 -0.0392
vn -0.3804 0.9217 -0.0757
vn -0.5490 0.8286 -0.1092
vn -0.6965 0.7041 -0.1385
vn -0.8173 0.5528 -0.1626
vn -0.9070 0.3805 -0.1804
vn -0.9622 0.1939 -0.1914
vn -0.9808 -0.0000 -0.1951
vn -0.9622 -0.1939 -0.1914
vn -0.9070 -0.3805 -0.1804
vn -0.8173 -0.5528 -0.1626
vn -0.6965 -0.7041 -0.1385
vn -0.5490 -0.8286 -0.1092
vn -0.3804 -0.9217 -0.0757
vn -0.1971 -0.9796 -0.0392
vn -0.1857 0.9796 -0.0769
vn -0.3584 0.9217 -0.1484
vn -0.5172 0.8286 -0.2142
vn -0.6561 0.7041 -0.2718
vn -0.7699 0.5528 -0.3189
vn -0.8544 0.3805 -0.3539
vn -0.9063 0.1939 -0.3754
vn -0.9239 -0.0000 -0.3827
vn -0.9063 -0.1939 -0.3754
vn -0.8544 -0.3805 -0.3539
vn -0.7699 -0.5528 -0.3189
vn -0.6561 -0.7041 -0.2718
vn -0.5172 -0.8286 -0.2142
vn -0.3584 -0.9217 -0.1484
vn -0.1857 -0.9796 -0.0769
vn -0.1671 0.9796 -0.1117
vn -0.3225 0.9217 -0.2155
vn -0.4654 0.8286 -0.3110
vn -0.5905 0.7041 -0.3945
vn -0.6929 0.5528 -0.4630
vn -0.7689 0.3805 -0.5138
vn -0.8157 0.1939 -0.5450
vn -0.8315 -0.0000 -0.5556
vn -0.8157 -0.1939 -0.5450
vn -0.7689 -0.3805 -0.5138
vn -0.6929 -0.5528 -0.4630
vn -0.5905 -0.7041 -0.3945
vn -0.4654 -0.8286 -0.3110
vn -0.3225 -0.9217 -0.2155
vn -0.1671 -0.9796 -0.1117
vn -0.1421 0.9796 -0.1421
vn -0.2743 0.9217 -0.2743
vn -0.3958 0.8286 -0.3958
vn -0.5021 0.7041 -0.5021
vn -0.5893 0.5528 -0.5893
vn -0.6539 0.3805 -0.6539
vn -0.6937 0.1939 -0.6937
vn -0.7071 -0.0000 -0.7071
vn -0.6937 -0.1939 -0.6937
vn -0.6539 -0.3805 -0.6539
vn -0.5893 -0.5528 -0.5893
vn -0.5021 -0.7041 -0.5021
vn -0.3958 -0.8286 -0.3958
vn -0.2743 -0.9217 -0.2743
vn -0.1421 -0.9796 -0.1421
vn -0.1117 0.9796 -0.1671
vn -0.2155 0.9217 -0.3225
vn -0.3110 0.8286 -0.4654
vn -0.3945 0.7041 -0.5905
vn -0.4630 0.5528 -0.6929
vn -0.5138 0.3805 -0.7689
vn -0.5450 0.1939 -0.8157
vn -0.5556 -0.0000 -0.8315
vn -0.5450 -0.1939 -0.8157
vn -0.5138 -0.3805 -0.7689
vn -0.4630 -0.5528 -0.6929
vn -0.3945 -0.7041 -0.5905
vn -0.3110 -0.8286 -0.4654
vn -0.2155 -0.9217 -0.3225
vn -0.1117 -0.9796 -0.1671
vn -0.0000 -1.0000 -0.0000
vn -0.0769 0.9796 -0.1857
vn -0.1484 0.9217 -0.3584
vn -0.2142 0.8286 -0.5172
vn -0.2718 0.7041 -0.6561
vn -0.3189 0.5528 -0.7699
vn -0.3539 0.3805 -0.8544
vn -0.3754 0.1939 -0.9063
vn -0.3827 -0.0000 -0.9239
vn -0.3754 -0.1939 -0.9063
vn -0.3539 -0.3805 -0.8544
vn -0.3189 -0.5528 -0.7699
vn -0.2718 -0.7041 -0.6561
vn -0.2142 -0.8286 -0.5172
vn -0.1484 -0.9217 -0.3584
vn -0.0769 -0.9796 -0.1857
vn -0.0392 0.9796 -0.1971
vn -0.0757 0.9217 -0.3804
vn -0.1092 0.8286 -0.5490
vn -0.1385 0.7041 -0.6965
vn -0.1626 0.5528 -0.8173
vn -0.1804 0.3805 -0.9070
vn -0.1914 0.1939 -0.9622
vn -0.1951 -0.0000 -0.9808
vn -0.1914 -0.1939 -0.9622
vn -0.1804 -0.3805 -0.9070
vn -0.1626 -0.5528 -0.8173
vn -0.1385 -0.7041 -0.6965
vn -0.1092 -0.8286 -0.5490
vn -0.0757 -0.9217 -0.3804
vn -0.0392 -0.9796 -0.1971
vn -0.0000 0.9796 -0.2010
vn -0.0000 0.9217 -0.3879
vn -0.0000 0.8286 -0.5598
vn -0.0000 0.7041 -0.7101
vn -0.0000 0.5528 -0.8333
vn -0.0000 0.3805 -0.9248
vn -0.0000 0.1939 -0.9810
vn -0.0000 -0.0000 -1.0000
vn -0.0000 -0.1939 -0.9810
vn -0.0000 -0.3805 -0.9248
vn -0.0000 -0.5528 -0.8333
vn -0.0000 -0.7041 -0.7101
vn -0.0000 -0.8286 -0.5598
vn -0.0000 -0.9217 -0.3879
vn -0.0000 -0.9796 -0.2010
vn 0.0392 0.9796 -0.1971
vn 0.0757 0.9217 -0.3804
vn 0.1092 0.8286 -0.5490
vn 0.1385 0.7041 -0.6965
vn 0.1626 0.5528 -0.8173
vn 0.1804 0.3805 -0.9070
vn 0.1914 0.1939 -0.9622
vn 0.1951 -0.0000 -0.9808
vn 0.1914 -0.1939 -0.9622
vn 0.1804 -0.3805 -0.9070
vn 0.1626 -0.5528 -0.8173
vn 0.1385 -0.7041 -0.6965
vn 0.1092 -0.8286 -0.5490
vn 0.0757 -0.9217 -0.3804
vn 0.0392 -0.9796 -0.1971
vn 0.0769 0.9796 -0.1857
vn 0.1484 0.9217 -0.3584
vn 0.2142 0.8286 -0.5172
vn 0.2718 0.7041 -0.6561
vn 0.3189 0.5528 -0.7699
vn 0.3539 0.3805 -0.8544
vn 0.3754 0.1939 -0.9063
vn 0.3827 -0.0000 -0.9239
vn 0.3754 -0.1939 -0.9063
vn 0.3539 -0.3805 -0.8544
vn 0.3189 -0.5528 -0.7699
vn 0.2718 -0.7041 -0.6561
vn 0.2142 -0.8286 -0.5172
vn 0.1484 -0.9217 -0.3584
vn 0.0769 -0.9796 -0.1857
vn 0.1117 0.9796 -0.1671
vn 0.2155 0.9217 -0.3225
vn 0.3110 0.8286 -0.4654
vn 0.3945 0.7041 -0.5905
vn 0.4630 0.5528 -0.6929
vn 0.5138 0.3805 -0.7689
vn 0.5450 0.1939 -0.8157
vn 0.5556 -0.0000 -0.8315
vn 0.5450 -0.1939 -0.8157
vn 0.5138 -0.3805 -0.7689
vn 0.4630 -0.5528 -0.6929
vn 0.3945 -0.7041 -0.5905
vn 0.3110 -0.8286 -0.4654
vn 0.2155 -0.9217 -0.3225
vn 0.1117 -0.9796 -0.1671
vn -0.0000 1.0000 -0.0000
vn 0.1421 0.9796 -0.1421
vn 0.2743 0.9217 -0.2743
vn 0.3958 0.8286 -0.3958
vn 0.5021 0.7041 -0.5021
vn 0.5893 0.5528 -0.5893
vn 0.6539 0.3805 -0.6539
vn 0.6937 0.1939 -0.6937
vn 0.7071 -0.0000 -0.7071
vn 0.6937 -0.1939 -0.6937
vn 0.6539 -0.3805 -0.6539
vn 0.5893 -0.5528 -0.5893
vn 0.5021 -0.7041 -0.5021
vn 0.3958 -0.8286 -0.3958
vn 0.2743 -0.9217 -0.2743
vn 0.1421 -0.9796 -0.1421
vn 0.1671 0.9796 -0.1117
vn 0.3225 0.9217 -0.2155
vn 0.4654 0.8286 -0.3110
vn 0.5905 0.7041 -0.3945
vn 0.6929 0.5528 -0.4630
vn 0.7689 0.3805 -0.5138
vn 0.8157 0.1939 -0.5450
vn 0.8315 -0.0000 -0.5556
vn 0.8157 -0.1939 -0.5450
vn 0.7689 -0.3805 -0.5138
vn 0.6929 -0.5528 -0.4630
vn 0.5905 -0.7041 -0.3945
vn 0.4654 -0.8286 -0.3110
vn 0.3225 -0.9217 -0.2155
vn 0.1671 -0.9796 -0.1117
vn 0.1857 0.9796 -0.0769
vn 0.3584 0.9217 -0.1484
vn 0.5172 0.8286 -0.2142
vn 0.6561 0.7041 -0.2718
vn 0.7699 0.5528 -0.3189
vn 0.8544 0.3805 -0.3539
vn 0.9063 0.1939 -0.3754
vn 0.9239 -0.0000 -0.3827
vn 0.9063 -0.1939 -0.3754
vn 0.8544 -0.3805 -0.3539
vn 0.7699 -0.5528 -0.3189
vn 0.6561 -0.7041 -0.2718
vn 0.5172 -0.8286 -0.2142
vn 0.3584 -0.9217 -0.1484
vn 0.1857 -0.9796 -0.0769
vn 0.1971 0.9796 -0.0392
vn 0.3804 0.9217 -0.0757
vn 0.5490 0.8286 -0.1092
vn 0.6965 0.7041 -0.1385
vn 0.8173 0.5528 -0.1626
vn 0.9070 0.3805 -0.1804
vn 0.9622 0.1939 -0.1914
vn 0.9808 -0.0000 -0.1951
vn 0.9622 -0.1939 -0.1914
vn 0.9070 -0.3805 -0.1804
vn 0.8173 -0.5528 -0.1626
vn 0.6965 -0.7041 -0.1385
vn 0.5490 -0.8286 -0.1092
vn 0.3804 -0.9217 -0.0757
vn 0.1971 -0.9796 -0.0392
vn 0.2010 0.9796 -0.0000
vn 0.3879 0.9217 -0.0000
vn 0.5598 0.8286 -0.0000
vn 0.7101 0.7041 -0.0000
vn 0.8333 0.5528 -0.0000
vn 0.9248 0.3805 -0.0000
vn 0.9810 0.1939 -0.0000
vn 1.0000 -0.0000 -0.0000
vn 0.9810 -0.1939 -0.0000
vn 0.9248 -0.3805 -0.0000
vn 0.8333 -0.5528 -0.0000
vn 0.7101 -0.7041 -0.0000
vn 0.5598 -0.8286 -0.0000
vn 0.3879 -0.9217 -0.0000
vn 0.2010 -0.9796 -0.0000
vn 0.1971 0.9796 0.0392
vn 0.3804 0.9217 0.0757
vn 0.5490 0.8286 0.1092
vn 0.6965 0.7041 0.1385
vn 0.8173 0.5528 0.1626
vn 0.9070 0.3805 0.1804
vn 0.9622 0.1939 0.1914
vn 0.9808 -0.0000 0.1951
vn 0.9622 -0.1939 0.1914
vn 0.9070 -0.3805 0.1804
vn 0.8173 -0.5528 0.1626
vn 0.6965 -0.7041 0.1385
vn 0.5490 -0.8286 0.1092
vn 0.3804 -0.9217 0.0757
vn 0.1971 -0.9796 0.0392
vn 0.1857 0.9796 0.0769
vn 0.3584 0.9217 0.1484
vn 0.5172 0.8286 0.2142
vn 0.6561 0.7041 0.2718
vn 0.7699 0.5528 0.3189
vn 0.8544 0.3805 0.3539
vn 0.9063 0.1939 0.3754
vn 0.9239 -0.0000 0.3827
vn 0.9063 -0.1939 0.3754
vn 0.8544 -0.3805 0.3539
vn 0.7699 -0.5528 0.3189
vn 0.6561 -0.7041 0.2718
vn 0.5172 -0.8286 0.2142
vn 0.3584 -0.9217 0.1484
vn 0.1857 -0.9796 0.0769
vn 0.1671 0.9796 0.1117
vn 0.3225 0.9217 0.2155
vn 0.4654 0.8286 0.3110
vn 0.5905 0.7041 0.3945
vn 0.6929 0.5528 0.4630
vn 0.7689 0.3805 0.5138
vn 0.8157 0.1939 0.5450
vn 0.8315 -0.0000 0.5556
vn 0.8157 -0.1939 0.5450
vn 0.7689 -0.3805 0.5138
vn 0.6929 -0.5528 0.4630
vn 0.5905 -0.7041 0.3945
vn 0.4654 -0.8286 0.3110
vn 0.3225 -0.9217 0.2155
vn 0.1671 -0.9796 0.1117
vn 0.1421 0.9796 0.1421
vn 0.2743 0.9217 0.2743
vn 0.3958 0.8286 0.3958
vn 0.5021 0.7041 0.5021
vn 0.5893 0.5528 0.5893
vn 0.6539 0.3805 0.6539
vn 0.6937 0.1939 0.6937
vn 0.7071 -0.0000 0.7071
vn 0.6937 -0.1939 0.6937
vn 0.6539 -0.3805 0.6539
vn 0.5893 -0.5528 0.5893
vn 0.5021 -0.7041 0.5021
vn 0.3958 -0.8286 0.3958
vn 0.2743 -0.9217 0.2743
vn 0.1421 -0.9796 0.1421
vn 0.1117 0.9796 0.1671
vn 0.2155 0.9217 0.3225
vn 0.3110 0.8286 0.4654
vn 0.3945 0.7041 0.5905
vn 0.4630 0.5528 0.6929
vn 0.5138 0.3805 0.7689
vn 0.5450 0.1939 0.8157
vn 0.5556 -0.0000 0.8315
vn 0.5450 -0.1939 0.8157
vn 0.5138 -0.3805 0.7689
vn 0.4630 -0.5528 0.6929
vn 0.3945 -0.7041 0.5905
vn 0.3110 -0.8286 0.4654
vn 0.2155 -0.9217 0.3225
vn 0.1117 -0.9796 0.1671
vn 0.0769 0.9796 0.1857
vn 0.1484 0.9217 0.3584
vn 0.2142 0.8286 0.5172
vn 0.2718 0.7041 0.6561
vn 0.3189 0.5528 0.7699
vn 0.3539 0.3805 0.8544
vn 0.3754 0.1939 0.9063
vn 0.3827 -0.0000 0.9239
vn 0.3754 -0.1939 0.9063
vn 0.3539 -0.3805 0.8544
vn 0.3189 -0.5528 0.7699
vn 0.2718 -0.7041 0.6561
vn 0.2142 -0.8286 0.5172
vn 0.1484 -0.9217 0.3584
vn 0.0769 -0.9796 0.1857
vn 0.0392 0.9796 0.1971
vn 0.0757 0.9217 0.3804
vn 0.1092 0.8286 0.5490
vn 0.1385 0.7041 0.6965
vn 0.1626 0.5528 0.8173
vn 0.1804 0.3805 0.9070
vn 0.1914 0.1939 0.9622
vn 0.1951 -0.0000 0.9808
vn 0.1914 -0.1939 0.9622
vn 0.1804 -0.3805 0.9070
vn 0.1626 -0.5528 0.8173
vn 0.1385 -0.7041 0.6965
vn 0.1092 -0.8286 0.5490
vn 0.0757 -0.9217 0.3804
vn 0.0392 -0.9796 0.1971
vn -0.0000 -0.3805 0.9248
vn -0.0000 -0.5528 0.8333
vn -0.0000 -0.7041 0.7101
vn -0.0000 -0.9217 0.3879
vn -0.0000 -0.9796 0.2010
vt 0.750000 0.312500
vt 0.718750 0.250000
vt 0.750000 0.250000
vt 0.750000 0.750000
vt 0.718750 0.687500
vt 0.750000 0.687500
vt 0.718750 0.187500
vt 0.750000 0.187500
vt 0.718750 0.625000
vt 0.750000 0.625000
vt 0.718750 0.125000
vt 0.750000 0.125000
vt 0.718750 0.562500
vt 0.750000 0.562500
vt 0.718750 0.062500
vt 0.750000 0.062500
vt 0.750000 0.500000
vt 0.718750 0.500000
vt 0.750000 0.937500
vt 0.734375 1.000000
vt 0.718750 0.937500
vt 0.734375 0.000000
vt 0.718750 0.437500
vt 0.750000 0.437500
vt 0.718750 0.875000
vt 0.750000 0.875000
vt 0.718750 0.375000
vt 0.750000 0.375000
vt 0.750000 0.812500
vt 0.718750 0.812500
vt 0.718750 0.312500
vt 0.718750 0.750000
vt 0.687500 0.875000
vt 0.687500 0.812500
vt 0.687500 0.375000
vt 0.687500 0.312500
vt 0.687500 0.750000
vt 0.687500 0.250000
vt 0.687500 0.687500
vt 0.687500 0.187500
vt 0.687500 0.625000
vt 0.687500 0.125000
vt 0.687500 0.562500
vt 0.687500 0.062500
vt 0.687500 0.500000
vt 0.703125 1.000000
vt 0.687500 0.937500
vt 0.703125 0.000000
vt 0.687500 0.437500
vt 0.656250 0.625000
vt 0.656250 0.562500
vt 0.656250 0.062500
vt 0.656250 0.500000
vt 0.671875 1.000000
vt 0.656250 0.937500
vt 0.671875 0.000000
vt 0.656250 0.437500
vt 0.656250 0.875000
vt 0.656250 0.375000
vt 0.656250 0.812500
vt 0.656250 0.312500
vt 0.656250 0.750000
vt 0.656250 0.250000
vt 0.656250 0.687500
vt 0.656250 0.187500
vt 0.656250 0.125000
vt 0.625000 0.375000
vt 0.625000 0.312500
vt 0.625000 0.812500
vt 0.625000 0.750000
vt 0.625000 0.250000
vt 0.625000 0.687500
vt 0.625000 0.187500
vt 0.625000 0.625000
vt 0.625000 0.125000
vt 0.625000 0.562500
vt 0.625000 0.062500
vt 0.625000 0.500000
vt 0.640625 1.000000
vt 0.625000 0.937500
vt 0.640625 0.000000
vt 0.625000 0.437500
vt 0.625000 0.875000
vt 0.593750 0.062500
vt 0.593750 0.562500
vt 0.593750 0.500000
vt 0.609375 1.000000
vt 0.593750 0.937500
vt 0.609375 0.000000
vt 0.593750 0.437500
vt 0.593750 0.875000
vt 0.593750 0.375000
vt 0.593750 0.812500
vt 0.593750 0.312500
vt 0.593750 0.750000
vt 0.593750 0.250000
vt 0.593750 0.687500
vt 0.593750 0.187500
vt 0.593750 0.625000
vt 0.593750 0.125000
vt 0.562500 0.250000
vt 0.562500 0.687500
vt 0.562500 0.187500
vt 0.562500 0.625000
vt 0.562500 0.125000
vt 0.562500 0.562500
vt 0.562500 0.062500
vt 0.562500 0.500000
vt 0.578125 1.000000
vt 0.562500 0.937500
vt 0.578125 0.000000
vt 0.562500 0.437500
vt 0.562500 0.875000
vt 0.562500 0.375000
vt 0.562500 0.812500
vt 0.562500 0.312500
vt 0.562500 0.750000
vt 0.546875 1.000000
vt 0.531250 0.937500
vt 0.546875 0.000000
vt 0.531250 0.062500
vt 0.531250 0.437500
vt 0.531250 0.875000
vt 0.531250 0.375000
vt 0.531250 0.812500
vt 0.531250 0.312500
vt 0.531250 0.750000
vt 0.531250 0.250000
vt 0.531250 0.687500
vt 0.531250 0.187500
vt 0.531250 0.625000
vt 0.531250 0.125000
vt 0.531250 0.562500
vt 0.531250 0.500000
vt 0.500000 0.687500
vt 0.500000 0.250000
vt 0.500000 0.187500
vt 0.500000 0.625000
vt 0.500000 0.125000
vt 0.500000 0.562500
vt 0.500000 0.062500
vt 0.500000 0.500000
vt 0.515625 1.000000
vt 0.500000 0.937500
vt 0.515625 0.000000
vt 0.500000 0.437500
vt 0.500000 0.875000
vt 0.500000 0.375000
vt 0.500000 0.812500
vt 0.500000 0.312500
vt 0.500000 0.750000
vt 0.468750 0.500000
vt 0.468750 0.437500
vt 0.468750 0.875000
vt 0.468750 0.375000
vt 0.468750 0.812500
vt 0.468750 0.312500
vt 0.468750 0.750000
vt 0.468750 0.250000
vt 0.468750 0.687500
vt 0.468750 0.187500
vt 0.468750 0.625000
vt 0.468750 0.125000
vt 0.468750 0.562500
vt 0.468750 0.062500
vt 0.484374 1.000000
vt 0.468750 0.937500
vt 0.484375 0.000000
vt 0.437500 0.250000
vt 0.437500 0.187500
vt 0.437500 0.625000
vt 0.437500 0.125000
vt 0.437500 0.562500
vt 0.437500 0.062500
vt 0.437500 0.500000
vt 0.453124 1.000000
vt 0.437500 0.937500
vt 0.453125 0.000000
vt 0.437500 0.437500
vt 0.437500 0.875000
vt 0.437500 0.375000
vt 0.437500 0.812500
vt 0.437500 0.312500
vt 0.437500 0.750000
vt 0.437500 0.687500
vt 0.406250 0.875000
vt 0.406250 0.375000
vt 0.406250 0.812500
vt 0.406250 0.312500
vt 0.406250 0.750000
vt 0.406250 0.250000
vt 0.406250 0.687500
vt 0.406250 0.187500
vt 0.406250 0.625000
vt 0.406250 0.125000
vt 0.406250 0.562500
vt 0.406250 0.062500
vt 0.406250 0.500000
vt 0.421874 1.000000
vt 0.406250 0.937500
vt 0.421875 0.000000
vt 0.406250 0.437500
vt 0.375000 0.625000
vt 0.375000 0.125000
vt 0.375000 0.562500
vt 0.375000 0.062500
vt 0.375000 0.500000
vt 0.390625 1.000000
vt 0.375000 0.937500
vt 0.390625 0.000000
vt 0.375000 0.437500
vt 0.375000 0.875000
vt 0.375000 0.375000
vt 0.375000 0.812500
vt 0.375000 0.312500
vt 0.375000 0.750000
vt 0.375000 0.250000
vt 0.375000 0.687500
vt 0.375000 0.187500
vt 0.343750 0.375000
vt 0.343750 0.875000
vt 0.343750 0.812500
vt 0.343750 0.312500
vt 0.343750 0.750000
vt 0.343750 0.250000
vt 0.343750 0.687500
vt 0.343750 0.187500
vt 0.343750 0.625000
vt 0.343750 0.125000
vt 0.343750 0.562500
vt 0.343750 0.062500
vt 0.343750 0.500000
vt 0.359375 1.000000
vt 0.343750 0.937500
vt 0.359375 0.000000
vt 0.343750 0.437500
vt 0.312500 0.187500
vt 0.312500 0.125000
vt 0.312500 0.625000
vt 0.312500 0.562500
vt 0.312500 0.062500
vt 0.312500 0.500000
vt 0.328125 1.000000
vt 0.312500 0.937500
vt 0.328125 0.000000
vt 0.312500 0.437500
vt 0.312500 0.875000
vt 0.312500 0.375000
vt 0.312500 0.812500
vt 0.312500 0.312500
vt 0.312500 0.750000
vt 0.312500 0.250000
vt 0.312500 0.687500
vt 0.281250 0.375000
vt 0.281250 0.312500
vt 0.281250 0.812500
vt 0.281250 0.750000
vt 0.281250 0.250000
vt 0.281250 0.687500
vt 0.281250 0.187500
vt 0.281250 0.625000
vt 0.281250 0.125000
vt 0.281250 0.562500
vt 0.281250 0.062500
vt 0.281250 0.500000
vt 0.296875 1.000000
vt 0.281250 0.937500
vt 0.296875 0.000000
vt 0.281250 0.437500
vt 0.281250 0.875000
vt 0.250000 0.125000
vt 0.250000 0.062500
vt 0.250000 0.500000
vt 0.265625 1.000000
vt 0.250000 0.937500
vt 0.265625 0.000000
vt 0.250000 0.437500
vt 0.250000 0.875000
vt 0.250000 0.375000
vt 0.250000 0.812500
vt 0.250000 0.312500
vt 0.250000 0.750000
vt 0.250000 0.250000
vt 0.250000 0.687500
vt 0.250000 0.187500
vt 0.250000 0.625000
vt 0.250000 0.562500
vt 0.218750 0.812500
vt 0.218750 0.750000
vt 0.218750 0.250000
vt 0.218750 0.687500
vt 0.218750 0.187500
vt 0.218750 0.625000
vt 0.218750 0.125000
vt 0.218750 0.562500
vt 0.218750 0.062500
vt 0.218750 0.500000
vt 0.234375 1.000000
vt 0.218750 0.937500
vt 0.234375 0.000000
vt 0.218750 0.437500
vt 0.218750 0.875000
vt 0.218750 0.375000
vt 0.218750 0.312500
vt 0.187500 0.500000
vt 0.203125 1.000000
vt 0.187500 0.937500
vt 0.203125 0.000000
vt 0.187500 0.062500
vt 0.187500 0.437500
vt 0.187500 0.875000
vt 0.187500 0.375000
vt 0.187500 0.812500
vt 0.187500 0.312500
vt 0.187500 0.750000
vt 0.187500 0.250000
vt 0.187500 0.687500
vt 0.187500 0.187500
vt 0.187500 0.625000
vt 0.187500 0.125000
vt 0.187500 0.562500
vt 0.156250 0.250000
vt 0.156250 0.750000
vt 0.156250 0.687500
vt 0.156250 0.187500
vt 0.156250 0.625000
vt 0.156250 0.125000
vt 0.156250 0.562500
vt 0.156250 0.062500
vt 0.156250 0.500000
vt 0.171875 1.000000
vt 0.156250 0.937500
vt 0.171875 0.000000
vt 0.156250 0.437500
vt 0.156250 0.875000
vt 0.156250 0.375000
vt 0.156250 0.812500
vt 0.156250 0.312500
vt 0.140625 1.000000
vt 0.125000 0.937500
vt 0.140625 0.000000
vt 0.125000 0.062500
vt 0.125000 0.437500
vt 0.125000 0.875000
vt 0.125000 0.375000
vt 0.125000 0.812500
vt 0.125000 0.312500
vt 0.125000 0.750000
vt 0.125000 0.250000
vt 0.125000 0.687500
vt 0.125000 0.187500
vt 0.125000 0.625000
vt 0.125000 0.125000
vt 0.125000 0.562500
vt 0.125000 0.500000
vt 0.093750 0.687500
vt 0.093750 0.187500
vt 0.093750 0.625000
vt 0.093750 0.125000
vt 0.093750 0.562500
vt 0.093750 0.062500
vt 0.093750 0.500000
vt 0.109375 1.000000
vt 0.093750 0.937500
vt 0.109375 0.000000
vt 0.093750 0.437500
vt 0.093750 0.875000
vt 0.093750 0.375000
vt 0.093750 0.812500
vt 0.093750 0.312500
vt 0.093750 0.750000
vt 0.093750 0.250000
vt 0.062500 0.500000
vt 0.062500 0.437500
vt 0.062500 0.875000
vt 0.062500 0.375000
vt 0.062500 0.812500
vt 0.062500 0.312500
vt 0.062500 0.750000
vt 0.062500 0.250000
vt 0.062500 0.687500
vt 0.062500 0.187500
vt 0.062500 0.625000
vt 0.062500 0.125000
vt 0.062500 0.562500
vt 0.062500 0.062500
vt 0.078125 1.000000
vt 0.062500 0.937500
vt 0.078125 0.000000
vt 0.031250 0.187500
vt 0.031250 0.625000
vt 0.031250 0.125000
vt 0.031250 0.562500
vt 0.031250 0.062500
vt 0.031250 0.500000
vt 0.046875 1.000000
vt 0.031250 0.937500
vt 0.046875 0.000000
vt 0.031250 0.437500
vt 0.031250 0.875000
vt 0.031250 0.375000
vt 0.031250 0.812500
vt 0.031250 0.312500
vt 0.031250 0.750000
vt 0.031250 0.250000
vt 0.031250 0.687500
vt 0.000000 0.375000
vt 0.000000 0.812500
vt 0.000000 0.312500
vt 0.000000 0.750000
vt 0.000000 0.250000
vt 0.000000 0.687500
vt 0.000000 0.187500
vt 0.000000 0.625000
vt 0.000000 0.125000
vt 0.000000 0.562500
vt 0.000000 0.062500
vt 0.000000 0.500000
vt 0.015625 1.000000
vt 0.000000 0.937500
vt 0.015625 0.000000
vt 0.000000 0.437500
vt 0.000000 0.875000
vt 1.000000 0.125000
vt 0.968750 0.187500
vt 0.968750 0.125000
vt 1.000000 0.562500
vt 0.968750 0.625000
vt 0.968750 0.562500
vt 0.968750 0.062500
vt 1.000000 0.062500
vt 0.968750 0.500000
vt 1.000000 0.500000
vt 1.000000 0.937500
vt 0.984375 1.000000
vt 0.968750 0.937500
vt 0.984375 0.000000
vt 1.000000 0.437500
vt 0.968750 0.437500
vt 0.968750 0.875000
vt 1.000000 0.875000
vt 0.968750 0.375000
vt 1.000000 0.375000
vt 0.968750 0.812500
vt 1.000000 0.812500
vt 1.000000 0.312500
vt 0.968750 0.312500
vt 1.000000 0.750000
vt 0.968750 0.750000
vt 1.000000 0.250000
vt 0.968750 0.250000
vt 0.968750 0.687500
vt 1.000000 0.687500
vt 1.000000 0.187500
vt 1.000000 0.625000
vt 0.937500 0.812500
vt 0.937500 0.375000
vt 0.937500 0.312500
vt 0.937500 0.750000
vt 0.937500 0.250000
vt 0.937500 0.687500
vt 0.937500 0.187500
vt 0.937500 0.625000
vt 0.937500 0.125000
vt 0.937500 0.562500
vt 0.937500 0.062500
vt 0.937500 0.500000
vt 0.953125 1.000000
vt 0.937500 0.937500
vt 0.953125 0.000000
vt 0.937500 0.437500
vt 0.937500 0.875000
vt 0.906250 0.625000
vt 0.906250 0.562500
vt 0.906250 0.062500
vt 0.906250 0.500000
vt 0.921875 1.000000
vt 0.906250 0.937500
vt 0.921875 0.000000
vt 0.906250 0.437500
vt 0.906250 0.875000
vt 0.906250 0.375000
vt 0.906250 0.812500
vt 0.906250 0.312500
vt 0.906250 0.750000
vt 0.906250 0.250000
vt 0.906250 0.687500
vt 0.906250 0.187500
vt 0.906250 0.125000
vt 0.875000 0.375000
vt 0.875000 0.312500
vt 0.875000 0.812500
vt 0.875000 0.750000
vt 0.875000 0.250000
vt 0.875000 0.687500
vt 0.875000 0.187500
vt 0.875000 0.625000
vt 0.875000 0.125000
vt 0.875000 0.562500
vt 0.875000 0.062500
vt 0.875000 0.500000
vt 0.890625 1.000000
vt 0.875000 0.937500
vt 0.890625 0.000000
vt 0.875000 0.437500
vt 0.875000 0.875000
vt 0.843750 0.062500
vt 0.843750 0.562500
vt 0.843750 0.500000
vt 0.859375 1.000000
vt 0.843750 0.937500
vt 0.859375 0.000000
vt 0.843750 0.437500
vt 0.843750 0.875000
vt 0.843750 0.375000
vt 0.843750 0.812500
vt 0.843750 0.312500
vt 0.843750 0.750000
vt 0.843750 0.250000
vt 0.843750 0.687500
vt 0.843750 0.187500
vt 0.843750 0.625000
vt 0.843750 0.125000
vt 0.812500 0.812500
vt 0.812500 0.750000
vt 0.812500 0.250000
vt 0.812500 0.687500
vt 0.812500 0.187500
vt 0.812500 0.625000
vt 0.812500 0.125000
vt 0.812500 0.562500
vt 0.812500 0.062500
vt 0.812500 0.500000
vt 0.828125 1.000000
vt 0.812500 0.937500
vt 0.828125 0.000000
vt 0.812500 0.437500
vt 0.812500 0.875000
vt 0.812500 0.375000
vt 0.812500 0.312500
vt 0.781250 0.562500
vt 0.781250 0.500000
vt 0.796875 1.000000
vt 0.781250 0.937500
vt 0.796875 0.000000
vt 0.781250 0.062500
vt 0.781250 0.437500
vt 0.781250 0.875000
vt 0.781250 0.375000
vt 0.781250 0.812500
vt 0.781250 0.312500
vt 0.781250 0.750000
vt 0.781250 0.250000
vt 0.781250 0.687500
vt 0.781250 0.187500
vt 0.781250 0.625000
vt 0.781250 0.125000
vt 0.765625 1.000000
vt 0.765625 0.000000
s 1
g off
g Luciernaga_3.001_Light.001
usemtl Light.001
f 479/1/479 22/2/22 480/3/480
f 4/4/4 15/5/15 5/6/5
f 480/3/480 23/7/23 10/8/10
f 5/6/5 16/9/16 6/10/6
f 10/8/10 24/11/24 481/12/481
f 6/10/6 17/13/17 7/14/7
f 481/12/481 25/15/25 482/16/482
f 8/17/8 17/13/17 18/18/18
f 1/19/1 297/20/297 11/21/11
f 206/22/206 482/16/482 25/15/25
f 8/17/8 19/23/19 9/24/9
f 1/19/1 12/25/12 2/26/2
f 9/24/9 20/27/20 478/28/478
f 3/29/3 12/25/12 13/30/13
f 478/28/478 21/31/21 479/1/479
f 3/29/3 14/32/14 4/4/4
f 13/30/13 27/33/27 28/34/28
f 21/31/21 35/35/35 36/36/36
f 13/30/13 29/37/29 14/32/14
f 22/2/22 36/36/36 37/38/37
f 14/32/14 30/39/30 15/5/15
f 23/7/23 37/38/37 38/40/38
f 15/5/15 31/41/31 16/9/16
f 24/11/24 38/40/38 39/42/39
f 16/9/16 32/43/32 17/13/17
f 24/11/24 40/44/40 25/15/25
f 17/13/17 33/45/33 18/18/18
f 11/21/11 297/46/297 26/47/26
f 206/48/206 25/15/25 40/44/40
f 19/23/19 33/45/33 34/49/34
f 12/25/12 26/47/26 27/33/27
f 19/23/19 35/35/35 20/27/20
f 32/43/32 46/50/46 47/51/47
f 39/42/39 55/52/55 40/44/40
f 33/45/33 47/51/47 48/53/48
f 26/47/26 297/54/297 41/55/41
f 206/56/206 40/44/40 55/52/55
f 33/45/33 49/57/49 34/49/34
f 26/47/26 42/58/42 27/33/27
f 34/49/34 50/59/50 35/35/35
f 27/33/27 43/60/43 28/34/28
f 36/36/36 50/59/50 51/61/51
f 28/34/28 44/62/44 29/37/29
f 36/36/36 52/63/52 37/38/37
f 29/37/29 45/64/45 30/39/30
f 37/38/37 53/65/53 38/40/38
f 30/39/30 46/50/46 31/41/31
f 38/40/38 54/66/54 39/42/39
f 51/61/51 65/67/65 66/68/66
f 44/62/44 58/69/58 59/70/59
f 51/61/51 67/71/67 52/63/52
f 44/62/44 60/72/60 45/64/45
f 52/63/52 68/73/68 53/65/53
f 45/64/45 61/74/61 46/50/46
f 53/65/53 69/75/69 54/66/54
f 47/51/47 61/74/61 62/76/62
f 54/66/54 70/77/70 55/52/55
f 48/53/48 62/76/62 63/78/63
f 41/55/41 297/79/297 56/80/56
f 206/81/206 55/52/55 70/77/70
f 48/53/48 64/82/64 49/57/49
f 41/55/41 57/83/57 42/58/42
f 49/57/49 65/67/65 50/59/50
f 42/58/42 58/69/58 43/60/43
f 69/75/69 85/84/85 70/77/70
f 63/78/63 77/85/77 78/86/78
f 56/80/56 297/87/297 71/88/71
f 206/89/206 70/77/70 85/84/85
f 64/82/64 78/86/78 79/90/79
f 56/80/56 72/91/72 57/83/57
f 64/82/64 80/92/80 65/67/65
f 57/83/57 73/93/73 58/69/58
f 66/68/66 80/92/80 81/94/81
f 59/70/59 73/93/73 74/95/74
f 67/71/67 81/94/81 82/96/82
f 59/70/59 75/97/75 60/72/60
f 68/73/68 82/96/82 83/98/83
f 60/72/60 76/99/76 61/74/61
f 68/73/68 84/100/84 69/75/69
f 61/74/61 77/85/77 62/76/62
f 81/94/81 97/101/97 82/96/82
f 74/95/74 90/102/90 75/97/75
f 82/96/82 98/103/98 83/98/83
f 75/97/75 91/104/91 76/99/76
f 84/100/84 98/103/98 99/105/99
f 76/99/76 92/106/92 77/85/77
f 84/100/84 100/107/100 85/84/85
f 77/85/77 93/108/93 78/86/78
f 71/88/71 297/109/297 86/110/86
f 206/111/206 85/84/85 100/107/100
f 78/86/78 94/112/94 79/90/79
f 71/88/71 87/113/87 72/91/72
f 79/90/79 95/114/95 80/92/80
f 73/93/73 87/113/87 88/115/88
f 81/94/81 95/114/95 96/116/96
f 74/95/74 88/115/88 89/117/89
f 86/110/86 297/118/297 101/119/101
f 206/120/206 100/107/100 115/121/115
f 93/108/93 109/122/109 94/112/94
f 86/110/86 102/123/102 87/113/87
f 94/112/94 110/124/110 95/114/95
f 87/113/87 103/125/103 88/115/88
f 96/116/96 110/124/110 111/126/111
f 89/117/89 103/125/103 104/127/104
f 96/116/96 112/128/112 97/101/97
f 90/102/90 104/127/104 105/129/105
f 98/103/98 112/128/112 113/130/113
f 90/102/90 106/131/106 91/104/91
f 98/103/98 114/132/114 99/105/99
f 92/106/92 106/131/106 107/133/107
f 99/105/99 115/121/115 100/107/100
f 92/106/92 108/134/108 93/108/93
f 104/127/104 120/135/120 105/129/105
f 113/130/113 127/136/127 128/137/128
f 105/129/105 121/138/121 106/131/106
f 113/130/113 129/139/129 114/132/114
f 107/133/107 121/138/121 122/140/122
f 115/121/115 129/139/129 130/141/130
f 107/133/107 123/142/123 108/134/108
f 101/119/101 297/143/297 116/144/116
f 206/145/206 115/121/115 130/141/130
f 109/122/109 123/142/123 124/146/124
f 101/119/101 117/147/117 102/123/102
f 109/122/109 125/148/125 110/124/110
f 103/125/103 117/147/117 118/149/118
f 111/126/111 125/148/125 126/150/126
f 104/127/104 118/149/118 119/151/119
f 112/128/112 126/150/126 127/136/127
f 124/146/124 138/152/138 139/153/139
f 116/144/116 132/154/132 117/147/117
f 124/146/124 140/155/140 125/148/125
f 118/149/118 132/154/132 133/156/133
f 126/150/126 140/155/140 141/157/141
f 118/149/118 134/158/134 119/151/119
f 126/150/126 142/159/142 127/136/127
f 119/151/119 135/160/135 120/135/120
f 128/137/128 142/159/142 143/161/143
f 120/135/120 136/162/136 121/138/121
f 128/137/128 144/163/144 129/139/129
f 122/140/122 136/162/136 137/164/137
f 130/141/130 144/163/144 145/165/145
f 122/140/122 138/152/138 123/142/123
f 116/144/116 297/166/297 131/167/131
f 206/168/206 130/141/130 145/165/145
f 143/161/143 157/169/157 158/170/158
f 135/160/135 151/171/151 136/162/136
f 144/163/144 158/170/158 159/172/159
f 137/164/137 151/171/151 152/173/152
f 145/165/145 159/172/159 160/174/160
f 137/164/137 153/175/153 138/152/138
f 131/167/131 297/176/297 146/177/146
f 206/178/206 145/165/145 160/174/160
f 139/153/139 153/175/153 154/179/154
f 131/167/131 147/180/147 132/154/132
f 139/153/139 155/181/155 140/155/140
f 132/154/132 148/182/148 133/156/133
f 141/157/141 155/181/155 156/183/156
f 133/156/133 149/184/149 134/158/134
f 141/157/141 157/169/157 142/159/142
f 135/160/135 149/184/149 150/185/150
f 146/177/146 162/186/162 147/180/147
f 154/179/154 170/187/170 155/181/155
f 148/182/148 162/186/162 163/188/163
f 156/183/156 170/187/170 171/189/171
f 149/184/149 163/188/163 164/190/164
f 156/183/156 172/191/172 157/169/157
f 150/185/150 164/190/164 165/192/165
f 158/170/158 172/191/172 173/193/173
f 150/185/150 166/194/166 151/171/151
f 158/170/158 174/195/174 159/172/159
f 152/173/152 166/194/166 167/196/167
f 160/174/160 174/195/174 175/197/175
f 153/175/153 167/196/167 168/198/168
f 146/177/146 297/199/297 161/200/161
f 206/201/206 160/174/160 175/197/175
f 153/175/153 169/202/169 154/179/154
f 165/192/165 181/203/181 166/194/166
f 173/193/173 189/204/189 174/195/174
f 167/196/167 181/203/181 182/205/182
f 175/197/175 189/204/189 190/206/190
f 168/198/168 182/205/182 183/207/183
f 161/200/161 297/208/297 176/209/176
f 206/210/206 175/197/175 190/206/190
f 168/198/168 184/211/184 169/202/169
f 161/200/161 177/212/177 162/186/162
f 169/202/169 185/213/185 170/187/170
f 162/186/162 178/214/178 163/188/163
f 171/189/171 185/213/185 186/215/186
f 163/188/163 179/216/179 164/190/164
f 171/189/171 187/217/187 172/191/172
f 164/190/164 180/218/180 165/192/165
f 173/193/173 187/217/187 188/219/188
f 184/211/184 200/220/200 185/213/185
f 178/214/178 192/221/192 193/222/193
f 186/215/186 200/220/200 201/223/201
f 178/214/178 194/224/194 179/216/179
f 186/215/186 202/225/202 187/217/187
f 180/218/180 194/224/194 195/226/195
f 188/219/188 202/225/202 203/227/203
f 180/218/180 196/228/196 181/203/181
f 188/219/188 204/229/204 189/204/189
f 182/205/182 196/228/196 197/230/197
f 190/206/190 204/229/204 205/231/205
f 183/207/183 197/230/197 198/232/198
f 176/209/176 297/233/297 191/234/191
f 206/235/206 190/206/190 205/231/205
f 183/207/183 199/236/199 184/211/184
f 176/209/176 192/221/192 177/212/177
f 204/229/204 219/237/219 220/238/220
f 197/230/197 212/239/212 213/240/213
f 205/231/205 220/238/220 221/241/221
f 198/232/198 213/240/213 214/242/214
f 191/234/191 297/243/297 207/244/207
f 206/245/206 205/231/205 221/241/221
f 198/232/198 215/246/215 199/236/199
f 191/234/191 208/247/208 192/221/192
f 199/236/199 216/248/216 200/220/200
f 192/221/192 209/249/209 193/222/193
f 201/223/201 216/248/216 217/250/217
f 193/222/193 210/251/210 194/224/194
f 202/225/202 217/250/217 218/252/218
f 194/224/194 211/253/211 195/226/195
f 203/227/203 218/252/218 219/237/219
f 195/226/195 212/239/212 196/228/196
f 217/250/217 231/254/231 232/255/232
f 210/251/210 224/256/224 225/257/225
f 217/250/217 233/258/233 218/252/218
f 210/251/210 226/259/226 211/253/211
f 218/252/218 234/260/234 219/237/219
f 211/253/211 227/261/227 212/239/212
f 220/238/220 234/260/234 235/262/235
f 213/240/213 227/261/227 228/263/228
f 221/241/221 235/262/235 236/264/236
f 213/240/213 229/265/229 214/242/214
f 207/244/207 297/266/297 222/267/222
f 206/268/206 221/241/221 236/264/236
f 214/242/214 230/269/230 215/246/215
f 208/247/208 222/267/222 223/270/223
f 215/246/215 231/254/231 216/248/216
f 208/247/208 224/256/224 209/249/209
f 236/264/236 250/271/250 251/272/251
f 228/263/228 244/273/244 229/265/229
f 222/267/222 297/274/297 237/275/237
f 206/276/206 236/264/236 251/272/251
f 229/265/229 245/277/245 230/269/230
f 222/267/222 238/278/238 223/270/223
f 230/269/230 246/279/246 231/254/231
f 223/270/223 239/280/239 224/256/224
f 232/255/232 246/279/246 247/281/247
f 224/256/224 240/282/240 225/257/225
f 232/255/232 248/283/248 233/258/233
f 225/257/225 241/284/241 226/259/226
f 233/258/233 249/285/249 234/260/234
f 226/259/226 242/286/242 227/261/227
f 235/262/235 249/285/249 250/271/250
f 228/263/228 242/286/242 243/287/243
f 240/282/240 254/288/254 255/289/255
f 247/281/247 263/290/263 248/283/248
f 240/282/240 256/291/256 241/284/241
f 248/283/248 264/292/264 249/285/249
f 241/284/241 257/293/257 242/286/242
f 249/285/249 265/294/265 250/271/250
f 243/287/243 257/293/257 258/295/258
f 250/271/250 266/296/266 251/272/251
f 244/273/244 258/295/258 259/297/259
f 237/275/237 297/298/297 252/299/252
f 206/300/206 251/272/251 266/296/266
f 244/273/244 260/301/260 245/277/245
f 237/275/237 253/302/253 238/278/238
f 245/277/245 261/303/261 246/279/246
f 238/278/238 254/288/254 239/280/239
f 247/281/247 261/303/261 262/304/262
f 258/295/258 274/305/274 259/297/259
f 252/299/252 297/306/297 267/307/267
f 206/308/206 266/296/266 281/309/281
f 259/297/259 275/310/275 260/301/260
f 252/299/252 268/311/268 253/302/253
f 260/301/260 276/312/276 261/303/261
f 253/302/253 269/313/269 254/288/254
f 262/304/262 276/312/276 277/314/277
f 255/289/255 269/313/269 270/315/270
f 262/304/262 278/316/278 263/290/263
f 256/291/256 270/315/270 271/317/271
f 263/290/263 279/318/279 264/292/264
f 256/291/256 272/319/272 257/293/257
f 265/294/265 279/318/279 280/320/280
f 258/295/258 272/319/272 273/321/273
f 266/296/266 280/320/280 281/309/281
f 277/314/277 293/322/293 278/316/278
f 271/317/271 285/323/285 286/324/286
f 279/318/279 293/322/293 294/325/294
f 271/317/271 287/326/287 272/319/272
f 280/320/280 294/325/294 295/327/295
f 273/321/273 287/326/287 288/328/288
f 281/309/281 295/327/295 296/329/296
f 274/305/274 288/328/288 289/330/289
f 267/307/267 297/331/297 282/332/282
f 206/333/206 281/309/281 296/329/296
f 274/305/274 290/334/290 275/310/275
f 267/307/267 283/335/283 268/311/268
f 275/310/275 291/336/291 276/312/276
f 268/311/268 284/337/284 269/313/269
f 277/314/277 291/336/291 292/338/292
f 270/315/270 284/337/284 285/323/285
f 282/332/282 297/339/297 298/340/298
f 206/341/206 296/329/296 312/342/312
f 289/330/289 306/343/306 290/334/290
f 282/332/282 299/344/299 283/335/283
f 290/334/290 307/345/307 291/336/291
f 283/335/283 300/346/300 284/337/284
f 292/338/292 307/345/307 308/347/308
f 285/323/285 300/346/300 301/348/301
f 292/338/292 309/349/309 293/322/293
f 285/323/285 302/350/302 286/324/286
f 293/322/293 310/351/310 294/325/294
f 286/324/286 303/352/303 287/326/287
f 294/325/294 311/353/311 295/327/295
f 288/328/288 303/352/303 304/354/304
f 295/327/295 312/342/312 296/329/296
f 289/330/289 304/354/304 305/355/305
f 301/348/301 317/356/317 302/350/302
f 309/349/309 325/357/325 310/351/310
f 302/350/302 318/358/318 303/352/303
f 311/353/311 325/357/325 326/359/326
f 304/354/304 318/358/318 319/360/319
f 312/342/312 326/359/326 327/361/327
f 305/355/305 319/360/319 320/362/320
f 298/340/298 297/363/297 313/364/313
f 206/365/206 312/342/312 327/361/327
f 306/343/306 320/362/320 321/366/321
f 298/340/298 314/367/314 299/344/299
f 306/343/306 322/368/322 307/345/307
f 299/344/299 315/369/315 300/346/300
f 308/347/308 322/368/322 323/370/323
f 300/346/300 316/371/316 301/348/301
f 308/347/308 324/372/324 309/349/309
f 321/366/321 335/373/335 336/374/336
f 313/364/313 329/375/329 314/367/314
f 321/366/321 337/376/337 322/368/322
f 314/367/314 330/377/330 315/369/315
f 323/370/323 337/376/337 338/378/338
f 316/371/316 330/377/330 331/379/331
f 323/370/323 339/380/339 324/372/324
f 316/371/316 332/381/332 317/356/317
f 325/357/325 339/380/339 340/382/340
f 317/356/317 333/383/333 318/358/318
f 326/359/326 340/382/340 341/384/341
f 319/360/319 333/383/333 334/385/334
f 326/359/326 342/386/342 327/361/327
f 319/360/319 335/373/335 320/362/320
f 313/364/313 297/387/297 328/388/328
f 206/389/206 327/361/327 342/386/342
f 339/380/339 355/390/355 340/382/340
f 332/381/332 348/391/348 333/383/333
f 341/384/341 355/390/355 356/392/356
f 334/385/334 348/391/348 349/393/349
f 341/384/341 357/394/357 342/386/342
f 334/385/334 350/395/350 335/373/335
f 328/388/328 297/396/297 343/397/343
f 206/398/206 342/386/342 357/394/357
f 336/374/336 350/395/350 351/399/351
f 328/388/328 344/400/344 329/375/329
f 336/374/336 352/401/352 337/376/337
f 329/375/329 345/402/345 330/377/330
f 338/378/338 352/401/352 353/403/353
f 331/379/331 345/402/345 346/404/346
f 338/378/338 354/405/354 339/380/339
f 331/379/331 347/406/347 332/381/332
f 351/399/351 367/407/367 352/401/352
f 344/400/344 360/408/360 345/402/345
f 353/403/353 367/407/367 368/409/368
f 346/404/346 360/408/360 361/410/361
f 353/403/353 369/411/369 354/405/354
f 347/406/347 361/410/361 362/412/362
f 354/405/354 370/413/370 355/390/355
f 347/406/347 363/414/363 348/391/348
f 356/392/356 370/413/370 371/415/371
f 349/393/349 363/414/363 364/416/364
f 356/392/356 372/417/372 357/394/357
f 349/393/349 365/418/365 350/395/350
f 343/397/343 297/419/297 358/420/358
f 206/421/206 357/394/357 372/417/372
f 351/399/351 365/418/365 366/422/366
f 343/397/343 359/423/359 344/400/344
f 371/424/371 385/425/385 386/426/386
f 364/427/364 378/428/378 379/429/379
f 371/424/371 387/430/387 372/431/372
f 364/427/364 380/432/380 365/433/365
f 358/434/358 297/435/297 373/436/373
f 206/437/206 372/431/372 387/430/387
f 366/438/366 380/432/380 381/439/381
f 358/434/358 374/440/374 359/441/359
f 366/438/366 382/442/382 367/443/367
f 359/441/359 375/444/375 360/445/360
f 368/446/368 382/442/382 383/447/383
f 361/448/361 375/444/375 376/449/376
f 369/450/369 383/447/383 384/451/384
f 361/448/361 377/452/377 362/453/362
f 369/450/369 385/425/385 370/454/370
f 362/453/362 378/428/378 363/455/363
f 374/440/374 390/456/390 375/444/375
f 383/447/383 397/457/397 398/458/398
f 376/449/376 390/456/390 391/459/391
f 384/451/384 398/458/398 399/460/399
f 376/449/376 392/461/392 377/452/377
f 384/451/384 400/462/400 385/425/385
f 377/452/377 393/463/393 378/428/378
f 385/425/385 401/464/401 386/426/386
f 379/429/379 393/463/393 394/465/394
f 386/426/386 402/466/402 387/430/387
f 379/429/379 395/467/395 380/432/380
f 373/436/373 297/468/297 388/469/388
f 206/470/206 387/430/387 402/466/402
f 381/439/381 395/467/395 396/471/396
f 374/440/374 388/469/388 389/472/389
f 381/439/381 397/457/397 382/442/382
f 394/465/394 408/473/408 409/474/409
f 401/464/401 417/475/417 402/466/402
f 394/465/394 410/476/410 395/467/395
f 388/469/388 297/477/297 403/478/403
f 206/479/206 402/466/402 417/475/417
f 395/467/395 411/480/411 396/471/396
f 389/472/389 403/478/403 404/481/404
f 396/471/396 412/482/412 397/457/397
f 389/472/389 405/483/405 390/456/390
f 398/458/398 412/482/412 413/484/413
f 391/459/391 405/483/405 406/485/406
f 398/458/398 414/486/414 399/460/399
f 392/461/392 406/485/406 407/487/407
f 400/462/400 414/486/414 415/488/415
f 392/461/392 408/473/408 393/463/393
f 401/464/401 415/488/415 416/489/416
f 413/484/413 427/490/427 428/491/428
f 406/485/406 420/492/420 421/493/421
f 413/484/413 429/494/429 414/486/414
f 407/487/407 421/493/421 422/495/422
f 414/486/414 430/496/430 415/488/415
f 407/487/407 423/497/423 408/473/408
f 415/488/415 431/498/431 416/489/416
f 409/474/409 423/497/423 424/499/424
f 416/489/416 432/500/432 417/475/417
f 409/474/409 425/501/425 410/476/410
f 403/478/403 297/502/297 418/503/418
f 206/504/206 417/475/417 432/500/432
f 411/480/411 425/501/425 426/505/426
f 404/481/404 418/503/418 419/506/419
f 411/480/411 427/490/427 412/482/412
f 404/481/404 420/492/420 405/483/405
f 431/498/431 447/507/447 432/500/432
f 425/501/425 439/508/439 440/509/440
f 418/503/418 297/510/297 433/511/433
f 206/512/206 432/500/432 447/507/447
f 425/501/425 441/513/441 426/505/426
f 418/503/418 434/514/434 419/506/419
f 426/505/426 442/515/442 427/490/427
f 419/506/419 435/516/435 420/492/420
f 428/491/428 442/515/442 443/517/443
f 420/492/420 436/518/436 421/493/421
f 428/491/428 444/519/444 429/494/429
f 422/495/422 436/518/436 437/520/437
f 429/494/429 445/521/445 430/496/430
f 422/495/422 438/522/438 423/497/423
f 431/498/431 445/521/445 446/523/446
f 424/499/424 438/522/438 439/508/439
f 436/518/436 450/524/450 451/525/451
f 443/517/443 459/526/459 444/519/444
f 437/520/437 451/525/451 452/527/452
f 444/519/444 460/528/460 445/521/445
f 437/520/437 453/529/453 438/522/438
f 446/523/446 460/528/460 461/530/461
f 439/508/439 453/529/453 454/531/454
f 446/523/446 462/532/462 447/507/447
f 439/508/439 455/533/455 440/509/440
f 433/511/433 297/534/297 448/535/448
f 206/536/206 447/507/447 462/532/462
f 440/509/440 456/537/456 441/513/441
f 433/511/433 449/538/449 434/514/434
f 441/513/441 457/539/457 442/515/442
f 434/514/434 450/524/450 435/516/435
f 443/517/443 457/539/457 458/540/458
f 455/533/455 469/541/469 470/542/470
f 448/535/448 297/543/297 463/544/463
f 206/545/206 462/532/462 477/546/477
f 455/533/455 471/547/471 456/537/456
f 448/535/448 464/548/464 449/538/449
f 456/537/456 472/549/472 457/539/457
f 450/524/450 464/548/464 465/550/465
f 458/540/458 472/549/472 473/551/473
f 450/524/450 466/552/466 451/525/451
f 458/540/458 474/553/474 459/526/459
f 452/527/452 466/552/466 467/554/467
f 460/528/460 474/553/474 475/555/475
f 452/527/452 468/556/468 453/529/453
f 460/528/460 476/557/476 461/530/461
f 454/531/454 468/556/468 469/541/469
f 461/530/461 477/546/477 462/532/462
f 473/551/473 480/3/480 474/553/474
f 467/554/467 4/4/4 5/6/5
f 474/553/474 10/8/10 475/555/475
f 468/556/468 5/6/5 6/10/6
f 475/555/475 481/12/481 476/557/476
f 469/541/469 6/10/6 7/14/7
f 476/557/476 482/16/482 477/546/477
f 470/542/470 7/14/7 8/17/8
f 463/544/463 297/558/297 1/19/1
f 206/559/206 477/546/477 482/16/482
f 470/542/470 9/24/9 471/547/471
f 464/548/464 1/19/1 2/26/2
f 471/547/471 478/28/478 472/549/472
f 465/550/465 2/26/2 3/29/3
f 473/551/473 478/28/478 479/1/479
f 466/552/466 3/29/3 4/4/4
f 479/1/479 21/31/21 22/2/22
f 4/4/4 14/32/14 15/5/15
f 480/3/480 22/2/22 23/7/23
f 5/6/5 15/5/15 16/9/16
f 10/8/10 23/7/23 24/11/24
f 6/10/6 16/9/16 17/13/17
f 481/12/481 24/11/24 25/15/25
f 8/17/8 7/14/7 17/13/17
f 8/17/8 18/18/18 19/23/19
f 1/19/1 11/21/11 12/25/12
f 9/24/9 19/23/19 20/27/20
f 3/29/3 2/26/2 12/25/12
f 478/28/478 20/27/20 21/31/21
f 3/29/3 13/30/13 14/32/14
f 13/30/13 12/25/12 27/33/27
f 21/31/21 20/27/20 35/35/35
f 13/30/13 28/34/28 29/37/29
f 22/2/22 21/31/21 36/36/36
f 14/32/14 29/37/29 30/39/30
f 23/7/23 22/2/22 37/38/37
f 15/5/15 30/39/30 31/41/31
f 24/11/24 23/7/23 38/40/38
f 16/9/16 31/41/31 32/43/32
f 24/11/24 39/42/39 40/44/40
f 17/13/17 32/43/32 33/45/33
f 19/23/19 18/18/18 33/45/33
f 12/25/12 11/21/11 26/47/26
f 19/23/19 34/49/34 35/35/35
f 32/43/32 31/41/31 46/50/46
f 39/42/39 54/66/54 55/52/55
f 33/45/33 32/43/32 47/51/47
f 33/45/33 48/53/48 49/57/49
f 26/47/26 41/55/41 42/58/42
f 34/49/34 49/57/49 50/59/50
f 27/33/27 42/58/42 43/60/43
f 36/36/36 35/35/35 50/59/50
f 28/34/28 43/60/43 44/62/44
f 36/36/36 51/61/51 52/63/52
f 29/37/29 44/62/44 45/64/45
f 37/38/37 52/63/52 53/65/53
f 30/39/30 45/64/45 46/50/46
f 38/40/38 53/65/53 54/66/54
f 51/61/51 50/59/50 65/67/65
f 44/62/44 43/60/43 58/69/58
f 51/61/51 66/68/66 67/71/67
f 44/62/44 59/70/59 60/72/60
f 52/63/52 67/71/67 68/73/68
f 45/64/45 60/72/60 61/74/61
f 53/65/53 68/73/68 69/75/69
f 47/51/47 46/50/46 61/74/61
f 54/66/54 69/75/69 70/77/70
f 48/53/48 47/51/47 62/76/62
f 48/53/48 63/78/63 64/82/64
f 41/55/41 56/80/56 57/83/57
f 49/57/49 64/82/64 65/67/65
f 42/58/42 57/83/57 58/69/58
f 69/75/69 84/100/84 85/84/85
f 63/78/63 62/76/62 77/85/77
f 64/82/64 63/78/63 78/86/78
f 56/80/56 71/88/71 72/91/72
f 64/82/64 79/90/79 80/92/80
f 57/83/57 72/91/72 73/93/73
f 66/68/66 65/67/65 80/92/80
f 59/70/59 58/69/58 73/93/73
f 67/71/67 66/68/66 81/94/81
f 59/70/59 74/95/74 75/97/75
f 68/73/68 67/71/67 82/96/82
f 60/72/60 75/97/75 76/99/76
f 68/73/68 83/98/83 84/100/84
f 61/74/61 76/99/76 77/85/77
f 81/94/81 96/116/96 97/101/97
f 74/95/74 89/117/89 90/102/90
f 82/96/82 97/101/97 98/103/98
f 75/97/75 90/102/90 91/104/91
f 84/100/84 83/98/83 98/103/98
f 76/99/76 91/104/91 92/106/92
f 84/100/84 99/105/99 100/107/100
f 77/85/77 92/106/92 93/108/93
f 78/86/78 93/108/93 94/112/94
f 71/88/71 86/110/86 87/113/87
f 79/90/79 94/112/94 95/114/95
f 73/93/73 72/91/72 87/113/87
f 81/94/81 80/92/80 95/114/95
f 74/95/74 73/93/73 88/115/88
f 93/108/93 108/134/108 109/122/109
f 86/110/86 101/119/101 102/123/102
f 94/112/94 109/122/109 110/124/110
f 87/113/87 102/123/102 103/125/103
f 96/116/96 95/114/95 110/124/110
f 89/117/89 88/115/88 103/125/103
f 96/116/96 111/126/111 112/128/112
f 90/102/90 89/117/89 104/127/104
f 98/103/98 97/101/97 112/128/112
f 90/102/90 105/129/105 106/131/106
f 98/103/98 113/130/113 114/132/114
f 92/106/92 91/104/91 106/131/106
f 99/105/99 114/132/114 115/121/115
f 92/106/92 107/133/107 108/134/108
f 104/127/104 119/151/119 120/135/120
f 113/130/113 112/128/112 127/136/127
f 105/129/105 120/135/120 121/138/121
f 113/130/113 128/137/128 129/139/129
f 107/133/107 106/131/106 121/138/121
f 115/121/115 114/132/114 129/139/129
f 107/133/107 122/140/122 123/142/123
f 109/122/109 108/134/108 123/142/123
f 101/119/101 116/144/116 117/147/117
f 109/122/109 124/146/124 125/148/125
f 103/125/103 102/123/102 117/147/117
f 111/126/111 110/124/110 125/148/125
f 104/127/104 103/125/103 118/149/118
f 112/128/112 111/126/111 126/150/126
f 124/146/124 123/142/123 138/152/138
f 116/144/116 131/167/131 132/154/132
f 124/146/124 139/153/139 140/155/140
f 118/149/118 117/147/117 132/154/132
f 126/150/126 125/148/125 140/155/140
f 118/149/118 133/156/133 134/158/134
f 126/150/126 141/157/141 142/159/142
f 119/151/119 134/158/134 135/160/135
f 128/137/128 127/136/127 142/159/142
f 120/135/120 135/160/135 136/162/136
f 128/137/128 143/161/143 144/163/144
f 122/140/122 121/138/121 136/162/136
f 130/141/130 129/139/129 144/163/144
f 122/140/122 137/164/137 138/152/138
f 143/161/143 142/159/142 157/169/157
f 135/160/135 150/185/150 151/171/151
f 144/163/144 143/161/143 158/170/158
f 137/164/137 136/162/136 151/171/151
f 145/165/145 144/163/144 159/172/159
f 137/164/137 152/173/152 153/175/153
f 139/153/139 138/152/138 153/175/153
f 131/167/131 146/177/146 147/180/147
f 139/153/139 154/179/154 155/181/155
f 132/154/132 147/180/147 148/182/148
f 141/157/141 140/155/140 155/181/155
f 133/156/133 148/182/148 149/184/149
f 141/157/141 156/183/156 157/169/157
f 135/160/135 134/158/134 149/184/149
f 146/177/146 161/200/161 162/186/162
f 154/179/154 169/202/169 170/187/170
f 148/182/148 147/180/147 162/186/162
f 156/183/156 155/181/155 170/187/170
f 149/184/149 148/182/148 163/188/163
f 156/183/156 171/189/171 172/191/172
f 150/185/150 149/184/149 164/190/164
f 158/170/158 157/169/157 172/191/172
f 150/185/150 165/192/165 166/194/166
f 158/170/158 173/193/173 174/195/174
f 152/173/152 151/171/151 166/194/166
f 160/174/160 159/172/159 174/195/174
f 153/175/153 152/173/152 167/196/167
f 153/175/153 168/198/168 169/202/169
f 165/192/165 180/218/180 181/203/181
f 173/193/173 188/219/188 189/204/189
f 167/196/167 166/194/166 181/203/181
f 175/197/175 174/195/174 189/204/189
f 168/198/168 167/196/167 182/205/182
f 168/198/168 183/207/183 184/211/184
f 161/200/161 176/209/176 177/212/177
f 169/202/169 184/211/184 185/213/185
f 162/186/162 177/212/177 178/214/178
f 171/189/171 170/187/170 185/213/185
f 163/188/163 178/214/178 179/216/179
f 171/189/171 186/215/186 187/217/187
f 164/190/164 179/216/179 180/218/180
f 173/193/173 172/191/172 187/217/187
f 184/211/184 199/236/199 200/220/200
f 178/214/178 177/212/177 192/221/192
f 186/215/186 185/213/185 200/220/200
f 178/214/178 193/222/193 194/224/194
f 186/215/186 201/223/201 202/225/202
f 180/218/180 179/216/179 194/224/194
f 188/219/188 187/217/187 202/225/202
f 180/218/180 195/226/195 196/228/196
f 188/219/188 203/227/203 204/229/204
f 182/205/182 181/203/181 196/228/196
f 190/206/190 189/204/189 204/229/204
f 183/207/183 182/205/182 197/230/197
f 183/207/183 198/232/198 199/236/199
f 176/209/176 191/234/191 192/221/192
f 204/229/204 203/227/203 219/237/219
f 197/230/197 196/228/196 212/239/212
f 205/231/205 204/229/204 220/238/220
f 198/232/198 197/230/197 213/240/213
f 198/232/198 214/242/214 215/246/215
f 191/234/191 207/244/207 208/247/208
f 199/236/199 215/246/215 216/248/216
f 192/221/192 208/247/208 209/249/209
f 201/223/201 200/220/200 216/248/216
f 193/222/193 209/249/209 210/251/210
f 202/225/202 201/223/201 217/250/217
f 194/224/194 210/251/210 211/253/211
f 203/227/203 202/225/202 218/252/218
f 195/226/195 211/253/211 212/239/212
f 217/250/217 216/248/216 231/254/231
f 210/251/210 209/249/209 224/256/224
f 217/250/217 232/255/232 233/258/233
f 210/251/210 225/257/225 226/259/226
f 218/252/218 233/258/233 234/260/234
f 211/253/211 226/259/226 227/261/227
f 220/238/220 219/237/219 234/260/234
f 213/240/213 212/239/212 227/261/227
f 221/241/221 220/238/220 235/262/235
f 213/240/213 228/263/228 229/265/229
f 214/242/214 229/265/229 230/269/230
f 208/247/208 207/244/207 222/267/222
f 215/246/215 230/269/230 231/254/231
f 208/247/208 223/270/223 224/256/224
f 236/264/236 235/262/235 250/271/250
f 228/263/228 243/287/243 244/273/244
f 229/265/229 244/273/244 245/277/245
f 222/267/222 237/275/237 238/278/238
f 230/269/230 245/277/245 246/279/246
f 223/270/223 238/278/238 239/280/239
f 232/255/232 231/254/231 246/279/246
f 224/256/224 239/280/239 240/282/240
f 232/255/232 247/281/247 248/283/248
f 225/257/225 240/282/240 241/284/241
f 233/258/233 248/283/248 249/285/249
f 226/259/226 241/284/241 242/286/242
f 235/262/235 234/260/234 249/285/249
f 228/263/228 227/261/227 242/286/242
f 240/282/240 239/280/239 254/288/254
f 247/281/247 262/304/262 263/290/263
f 240/282/240 255/289/255 256/291/256
f 248/283/248 263/290/263 264/292/264
f 241/284/241 256/291/256 257/293/257
f 249/285/249 264/292/264 265/294/265
f 243/287/243 242/286/242 257/293/257
f 250/271/250 265/294/265 266/296/266
f 244/273/244 243/287/243 258/295/258
f 244/273/244 259/297/259 260/301/260
f 237/275/237 252/299/252 253/302/253
f 245/277/245 260/301/260 261/303/261
f 238/278/238 253/302/253 254/288/254
f 247/281/247 246/279/246 261/303/261
f 258/295/258 273/321/273 274/305/274
f 259/297/259 274/305/274 275/310/275
f 252/299/252 267/307/267 268/311/268
f 260/301/260 275/310/275 276/312/276
f 253/302/253 268/311/268 269/313/269
f 262/304/262 261/303/261 276/312/276
f 255/289/255 254/288/254 269/313/269
f 262/304/262 277/314/277 278/316/278
f 256/291/256 255/289/255 270/315/270
f 263/290/263 278/316/278 279/318/279
f 256/291/256 271/317/271 272/319/272
f 265/294/265 264/292/264 279/318/279
f 258/295/258 257/293/257 272/319/272
f 266/296/266 265/294/265 280/320/280
f 277/314/277 292/338/292 293/322/293
f 271/317/271 270/315/270 285/323/285
f 279/318/279 278/316/278 293/322/293
f 271/317/271 286/324/286 287/326/287
f 280/320/280 279/318/279 294/325/294
f 273/321/273 272/319/272 287/326/287
f 281/309/281 280/320/280 295/327/295
f 274/305/274 273/321/273 288/328/288
f 274/305/274 289/330/289 290/334/290
f 267/307/267 282/332/282 283/335/283
f 275/310/275 290/334/290 291/336/291
f 268/311/268 283/335/283 284/337/284
f 277/314/277 276/312/276 291/336/291
f 270/315/270 269/313/269 284/337/284
f 289/330/289 305/355/305 306/343/306
f 282/332/282 298/340/298 299/344/299
f 290/334/290 306/343/306 307/345/307
f 283/335/283 299/344/299 300/346/300
f 292/338/292 291/336/291 307/345/307
f 285/323/285 284/337/284 300/346/300
f 292/338/292 308/347/308 309/349/309
f 285/323/285 301/348/301 302/350/302
f 293/322/293 309/349/309 310/351/310
f 286/324/286 302/350/302 303/352/303
f 294/325/294 310/351/310 311/353/311
f 288/328/288 287/326/287 303/352/303
f 295/327/295 311/353/311 312/342/312
f 289/330/289 288/328/288 304/354/304
f 301/348/301 316/371/316 317/356/317
f 309/349/309 324/372/324 325/357/325
f 302/350/302 317/356/317 318/358/318
f 311/353/311 310/351/310 325/357/325
f 304/354/304 303/352/303 318/358/318
f 312/342/312 311/353/311 326/359/326
f 305/355/305 304/354/304 319/360/319
f 306/343/306 305/355/305 320/362/320
f 298/340/298 313/364/313 314/367/314
f 306/343/306 321/366/321 322/368/322
f 299/344/299 314/367/314 315/369/315
f 308/347/308 307/345/307 322/368/322
f 300/346/300 315/369/315 316/371/316
f 308/347/308 323/370/323 324/372/324
f 321/366/321 320/362/320 335/373/335
f 313/364/313 328/388/328 329/375/329
f 321/366/321 336/374/336 337/376/337
f 314/367/314 329/375/329 330/377/330
f 323/370/323 322/368/322 337/376/337
f 316/371/316 315/369/315 330/377/330
f 323/370/323 338/378/338 339/380/339
f 316/371/316 331/379/331 332/381/332
f 325/357/325 324/372/324 339/380/339
f 317/356/317 332/381/332 333/383/333
f 326/359/326 325/357/325 340/382/340
f 319/360/319 318/358/318 333/383/333
f 326/359/326 341/384/341 342/386/342
f 319/360/319 334/385/334 335/373/335
f 339/380/339 354/405/354 355/390/355
f 332/381/332 347/406/347 348/391/348
f 341/384/341 340/382/340 355/390/355
f 334/385/334 333/383/333 348/391/348
f 341/384/341 356/392/356 357/394/357
f 334/385/334 349/393/349 350/395/350
f 336/374/336 335/373/335 350/395/350
f 328/388/328 343/397/343 344/400/344
f 336/374/336 351/399/351 352/401/352
f 329/375/329 344/400/344 345/402/345
f 338/378/338 337/376/337 352/401/352
f 331/379/331 330/377/330 345/402/345
f 338/378/338 353/403/353 354/405/354
f 331/379/331 346/404/346 347/406/347
f 351/399/351 366/422/366 367/407/367
f 344/400/344 359/423/359 360/408/360
f 353/403/353 352/401/352 367/407/367
f 346/404/346 345/402/345 360/408/360
f 353/403/353 368/409/368 369/411/369
f 347/406/347 346/404/346 361/410/361
f 354/405/354 369/411/369 370/413/370
f 347/406/347 362/412/362 363/414/363
f 356/392/356 355/390/355 370/413/370
f 349/393/349 348/391/348 363/414/363
f 356/392/356 371/415/371 372/417/372
f 349/393/349 364/416/364 365/418/365
f 351/399/351 350/395/350 365/418/365
f 343/397/343 358/420/358 359/423/359
f 371/424/371 370/454/370 385/425/385
f 364/427/364 363/455/363 378/428/378
f 371/424/371 386/426/386 387/430/387
f 364/427/364 379/429/379 380/432/380
f 366/438/366 365/433/365 380/432/380
f 358/434/358 373/436/373 374/440/374
f 366/438/366 381/439/381 382/442/382
f 359/441/359 374/440/374 375/444/375
f 368/446/368 367/443/367 382/442/382
f 361/448/361 360/445/360 375/444/375
f 369/450/369 368/446/368 383/447/383
f 361/448/361 376/449/376 377/452/377
f 369/450/369 384/451/384 385/425/385
f 362/453/362 377/452/377 378/428/378
f 374/440/374 389/472/389 390/456/390
f 383/447/383 382/442/382 397/457/397
f 376/449/376 375/444/375 390/456/390
f 384/451/384 383/447/383 398/458/398
f 376/449/376 391/459/391 392/461/392
f 384/451/384 399/460/399 400/462/400
f 377/452/377 392/461/392 393/463/393
f 385/425/385 400/462/400 401/464/401
f 379/429/379 378/428/378 393/463/393
f 386/426/386 401/464/401 402/466/402
f 379/429/379 394/465/394 395/467/395
f 381/439/381 380/432/380 395/467/395
f 374/440/374 373/436/373 388/469/388
f 381/439/381 396/471/396 397/457/397
f 394/465/394 393/463/393 408/473/408
f 401/464/401 416/489/416 417/475/417
f 394/465/394 409/474/409 410/476/410
f 395/467/395 410/476/410 411/480/411
f 389/472/389 388/469/388 403/478/403
f 396/471/396 411/480/411 412/482/412
f 389/472/389 404/481/404 405/483/405
f 398/458/398 397/457/397 412/482/412
f 391/459/391 390/456/390 405/483/405
f 398/458/398 413/484/413 414/486/414
f 392/461/392 391/459/391 406/485/406
f 400/462/400 399/460/399 414/486/414
f 392/461/392 407/487/407 408/473/408
f 401/464/401 400/462/400 415/488/415
f 413/484/413 412/482/412 427/490/427
f 406/485/406 405/483/405 420/492/420
f 413/484/413 428/491/428 429/494/429
f 407/487/407 406/485/406 421/493/421
f 414/486/414 429/494/429 430/496/430
f 407/487/407 422/495/422 423/497/423
f 415/488/415 430/496/430 431/498/431
f 409/474/409 408/473/408 423/497/423
f 416/489/416 431/498/431 432/500/432
f 409/474/409 424/499/424 425/501/425
f 411/480/411 410/476/410 425/501/425
f 404/481/404 403/478/403 418/503/418
f 411/480/411 426/505/426 427/490/427
f 404/481/404 419/506/419 420/492/420
f 431/498/431 446/523/446 447/507/447
f 425/501/425 424/499/424 439/508/439
f 425/501/425 440/509/440 441/513/441
f 418/503/418 433/511/433 434/514/434
f 426/505/426 441/513/441 442/515/442
f 419/506/419 434/514/434 435/516/435
f 428/491/428 427/490/427 442/515/442
f 420/492/420 435/516/435 436/518/436
f 428/491/428 443/517/443 444/519/444
f 422/495/422 421/493/421 436/518/436
f 429/494/429 444/519/444 445/521/445
f 422/495/422 437/520/437 438/522/438
f 431/498/431 430/496/430 445/521/445
f 424/499/424 423/497/423 438/522/438
f 436/518/436 435/516/435 450/524/450
f 443/517/443 458/540/458 459/526/459
f 437/520/437 436/518/436 451/525/451
f 444/519/444 459/526/459 460/528/460
f 437/520/437 452/527/452 453/529/453
f 446/523/446 445/521/445 460/528/460
f 439/508/439 438/522/438 453/529/453
f 446/523/446 461/530/461 462/532/462
f 439/508/439 454/531/454 455/533/455
f 440/509/440 455/533/455 456/537/456
f 433/511/433 448/535/448 449/538/449
f 441/513/441 456/537/456 457/539/457
f 434/514/434 449/538/449 450/524/450
f 443/517/443 442/515/442 457/539/457
f 455/533/455 454/531/454 469/541/469
f 455/533/455 470/542/470 471/547/471
f 448/535/448 463/544/463 464/548/464
f 456/537/456 471/547/471 472/549/472
f 450/524/450 449/538/449 464/548/464
f 458/540/458 457/539/457 472/549/472
f 450/524/450 465/550/465 466/552/466
f 458/540/458 473/551/473 474/553/474
f 452/527/452 451/525/451 466/552/466
f 460/528/460 459/526/459 474/553/474
f 452/527/452 467/554/467 468/556/468
f 460/528/460 475/555/475 476/557/476
f 454/531/454 453/529/453 468/556/468
f 461/530/461 476/557/476 477/546/477
f 473/551/473 479/1/479 480/3/480
f 467/554/467 466/552/466 4/4/4
f 474/553/474 480/3/480 10/8/10
f 468/556/468 467/554/467 5/6/5
f 475/555/475 10/8/10 481/12/481
f 469/541/469 468/556/468 6/10/6
f 476/557/476 481/12/481 482/16/482
f 470/542/470 469/541/469 7/14/7
f 470/542/470 8/17/8 9/24/9
f 464/548/464 463/544/463 1/19/1
f 471/547/471 9/24/9 478/28/478
f 465/550/465 464/548/464 2/26/2
f 473/551/473 472/549/472 478/28/478
f 466/552/466 465/550/465 3/29/3
